<svg width="20" height="20" viewBox="0 0 20 20" fill="none" xmlns="http://www.w3.org/2000/svg">
<path d="M10 12.4922C10.3359 12.4922 10.6084 12.7646 10.6084 13.1006C10.6084 13.4365 10.3359 13.7089 10 13.709C9.66405 13.709 9.39164 13.4365 9.3916 13.1006C9.3916 12.7646 9.66403 12.4922 10 12.4922Z" fill="#1D1F1F" stroke="#1D1F1F" stroke-width="1.5"/>
<path d="M5.37451 8.62402H14.647L15.1401 8.68555C16.1973 8.81769 16.7289 9.1277 17.0425 9.5791C17.3885 10.0772 17.5835 10.9019 17.5835 12.3242V13.874C17.5835 15.556 17.3145 16.3949 16.855 16.8545C16.3954 17.3141 15.5565 17.583 13.8745 17.583H6.12451C4.44298 17.583 3.60458 17.3139 3.14502 16.8545C2.68546 16.3949 2.4165 15.556 2.4165 13.874V12.3242C2.41652 10.9019 2.61154 10.0772 2.95752 9.5791C3.27109 9.12777 3.80283 8.81768 4.85986 8.68555L5.37451 8.62109V8.62402ZM9.99951 9.83301C8.20373 9.83318 6.73291 11.2922 6.73291 13.0996C6.73305 14.8953 8.19225 16.366 9.99951 16.3662C11.8053 16.3662 13.266 14.9054 13.2661 13.0996C13.2661 11.3021 11.7971 9.83301 9.99951 9.83301Z" fill="#1D1F1F" stroke="#1D1F1F" stroke-width="1.5"/>
</svg>
