<svg width="48" height="48" viewBox="0 0 48 48" fill="none" xmlns="http://www.w3.org/2000/svg">
<g clip-path="url(#clip0_5139_67484)">
<path d="M48 24C48 37.2548 37.2548 48 24 48C10.7452 48 0 37.2548 0 24C0 10.7452 10.7452 0 24 0C37.2548 0 48 10.7452 48 24Z" fill="#91CDFF"/>
<path d="M37.0312 30H47.2439C46.9962 30.9622 46.6903 31.901 46.3303 32.8125H43.5938C42.8171 32.8125 42.1875 33.4421 42.1875 34.2188C42.1875 34.9954 41.5579 35.625 40.7812 35.625H25.7812C24.982 35.625 24.3386 34.9583 24.3766 34.1508C24.4122 33.3944 25.0638 32.8125 25.8209 32.8125H34.2188C34.9954 32.8125 35.625 32.1829 35.625 31.4062C35.625 30.6296 36.2546 30 37.0312 30ZM18.2415 32.8125H15.4688C14.6921 32.8125 14.0625 32.1829 14.0625 31.4062C14.0625 30.6296 13.4329 30 12.6562 30H2.3835C1.767 30 1.22072 30.3858 1.01972 30.9374C1.18828 31.4964 1.37662 32.0468 1.58409 32.5879C1.80328 32.7292 2.06344 32.8125 2.34375 32.8125H6.09375C6.87038 32.8125 7.5 33.4421 7.5 34.2188C7.5 34.9954 8.12962 35.625 8.90625 35.625H18.2812C19.0805 35.625 19.724 34.9583 19.6859 34.1508C19.6503 33.3944 18.9987 32.8125 18.2415 32.8125ZM47.9275 22.125H44.7188C43.9421 22.125 43.3125 22.7546 43.3125 23.5312C43.3125 24.3079 43.9421 24.9375 44.7188 24.9375H47.98C47.992 24.6263 48 24.3142 48 24C48 23.369 47.9753 22.7437 47.9275 22.125ZM35.625 18.2812C35.625 19.0579 36.2546 19.6875 37.0312 19.6875H47.6129C47.439 18.729 47.2087 17.7902 46.9246 16.875H37.0312C36.2546 16.875 35.625 17.5046 35.625 18.2812ZM2.34375 25.3125H15.4688C16.2454 25.3125 16.875 24.6829 16.875 23.9062C16.875 23.1296 16.2454 22.5 15.4688 22.5H2.34375C1.56712 22.5 0.9375 23.1296 0.9375 23.9062C0.9375 24.6829 1.56712 25.3125 2.34375 25.3125ZM29.5312 5.625H37.9688C38.3505 5.625 38.6963 5.47237 38.9496 5.22544C37.8068 4.31428 36.5793 3.5055 35.2803 2.8125H29.5312C28.7546 2.8125 28.125 3.44212 28.125 4.21875C28.125 4.99538 28.7546 5.625 29.5312 5.625ZM34.6875 9.84375C34.6875 10.6204 35.3171 11.25 36.0938 11.25H44.3349C43.7139 10.2617 43.0232 9.32194 42.2691 8.4375H36.0938C35.3171 8.4375 34.6875 9.06712 34.6875 9.84375ZM14.9358 13.125C15.735 13.125 16.3785 12.4583 16.3404 11.6508C16.3048 10.8944 15.6532 10.3125 14.8961 10.3125H11.1859C10.4093 10.3125 9.77962 9.68288 9.77962 8.90625C9.77962 8.12962 9.15 7.5 8.37337 7.5H6.57263C5.08003 9.07594 3.79988 10.8545 2.77556 12.7897C3.02091 12.9984 3.33834 13.125 3.68578 13.125H14.9358ZM21.0938 1.875H14.6851C12.9252 2.61684 11.2731 3.56316 9.75675 4.68309C9.78572 4.68488 9.81441 4.6875 9.84375 4.6875H21.0938C21.8704 4.6875 22.5 4.05788 22.5 3.28125C22.5 2.50462 21.8704 1.875 21.0938 1.875Z" fill="#ABDCFF"/>
<path d="M25.3125 43.125H21.5625V17.8125H25.3125V43.125Z" fill="#965028"/>
<path d="M23.4375 43.125V33.75C23.4375 33.2322 23.8572 32.8125 24.375 32.8125H25.3125V43.125H23.4375Z" fill="#B9783D"/>
<path d="M41.716 40.189C37.3277 44.9884 31.0157 47.9992 24 47.9992C16.9843 47.9992 10.6723 44.9884 6.28394 40.189H30.8792L29.7162 37.5007C29.6785 37.4137 29.7791 37.3321 29.8564 37.3869L33.4109 39.9082L35.4765 38.443C35.5538 38.3882 35.6544 38.4697 35.6167 38.5567L34.9106 40.189H41.716Z" fill="#6EA550"/>
<path d="M10.6401 43.939H14.7725L14.0664 42.3068C14.0287 42.2198 14.1293 42.1382 14.2067 42.193L16.2723 43.6583L19.8267 41.1369C19.904 41.0821 20.0046 41.1636 19.9669 41.2507L18.8039 43.939H37.3597C33.5409 46.5028 28.9453 47.9992 24 47.9992C19.0547 47.9992 14.459 46.5028 10.6401 43.939Z" fill="#82CD64"/>
<path d="M41.8125 30.9375H6.1875C5.66972 30.9375 5.25 30.5178 5.25 30V8.4375C5.25 7.91972 5.66972 7.5 6.1875 7.5H41.8125C42.3303 7.5 42.75 7.91972 42.75 8.4375V30C42.75 30.5178 42.3303 30.9375 41.8125 30.9375Z" fill="#FFFAD2"/>
<path d="M8.4375 30.9375H6.1875C5.66972 30.9375 5.25 30.5178 5.25 30V8.4375C5.25 7.91972 5.66972 7.5 6.1875 7.5H8.4375C7.91972 7.5 7.5 7.91972 7.5 8.4375V30C7.5 30.5178 7.91972 30.9375 8.4375 30.9375Z" fill="#FFF5AF"/>
<path d="M40.3125 12.6562V13.5938C40.3125 13.8526 40.1026 14.0625 39.8438 14.0625H29.5312C29.2724 14.0625 29.0625 13.8526 29.0625 13.5938V12.6562C29.0625 12.3974 29.2724 12.1875 29.5312 12.1875H39.8438C40.1026 12.1875 40.3125 12.3974 40.3125 12.6562ZM29.5312 17.8125H35.1562C35.4151 17.8125 35.625 17.6026 35.625 17.3438V16.4062C35.625 16.1474 35.4151 15.9375 35.1562 15.9375H29.5312C29.2724 15.9375 29.0625 16.1474 29.0625 16.4062V17.3438C29.0625 17.6026 29.2724 17.8125 29.5312 17.8125ZM39.8438 20.625H29.5312C29.2724 20.625 29.0625 20.8349 29.0625 21.0938V22.0312C29.0625 22.2901 29.2724 22.5 29.5312 22.5H39.8438C40.1026 22.5 40.3125 22.2901 40.3125 22.0312V21.0938C40.3125 20.8349 40.1026 20.625 39.8438 20.625ZM35.1562 24.375H29.5312C29.2724 24.375 29.0625 24.5849 29.0625 24.8438V25.7812C29.0625 26.0401 29.2724 26.25 29.5312 26.25H35.1562C35.4151 26.25 35.625 26.0401 35.625 25.7812V24.8438C35.625 24.5849 35.4151 24.375 35.1562 24.375Z" fill="#FFE67D"/>
<path d="M24.4399 18.3675H25.2931L25.6834 17.0103L22.725 15.2001V12.7536C22.8242 12.7536 22.9046 12.6731 22.9046 12.5739V12.2148C22.9046 12.1156 22.8242 12.0352 22.725 12.0352H20.9291C20.83 12.0352 20.7495 12.1156 20.7495 12.2148V12.5739C20.7495 12.6731 20.83 12.7536 20.9291 12.7536V14.1011L17.5529 12.0353L9.42236 17.0103L9.67689 18.3675H10.6659V25.4115H10.1216V26.4023H10.6659H24.4399H24.9841V25.4115H24.4399V18.3675ZM17.1518 23.4299H14.486V21.6098H17.1518V23.4299ZM17.1518 20.9528H14.486V19.1328H17.1518V20.9528ZM20.6197 23.4299H17.9539V21.6098H20.6197V23.4299ZM20.6197 20.9528H17.9539V19.1328H20.6197V20.9528Z" fill="#FF5A5F"/>
<path d="M24.4398 25.4113H24.984V26.4022H24.4398H10.6658H10.1216V25.4113H10.6658V25.4062H24.4398V25.4113ZM21.8086 14.6483V12.0352H20.9291C20.8299 12.0352 20.7494 12.1156 20.7494 12.2148V12.5739C20.7494 12.6731 20.8299 12.7536 20.9291 12.7536V14.1011L17.5528 12.0352L9.42236 17.0103L9.6768 18.3675H10.0197L17.5528 13.758L20.9291 15.8239L22.7249 16.9227L25.0859 18.3674H25.293L25.6833 17.0102L21.8086 14.6483ZM21.4453 18.3673V24.164H13.6875V18.3673H21.4453ZM17.1517 21.6097H14.4859V23.4297H17.1517V21.6097ZM17.1517 19.1326H14.4859V20.9527H17.1517V19.1326ZM20.6196 21.6097H17.9538V23.4297H20.6196V21.6097ZM20.6196 19.1326H17.9538V20.9527H20.6196V19.1326Z" fill="#D74646"/>
</g>
<defs>
<clipPath id="clip0_5139_67484">
<rect width="48" height="48" fill="white"/>
</clipPath>
</defs>
</svg>
