<svg width="24" height="24" viewBox="0 0 24 24" fill="none" xmlns="http://www.w3.org/2000/svg">
<path d="M16.19 1.99805H7.81C4.17 1.99805 2 4.16805 2 7.80805V16.178C2 19.828 4.17 21.998 7.81 21.998H16.18C19.82 21.998 21.99 19.828 21.99 16.188V7.80805C22 4.16805 19.83 1.99805 16.19 1.99805ZM16 12.748H12.75V15.998C12.75 16.408 12.41 16.748 12 16.748C11.59 16.748 11.25 16.408 11.25 15.998V12.748H8C7.59 12.748 7.25 12.408 7.25 11.998C7.25 11.588 7.59 11.248 8 11.248H11.25V7.99805C11.25 7.58805 11.59 7.24805 12 7.24805C12.41 7.24805 12.75 7.58805 12.75 7.99805V11.248H16C16.41 11.248 16.75 11.588 16.75 11.998C16.75 12.408 16.41 12.748 16 12.748Z" fill="#666666"/>
</svg>
