<svg width="50" height="25" viewBox="0 0 50 25" fill="none" xmlns="http://www.w3.org/2000/svg">
          <path d="M17.5815 20.5066L12.7519 21.8006C8.3811 22.9718 6.01326 21.6047 4.8421 17.2339L3.548 12.4043C2.37685 8.03347 3.74392 5.66563 8.11474 4.49448L12.9444 3.20038C17.3152 2.02922 19.683 3.3963 20.8542 7.76711L22.1483 12.5967C22.2022 12.798 22.2561 12.9992 22.2918 13.1967C22.3366 13.4608 22.2156 13.7175 21.9834 13.8488C21.7511 13.98 21.4676 13.9525 21.2645 13.7739C21.2339 13.7563 21.1705 13.7128 21.1275 13.6812C20.3819 13.2167 19.5024 13.09 18.6734 13.3122C17.8523 13.5322 17.1659 14.0612 16.7518 14.8019C16.3554 15.512 16.2501 16.3426 16.4637 17.1395C16.6082 17.6788 16.9056 18.1771 17.3146 18.5765C17.5242 18.7792 17.7617 18.9571 18.0103 19.0803C18.049 19.0958 18.0796 19.1135 18.1 19.1253L18.1795 19.1644C18.4057 19.2677 18.5654 19.5096 18.5555 19.7625C18.5456 20.0153 18.3998 20.2441 18.1648 20.333C17.9921 20.3965 17.7828 20.4526 17.5815 20.5066ZM8.43826 5.70188C4.72749 6.69618 3.76112 8.37 4.75541 12.0808L6.04951 16.9104C7.0438 20.6212 8.71762 21.5875 12.4284 20.5932L16.4772 19.5084C16.4649 19.4944 16.4547 19.4885 16.4423 19.4746C15.871 18.9202 15.4509 18.2218 15.2482 17.4652C14.9506 16.3543 15.0968 15.1936 15.6501 14.1999C16.2211 13.1755 17.2068 12.411 18.3418 12.1069C19.1306 11.8955 19.9616 11.9058 20.7236 12.1417L19.6387 8.09279C18.6444 4.38203 16.9706 3.41565 13.2598 4.40994L8.43826 5.70188Z"
                    fill="#8387E2" />
          <path d="M19.5858 7.1233L4.3242 11.2126C3.99418 11.3011 3.64716 11.1007 3.55873 10.7707C3.4703 10.4407 3.67065 10.0937 4.00068 10.0052L19.2623 5.91589C19.5923 5.82746 19.9393 6.02781 20.0278 6.35783C20.1162 6.68786 19.9239 7.03271 19.5858 7.1233Z"
                    fill="#8387E2" />
          <path d="M9.12388 9.80627C8.79385 9.8947 8.44684 9.69435 8.35841 9.36432L7.3102 5.45234C7.22177 5.12231 7.42212 4.7753 7.75214 4.68687C8.08217 4.59844 8.42918 4.79879 8.51761 5.12881L9.56582 9.0408C9.65425 9.37083 9.4539 9.71784 9.12388 9.80627Z"
                    fill="#8387E2" />
          <path d="M14.6289 7.94311C14.2989 8.03154 13.9518 7.83119 13.8634 7.50116L12.9123 3.95136C12.8238 3.62134 13.0242 3.27432 13.3542 3.18589C13.6842 3.09746 14.0312 3.29781 14.1197 3.62784L15.0708 7.17764C15.1614 7.51571 14.967 7.85252 14.6289 7.94311Z"
                    fill="#8387E2" />
          <path d="M20.6144 20.557C19.6646 20.8115 18.6526 20.7376 17.7686 20.336C17.7401 20.3264 17.7116 20.3168 17.6912 20.305C17.6219 20.2718 17.5731 20.2504 17.5322 20.2268C17.514 20.2231 17.5038 20.2172 17.4914 20.2032C17.1224 20.0174 16.7625 19.7688 16.4583 19.4707C15.887 18.9163 15.4669 18.2179 15.2642 17.4613C14.9665 16.3505 15.1128 15.1897 15.6661 14.196C16.2371 13.1717 17.2228 12.4071 18.3578 12.103C19.5491 11.7838 20.8178 11.9788 21.8417 12.6448C21.8519 12.6507 21.8723 12.6625 21.8847 12.6764C21.9561 12.7176 22.0319 12.775 22.0894 12.8286C22.8566 13.3736 23.455 14.2226 23.716 15.1966C23.8109 15.5508 23.8591 15.8916 23.8627 16.2271C23.874 16.6554 23.8187 17.093 23.6947 17.5317C23.2627 19.0106 22.0874 20.1623 20.6144 20.557ZM18.1568 19.1449C18.1853 19.1546 18.2036 19.1584 18.224 19.1701C18.8739 19.4705 19.5804 19.5314 20.2887 19.3416C21.3432 19.059 22.1742 18.2324 22.48 17.1842C22.5698 16.8755 22.6049 16.5555 22.5975 16.2382C22.5935 15.9978 22.5653 15.7638 22.4984 15.5142C22.3129 14.822 21.8924 14.2186 21.3074 13.806L21.209 13.7288C21.1784 13.7111 21.1478 13.6934 21.1231 13.6655C20.3796 13.2091 19.5002 13.0824 18.6711 13.3045C17.85 13.5245 17.1636 14.0536 16.7495 14.7943C16.3531 15.5044 16.2478 16.335 16.4614 17.1319C16.6059 17.6712 16.9033 18.1695 17.3123 18.5689C17.5219 18.7716 17.7594 18.9495 18.0081 19.0727C18.0467 19.0882 18.0773 19.1059 18.0978 19.1177L18.1568 19.1449Z"
                    fill="#8387E2" />
          <path d="M20.9917 16.5563L18.2871 17.281C17.9571 17.3694 17.6101 17.1691 17.5216 16.8391C17.4332 16.509 17.6335 16.162 17.9636 16.0736L20.6681 15.3489C20.9982 15.2605 21.3452 15.4608 21.4336 15.7908C21.522 16.1209 21.3297 16.4657 20.9917 16.5563Z"
                    fill="#8387E2" />
          <path d="M20.0103 18.303C19.6803 18.3914 19.3333 18.191 19.2449 17.861L18.5202 15.1564C18.4317 14.8264 18.6321 14.4794 18.9621 14.391C19.2921 14.3025 19.6391 14.5029 19.7276 14.8329L20.4523 17.5375C20.5428 17.8756 20.3403 18.2145 20.0103 18.303Z"
                    fill="#8387E2" />
          <path d="M36.3306 10.9623C35.2295 10.6672 34.5904 9.48789 34.9019 8.32556C35.2133 7.16323 36.3564 6.46142 37.4576 6.75647C38.5587 7.05152 39.1978 8.23086 38.8863 9.39319C38.5749 10.5555 37.4318 11.2573 36.3306 10.9623ZM37.1502 7.90351C36.6503 7.76957 36.1299 8.08909 35.9885 8.61673C35.8471 9.14437 36.1381 9.6813 36.638 9.81524C37.1378 9.94917 37.6583 9.62965 37.7996 9.10201C37.941 8.57438 37.6501 8.03745 37.1502 7.90351Z"
                    fill="#8387E2" />
          <path d="M38.2184 21.3033L33.8717 20.1386C29.938 19.0846 28.7326 16.8601 29.8452 12.7079L31.0746 8.11972C32.1872 3.96744 34.3433 2.6437 38.277 3.69775L41.1748 4.4742C41.4718 4.55379 41.6485 4.87978 41.5645 5.19331C41.4805 5.50683 41.1645 5.70083 40.8675 5.62124L37.9697 4.84478C34.63 3.94992 33.1059 4.88566 32.1613 8.41089L30.9319 12.999C29.9873 16.5243 30.8394 18.0967 34.1791 18.9916L38.5257 20.1563C41.8654 21.0511 43.3896 20.1154 44.3341 16.5901L45.3586 12.7667C45.4426 12.4532 45.7586 12.2592 46.0556 12.3388C46.3527 12.4183 46.5293 12.7443 46.4453 13.0579L45.4208 16.8813C44.3082 21.0336 42.1521 22.3573 38.2184 21.3033Z"
                    fill="#8387E2" />
          <path d="M46.2292 9.51748L42.2448 8.44985C41.9478 8.37026 41.7711 8.04427 41.8551 7.73075C41.9391 7.41722 42.2551 7.22323 42.5521 7.30281L46.5366 8.37044C46.8336 8.45003 47.0102 8.77602 46.9262 9.08955C46.8422 9.40307 46.5262 9.59706 46.2292 9.51748Z"
                    fill="#8387E2" />
          <path d="M43.674 11.0863C43.377 11.0067 43.2003 10.6807 43.2843 10.3672L44.4113 6.16141C44.4953 5.84789 44.8113 5.65389 45.1083 5.73348C45.4053 5.81306 45.5819 6.13906 45.4979 6.45258L44.371 10.6584C44.287 10.9719 43.971 11.1659 43.674 11.0863Z"
                    fill="#8387E2" />
          <path d="M29.9111 16.5774C29.7373 16.5308 29.588 16.3925 29.5296 16.2047C29.4326 15.9001 29.5941 15.5581 29.8876 15.4482L34.1373 13.8741C35.0672 13.5332 36.1303 13.8836 36.6702 14.7085L36.8498 14.9943C37.1239 15.4202 37.7397 15.5852 38.1828 15.3515L41.928 13.429C42.8896 12.9409 44.0921 13.2631 44.6808 14.1667L45.5748 15.5537C45.7441 15.8203 45.6768 16.1875 45.4156 16.3798C45.1565 16.5644 44.8078 16.5038 44.6313 16.2352L43.7373 14.8482C43.4632 14.4223 42.8474 14.2573 42.4043 14.491L38.6591 16.4135C37.7048 16.9036 36.495 16.5794 35.9063 15.6758L35.7266 15.39C35.4733 15.0025 34.9309 14.8244 34.4897 14.993L30.2472 16.5691C30.1294 16.6031 30.0126 16.6046 29.9111 16.5774Z"
                    fill="#8387E2" />
</svg>