<svg width="14" height="14" viewBox="0 0 14 14" fill="none" xmlns="http://www.w3.org/2000/svg">
<path d="M9.16683 7.40625H4.8335C4.61141 7.40625 4.42725 7.22208 4.42725 7C4.42725 6.77792 4.61141 6.59375 4.8335 6.59375H9.16683C9.38891 6.59375 9.57308 6.77792 9.57308 7C9.57308 7.22208 9.38891 7.40625 9.16683 7.40625Z" fill="#8387E2"/>
<path d="M7 9.57259C6.77792 9.57259 6.59375 9.38843 6.59375 9.16634V4.83301C6.59375 4.61092 6.77792 4.42676 7 4.42676C7.22208 4.42676 7.40625 4.61092 7.40625 4.83301V9.16634C7.40625 9.38843 7.22208 9.57259 7 9.57259Z" fill="#8387E2"/>
<path d="M8.62516 12.8226H5.37516C2.43391 12.8226 1.17725 11.5659 1.17725 8.62467V5.37467C1.17725 2.43342 2.43391 1.17676 5.37516 1.17676H8.62516C11.5664 1.17676 12.8231 2.43342 12.8231 5.37467V8.62467C12.8231 11.5659 11.5664 12.8226 8.62516 12.8226ZM5.37516 1.98926C2.87808 1.98926 1.98975 2.87759 1.98975 5.37467L1.98975 8.62467C1.98975 11.1218 2.87808 12.0101 5.37516 12.0101H8.62516C11.1222 12.0101 12.0106 11.1218 12.0106 8.62467V5.37467C12.0106 2.87759 11.1222 1.98926 8.62516 1.98926L5.37516 1.98926Z" fill="#8387E2"/>
</svg>
