<svg width="16" height="16" viewBox="0 0 16 16" fill="none" xmlns="http://www.w3.org/2000/svg">
<mask id="path-1-inside-1_2198_3260" fill="white">
<path d="M12 8.5H4C3.72667 8.5 3.5 8.27333 3.5 8C3.5 7.72667 3.72667 7.5 4 7.5H12C12.2733 7.5 12.5 7.72667 12.5 8C12.5 8.27333 12.2733 8.5 12 8.5Z"/>
</mask>
<path d="M12 8.5H4C3.72667 8.5 3.5 8.27333 3.5 8C3.5 7.72667 3.72667 7.5 4 7.5H12C12.2733 7.5 12.5 7.72667 12.5 8C12.5 8.27333 12.2733 8.5 12 8.5Z" fill="#053396"/>
<path d="M12 7H4V10H12V7ZM4 7C4.55509 7 5 7.44491 5 8H2C2 9.10176 2.89824 10 4 10V7ZM5 8C5 8.55509 4.55509 9 4 9V6C2.89824 6 2 6.89824 2 8H5ZM4 9H12V6H4V9ZM12 9C11.4449 9 11 8.55509 11 8H14C14 6.89824 13.1018 6 12 6V9ZM11 8C11 7.44491 11.4449 7 12 7V10C13.1018 10 14 9.10176 14 8H11Z" fill="#053396" mask="url(#path-1-inside-1_2198_3260)"/>
<mask id="path-3-inside-2_2198_3260" fill="white">
<path d="M8 12.5C7.72667 12.5 7.5 12.2733 7.5 12V4C7.5 3.72667 7.72667 3.5 8 3.5C8.27333 3.5 8.5 3.72667 8.5 4V12C8.5 12.2733 8.27333 12.5 8 12.5Z"/>
</mask>
<path d="M8 12.5C7.72667 12.5 7.5 12.2733 7.5 12V4C7.5 3.72667 7.72667 3.5 8 3.5C8.27333 3.5 8.5 3.72667 8.5 4V12C8.5 12.2733 8.27333 12.5 8 12.5Z" fill="#053396"/>
<path d="M8 11C8.55509 11 9 11.4449 9 12H6C6 13.1018 6.89824 14 8 14V11ZM9 12V4H6V12H9ZM9 4C9 4.55509 8.55509 5 8 5V2C6.89824 2 6 2.89824 6 4H9ZM8 5C7.44491 5 7 4.55509 7 4H10C10 2.89824 9.10176 2 8 2V5ZM7 4V12H10V4H7ZM7 12C7 11.4449 7.44491 11 8 11V14C9.10176 14 10 13.1018 10 12H7Z" fill="#053396" mask="url(#path-3-inside-2_2198_3260)"/>
</svg>
