<svg width="21" height="20" viewBox="0 0 21 20" fill="none" xmlns="http://www.w3.org/2000/svg">
<path d="M10.4998 14C9.91644 14 9.33311 13.775 8.89144 13.3334L3.45811 7.90003C3.21644 7.65837 3.21644 7.25837 3.45811 7.0167C3.69977 6.77503 4.09977 6.77503 4.34144 7.0167L9.77477 12.45C10.1748 12.85 10.8248 12.85 11.2248 12.45L16.6581 7.0167C16.8998 6.77503 17.2998 6.77503 17.5414 7.0167C17.7831 7.25837 17.7831 7.65837 17.5414 7.90003L12.1081 13.3334C11.6664 13.775 11.0831 14 10.4998 14Z" fill="#1D1F1F"/>
<path d="M10.4998 14C9.91644 14 9.33311 13.775 8.89144 13.3334L3.45811 7.90003C3.21644 7.65837 3.21644 7.25837 3.45811 7.0167C3.69977 6.77503 4.09977 6.77503 4.34144 7.0167L9.77477 12.45C10.1748 12.85 10.8248 12.85 11.2248 12.45L16.6581 7.0167C16.8998 6.77503 17.2998 6.77503 17.5414 7.0167C17.7831 7.25837 17.7831 7.65837 17.5414 7.90003L12.1081 13.3334C11.6664 13.775 11.0831 14 10.4998 14Z" fill="black" fill-opacity="0.2"/>
</svg>
