<svg width="16" height="16" viewBox="0 0 16 16" fill="none" xmlns="http://www.w3.org/2000/svg">
<path d="M12.8453 4.26728L12.8454 4.26727L12.8453 4.26565C12.7758 3.19626 11.8865 2.35039 10.7996 2.35039H5.19961V2.35036L5.19799 2.35042L5.06649 2.35467L5.06649 2.35465L5.06487 2.35475C3.99547 2.42416 3.14961 3.31348 3.14961 4.40039V4.4004L3.15006 6.39984C2.23412 6.6048 1.54961 7.4226 1.54961 8.40039V13.2004H1.54941L1.54981 13.2049L1.55626 13.2768L1.55605 13.2768L1.55686 13.2812C1.59496 13.4912 1.77864 13.6504 1.99961 13.6504C2.24814 13.6504 2.44961 13.4489 2.44961 13.2004V11.2504H13.5496V13.2004H13.5494L13.5498 13.2049L13.5563 13.2768L13.5561 13.2768L13.5569 13.2812C13.595 13.4912 13.7786 13.6504 13.9996 13.6504C14.2481 13.6504 14.4496 13.4489 14.4496 13.2004V8.40039H14.4496L14.4496 8.3987L14.4449 8.26166L14.445 8.26166L14.4449 8.25998C14.383 7.3453 13.7213 6.59536 12.8499 6.40003L12.8496 4.40038H12.8496L12.8496 4.39878L12.8453 4.26728ZM3.59961 7.25039H12.3984L12.5116 7.25577C13.0941 7.31204 13.5496 7.80305 13.5496 8.40039V10.3504H2.44961V8.40158L2.45499 8.28837C2.51126 7.70586 3.00227 7.25039 3.59961 7.25039ZM5.19961 3.25039H10.7984L10.9116 3.25577C11.4941 3.31204 11.9496 3.80305 11.9496 4.40039V6.35039H11.2496V6.00039C11.2496 5.75186 11.0481 5.55039 10.7996 5.55039H8.79961C8.55112 5.55039 8.34961 5.75186 8.34961 6.00039V6.35039H7.64961V6.00039C7.64961 5.75186 7.44814 5.55039 7.19961 5.55039H5.19961C4.95108 5.55039 4.74961 5.75186 4.74961 6.00039V6.35039H4.04961V4.40158L4.05499 4.2884C4.11126 3.70585 4.60227 3.25039 5.19961 3.25039Z" fill="#5960D9" stroke="#5960D9" stroke-width="0.1"/>
</svg>
