<svg width="14" height="12" viewBox="0 0 14 12" fill="none" xmlns="http://www.w3.org/2000/svg">
<path d="M11.8458 2.26728L11.8459 2.26727L11.8458 2.26565C11.7763 1.19626 10.887 0.350391 9.8001 0.350391H4.2001V0.350364L4.19848 0.350417L4.06698 0.354673L4.06698 0.354647L4.06536 0.354752C2.99596 0.42416 2.1501 1.31348 2.1501 2.40039V2.4004L2.15054 4.39984C1.23461 4.6048 0.550098 5.4226 0.550098 6.40039V11.2004H0.549897L0.550297 11.2049L0.556745 11.2768L0.556542 11.2768L0.55735 11.2812C0.595453 11.4912 0.77913 11.6504 1.0001 11.6504C1.24863 11.6504 1.4501 11.4489 1.4501 11.2004V9.25039H12.5501V11.2004H12.5499L12.5503 11.2049L12.5568 11.2768L12.5566 11.2768L12.5574 11.2812C12.5955 11.4912 12.7791 11.6504 13.0001 11.6504C13.2486 11.6504 13.4501 11.4489 13.4501 11.2004V6.40039H13.4501L13.4501 6.3987L13.4454 6.26166L13.4455 6.26166L13.4453 6.25998C13.3835 5.3453 12.7218 4.59536 11.8504 4.40003L11.8501 2.40038H11.8501L11.8501 2.39878L11.8458 2.26728ZM2.6001 5.25039H11.3989L11.5121 5.25577C12.0946 5.31204 12.5501 5.80305 12.5501 6.40039V8.35039H1.4501V6.40158L1.45548 6.28837C1.51174 5.70586 2.00276 5.25039 2.6001 5.25039ZM4.2001 1.25039H9.79891L9.91212 1.25577C10.4946 1.31204 10.9501 1.80305 10.9501 2.40039V4.35039H10.2501V4.00039C10.2501 3.75186 10.0486 3.55039 9.8001 3.55039H7.8001C7.55161 3.55039 7.3501 3.75186 7.3501 4.00039V4.35039H6.6501V4.00039C6.6501 3.75186 6.44862 3.55039 6.2001 3.55039H4.2001C3.95157 3.55039 3.7501 3.75186 3.7501 4.00039V4.35039H3.0501V2.40158L3.05548 2.2884C3.11174 1.70585 3.60276 1.25039 4.2001 1.25039Z" fill="#666666" stroke="#666666" stroke-width="0.1"/>
</svg>
