<svg width="32" height="32" viewBox="0 0 32 32" fill="none" xmlns="http://www.w3.org/2000/svg">
<path opacity="0.4" d="M20.0133 19.6665V29.3198L4.01335 29.3465V19.6665L4 17.6665V9.42648C4 8.53315 4.45335 7.70644 5.18669 7.2131L10.52 3.65312C11.4134 3.05312 12.5866 3.05312 13.48 3.65312L18.8133 7.2131C19.56 7.70644 20 8.53315 20 9.42648V17.6665L20.0133 19.6665Z" fill="#053396"/>
<path d="M29.3337 28.3322H27.6403V24.3322C28.907 23.9189 29.827 22.7322 29.827 21.3322V18.6655C29.827 16.9189 28.4003 15.4922 26.6536 15.4922C24.907 15.4922 23.4803 16.9189 23.4803 18.6655V21.3322C23.4803 22.7189 24.387 23.8922 25.627 24.3188V28.3322H2.66699C2.12033 28.3322 1.66699 28.7855 1.66699 29.3322C1.66699 29.8789 2.12033 30.3322 2.66699 30.3322H26.5737C26.6003 30.3322 26.6136 30.3455 26.6403 30.3455C26.667 30.3455 26.6804 30.3322 26.707 30.3322H29.3337C29.8803 30.3322 30.3337 29.8789 30.3337 29.3322C30.3337 28.7855 29.8803 28.3322 29.3337 28.3322Z" fill="#053396"/>
<path d="M20.0133 19.668H4.01335L4 17.668H20L20.0133 19.668Z" fill="#053396"/>
<path d="M12 30.332C11.4533 30.332 11 29.8787 11 29.332V24.332C11 23.7854 11.4533 23.332 12 23.332C12.5467 23.332 13 23.7854 13 24.332V29.332C13 29.8787 12.5467 30.332 12 30.332Z" fill="#053396"/>
<path d="M12.0003 14.3346C13.289 14.3346 14.3337 13.29 14.3337 12.0013C14.3337 10.7126 13.289 9.66797 12.0003 9.66797C10.7117 9.66797 9.66699 10.7126 9.66699 12.0013C9.66699 13.29 10.7117 14.3346 12.0003 14.3346Z" fill="#053396"/>
</svg>
