<svg width="32" height="32" viewBox="0 0 32 32" fill="none" xmlns="http://www.w3.org/2000/svg">
<path opacity="0.4" d="M16.667 9.88177V29.3351H5.44029C3.89362 29.3351 2.62695 28.0951 2.62695 26.5751V6.78843C2.62695 3.2951 5.24029 1.70843 8.42695 3.26843L14.3336 6.18843C15.6136 6.8151 16.667 8.48177 16.667 9.88177Z" fill="#053396"/>
<path d="M11.9597 13H7.33301C6.78634 13 6.33301 12.5467 6.33301 12C6.33301 11.4533 6.78634 11 7.33301 11H11.9597C12.5063 11 12.9597 11.4533 12.9597 12C12.9597 12.5467 12.5197 13 11.9597 13Z" fill="#053396"/>
<path d="M11.9597 18.332H7.33301C6.78634 18.332 6.33301 17.8787 6.33301 17.332C6.33301 16.7854 6.78634 16.332 7.33301 16.332H11.9597C12.5063 16.332 12.9597 16.7854 12.9597 17.332C12.9597 17.8787 12.5197 18.332 11.9597 18.332Z" fill="#053396"/>
<path opacity="0.6" d="M29.3337 20.0679V26.0012C29.3337 27.8412 27.8403 29.3345 26.0003 29.3345H16.667V13.8945L17.2937 14.0279L22.6803 15.2279L23.3203 15.3745L26.0403 15.9879C26.6937 16.1212 27.2937 16.3479 27.8137 16.6812C27.8137 16.6945 27.827 16.6945 27.827 16.6945C27.9603 16.7879 28.0937 16.8945 28.2137 17.0145C28.827 17.6279 29.227 18.5212 29.3203 19.8279C29.3203 19.9079 29.3337 19.9879 29.3337 20.0679Z" fill="#053396"/>
<path d="M16.667 13.8945V21.8945C17.2803 22.7079 18.2403 23.2279 19.3337 23.2279C21.187 23.2279 22.6803 21.7345 22.6803 19.8945V15.2412L17.2937 14.0412L16.667 13.8945Z" fill="#053396"/>
<path d="M29.3197 19.8266C29.2264 18.5199 28.8264 17.6266 28.213 17.0132C28.093 16.8932 27.9597 16.7866 27.8264 16.6932C27.8264 16.6932 27.813 16.6932 27.813 16.6799C27.293 16.3466 26.693 16.1199 26.0397 15.9866L23.3197 15.3732L22.6797 15.2266V19.8932C22.6797 21.7199 24.1597 23.2266 26.013 23.2266C27.7997 23.2266 29.2264 21.8266 29.333 20.0799V20.0666C29.333 19.9866 29.3197 19.9066 29.3197 19.8266Z" fill="#053396"/>
</svg>
