<svg width="32" height="32" viewBox="0 0 32 32" fill="none" xmlns="http://www.w3.org/2000/svg">
<path d="M17.3337 30.3337H6.66699C3.44033 30.3337 1.66699 28.5603 1.66699 25.3337V14.667C1.66699 11.4403 3.44033 9.66699 6.66699 9.66699H13.3337C13.8803 9.66699 14.3337 10.1203 14.3337 10.667V25.3337C14.3337 27.4403 15.227 28.3337 17.3337 28.3337C17.8803 28.3337 18.3337 28.787 18.3337 29.3337C18.3337 29.8803 17.8803 30.3337 17.3337 30.3337ZM6.66699 11.667C4.56033 11.667 3.66699 12.5603 3.66699 14.667V25.3337C3.66699 27.4403 4.56033 28.3337 6.66699 28.3337H13.067C12.587 27.547 12.3337 26.547 12.3337 25.3337V11.667H6.66699Z" fill="#5960D9"/>
<path d="M13.3337 11.6663H6.66699C6.12033 11.6663 5.66699 11.213 5.66699 10.6663V7.99967C5.66699 5.97301 7.30699 4.33301 9.33366 4.33301H13.4803C13.787 4.33301 14.0803 4.47965 14.267 4.71965C14.4537 4.97298 14.5203 5.29301 14.4403 5.58634C14.3603 5.87968 14.3337 6.21301 14.3337 6.66634V10.6663C14.3337 11.213 13.8803 11.6663 13.3337 11.6663ZM7.66699 9.66634H12.3337V6.66634C12.3337 6.54634 12.3337 6.43967 12.3337 6.33301H9.33366C8.41366 6.33301 7.66699 7.07967 7.66699 7.99967V9.66634Z" fill="#5960D9"/>
<path d="M18.667 18.3337C18.1203 18.3337 17.667 17.8803 17.667 17.3337V10.667C17.667 10.1203 18.1203 9.66699 18.667 9.66699C19.2137 9.66699 19.667 10.1203 19.667 10.667V17.3337C19.667 17.8803 19.2137 18.3337 18.667 18.3337Z" fill="#5960D9"/>
<path d="M24 18.3337C23.4533 18.3337 23 17.8803 23 17.3337V10.667C23 10.1203 23.4533 9.66699 24 9.66699C24.5467 9.66699 25 10.1203 25 10.667V17.3337C25 17.8803 24.5467 18.3337 24 18.3337Z" fill="#5960D9"/>
<path d="M24.0003 30.3337H18.667C18.1203 30.3337 17.667 29.8803 17.667 29.3337V24.0003C17.667 22.7203 18.7203 21.667 20.0003 21.667H22.667C23.947 21.667 25.0003 22.7203 25.0003 24.0003V29.3337C25.0003 29.8803 24.547 30.3337 24.0003 30.3337ZM19.667 28.3337H23.0003V24.0003C23.0003 23.8137 22.8537 23.667 22.667 23.667H20.0003C19.8137 23.667 19.667 23.8137 19.667 24.0003V28.3337Z" fill="#5960D9"/>
<path d="M8 23.6663C7.45333 23.6663 7 23.213 7 22.6663V17.333C7 16.7863 7.45333 16.333 8 16.333C8.54667 16.333 9 16.7863 9 17.333V22.6663C9 23.213 8.54667 23.6663 8 23.6663Z" fill="#5960D9"/>
<path d="M25.333 30.3337H17.333C14.1063 30.3337 12.333 28.5603 12.333 25.3337V6.66699C12.333 3.44033 14.1063 1.66699 17.333 1.66699H25.333C28.5597 1.66699 30.333 3.44033 30.333 6.66699V25.3337C30.333 28.5603 28.5597 30.3337 25.333 30.3337ZM17.333 3.66699C15.2263 3.66699 14.333 4.56033 14.333 6.66699V25.3337C14.333 27.4403 15.2263 28.3337 17.333 28.3337H25.333C27.4397 28.3337 28.333 27.4403 28.333 25.3337V6.66699C28.333 4.56033 27.4397 3.66699 25.333 3.66699H17.333Z" fill="#5960D9"/>
</svg>
