<svg width="32" height="32" viewBox="0 0 32 32" fill="none" xmlns="http://www.w3.org/2000/svg">
<path opacity="0.6" d="M13.4803 5.33203C13.3736 5.73203 13.3337 6.17203 13.3337 6.66536V10.6654H6.66699V7.9987C6.66699 6.53203 7.86699 5.33203 9.33366 5.33203H13.4803Z" fill="#053396"/>
<path d="M13.3337 25.3346V10.668H6.66699C4.00033 10.668 2.66699 12.0013 2.66699 14.668V25.3346C2.66699 28.0013 4.00033 29.3346 6.66699 29.3346H17.3337C14.667 29.3346 13.3337 28.0013 13.3337 25.3346ZM9.00033 22.668C9.00033 23.2146 8.54699 23.668 8.00033 23.668C7.45366 23.668 7.00033 23.2146 7.00033 22.668V17.3346C7.00033 16.788 7.45366 16.3346 8.00033 16.3346C8.54699 16.3346 9.00033 16.788 9.00033 17.3346V22.668Z" fill="#053396"/>
<path opacity="0.4" d="M18.6663 29.3346H17.333C14.6663 29.3346 13.333 28.0013 13.333 25.3346V6.66797C13.333 4.0013 14.6663 2.66797 17.333 2.66797H25.333C27.9997 2.66797 29.333 4.0013 29.333 6.66797V25.3346C29.333 28.0013 27.9997 29.3346 25.333 29.3346H23.9997" fill="#053396"/>
<path d="M24.0003 24.0013V29.3346H18.667V24.0013C18.667 23.268 19.267 22.668 20.0003 22.668H22.667C23.4003 22.668 24.0003 23.268 24.0003 24.0013Z" fill="#053396"/>
<path d="M18.667 18.3346C18.1203 18.3346 17.667 17.8813 17.667 17.3346V10.668C17.667 10.1213 18.1203 9.66797 18.667 9.66797C19.2137 9.66797 19.667 10.1213 19.667 10.668V17.3346C19.667 17.8813 19.2137 18.3346 18.667 18.3346Z" fill="#053396"/>
<path d="M24 18.3346C23.4533 18.3346 23 17.8813 23 17.3346V10.668C23 10.1213 23.4533 9.66797 24 9.66797C24.5467 9.66797 25 10.1213 25 10.668V17.3346C25 17.8813 24.5467 18.3346 24 18.3346Z" fill="#053396"/>
</svg>
