<svg width="32" height="32" viewBox="0 0 32 32" fill="none" xmlns="http://www.w3.org/2000/svg">
<path d="M14.1336 5.53467V8.0013H12.1603C10.0137 8.0013 8.93367 9.08128 8.93367 11.2279V24.0013H5.53369C3.62702 24.0013 2.66699 23.0413 2.66699 21.1346V5.53467C2.66699 3.628 3.62702 2.66797 5.53369 2.66797H11.267C13.1737 2.66797 14.1336 3.628 14.1336 5.53467Z" fill="#053396"/>
<path opacity="0.4" d="M23.1602 11.2266V26.1067C23.1602 28.2534 22.0936 29.3333 19.9469 29.3333H12.1602C10.0136 29.3333 8.93359 28.2534 8.93359 26.1067V11.2266C8.93359 9.07998 10.0136 8 12.1602 8H19.9469C22.0936 8 23.1602 9.07998 23.1602 11.2266Z" fill="#053396"/>
<path d="M29.3338 5.53467V21.1346C29.3338 23.0413 28.3738 24.0013 26.4671 24.0013H23.1605V11.2279C23.1605 9.08128 22.0939 8.0013 19.9472 8.0013H17.8672V5.53467C17.8672 3.628 18.8271 2.66797 20.7338 2.66797H26.4671C28.3738 2.66797 29.3338 3.628 29.3338 5.53467Z" fill="#053396"/>
<path d="M18.6663 15.668H13.333C12.7863 15.668 12.333 15.2146 12.333 14.668C12.333 14.1213 12.7863 13.668 13.333 13.668H18.6663C19.213 13.668 19.6663 14.1213 19.6663 14.668C19.6663 15.2146 19.213 15.668 18.6663 15.668Z" fill="#053396"/>
<path d="M18.6663 19.668H13.333C12.7863 19.668 12.333 19.2146 12.333 18.668C12.333 18.1213 12.7863 17.668 13.333 17.668H18.6663C19.213 17.668 19.6663 18.1213 19.6663 18.668C19.6663 19.2146 19.213 19.668 18.6663 19.668Z" fill="#053396"/>
<path d="M17 25.332V29.332H15V25.332C15 24.7854 15.4533 24.332 16 24.332C16.5467 24.332 17 24.7854 17 25.332Z" fill="#053396"/>
</svg>
