<svg width="32" height="33" viewBox="0 0 32 33" fill="none" xmlns="http://www.w3.org/2000/svg">
<path opacity="0.4" d="M2.80005 29.8337V8.54036C2.80005 5.86036 4.13345 4.51367 6.78678 4.51367H15.0934C17.7468 4.51367 19.0667 5.86036 19.0667 8.54036V29.8337" fill="#053396"/>
<path d="M14.3334 12.5H7.7334C7.18673 12.5 6.7334 12.0467 6.7334 11.5C6.7334 10.9533 7.18673 10.5 7.7334 10.5H14.3334C14.8801 10.5 15.3334 10.9533 15.3334 11.5C15.3334 12.0467 14.8801 12.5 14.3334 12.5Z" fill="#053396"/>
<path d="M14.3334 17.5H7.7334C7.18673 17.5 6.7334 17.0467 6.7334 16.5C6.7334 15.9533 7.18673 15.5 7.7334 15.5H14.3334C14.8801 15.5 15.3334 15.9533 15.3334 16.5C15.3334 17.0467 14.8801 17.5 14.3334 17.5Z" fill="#053396"/>
<path d="M11 30.834C10.4533 30.834 10 30.3807 10 29.834V24.834C10 24.2873 10.4533 23.834 11 23.834C11.5467 23.834 12 24.2873 12 24.834V29.834C12 30.3807 11.5467 30.834 11 30.834Z" fill="#053396"/>
<path d="M30.6666 28.8341H27.6399V24.8341C28.9066 24.4208 29.8266 23.2341 29.8266 21.8341V19.1675C29.8266 17.4208 28.3999 15.9941 26.6532 15.9941C24.9066 15.9941 23.4799 17.4208 23.4799 19.1675V21.8341C23.4799 23.2208 24.3865 24.3941 25.6265 24.8208V28.8341H1.33325C0.786585 28.8341 0.333252 29.2875 0.333252 29.8341C0.333252 30.3808 0.786585 30.8341 1.33325 30.8341H26.5732C26.5999 30.8341 26.6132 30.8475 26.6399 30.8475C26.6666 30.8475 26.68 30.8341 26.7066 30.8341H30.6666C31.2132 30.8341 31.6666 30.3808 31.6666 29.8341C31.6666 29.2875 31.2132 28.8341 30.6666 28.8341Z" fill="#053396"/>
</svg>
