<svg width="28" height="28" viewBox="0 0 28 28" fill="none" xmlns="http://www.w3.org/2000/svg">
<path d="M6.52148 2.20898C6.86732 2.20901 7.22494 2.2906 7.52051 2.42969L7.52539 2.43164C7.86479 2.58829 8.13874 2.81557 8.33594 3.11133L8.3418 3.12109L8.34766 3.12988L11.0547 6.94434L11.0586 6.9502C11.2757 7.25007 11.4282 7.52162 11.5283 7.77637L11.5332 7.78906L11.5381 7.80078C11.6568 8.07485 11.71 8.32352 11.71 8.54102C11.7099 8.83378 11.6262 9.13372 11.4434 9.43848L11.4365 9.44922L11.4307 9.45996C11.2995 9.69605 11.0803 9.97925 10.7744 10.2852L10.7627 10.2969L9.96973 11.125L9.65723 11.4521L9.7998 11.8809C9.82933 11.9694 9.86193 12.0334 9.87598 12.0615L9.88477 12.0801L9.89551 12.0977C10.0644 12.3932 10.3735 12.8516 10.9316 13.5068L10.9385 13.5146C11.514 14.1723 12.0615 14.779 12.6123 15.3418L12.6172 15.3467L12.6221 15.3525C13.3124 16.0312 13.9016 16.5835 14.4619 17.0469V17.0479C14.8475 17.3726 15.1708 17.6141 15.4375 17.7949L15.3779 18.0469C15.1745 17.9136 14.9532 17.7565 14.7178 17.5723L14.2871 17.2207C13.88 16.8729 13.4444 16.4786 12.9463 16.002L12.4258 15.4961C11.8689 14.9275 11.3118 14.3246 10.7314 13.6533C10.2111 13.0444 9.85827 12.5502 9.64746 12.166L9.54785 11.9199C9.49423 11.7089 9.48829 11.6315 9.48828 11.5625C9.48828 11.3356 9.56494 11.1548 9.71191 11.0078L9.7168 11.0029L9.72168 10.9971L10.5859 10.0967L10.5869 10.0977C10.8528 9.83172 11.071 9.56014 11.2275 9.29395L11.2266 9.29297C11.373 9.05084 11.4599 8.79352 11.46 8.51758C11.46 8.28249 11.3841 8.03677 11.3086 7.85547L11.3037 7.84375L11.2109 7.65137C11.1117 7.46309 10.9883 7.27526 10.8545 7.09277H10.8555L8.14844 3.26562L8.14648 3.2627C7.95667 2.99706 7.71677 2.79484 7.42188 2.65723L7.41406 2.6543L7.40527 2.65039L7.19824 2.57129C6.98603 2.50107 6.75813 2.459 6.52148 2.45898C5.74516 2.45898 5.05587 2.76241 4.44531 3.2793L4.20117 3.50098C3.5914 4.07098 3.15148 4.70874 2.87402 5.41309C2.58983 6.11682 2.45801 6.85511 2.45801 7.63086C2.45804 8.83272 2.74176 10.1104 3.28711 11.3994L3.28809 11.4004C3.83802 12.6958 4.60221 14.0284 5.56445 15.3516C6.52061 16.6663 7.60713 17.9438 8.7998 19.1484L8.80566 19.1533C9.8495 20.1867 10.9661 21.1569 12.1172 22.0312L12.6123 22.3994C13.9129 23.3508 15.2588 24.1281 16.6035 24.6904C18.6968 25.5831 20.7861 25.8483 22.583 25.0996L22.582 25.0986C23.2878 24.8076 23.9048 24.3661 24.4531 23.751L24.4521 23.75C24.7704 23.4023 25.0202 23.0258 25.2246 22.5898C25.4089 22.2036 25.5059 21.7926 25.5059 21.374C25.5059 21.0826 25.4494 20.7922 25.3135 20.4863L25.3066 20.4707L25.2988 20.4551C25.2197 20.2968 25.0747 20.064 24.7354 19.8291H24.7363L20.8623 17.0762L20.8584 17.0732L20.6582 16.9395C20.4601 16.8141 20.2665 16.7118 20.0723 16.6318H20.0703C20.0491 16.6232 20.0286 16.6136 19.999 16.6006C19.973 16.5891 19.9333 16.5719 19.8926 16.5557C19.808 16.522 19.68 16.4768 19.5205 16.4639C19.2036 16.4382 18.9306 16.55 18.6924 16.6895C18.3542 16.8585 18.078 17.0981 17.8242 17.3516L16.9375 18.2266C16.9307 18.2331 16.9222 18.2378 16.915 18.2441L17.1025 17.7588L17.1152 17.7236L17.6533 17.1943L17.6562 17.1914C17.9807 16.8669 18.2697 16.6513 18.5205 16.5215L18.5459 16.5088L18.5703 16.4932C18.9907 16.2333 19.5512 16.1673 20.1611 16.4189C20.4152 16.5266 20.695 16.6755 21.001 16.8896L24.8701 19.6406L24.877 19.6455L24.8848 19.6504C25.2027 19.8652 25.4151 20.1244 25.541 20.417C25.6849 20.7828 25.7451 21.0964 25.7451 21.3975C25.7451 21.8424 25.6424 22.2949 25.4414 22.7256C25.2282 23.1823 24.9671 23.573 24.6348 23.9355L24.6318 23.9395C24.0329 24.6014 23.4008 25.0542 22.6797 25.3447L22.6777 25.3457C21.9629 25.6358 21.1838 25.7919 20.3584 25.792C19.1598 25.792 17.8701 25.5056 16.5078 24.9297C15.1674 24.3598 13.8042 23.5725 12.4658 22.6084C11.2989 21.7502 10.1659 20.8049 9.08301 19.7793L8.62207 19.334C7.41624 18.1161 6.32346 16.8308 5.35645 15.5117H5.35742C4.50256 14.3188 3.80212 13.1349 3.27441 11.9912L3.05859 11.5039C2.48438 10.1341 2.20804 8.83321 2.20801 7.63086C2.20801 6.81216 2.35464 6.04106 2.63477 5.3252L2.63379 5.32422C2.91765 4.60566 3.37807 3.92901 4.01172 3.33691L4.01953 3.33008L4.02637 3.32324C4.80288 2.55681 5.64664 2.20898 6.52148 2.20898ZM16.3945 18.4531C16.2734 18.4618 16.1528 18.448 16.0449 18.4102L15.7939 18.2988C15.7574 18.279 15.7217 18.2554 15.6836 18.2334L16.3945 18.4531Z" fill="#053396" stroke="#053396" stroke-width="1.5"/>
<path d="M17.5 6.29102C18.3603 6.29102 19.3653 6.75727 20.3115 7.7666V7.76758C21.2176 8.73912 21.7078 9.83541 21.708 10.499C21.708 10.5272 21.697 10.5588 21.6699 10.5859C21.6428 10.613 21.6111 10.624 21.583 10.624C21.555 10.6239 21.524 10.6128 21.4971 10.5859C21.47 10.5588 21.458 10.5272 21.458 10.499C21.4579 10.1014 21.2819 9.64442 21.0742 9.25098C20.8509 8.82794 20.5311 8.36711 20.1348 7.94434C19.39 7.1494 18.4471 6.54102 17.5 6.54102C17.4719 6.54102 17.4402 6.53004 17.4131 6.50293C17.386 6.47582 17.375 6.44415 17.375 6.41602C17.375 6.38788 17.386 6.35621 17.4131 6.3291C17.4402 6.30199 17.4719 6.29102 17.5 6.29102Z" fill="#053396" stroke="#053396" stroke-width="1.5"/>
<path d="M25.6667 11.3757C25.1883 11.3757 24.7917 10.979 24.7917 10.5007C24.7917 6.47565 21.525 3.20898 17.5 3.20898C17.0217 3.20898 16.625 2.81232 16.625 2.33398C16.625 1.85565 17.0217 1.45898 17.5 1.45898C22.4817 1.45898 26.5417 5.51898 26.5417 10.5007C26.5417 10.979 26.145 11.3757 25.6667 11.3757Z" fill="#053396"/>
</svg>
