<svg width="20" height="20" viewBox="0 0 20 20" fill="none" xmlns="http://www.w3.org/2000/svg">
<path d="M11.8066 13.2266C11.7127 13.245 11.6315 13.2397 11.5703 13.2275L11.584 13.1572L11.8066 13.2266Z" fill="#053396" stroke="#053396" stroke-width="1.5"/>
<mask id="path-2-inside-1_7401_39751" fill="white">
<path d="M15.4167 8.12467C15.075 8.12467 14.7917 7.84134 14.7917 7.49967C14.7917 7.19967 14.4917 6.57467 13.9917 6.04134C13.5 5.51634 12.9583 5.20801 12.5 5.20801C12.1583 5.20801 11.875 4.92467 11.875 4.58301C11.875 4.24134 12.1583 3.95801 12.5 3.95801C13.3083 3.95801 14.1583 4.39134 14.9 5.18301C15.5917 5.92467 16.0417 6.83301 16.0417 7.49967C16.0417 7.84134 15.7583 8.12467 15.4167 8.12467Z"/>
</mask>
<path d="M15.4167 8.12467C15.075 8.12467 14.7917 7.84134 14.7917 7.49967C14.7917 7.19967 14.4917 6.57467 13.9917 6.04134C13.5 5.51634 12.9583 5.20801 12.5 5.20801C12.1583 5.20801 11.875 4.92467 11.875 4.58301C11.875 4.24134 12.1583 3.95801 12.5 3.95801C13.3083 3.95801 14.1583 4.39134 14.9 5.18301C15.5917 5.92467 16.0417 6.83301 16.0417 7.49967C16.0417 7.84134 15.7583 8.12467 15.4167 8.12467Z" fill="#053396"/>
<path d="M13.9917 6.04134L12.8968 7.06667L12.8974 7.06725L13.9917 6.04134ZM14.9 5.18301L15.997 4.15997L15.9947 4.15748L14.9 5.18301ZM15.4167 8.12467V6.62467C15.9034 6.62467 16.2917 7.01291 16.2917 7.49967H14.7917H13.2917C13.2917 8.66977 14.2466 9.62467 15.4167 9.62467V8.12467ZM14.7917 7.49967H16.2917C16.2917 6.97418 16.0738 6.47608 15.9056 6.15764C15.7064 5.78032 15.4287 5.38098 15.086 5.01543L13.9917 6.04134L12.8974 7.06725C13.0547 7.23503 13.1769 7.41486 13.2527 7.55838C13.2903 7.62958 13.3074 7.6748 13.3123 7.68948C13.3144 7.69608 13.3107 7.68618 13.3058 7.66122C13.3014 7.63877 13.2917 7.58211 13.2917 7.49967H14.7917ZM13.9917 6.04134L15.0865 5.01601C14.4818 4.37029 13.5699 3.70801 12.5 3.70801V5.20801V6.70801C12.4002 6.70801 12.3968 6.6784 12.499 6.73574C12.5941 6.78916 12.7343 6.89312 12.8968 7.06667L13.9917 6.04134ZM12.5 5.20801V3.70801C12.9868 3.70801 13.375 4.09625 13.375 4.58301H11.875H10.375C10.375 5.7531 11.3299 6.70801 12.5 6.70801V5.20801ZM11.875 4.58301H13.375C13.375 5.06977 12.9868 5.45801 12.5 5.45801V3.95801V2.45801C11.3299 2.45801 10.375 3.41291 10.375 4.58301H11.875ZM12.5 3.95801V5.45801C12.7666 5.45801 13.2469 5.61247 13.8053 6.20854L14.9 5.18301L15.9947 4.15748C15.0698 3.17021 13.8501 2.45801 12.5 2.45801V3.95801ZM14.9 5.18301L13.803 6.20605C14.0556 6.47695 14.255 6.76976 14.3851 7.03333C14.4495 7.16373 14.4911 7.27527 14.5154 7.36277C14.5274 7.40584 14.5342 7.43957 14.5379 7.46395C14.5416 7.4885 14.5417 7.50006 14.5417 7.49967H16.0417H17.5417C17.5417 6.29351 16.8129 5.03489 15.997 4.15997L14.9 5.18301ZM16.0417 7.49967H14.5417C14.5417 7.01291 14.9299 6.62467 15.4167 6.62467V8.12467V9.62467C16.5868 9.62467 17.5417 8.66977 17.5417 7.49967H16.0417Z" fill="#053396" mask="url(#path-2-inside-1_7401_39751)"/>
<path d="M18.3333 8.12533C17.9917 8.12533 17.7083 7.84199 17.7083 7.50033C17.7083 4.62533 15.375 2.29199 12.5 2.29199C12.1583 2.29199 11.875 2.00866 11.875 1.66699C11.875 1.32533 12.1583 1.04199 12.5 1.04199C16.0583 1.04199 18.9583 3.94199 18.9583 7.50033C18.9583 7.84199 18.675 8.12533 18.3333 8.12533Z" fill="#053396"/>
</svg>
