<svg width="32" height="32" viewBox="0 0 32 32" fill="none" xmlns="http://www.w3.org/2000/svg">
<path opacity="0.4" d="M29.5733 18.2137C29.3733 16.0137 28.7866 13.667 24.5066 13.667H7.49329C3.21328 13.667 2.63995 16.0137 2.42662 18.2137L1.67995 26.3337C1.58662 27.347 1.91995 28.3603 2.61329 29.1203C3.31995 29.8937 4.31995 30.3337 5.38662 30.3337H7.89329C10.0533 30.3337 10.4666 29.0937 10.7333 28.2803L11 27.4803C11.3066 26.5603 11.3866 26.3337 12.5866 26.3337H19.4133C20.6133 26.3337 20.6533 26.467 21 27.4803L21.2666 28.2803C21.5333 29.0937 21.9466 30.3337 24.1066 30.3337H26.6133C27.6666 30.3337 28.68 29.8937 29.3866 29.1203C30.08 28.3603 30.4133 27.347 30.32 26.3337L29.5733 18.2137Z" fill="#053396"/>
<path d="M28 9.66677H26.6667C26.6533 9.66677 26.6533 9.66677 26.64 9.66677L26.1333 7.25344C25.6533 4.9201 24.6533 2.77344 20.68 2.77344H17H15H11.32C7.34667 2.77344 6.34667 4.9201 5.86667 7.25344L5.36 9.66677C5.34667 9.66677 5.34667 9.66677 5.33333 9.66677H4C3.45333 9.66677 3 10.1201 3 10.6668C3 11.2134 3.45333 11.6668 4 11.6668H4.94667L4.38667 14.3334C5.10667 13.9201 6.10667 13.6668 7.49333 13.6668H24.5067C25.8933 13.6668 26.8933 13.9201 27.6133 14.3334L27.0533 11.6668H28C28.5467 11.6668 29 11.2134 29 10.6668C29 10.1201 28.5467 9.66677 28 9.66677Z" fill="#053396"/>
<path d="M12 21H8C7.45333 21 7 20.5467 7 20C7 19.4533 7.45333 19 8 19H12C12.5467 19 13 19.4533 13 20C13 20.5467 12.5467 21 12 21Z" fill="#053396"/>
<path d="M24 21H20C19.4533 21 19 20.5467 19 20C19 19.4533 19.4533 19 20 19H24C24.5467 19 25 19.4533 25 20C25 20.5467 24.5467 21 24 21Z" fill="#053396"/>
</svg>
