<svg width="32" height="33" viewBox="0 0 32 33" fill="none" xmlns="http://www.w3.org/2000/svg">
<path opacity="0.4" d="M29.5733 18.7127C29.3733 16.5127 28.7866 14.166 24.5066 14.166H7.49329C3.21328 14.166 2.63995 16.5127 2.42662 18.7127L1.67995 26.8327C1.58662 27.846 1.91995 28.8594 2.61329 29.6194C3.31995 30.3927 4.31995 30.8327 5.38662 30.8327H7.89329C10.0533 30.8327 10.4666 29.5927 10.7333 28.7793L11 27.9794C11.3066 27.0594 11.3866 26.8327 12.5866 26.8327H19.4133C20.6133 26.8327 20.6533 26.966 21 27.9794L21.2666 28.7793C21.5333 29.5927 21.9466 30.8327 24.1066 30.8327H26.6133C27.6666 30.8327 28.68 30.3927 29.3866 29.6194C30.08 28.8594 30.4133 27.846 30.32 26.8327L29.5733 18.7127Z" fill="#053396"/>
<path d="M28 10.1668H26.6667C26.6533 10.1668 26.6533 10.1668 26.64 10.1668L26.1333 7.75344C25.6533 5.4201 24.6533 3.27344 20.68 3.27344H17H15H11.32C7.34667 3.27344 6.34667 5.4201 5.86667 7.75344L5.36 10.1668C5.34667 10.1668 5.34667 10.1668 5.33333 10.1668H4C3.45333 10.1668 3 10.6201 3 11.1668C3 11.7134 3.45333 12.1668 4 12.1668H4.94667L4.38667 14.8334C5.10667 14.4201 6.10667 14.1668 7.49333 14.1668H24.5067C25.8933 14.1668 26.8933 14.4201 27.6133 14.8334L27.0533 12.1668H28C28.5467 12.1668 29 11.7134 29 11.1668C29 10.6201 28.5467 10.1668 28 10.1668Z" fill="#053396"/>
<path d="M12 21.5H8C7.45333 21.5 7 21.0467 7 20.5C7 19.9533 7.45333 19.5 8 19.5H12C12.5467 19.5 13 19.9533 13 20.5C13 21.0467 12.5467 21.5 12 21.5Z" fill="#053396"/>
<path d="M24 21.5H20C19.4533 21.5 19 21.0467 19 20.5C19 19.9533 19.4533 19.5 20 19.5H24C24.5467 19.5 25 19.9533 25 20.5C25 21.0467 24.5467 21.5 24 21.5Z" fill="#053396"/>
</svg>
