<svg width="16" height="16" viewBox="0 0 16 16" fill="none" xmlns="http://www.w3.org/2000/svg">
<path d="M4.10686 2.2197L4.10626 2.21989C3.5624 2.38994 3.01872 2.63518 2.57555 3.02887C2.20294 3.35773 1.90051 3.79655 1.78653 4.30121C1.73865 4.50789 1.72891 4.71935 1.74092 4.92473L1.74092 4.92473L1.74098 4.92575C1.77379 5.41807 1.98149 5.88633 2.29217 6.25515L2.29273 6.25579C2.2964 6.2601 2.30011 6.26445 2.30386 6.26884C2.34608 6.31836 2.39283 6.37319 2.44612 6.42507C2.39647 6.47573 2.3458 6.52716 2.295 6.57873C2.20381 6.67129 2.11218 6.76431 2.0252 6.85409C1.91019 6.96817 1.78803 7.09104 1.68567 7.2331C1.32023 7.72103 1.15225 8.35465 1.22523 8.96254C1.27026 9.36298 1.41688 9.7511 1.64737 10.0795C1.7558 10.2397 1.89404 10.3795 2.02218 10.5091C2.06288 10.5502 2.10256 10.5904 2.13994 10.6298L2.13993 10.6298L2.14141 10.6313C2.56346 11.0615 2.98587 11.494 3.4084 11.9266C3.86566 12.3947 4.32304 12.863 4.78023 13.3287L4.78118 13.3297C4.79971 13.3482 4.81889 13.3678 4.83874 13.3882C4.90621 13.4575 4.98136 13.5346 5.06447 13.5986C5.34566 13.8267 5.67861 13.9909 6.03251 14.0675C6.65701 14.2086 7.33692 14.0884 7.87155 13.7253C8.07039 13.595 8.23833 13.4226 8.39431 13.2624C8.43218 13.2235 8.46934 13.1854 8.50607 13.1487L8.50693 13.1478C8.80568 12.8438 9.10477 12.5398 9.40389 12.2358C9.79501 11.8382 10.1862 11.4406 10.5768 11.0427C10.7356 10.8828 10.8924 10.7229 11.0488 10.5633C11.2551 10.3528 11.4609 10.1429 11.6701 9.9344C11.9783 9.93792 12.2869 10.0249 12.5548 10.1822C12.8198 10.3415 13.0385 10.5796 13.1889 10.8567L13.189 10.8569C13.4533 11.3419 13.5385 11.9115 13.5518 12.4792C13.5521 12.7521 13.5569 13.0347 13.6018 13.3149L13.6018 13.3149L13.6021 13.3168C13.6309 13.4804 13.6672 13.669 13.7623 13.8367L13.7623 13.8367L13.7636 13.8389C13.7869 13.8782 13.822 13.9283 13.8704 13.9672C13.9207 14.0077 13.9935 14.0416 14.0819 14.0266L14.082 14.0269L14.0905 14.0248C14.2401 13.9884 14.322 13.854 14.3654 13.7807L14.3655 13.7808L14.3683 13.7756C14.4866 13.5526 14.5505 13.3091 14.6008 13.078L14.6011 13.0764C14.7367 12.4108 14.7739 11.7322 14.7887 11.0637L14.7887 11.0629C14.7944 10.7067 14.7987 10.3368 14.7409 9.97056C14.6086 8.99507 14.1711 8.08258 13.5628 7.33095C13.1785 6.85079 12.7295 6.42899 12.2471 6.05812L12.247 6.05804C11.7603 5.68465 11.2377 5.36013 10.6904 5.08805L10.6899 5.08785C10.3834 4.93688 10.0673 4.79554 9.73798 4.6868C9.73674 4.68594 9.73328 4.68336 9.72695 4.67712C9.72213 4.67237 9.71764 4.6676 9.71133 4.66086C9.70975 4.65918 9.70806 4.65738 9.70622 4.65543C9.69889 4.64763 9.68929 4.63754 9.67835 4.6274C9.59547 4.54083 9.51115 4.4561 9.42771 4.37235L9.41855 4.36316C9.33697 4.2813 9.25631 4.20036 9.17714 4.11806L9.17716 4.11804L9.17536 4.11624C8.82755 3.76908 8.48343 3.42034 8.13892 3.07118C7.87023 2.79887 7.60129 2.52631 7.33017 2.25407L7.33024 2.254L7.32647 2.2505C7.29979 2.22584 7.27895 2.19806 7.2509 2.16069C7.24255 2.14957 7.23357 2.13761 7.22361 2.12462C7.18448 2.07361 7.13195 2.01023 7.05399 1.96608L7.0541 1.96588L7.04741 1.9626C6.94471 1.91227 6.82169 1.87153 6.69054 1.87523C5.82571 1.87926 4.94689 1.96169 4.10686 2.2197ZM5.52664 3.28126C5.53787 3.27976 5.54902 3.27826 5.5601 3.27679L3.93597 4.92816C3.92839 4.93582 3.92001 4.94406 3.9111 4.95282C3.87491 4.98842 3.82992 5.03268 3.79362 5.08165L3.69629 5.21294L3.84849 5.2725C3.88611 5.28722 3.92522 5.30306 3.96515 5.31924C4.03827 5.34887 4.11412 5.3796 4.18855 5.40655C4.46062 5.51546 4.74459 5.58045 5.02173 5.63359L5.0872 5.64614L5.1341 5.59877C5.48173 5.24761 5.82828 4.89491 6.17465 4.5424C6.39194 4.32126 6.60916 4.10019 6.82653 3.87961C6.83907 3.86692 6.85173 3.85414 6.86447 3.84128C6.89431 3.81116 6.9246 3.78059 6.95483 3.74956C7.19768 3.99347 7.43761 4.23878 7.67799 4.48455C7.87874 4.68981 8.07981 4.89539 8.28317 5.10076C8.36889 5.18828 8.45462 5.27581 8.54034 5.36334C9.31315 6.15242 10.086 6.94158 10.8601 7.72955C10.9568 7.83095 11.0515 7.92756 11.1455 8.02346C11.2326 8.11231 11.3191 8.20055 11.406 8.29141C10.7092 8.99838 10.0123 9.70713 9.31559 10.4158C8.63611 11.1069 7.95669 11.798 7.27732 12.4873C7.10217 12.6593 6.86432 12.7639 6.6201 12.7829C6.3266 12.8016 6.02682 12.6867 5.81595 12.4757C5.09882 11.7469 4.38178 11.0178 3.66475 10.2888C3.42544 10.0455 3.18614 9.80215 2.94683 9.55885C2.92895 9.54042 2.91165 9.52294 2.89495 9.50607C2.82881 9.43924 2.77207 9.38192 2.72619 9.31294L2.72624 9.31291L2.724 9.30976C2.43835 8.90787 2.48684 8.29433 2.83039 7.9432L2.83055 7.94303C2.94407 7.82658 3.0596 7.70941 3.17542 7.59196C3.3111 7.45437 3.44717 7.31638 3.58084 7.17867C4.07314 7.3861 4.59014 7.52177 5.1075 7.61917L5.10775 7.61922C5.7462 7.73807 6.39245 7.79554 7.03566 7.82595C7.07218 7.82862 7.11055 7.82903 7.14398 7.82939C7.15493 7.82951 7.16535 7.82962 7.175 7.82981C7.19996 7.83028 7.22231 7.8312 7.24292 7.83315C7.35782 7.97188 7.50781 8.08197 7.67832 8.14502C7.92533 8.23835 8.20349 8.22944 8.44471 8.13021L8.44472 8.13026L8.448 8.1288C8.65439 8.0369 8.83464 7.8758 8.94077 7.66764C9.08752 7.38703 9.09985 7.03652 8.96408 6.74689C8.86753 6.5322 8.69499 6.35627 8.48553 6.25508C8.12806 6.07896 7.68087 6.13946 7.37528 6.38799C7.34197 6.41362 7.3146 6.44351 7.29507 6.46484L7.29232 6.46784C7.28378 6.47716 7.27651 6.485 7.27002 6.49172C6.94883 6.48366 6.62724 6.45814 6.30362 6.42897C5.82177 6.38067 5.3443 6.31284 4.87911 6.19596L4.87877 6.19587C4.60621 6.1282 4.33924 6.04152 4.08492 5.92798C3.84891 5.82075 3.62578 5.69819 3.43714 5.53489C3.29002 5.40407 3.16675 5.26262 3.10876 5.09521C3.04026 4.88432 3.03647 4.65187 3.11371 4.45202L3.1139 4.45153C3.2064 4.20923 3.41147 4.02219 3.64626 3.87229C4.15813 3.54939 4.75909 3.39884 5.36789 3.30131C5.42313 3.29512 5.4757 3.28808 5.52664 3.28126Z" fill="#5960D9" stroke="#5960D9" stroke-width="0.25"/>
</svg>
