<svg width="49" height="49" viewBox="0 0 49 49" fill="none" xmlns="http://www.w3.org/2000/svg">
<g clip-path="url(#clip0_5063_139186)">
<path fill-rule="evenodd" clip-rule="evenodd" d="M19.1611 31.9531H22.1115C22.545 31.9531 22.9023 32.3103 22.9023 32.7439C22.9023 33.1775 22.5451 33.532 22.1115 33.532H19.1611C18.7275 33.532 18.373 33.1775 18.373 32.7439C18.373 32.3103 18.7275 31.9531 19.1611 31.9531Z" fill="#FD4755"/>
<path fill-rule="evenodd" clip-rule="evenodd" d="M47.664 31.9531H44.4846C44.0483 31.9531 43.6938 32.3103 43.6938 32.7439C43.6938 33.1775 44.0483 33.532 44.4846 33.532H47.6641C48.0977 33.532 48.4521 33.1775 48.4521 32.7439C48.4521 32.3103 48.0976 31.9531 47.664 31.9531Z" fill="#FD4755"/>
<path fill-rule="evenodd" clip-rule="evenodd" d="M14.9751 24.0479L28.2352 8.93942L31.9461 12.1964L18.6861 27.3048L14.9751 24.0479Z" fill="#EBB400"/>
<path fill-rule="evenodd" clip-rule="evenodd" d="M29.0211 3.00195L37.7769 10.6887L32.8796 16.2678L24.1211 8.58092L29.0211 3.00195Z" fill="#BD6B1E"/>
<path fill-rule="evenodd" clip-rule="evenodd" d="M29.1085 1.95251L27.8542 0.850945C27.5951 0.624632 27.197 0.649195 26.9707 0.908226L21.7816 6.81719C21.5553 7.07623 21.5799 7.47438 21.8389 7.70341L23.0933 8.80235C23.3523 9.03138 23.7505 9.0041 23.9768 8.74507L29.1658 2.8361C29.3921 2.57698 29.3676 2.17891 29.1085 1.95251Z" fill="#D49051"/>
<path fill-rule="evenodd" clip-rule="evenodd" d="M40.0591 11.5672L38.8074 10.4683C38.5484 10.2392 38.1503 10.2665 37.9212 10.5255L32.7349 16.4345C32.5058 16.6935 32.5331 17.0889 32.7921 17.318L34.0465 18.4169C34.3055 18.646 34.701 18.6187 34.93 18.3597L40.1164 12.4507C40.3455 12.1916 40.3182 11.7962 40.0591 11.5672Z" fill="#D49051"/>
<path fill-rule="evenodd" clip-rule="evenodd" d="M12.505 11.3985L10.8499 9.94238L4.68457 16.9639C5.72895 17.8828 5.71535 17.8719 6.76235 18.7881C7.19866 21.3949 8.39023 23.4618 10.2254 25.0651L15.698 29.8697C16.2979 30.396 17.2169 30.336 17.7431 29.7361C18.2693 29.1389 18.2094 28.2173 17.6095 27.6938L17.9721 28.0101C18.572 28.5363 19.491 28.4764 20.0173 27.8792C20.5408 27.2793 20.4836 26.3603 19.8837 25.8341L20.4509 26.3332C21.0508 26.8594 21.9697 26.7995 22.4959 26.1996C23.0194 25.6024 22.9623 24.6834 22.3624 24.1572L21.7952 23.6582C22.3924 24.1845 23.314 24.1245 23.8376 23.5246C24.3638 22.9274 24.3039 22.0085 23.7067 21.4823L20.0228 18.251L21.986 16.0914C19.1748 12.9337 15.9598 11.6166 12.505 11.3985Z" fill="#FFCEBF"/>
<path d="M21.7948 24.3301C21.6373 24.3301 21.479 24.2751 21.3513 24.1629L19.5327 22.5649C19.2539 22.3199 19.2264 21.8952 19.4714 21.6162C19.7163 21.3374 20.1411 21.3098 20.4201 21.555L22.2388 23.153C22.5176 23.398 22.545 23.8226 22.3 24.1016C22.1671 24.2528 21.9814 24.3301 21.7948 24.3301Z" fill="#FFB09E"/>
<path d="M20.4505 27.0045C20.2931 27.0045 20.1349 26.9496 20.0073 26.8374L17.5969 24.7214C17.3179 24.4765 17.2903 24.0518 17.5352 23.7728C17.78 23.4937 18.2048 23.466 18.4838 23.7112L20.8942 25.8272C21.1732 26.0721 21.2009 26.4968 20.9559 26.7758C20.823 26.9272 20.6372 27.0045 20.4505 27.0045Z" fill="#FFB09E"/>
<path d="M17.9666 28.6898C17.8092 28.6898 17.6511 28.6349 17.5235 28.5228L15.6038 26.8376C15.3248 26.5927 15.2971 26.1681 15.5421 25.8891C15.7869 25.6099 16.2116 25.5822 16.4906 25.8274L18.4104 27.5125C18.6894 27.7574 18.717 28.1821 18.472 28.4611C18.3392 28.6125 18.1534 28.6898 17.9666 28.6898Z" fill="#FFB09E"/>
<path fill-rule="evenodd" clip-rule="evenodd" d="M11.3188 9.40781L7.65119 6.1875L0.547852 14.2806L4.21545 17.4982L11.3188 9.40781Z" fill="#144F87"/>
<path fill-rule="evenodd" clip-rule="evenodd" d="M19.6162 45.469H33.411H47.2086L47.8712 35.9307H33.411H18.9536L19.6162 45.469Z" fill="#FD4755"/>
<path fill-rule="evenodd" clip-rule="evenodd" d="M19.6162 45.4697H25.5115V47.0376C25.5115 47.8965 24.8053 48.6028 23.9463 48.6028H21.1814C20.3197 48.6028 19.6162 47.8965 19.6162 47.0376V45.4697Z" fill="#407093"/>
<path fill-rule="evenodd" clip-rule="evenodd" d="M33.4112 27.4395H25.8826C25.0645 27.4395 24.3638 27.8185 23.9111 28.5001L18.9893 35.9307H33.4113H47.8715L42.9142 28.5001C42.4615 27.8184 41.7608 27.4395 40.9427 27.4395H33.4112Z" fill="#7FE6FA"/>
<path fill-rule="evenodd" clip-rule="evenodd" d="M33.4113 43.0866H31.4944H29.0676L28.3177 41.2924L27.5679 39.501H33.4113H39.2576L38.5077 41.2924L37.7578 43.0866H35.331H33.4113Z" fill="#92160E"/>
<path fill-rule="evenodd" clip-rule="evenodd" d="M21.1572 37.6299L25.0947 38.5351L25.0702 40.4903L21.1572 39.0723V37.6299Z" fill="#FEC804"/>
<path fill-rule="evenodd" clip-rule="evenodd" d="M45.668 37.6299L41.7305 38.5351L41.755 40.4903L45.668 39.0723V37.6299Z" fill="#FEC804"/>
<path fill-rule="evenodd" clip-rule="evenodd" d="M41.3135 45.4697H47.2088V47.0376C47.2088 47.8965 46.5053 48.6028 45.6436 48.6028H42.8786C42.0197 48.6028 41.3135 47.8965 41.3135 47.0376V45.4697Z" fill="#407093"/>
<path fill-rule="evenodd" clip-rule="evenodd" d="M45.8834 35.9307H47.8712L42.9139 28.5001C42.4613 27.8184 41.7605 27.4395 40.9425 27.4395H38.9546C39.7727 27.4395 40.4734 27.8185 40.9261 28.5001L45.8834 35.9307Z" fill="#5ADFFA"/>
<path fill-rule="evenodd" clip-rule="evenodd" d="M44.2612 45.4697V48.6029H45.6437C46.5053 48.6029 47.2088 47.8966 47.2088 47.0377V45.4697H44.2612Z" fill="#386280"/>
<path fill-rule="evenodd" clip-rule="evenodd" d="M22.564 45.4697V48.6029H23.9464C24.8053 48.6029 25.5116 47.8966 25.5116 47.0377V45.4697H22.564Z" fill="#386280"/>
<path fill-rule="evenodd" clip-rule="evenodd" d="M36.9015 9.91992L37.7768 10.6889L32.8795 16.2679L32.0015 15.4989L36.9015 9.91992Z" fill="#A85F1B"/>
<path fill-rule="evenodd" clip-rule="evenodd" d="M29.0211 3.00195L29.8965 3.77089L24.9992 9.34986L24.1211 8.58092L29.0211 3.00195Z" fill="#A85F1B"/>
</g>
<defs>
<clipPath id="clip0_5063_139186">
<rect width="48" height="48" fill="white" transform="translate(0.5 0.649414)"/>
</clipPath>
</defs>
</svg>
