<svg width="24" height="24" viewBox="0 0 24 24" fill="none" xmlns="http://www.w3.org/2000/svg">
<path d="M16.19 1.99805H7.81C4.17 1.99805 2 4.16805 2 7.80805V16.178C2 19.828 4.17 21.998 7.81 21.998H16.18C19.82 21.998 21.99 19.828 21.99 16.188V7.80805C22 4.16805 19.83 1.99805 16.19 1.99805ZM9.11 16.898C9.11 17.178 8.89 17.398 8.61 17.398H5.82C5.54 17.398 5.32 17.178 5.32 16.898V12.278C5.32 11.648 5.83 11.138 6.46 11.138H8.61C8.89 11.138 9.11 11.358 9.11 11.638V16.898ZM13.89 16.898C13.89 17.178 13.67 17.398 13.39 17.398H10.6C10.32 17.398 10.1 17.178 10.1 16.898V7.73805C10.1 7.10805 10.61 6.59805 11.24 6.59805H12.76C13.39 6.59805 13.9 7.10805 13.9 7.73805V16.898H13.89ZM18.68 16.898C18.68 17.178 18.46 17.398 18.18 17.398H15.39C15.11 17.398 14.89 17.178 14.89 16.898V13.348C14.89 13.068 15.11 12.848 15.39 12.848H17.54C18.17 12.848 18.68 13.358 18.68 13.988V16.898Z" fill="#666666"/>
</svg>
