<svg width="20" height="20" viewBox="0 0 20 20" fill="none" xmlns="http://www.w3.org/2000/svg">
<g clip-path="url(#clip0_5063_139242)">
<path d="M17.0711 2.92891C15.1823 1.0402 12.6711 0 10 0C7.32891 0 4.8177 1.0402 2.92895 2.92891C1.0402 4.8177 0 7.32891 0 10C0 12.6711 1.0402 15.1823 2.92895 17.0711C4.8177 18.9598 7.32891 20 10 20C12.0162 20 13.9596 19.4025 15.6202 18.2723C15.9769 18.0295 16.0693 17.5436 15.8265 17.1868C15.5837 16.8302 15.0977 16.7378 14.7411 16.9806C13.3407 17.9337 11.7013 18.4375 10 18.4375C5.34754 18.4375 1.5625 14.6525 1.5625 10C1.5625 5.34754 5.34754 1.5625 10 1.5625C14.6525 1.5625 18.4375 5.34754 18.4375 10C18.4375 11.5531 18.0122 13.0708 17.2077 14.3889C16.9829 14.7573 17.0993 15.238 17.4675 15.4628C17.8358 15.6877 18.3166 15.5712 18.5414 15.203C19.4956 13.6396 20 11.8404 20 10C20 7.32891 18.9598 4.8177 17.0711 2.92891Z" fill="#666666"/>
<path d="M13.2179 6.78157C12.9128 6.47646 12.4182 6.47646 12.1131 6.78157L9.99978 8.89489L7.88646 6.78157C7.58134 6.47646 7.08669 6.47646 6.78161 6.78157C6.47653 7.08669 6.47649 7.58138 6.78161 7.88646L8.89489 9.99978L6.78157 12.1131C6.47646 12.4182 6.47646 12.9129 6.78157 13.218C6.93411 13.3705 7.13403 13.4468 7.33399 13.4468C7.53396 13.4468 7.73388 13.3705 7.88642 13.218L9.99978 11.1047L12.1131 13.218C12.2656 13.3705 12.4656 13.4468 12.6655 13.4468C12.8655 13.4468 13.0654 13.3705 13.2179 13.218C13.5231 12.9129 13.5231 12.4182 13.2179 12.1131L11.1047 9.99978L13.218 7.88646C13.5231 7.58138 13.5231 7.08669 13.2179 6.78157Z" fill="#666666"/>
</g>
<defs>
<clipPath id="clip0_5063_139242">
<rect width="20" height="20" fill="white"/>
</clipPath>
</defs>
</svg>
