<svg width="16" height="16" viewBox="0 0 16 16" fill="none" xmlns="http://www.w3.org/2000/svg">
<path d="M4.10661 2.2197L4.10601 2.21989C3.56216 2.38994 3.01847 2.63518 2.57531 3.02887C2.20269 3.35773 1.90026 3.79655 1.78629 4.30121C1.73841 4.50789 1.72867 4.71935 1.74068 4.92473L1.74067 4.92473L1.74074 4.92575C1.77354 5.41807 1.98125 5.88633 2.29193 6.25515L2.29248 6.25579C2.29616 6.2601 2.29987 6.26445 2.30361 6.26884C2.34584 6.31836 2.39259 6.37319 2.44588 6.42507C2.39622 6.47573 2.34556 6.52716 2.29475 6.57873C2.20357 6.67129 2.11194 6.76431 2.02495 6.85409C1.90994 6.96817 1.78779 7.09104 1.68543 7.2331C1.31999 7.72103 1.152 8.35465 1.22498 8.96254C1.27001 9.36298 1.41664 9.7511 1.64713 10.0795C1.75556 10.2397 1.8938 10.3795 2.02193 10.5091C2.06263 10.5502 2.10231 10.5904 2.1397 10.6298L2.13968 10.6298L2.14116 10.6313C2.56321 11.0615 2.98563 11.494 3.40816 11.9266C3.86541 12.3947 4.3228 12.863 4.77998 13.3287L4.78094 13.3297C4.79946 13.3482 4.81865 13.3678 4.8385 13.3882C4.90597 13.4575 4.98112 13.5346 5.06423 13.5986C5.34542 13.8267 5.67837 13.9909 6.03227 14.0675C6.65676 14.2086 7.33668 14.0884 7.87131 13.7253C8.07015 13.595 8.23808 13.4226 8.39407 13.2624C8.43193 13.2235 8.4691 13.1854 8.50583 13.1487L8.50669 13.1478C8.80544 12.8438 9.10452 12.5398 9.40364 12.2358C9.79476 11.8382 10.1859 11.4406 10.5765 11.0427C10.7354 10.8828 10.8921 10.7229 11.0485 10.5633C11.2549 10.3528 11.4606 10.1429 11.6698 9.9344C11.978 9.93792 12.2866 10.0249 12.5546 10.1822C12.8196 10.3415 13.0382 10.5796 13.1887 10.8567L13.1888 10.8569C13.453 11.3419 13.5382 11.9115 13.5516 12.4792C13.5519 12.7521 13.5566 13.0347 13.6016 13.3149L13.6016 13.3149L13.6019 13.3168C13.6306 13.4804 13.667 13.669 13.762 13.8367L13.762 13.8367L13.7633 13.8389C13.7866 13.8782 13.8217 13.9283 13.8702 13.9672C13.9205 14.0077 13.9932 14.0416 14.0817 14.0266L14.0817 14.0269L14.0902 14.0248C14.2399 13.9884 14.3218 13.854 14.3652 13.7807L14.3653 13.7808L14.368 13.7756C14.4864 13.5526 14.5503 13.3091 14.6005 13.078L14.6009 13.0764C14.7365 12.4108 14.7737 11.7322 14.7884 11.0637L14.7885 11.0629C14.7942 10.7067 14.7985 10.3368 14.7406 9.97056C14.6084 8.99507 14.1708 8.08258 13.5626 7.33095C13.1783 6.85079 12.7292 6.42899 12.2468 6.05812L12.2467 6.05804C11.76 5.68465 11.2375 5.36013 10.6901 5.08805L10.6897 5.08785C10.3832 4.93688 10.0671 4.79554 9.73773 4.6868C9.7365 4.68594 9.73303 4.68336 9.72671 4.67712C9.72188 4.67237 9.7174 4.6676 9.71108 4.66086C9.70951 4.65918 9.70782 4.65738 9.70598 4.65543C9.69864 4.64763 9.68904 4.63754 9.6781 4.6274C9.59522 4.54083 9.51091 4.4561 9.42746 4.37235L9.4183 4.36316C9.33673 4.2813 9.25607 4.20036 9.1769 4.11806L9.17692 4.11804L9.17512 4.11624C8.8273 3.76908 8.48319 3.42034 8.13868 3.07118C7.86998 2.79887 7.60105 2.52631 7.32992 2.25407L7.33 2.254L7.32622 2.2505C7.29955 2.22584 7.2787 2.19806 7.25066 2.16069C7.24231 2.14957 7.23333 2.13761 7.22337 2.12462C7.18424 2.07361 7.13171 2.01023 7.05375 1.96608L7.05386 1.96588L7.04716 1.9626C6.94447 1.91227 6.82145 1.87153 6.69029 1.87523C5.82546 1.87926 4.94665 1.96169 4.10661 2.2197ZM5.5264 3.28126C5.53763 3.27976 5.54878 3.27826 5.55986 3.27679L3.93573 4.92816C3.92815 4.93582 3.91977 4.94406 3.91086 4.95282C3.87467 4.98842 3.82968 5.03268 3.79337 5.08165L3.69604 5.21294L3.84824 5.2725C3.88586 5.28722 3.92498 5.30306 3.9649 5.31924C4.03802 5.34887 4.11388 5.3796 4.18831 5.40655C4.46038 5.51546 4.74434 5.58045 5.02149 5.63359L5.08696 5.64614L5.13386 5.59877C5.48149 5.24761 5.82804 4.89491 6.17441 4.5424C6.3917 4.32126 6.60892 4.10019 6.82629 3.87961C6.83883 3.86692 6.85149 3.85414 6.86422 3.84128C6.89407 3.81116 6.92436 3.78059 6.95459 3.74956C7.19744 3.99347 7.43736 4.23878 7.67775 4.48455C7.8785 4.68981 8.07956 4.89539 8.28292 5.10076C8.36865 5.18828 8.45437 5.27581 8.5401 5.36334C9.31291 6.15242 10.0858 6.94158 10.8598 7.72955C10.9565 7.83095 11.0512 7.92756 11.1453 8.02346C11.2324 8.11231 11.3189 8.20055 11.4058 8.29141C10.7089 8.99838 10.0121 9.70713 9.31535 10.4158C8.63587 11.1069 7.95645 11.798 7.27708 12.4873C7.10192 12.6593 6.86407 12.7639 6.61986 12.7829C6.32636 12.8016 6.02658 12.6867 5.81571 12.4757C5.09858 11.7469 4.38154 11.0178 3.66451 10.2888C3.4252 10.0455 3.18589 9.80215 2.94659 9.55885C2.92871 9.54042 2.91141 9.52294 2.89471 9.50607C2.82856 9.43924 2.77183 9.38192 2.72595 9.31294L2.726 9.31291L2.72376 9.30976C2.43811 8.90787 2.4866 8.29433 2.83015 7.9432L2.83031 7.94303C2.94382 7.82658 3.05936 7.70941 3.17518 7.59196C3.31086 7.45437 3.44693 7.31638 3.5806 7.17867C4.0729 7.3861 4.5899 7.52177 5.10726 7.61917L5.10751 7.61922C5.74595 7.73807 6.3922 7.79554 7.03541 7.82595C7.07194 7.82862 7.11031 7.82903 7.14374 7.82939C7.15468 7.82951 7.1651 7.82962 7.17475 7.82981C7.19972 7.83028 7.22207 7.8312 7.24268 7.83315C7.35758 7.97188 7.50757 8.08197 7.67807 8.14502C7.92509 8.23835 8.20325 8.22944 8.44446 8.13021L8.44448 8.13026L8.44775 8.1288C8.65415 8.0369 8.8344 7.8758 8.94053 7.66764C9.08728 7.38703 9.0996 7.03652 8.96384 6.74689C8.86729 6.5322 8.69475 6.35627 8.48529 6.25508C8.12782 6.07896 7.68062 6.13946 7.37504 6.38799C7.34172 6.41362 7.31436 6.44351 7.29482 6.46484L7.29208 6.46784C7.28353 6.47716 7.27626 6.485 7.26977 6.49172C6.94858 6.48366 6.62699 6.45814 6.30338 6.42897C5.82153 6.38067 5.34406 6.31284 4.87887 6.19596L4.87853 6.19587C4.60596 6.1282 4.339 6.04152 4.08468 5.92798C3.84866 5.82075 3.62553 5.69819 3.4369 5.53489C3.28977 5.40407 3.16651 5.26262 3.10852 5.09521C3.04002 4.88432 3.03622 4.65187 3.11347 4.45202L3.11366 4.45153C3.20616 4.20923 3.41122 4.02219 3.64602 3.87229C4.15789 3.54939 4.75884 3.39884 5.36764 3.30131C5.42289 3.29512 5.47545 3.28808 5.5264 3.28126Z" fill="#5960D9" stroke="#5960D9" stroke-width="0.25"/>
</svg>
