<svg width="32" height="32" viewBox="0 0 32 32" fill="none" xmlns="http://www.w3.org/2000/svg">
<path d="M21.3332 30.3332H3.99984C2.71984 30.3332 1.6665 29.2798 1.6665 27.9998V10.6665C1.6665 4.77317 4.77317 1.6665 10.6665 1.6665H21.3332C27.2265 1.6665 30.3332 4.77317 30.3332 10.6665V21.3332C30.3332 27.2265 27.2265 30.3332 21.3332 30.3332ZM10.6665 3.6665C5.89317 3.6665 3.6665 5.89317 3.6665 10.6665V27.9998C3.6665 28.1865 3.81317 28.3332 3.99984 28.3332H21.3332C26.1065 28.3332 28.3332 26.1065 28.3332 21.3332V10.6665C28.3332 5.89317 26.1065 3.6665 21.3332 3.6665H10.6665Z" fill="white"/>
<path d="M22.6668 13.6665H9.3335C8.78683 13.6665 8.3335 13.2132 8.3335 12.6665C8.3335 12.1198 8.78683 11.6665 9.3335 11.6665H22.6668C23.2135 11.6665 23.6668 12.1198 23.6668 12.6665C23.6668 13.2132 23.2135 13.6665 22.6668 13.6665Z" fill="white"/>
<path d="M18.6668 20.3335H9.3335C8.78683 20.3335 8.3335 19.8802 8.3335 19.3335C8.3335 18.7868 8.78683 18.3335 9.3335 18.3335H18.6668C19.2135 18.3335 19.6668 18.7868 19.6668 19.3335C19.6668 19.8802 19.2135 20.3335 18.6668 20.3335Z" fill="white"/>
</svg>
