<svg width="20" height="20" viewBox="0 0 20 20" fill="none" xmlns="http://www.w3.org/2000/svg">
<path d="M9.24996 18.9587H5.74996C2.49163 18.9587 1.04163 17.5087 1.04163 14.2503V10.7503C1.04163 7.49199 2.49163 6.04199 5.74996 6.04199H9.24996C12.5083 6.04199 13.9583 7.49199 13.9583 10.7503V14.2503C13.9583 17.5087 12.5083 18.9587 9.24996 18.9587ZM5.74996 7.29199C3.16663 7.29199 2.29163 8.16699 2.29163 10.7503V14.2503C2.29163 16.8337 3.16663 17.7087 5.74996 17.7087H9.24996C11.8333 17.7087 12.7083 16.8337 12.7083 14.2503V10.7503C12.7083 8.16699 11.8333 7.29199 9.24996 7.29199H5.74996Z" fill="#333333"/>
<path d="M14.25 13.9587H13.3333C12.9916 13.9587 12.7083 13.6753 12.7083 13.3337V10.7503C12.7083 8.16699 11.8333 7.29199 9.24996 7.29199H6.66663C6.32496 7.29199 6.04163 7.00866 6.04163 6.66699V5.75033C6.04163 2.49199 7.49163 1.04199 10.75 1.04199H14.25C17.5083 1.04199 18.9583 2.49199 18.9583 5.75033V9.25033C18.9583 12.5087 17.5083 13.9587 14.25 13.9587ZM13.9583 12.7087H14.25C16.8333 12.7087 17.7083 11.8337 17.7083 9.25033V5.75033C17.7083 3.16699 16.8333 2.29199 14.25 2.29199H10.75C8.16663 2.29199 7.29163 3.16699 7.29163 5.75033V6.04199H9.24996C12.5083 6.04199 13.9583 7.49199 13.9583 10.7503V12.7087Z" fill="#333333"/>
</svg>
