<svg width="48" height="48" viewBox="0 0 48 48" fill="none" xmlns="http://www.w3.org/2000/svg">
<g clip-path="url(#clip0_5139_67460)">
<path fill-rule="evenodd" clip-rule="evenodd" d="M24.0002 5.14258L32.5188 10.7625L41.0346 16.3825V27.6224V37.6789H6.96582V27.6224V16.3825L15.4816 10.7625L24.0002 5.14258Z" fill="#FFD54F"/>
<path fill-rule="evenodd" clip-rule="evenodd" d="M24.0002 6.87414L6.96582 18.114V16.3825L15.4816 10.7625L24.0002 5.14258L32.5188 10.7625L41.0346 16.3825V18.114L24.0002 6.87414Z" fill="#FFB300"/>
<path fill-rule="evenodd" clip-rule="evenodd" d="M24.0001 0.046875L34.1902 6.77119L44.3803 13.4928V18.5892L34.1902 11.8649L24.0001 5.14331L13.81 11.8649L3.61987 18.5892V13.4928L13.81 6.77119L24.0001 0.046875Z" fill="#F44335"/>
<path fill-rule="evenodd" clip-rule="evenodd" d="M28.7774 35.5385L29.3991 35.0123C30.0618 34.4533 31.0625 34.5378 31.6215 35.2005L39.7474 44.8343C40.3091 45.4969 40.2218 46.4977 39.5592 47.0567L38.9375 47.5829C38.2748 48.1419 37.2769 48.0574 36.7178 47.3947L28.5891 37.7609C28.0302 37.0956 28.1148 36.0976 28.7774 35.5385Z" fill="#F44335"/>
<path fill-rule="evenodd" clip-rule="evenodd" d="M14.9062 17.8267C17.7721 15.408 21.4588 14.2545 25.1917 14.5708C28.922 14.8872 32.3605 16.6459 34.7791 19.5091C37.1951 22.375 38.3513 26.0617 38.035 29.7946C37.7869 32.7205 36.6497 35.4664 34.7901 37.6806H13.2074C10.7997 34.8175 9.6517 31.139 9.96801 27.4141C10.2843 23.6812 12.0431 20.2426 14.9062 17.8267Z" fill="#FFB300"/>
<path fill-rule="evenodd" clip-rule="evenodd" d="M15.3833 18.3902C20.9978 13.6537 29.4754 14.3708 34.2119 19.9853C38.951 25.6025 38.2312 34.0774 32.6167 38.814C27.0023 43.5531 18.5246 42.8333 13.7882 37.2187C9.05162 31.6042 9.76881 23.1266 15.3833 18.3902Z" fill="#407093"/>
<path fill-rule="evenodd" clip-rule="evenodd" d="M17.2131 20.5581C21.6578 16.8115 28.2976 17.3732 32.0443 21.8152C35.7936 26.2599 35.2292 32.8997 30.7872 36.6464C26.3452 40.3957 19.7055 39.8312 15.9561 35.3893C12.2094 30.9473 12.7712 24.3074 17.2131 20.5581Z" fill="#A2EFFF"/>
<path d="M28.0692 30.8815C27.843 30.8815 27.6222 30.7677 27.495 30.561L25.7744 27.766C25.5794 27.4492 25.6781 27.0343 25.9948 26.8394C26.3116 26.6442 26.7266 26.743 26.9215 27.0598L28.6421 29.8548C28.8371 30.1716 28.7384 30.5865 28.4217 30.7814C28.3115 30.8492 28.1896 30.8815 28.0692 30.8815ZM22.9334 30.557C22.7974 30.557 22.6602 30.5159 22.5413 30.4306C22.239 30.2137 22.1698 29.7928 22.3868 29.4907L24.1128 27.0858C24.3299 26.7833 24.7508 26.7145 25.0527 26.9313C25.3549 27.1482 25.4241 27.5691 25.2072 27.8711L23.4811 30.2761C23.3496 30.4595 23.143 30.557 22.9334 30.557ZM21.3993 30.3552C21.1574 30.3552 20.9236 30.2245 20.803 29.9956L19.3987 27.3315C19.2252 27.0024 19.3513 26.5951 19.6804 26.4217C20.0092 26.2481 20.4167 26.3742 20.5902 26.7034L21.9946 29.3675C22.1682 29.6965 22.042 30.1039 21.7129 30.2773C21.6127 30.3302 21.5052 30.3552 21.3993 30.3552Z" fill="#407093"/>
<path d="M21.2296 25.7435C21.2296 24.6023 20.3012 23.6738 19.16 23.6738C18.0203 23.6738 17.093 24.6023 17.093 25.7435C17.093 26.8833 18.0203 27.8105 19.16 27.8105C20.3011 27.8105 21.2296 26.8833 21.2296 25.7435Z" fill="#64B9FC"/>
<path d="M22.1132 28.9609C20.972 28.9609 20.0435 29.8893 20.0435 31.0306C20.0435 32.1718 20.972 33.1003 22.1132 33.1003C23.2529 33.1003 24.1801 32.1718 24.1801 31.0306C24.1801 29.8893 23.2529 28.9609 22.1132 28.9609Z" fill="#64B9FC"/>
<path d="M27.6594 26.183C27.6594 25.0418 26.731 24.1133 25.5897 24.1133C24.4485 24.1133 23.52 25.0418 23.52 26.183C23.52 27.3227 24.4485 28.25 25.5897 28.25C26.731 28.25 27.6594 27.3226 27.6594 26.183Z" fill="#64B9FC"/>
<path d="M28.8402 29.3926C27.699 29.3926 26.7705 30.3211 26.7705 31.4623C26.7705 32.6035 27.699 33.5319 28.8402 33.5319C29.9814 33.5319 30.9099 32.6035 30.9099 31.4623C30.9099 30.3212 29.9814 29.3926 28.8402 29.3926Z" fill="#64B9FC"/>
</g>
<defs>
<clipPath id="clip0_5139_67460">
<rect width="48" height="48" fill="white"/>
</clipPath>
</defs>
</svg>
