<svg width="16" height="16" viewBox="0 0 16 16" fill="none" xmlns="http://www.w3.org/2000/svg">
<path d="M5.59129 9.94476C4.91349 9.26719 4.23575 8.58964 3.55866 7.91146C4.20044 7.26998 4.84197 6.62838 5.4835 5.98679C6.29273 5.17749 7.10193 4.3682 7.91157 3.55921C8.13996 3.78763 8.36837 4.01593 8.59677 4.24421C9.04616 4.69337 9.49547 5.14245 9.94429 5.59221C9.9164 5.62006 9.88849 5.64792 9.86057 5.67578C9.78047 5.75572 9.70029 5.83575 9.62031 5.91588C9.54653 5.90123 9.47236 5.88631 9.398 5.87136C9.25172 5.84193 9.10474 5.81237 8.95862 5.78443C8.95859 5.78443 8.95856 5.78442 8.95853 5.78442L8.93506 5.90719M5.59129 9.94476L6.87729 7.73065C7.44508 7.16291 8.01292 6.59514 8.58063 6.02725M5.59129 9.94476C5.69927 9.83679 5.80726 9.72883 5.91526 9.62098C5.89824 9.53428 5.88047 9.44603 5.86262 9.35742C5.83577 9.22409 5.80875 9.08992 5.78387 8.9589M5.59129 9.94476L5.78387 8.9589M8.93506 5.90719C8.80615 5.88245 8.66969 5.93193 8.58063 6.02725M8.93506 5.90719C9.0808 5.93506 9.22636 5.96434 9.37189 5.99361L9.37195 5.99362L9.372 5.99363L9.37219 5.99367L9.37226 5.99368L9.37233 5.9937L9.37241 5.99371C9.4688 6.0131 9.56519 6.03249 9.66162 6.05147L8.93506 5.90719ZM8.58063 6.02725L8.49223 5.93887C8.49177 5.93934 8.4913 5.9398 8.49084 5.94026M8.58063 6.02725L8.4893 5.9419C8.48981 5.94136 8.49032 5.94081 8.49084 5.94026M8.49084 5.94026C7.92377 6.50751 7.35659 7.07463 6.78943 7.64173C6.50664 7.92449 6.22385 8.20725 5.94108 8.49002C5.81788 8.60591 5.75029 8.78406 5.78387 8.9589M8.49084 5.94026L5.78387 8.9589M6.78766 1.2085V1.20783L6.77479 1.20916C6.65829 1.22122 6.53394 1.26639 6.44068 1.36178C4.74808 3.05411 3.05575 4.74644 1.36342 6.43904C1.26885 6.53119 1.22041 6.65447 1.20905 6.77459L1.2085 6.77454V6.78636V6.84027V6.84927L1.20979 6.85818C1.22662 6.97446 1.27666 7.09434 1.37212 7.18406C2.13088 7.94202 2.88901 8.70042 3.64712 9.4588C4.12991 9.94177 4.6127 10.4247 5.09564 10.9076L5.09562 10.9076L5.09736 10.9093C5.11379 10.9251 5.12973 10.9415 5.14747 10.9598C5.15171 10.9641 5.15605 10.9686 5.16052 10.9732C5.18281 10.9961 5.20772 11.0213 5.23465 11.0453C5.28815 11.093 5.35546 11.1417 5.44243 11.1665C5.62423 11.2235 5.82655 11.1677 5.95725 11.036C6.1701 10.825 6.38195 10.6129 6.59353 10.401C6.67253 10.3219 6.75149 10.2428 6.83046 10.1638C6.95197 10.0464 7.01501 9.86889 6.98095 9.69669C6.94291 9.49585 6.90214 9.29566 6.86157 9.09641C6.85776 9.07769 6.85395 9.05897 6.85014 9.04027C6.90392 8.98542 6.95815 8.93141 7.01298 8.87678C7.01783 8.87196 7.02268 8.86713 7.02753 8.86229L7.09428 8.92898C7.80109 9.63505 8.50787 10.3411 9.21296 11.0484C8.96673 11.8037 9.05258 12.6586 9.4492 13.3481C9.71327 13.8125 10.1097 14.2012 10.582 14.4525C10.9763 14.6657 11.4198 14.7766 11.8636 14.7918L11.8636 14.7918H11.8679H11.9976V14.7919L12.0016 14.7918C12.4661 14.7768 12.9295 14.6551 13.337 14.4237C13.8004 14.1627 14.1876 13.7698 14.4427 13.3034C14.6562 12.9179 14.7686 12.4841 14.7917 12.0495L14.7918 12.0495V12.0429V11.7996H14.7923L14.7914 11.7894C14.7715 11.5471 14.7347 11.2993 14.6561 11.0598C14.4086 10.2733 13.8008 9.61441 13.0411 9.29837C12.4467 9.0488 11.7668 9.00461 11.146 9.18534C11.1218 9.19162 11.095 9.20079 11.075 9.20764C11.068 9.21004 11.0618 9.21216 11.0569 9.21376C11.0551 9.21434 11.0534 9.21489 11.0517 9.21542C10.6263 8.7936 10.2035 8.37022 9.78051 7.94659C9.47476 7.64041 9.16888 7.3341 8.86179 7.02814C8.8916 6.99823 8.92141 6.96837 8.95124 6.93849C8.98018 6.90949 9.00916 6.88047 9.0382 6.85134C9.12459 6.86813 9.2139 6.88623 9.30382 6.90445C9.43637 6.93131 9.57027 6.95844 9.69822 6.98209C9.87094 7.0155 10.048 6.95101 10.1646 6.82972C10.2666 6.72737 10.3693 6.62498 10.4722 6.52242C10.6651 6.33009 10.8587 6.13714 11.0493 5.9426L11.0497 5.94218C11.2486 5.7374 11.2245 5.39339 11.0197 5.2088C10.0599 4.24822 9.09965 3.28807 8.13953 2.32806C7.82012 2.00867 7.50072 1.6893 7.18135 1.36994C7.08543 1.27042 6.95546 1.21798 6.82647 1.20881L6.82649 1.2085H6.81761H6.78766ZM10.2145 11.3092L10.2146 11.3092L10.2159 11.3052C10.2267 11.2728 10.2381 11.2472 10.2518 11.2167C10.2614 11.1953 10.2721 11.1715 10.2843 11.1413C10.3096 11.0787 10.3349 11.0012 10.3319 10.9123C10.3306 10.7682 10.2634 10.6365 10.1677 10.544L7.75723 8.13308C7.88216 8.00774 8.00722 7.88258 8.13258 7.75767C8.49199 8.11662 8.8514 8.47615 9.21085 8.83571C9.65936 9.28436 10.1079 9.73308 10.5567 10.1809C10.713 10.3401 10.9625 10.3757 11.1576 10.2776C11.5169 10.1087 11.9323 10.0622 12.3197 10.148L12.3208 10.1482C12.7568 10.2407 13.1547 10.5016 13.4154 10.8638L13.4154 10.8638L13.4163 10.8651C13.8205 11.4119 13.8723 12.194 13.5469 12.7914L13.5463 12.7925C13.3394 13.1812 12.9873 13.4919 12.5746 13.6441L12.5739 13.6443C12.1891 13.7888 11.7545 13.798 11.3639 13.6697L11.3633 13.6695C10.959 13.5391 10.6048 13.2599 10.3812 12.8987L10.3808 12.898C10.0872 12.4306 10.0231 11.8264 10.2145 11.3092ZM11.8639 11.6774L11.864 11.6775L11.8701 11.6759C11.9907 11.6437 12.1314 11.7142 12.1745 11.827L12.1743 11.8271L12.1772 11.8335C12.2335 11.9592 12.1644 12.1277 12.039 12.1748L12.0389 12.1746L12.0314 12.178C11.9013 12.2369 11.7265 12.1593 11.6849 12.026L11.6851 12.0259L11.682 12.0179C11.629 11.8815 11.7225 11.7074 11.8639 11.6774ZM5.28894 4.72314C4.46902 5.5429 3.64908 6.36269 2.82957 7.18272C2.72991 7.08348 2.6305 6.98409 2.53097 6.88457C2.50516 6.85877 2.47935 6.83296 2.45352 6.80714C3.90429 5.3559 5.35529 3.9049 6.80653 2.45414C6.93206 2.5793 7.05743 2.70438 7.18228 2.82984C6.55132 3.46099 5.92014 4.09206 5.28894 4.72314ZM6.95033 6.27862C6.85597 6.03595 6.57101 5.90609 6.32738 5.9823C6.05625 6.05704 5.89493 6.36535 5.98396 6.63022C6.06148 6.89741 6.36705 7.0541 6.6287 6.96678C6.91369 6.8859 7.0682 6.54663 6.95033 6.27862ZM12.7259 10.908C12.4432 10.6856 12.0677 10.5956 11.7165 10.6552C11.2402 10.7314 10.827 11.0938 10.6921 11.5577C10.5794 11.9266 10.6413 12.3437 10.8612 12.6626C11.0804 12.9873 11.4519 13.2009 11.8432 13.2254C12.2185 13.2531 12.6018 13.1085 12.8627 12.8352C13.1234 12.5687 13.2578 12.1876 13.2226 11.8166C13.1926 11.4616 13.0081 11.1248 12.7259 10.908Z" fill="#5960D9" stroke="#5960D9" stroke-width="0.25"/>
</svg>
