<svg width="24" height="24" viewBox="0 0 24 24" fill="none" xmlns="http://www.w3.org/2000/svg">
<path d="M12 1.99805C6.48 1.99805 2 6.47805 2 11.998C2 17.518 6.48 21.998 12 21.998C17.52 21.998 22 17.518 22 11.998C22 6.47805 17.52 1.99805 12 1.99805ZM9 7.99805C9.55 7.99805 10 8.44805 10 8.99805C10 9.54805 9.56 9.99805 9 9.99805C8.45 9.99805 8 9.54805 8 8.99805C8 8.44805 8.45 7.99805 9 7.99805ZM9.53 15.528C9.38 15.678 9.19 15.748 9 15.748C8.81 15.748 8.62 15.678 8.47 15.528C8.18 15.238 8.18 14.758 8.47 14.468L14.47 8.46805C14.76 8.17805 15.24 8.17805 15.53 8.46805C15.82 8.75805 15.82 9.23805 15.53 9.52805L9.53 15.528ZM15 15.998C14.44 15.998 13.99 15.548 13.99 14.998C13.99 14.448 14.44 13.998 14.99 13.998C15.54 13.998 15.99 14.448 15.99 14.998C15.99 15.548 15.55 15.998 15 15.998Z" fill="#666666"/>
</svg>
