<svg width="16" height="16" viewBox="0 0 16 16" fill="none" xmlns="http://www.w3.org/2000/svg">
<path d="M10.3844 1.47365C10.1271 1.20032 9.68164 1.38699 9.68164 1.76699V4.09365C9.68164 5.06699 10.4597 5.87365 11.4071 5.87365C12.0032 5.88032 12.8314 5.88032 13.5405 5.88032C13.8981 5.88032 14.0863 5.43365 13.8354 5.16699C12.9318 4.20032 11.313 2.46032 10.3844 1.47365Z" fill="#5960D9"/>
<path d="M9.73186 12.8405C8.25735 12.9539 8.25735 15.2205 9.73186 15.3339H13.2205C13.6409 15.3339 14.055 15.1672 14.3624 14.8672C15.3977 13.9072 14.8456 11.9872 13.484 11.8072C12.9946 8.68053 8.74049 9.8672 9.74441 12.8472" fill="#5960D9"/>
<path d="M13.9611 7.46065V9.62732C13.9611 9.82732 13.685 9.92065 13.547 9.78065C13.2458 9.46732 12.8756 9.22732 12.449 9.08732C11.3948 8.74065 10.1713 9.08065 9.4121 9.93398C8.90386 10.494 8.64661 11.2073 8.65288 11.9807C8.65288 12.1073 8.59641 12.2207 8.5023 12.294C8.00034 12.7007 7.68661 13.3407 7.68661 14.0807C7.68661 14.134 7.68661 14.1873 7.69288 14.2407C7.70543 14.454 7.56112 14.6607 7.35406 14.6607H5.53445C3.6019 14.6607 2.03955 13.3273 2.03955 10.9473V5.04732C2.03955 2.66732 3.6019 1.33398 5.53445 1.33398H8.19485C8.53994 1.33398 8.8223 1.63398 8.8223 2.00065V3.92732C8.8223 5.51398 10.027 6.79398 11.5203 6.79398H13.3337C13.6788 6.79398 13.9611 7.09398 13.9611 7.46065Z" fill="#5960D9"/>
</svg>
