<svg width="49" height="30" viewBox="0 0 49 30" fill="none" xmlns="http://www.w3.org/2000/svg">
<path d="M11.499 5.66406H16.2332C17.704 5.66406 19.1299 6.17022 20.2716 7.09741L23.7114 9.89106H4.05371L7.43705 7.11653C8.5824 6.17734 10.0177 5.66406 11.499 5.66406Z" fill="#9DC6FB"/>
<path d="M20.2716 7.09741C19.1299 6.17022 17.704 5.66406 16.2333 5.66406H12.6274C14.0982 5.66406 15.5241 6.17022 16.6658 7.09741L20.1056 9.89106H23.7114L20.2716 7.09741Z" fill="#80B4FB"/>
<path d="M20.715 6.55159C19.4519 5.52587 17.8603 4.96094 16.2332 4.96094H11.499C9.85965 4.96094 8.25878 5.53338 6.99118 6.57288L2.0874 10.5942H25.6923L20.715 6.55159ZM19.8284 7.64322L21.7304 9.18803H14.3056V6.36728H16.2332C17.5384 6.36719 18.8152 6.82037 19.8284 7.64322ZM7.88293 7.66028C8.89975 6.82638 10.1839 6.36719 11.499 6.36719H12.8994V9.18794H6.02003L7.88293 7.66028Z" fill="#FFE07D"/>
<path d="M38.7314 0.0292969C37.916 0.0292969 37.2549 0.690422 37.2549 1.50586V4.74867H40.208V1.50586C40.208 0.690422 39.547 0.0292969 38.7314 0.0292969Z" fill="#FFD064"/>
<path d="M38.7314 0.0292969C38.4622 0.0292969 38.2105 0.102516 37.9932 0.228422C38.4341 0.483797 38.7314 0.959578 38.7314 1.50586V4.74867H40.208V1.50586C40.208 0.690422 39.547 0.0292969 38.7314 0.0292969Z" fill="#FFC250"/>
<path d="M30.8647 19.9344L32.2883 16.4054C32.7532 15.2528 33.8716 14.498 35.1143 14.498V19.9344H30.8647Z" fill="#30579D"/>
<path d="M33.4415 14.9997V16.6708C33.4415 17.4458 32.8132 18.0741 32.0381 18.0741H31.6151L30.8647 19.9344H35.1143V14.498C34.506 14.4981 33.9281 14.6799 33.4415 14.9997Z" fill="#26457D"/>
<path d="M48.0313 21.0658H34.785L34.7529 4.99919C34.7512 4.22134 35.3813 3.58984 36.1592 3.58984H37.8064C37.8064 3.58984 48.2046 11.3273 48.3042 11.618C48.4332 11.9943 48.5001 12.3914 48.5001 12.7934V14.058L47.668 15.64L48.5001 17.222V19.3914L48.0313 21.0658Z" fill="#E7A561"/>
<path d="M39.6055 16.3418H37.8413C37.4529 16.3418 37.1382 16.027 37.1382 15.6387C37.1382 15.2504 37.4529 14.9355 37.8413 14.9355H39.6055C39.9939 14.9355 40.3086 15.2504 40.3086 15.6387C40.3086 16.027 39.9938 16.3418 39.6055 16.3418Z" fill="#E4936B"/>
<path d="M43.414 5.13419L41.6264 3.84559L39.6072 3.58984C40.2357 3.58984 40.8224 3.90475 41.1698 4.42853L45.3886 10.7901C45.7824 11.384 45.9924 12.0808 45.9924 12.7934V21.0658H48.0312L48.4999 19.3914V17.222L47.6679 15.64L48.4999 14.058V12.7934C48.4999 12.3914 48.4331 11.9943 48.3041 11.618C48.2044 11.3274 43.414 5.13419 43.414 5.13419Z" fill="#E4936B"/>
<path d="M39.1187 11.6188H48.3017C48.2021 11.3281 48.0677 11.049 47.896 10.7901L43.6772 4.42853C43.3298 3.90475 42.743 3.58984 42.1145 3.58984H37.8062V10.3063C37.8062 11.0312 38.3939 11.6188 39.1187 11.6188Z" fill="#9DC6FB"/>
<path d="M41.1699 4.42853L45.3886 10.7901C45.5603 11.049 45.6947 11.3281 45.7944 11.6188H48.3018C48.2022 11.3281 48.0677 11.049 47.8961 10.7901L43.6772 4.42853C43.3299 3.90475 42.7432 3.58984 42.1146 3.58984H39.6072C40.2358 3.58975 40.8225 3.90475 41.1699 4.42853Z" fill="#80B4FB"/>
<path d="M48.5 14.0566H46.3506C45.4768 14.0566 44.7686 14.7649 44.7686 15.6387C44.7686 16.5124 45.4768 17.2207 46.3506 17.2207H48.5V14.0566Z" fill="#FFE07D"/>
<path d="M47.4777 14.0566V15.5399C47.4777 15.9036 47.1828 16.1985 46.819 16.1985H45.3283C45.1595 16.1985 44.9971 16.1715 44.8445 16.1225C45.049 16.7595 45.6456 17.2207 46.3505 17.2207H48.5V14.0566H47.4777Z" fill="#FFD064"/>
<path d="M0.5 20.7969V23.6666C0.5 24.4432 1.12962 25.0728 1.90625 25.0728H47.1464C47.894 25.0728 48.5 24.4048 48.5 23.5808V19.3906H1.90625C1.12962 19.3906 0.5 20.0202 0.5 20.7969Z" fill="#3B66C1"/>
<path d="M45.9926 19.3906L45.9946 22.094C45.9948 22.3533 45.7846 22.5637 45.5253 22.5637H0.5V23.6666C0.5 24.4432 1.12962 25.0728 1.90625 25.0728H47.1464C47.894 25.0728 48.5 24.4048 48.5 23.5808V19.3906H45.9926Z" fill="#30579D"/>
<path d="M39.1301 29.268C40.7547 29.268 42.0717 27.951 42.0717 26.3264C42.0717 24.7018 40.7547 23.3848 39.1301 23.3848C37.5055 23.3848 36.1885 24.7018 36.1885 26.3264C36.1885 27.951 37.5055 29.268 39.1301 29.268Z" fill="#F9F6F9"/>
<path d="M40.2805 23.6191C40.4308 23.9726 40.5141 24.3614 40.5141 24.7695C40.5141 26.3941 39.1971 27.7111 37.5725 27.7111C37.1642 27.7111 36.7755 27.6279 36.4221 27.4775C36.87 28.5303 37.9138 29.2687 39.1301 29.2687C40.7547 29.2687 42.0717 27.9517 42.0717 26.3271C42.0717 25.1108 41.3334 24.067 40.2805 23.6191Z" fill="#DDDAEC"/>
<path d="M39.1302 29.9711C37.1204 29.9711 35.4854 28.3361 35.4854 26.3264C35.4854 24.3166 37.1204 22.6816 39.1302 22.6816C41.1399 22.6816 42.7749 24.3166 42.7749 26.3264C42.7749 28.3361 41.1399 29.9711 39.1302 29.9711ZM39.1302 24.0878C37.8959 24.0878 36.8916 25.092 36.8916 26.3263C36.8916 27.5606 37.8959 28.5647 39.1302 28.5647C40.3645 28.5647 41.3686 27.5606 41.3686 26.3263C41.3686 25.092 40.3645 24.0878 39.1302 24.0878Z" fill="#26457D"/>
<path d="M6.87275 29.268C8.49734 29.268 9.81434 27.951 9.81434 26.3264C9.81434 24.7018 8.49734 23.3848 6.87275 23.3848C5.24815 23.3848 3.93115 24.7018 3.93115 26.3264C3.93115 27.951 5.24815 29.268 6.87275 29.268Z" fill="#F9F6F9"/>
<path d="M8.02317 23.6191C8.17354 23.9726 8.25679 24.3614 8.25679 24.7695C8.25679 26.3941 6.9398 27.7111 5.3152 27.7111C4.90692 27.7111 4.51814 27.6279 4.16479 27.4775C4.61264 28.5303 5.65645 29.2687 6.87276 29.2687C8.49736 29.2687 9.81436 27.9517 9.81436 26.3271C9.81436 25.1108 9.07598 24.067 8.02317 23.6191Z" fill="#DDDAEC"/>
<path d="M6.87275 29.9711C4.86303 29.9711 3.22803 28.3361 3.22803 26.3264C3.22803 24.3166 4.86303 22.6816 6.87275 22.6816C8.88246 22.6816 10.5175 24.3166 10.5175 26.3264C10.5175 28.3361 8.88246 29.9711 6.87275 29.9711ZM6.87275 24.0878C5.63843 24.0878 4.63428 25.092 4.63428 26.3263C4.63428 27.5606 5.63843 28.5647 6.87275 28.5647C8.10706 28.5647 9.11121 27.5606 9.11121 26.3263C9.11121 25.092 8.10706 24.0878 6.87275 24.0878Z" fill="#26457D"/>
<path d="M14.9909 29.268C16.6155 29.268 17.9325 27.951 17.9325 26.3264C17.9325 24.7018 16.6155 23.3848 14.9909 23.3848C13.3663 23.3848 12.0493 24.7018 12.0493 26.3264C12.0493 27.951 13.3663 29.268 14.9909 29.268Z" fill="#F9F6F9"/>
<path d="M16.1413 23.6191C16.2917 23.9726 16.375 24.3614 16.375 24.7695C16.375 26.3941 15.058 27.7111 13.4334 27.7111C13.0251 27.7111 12.6363 27.6279 12.283 27.4775C12.7308 28.5303 13.7746 29.2687 14.9909 29.2687C16.6155 29.2687 17.9325 27.9517 17.9325 26.3271C17.9325 25.1108 17.1942 24.067 16.1413 23.6191Z" fill="#DDDAEC"/>
<path d="M14.9909 29.9711C12.9812 29.9711 11.3462 28.3361 11.3462 26.3264C11.3462 24.3166 12.9812 22.6816 14.9909 22.6816C17.0006 22.6816 18.6356 24.3166 18.6356 26.3264C18.6356 28.3361 17.0006 29.9711 14.9909 29.9711ZM14.9909 24.0878C13.7566 24.0878 12.7524 25.092 12.7524 26.3263C12.7524 27.5606 13.7566 28.5647 14.9909 28.5647C16.2252 28.5647 17.2294 27.5606 17.2294 26.3263C17.2294 25.092 16.2252 24.0878 14.9909 24.0878Z" fill="#26457D"/>
<path d="M23.4335 23.0996H20.6089C20.2205 23.0996 19.9058 22.7848 19.9058 22.3965C19.9058 22.0082 20.2205 21.6934 20.6089 21.6934H23.4335C23.8219 21.6934 24.1366 22.0082 24.1366 22.3965C24.1366 22.7848 23.8218 23.0996 23.4335 23.0996Z" fill="#E7A561"/>
<path d="M29.6032 23.0996H26.7786C26.3902 23.0996 26.0754 22.7848 26.0754 22.3965C26.0754 22.0082 26.3902 21.6934 26.7786 21.6934H29.6032C29.9916 21.6934 30.3063 22.0082 30.3063 22.3965C30.3063 22.7848 29.9916 23.0996 29.6032 23.0996Z" fill="#E7A561"/>
<path d="M29.4571 10.8008C28.3358 10.2962 24.9797 9.5075 23.3931 9.14928C22.8381 9.02394 22.2712 8.96094 21.7022 8.96094H1.75774C1.09924 8.96094 0.56543 9.49475 0.56543 10.1533V11.7147L1.25299 12.9376L0.56543 14.1606V14.3193C0.56543 14.7485 0.747492 15.1574 1.06643 15.4446L2.43696 16.6787C2.73068 16.9432 3.11196 17.0895 3.50721 17.0895H30.0279C30.5265 17.0895 30.9309 16.6853 30.9309 16.1865V14.158L30.0724 13.0252C30.0724 13.0252 30.7867 12.1193 30.5304 11.7228C30.274 11.3265 29.9055 11.0026 29.4571 10.8008Z" fill="#FFE07D"/>
<path d="M29.457 10.7998C29.3649 10.7583 29.2564 10.7148 29.1364 10.6699C29.2459 10.9527 29.3051 11.2575 29.3051 11.5719V14.6785C29.3051 15.1771 28.9009 15.5815 28.4021 15.5815H1.88145C1.50495 15.5815 1.14129 15.4485 0.85376 15.2072C0.915635 15.2925 0.986697 15.3719 1.06629 15.4435L2.43682 16.6776C2.73054 16.9421 3.11182 17.0884 3.50707 17.0884H30.0277C30.5264 17.0884 30.9307 16.6842 30.9307 16.1854V14.157L30.0723 13.0242C30.0723 13.0242 30.7865 12.1183 30.5302 11.7218C30.2738 11.3255 29.9054 11.0016 29.457 10.7998Z" fill="#FFD064"/>
<path d="M30.9308 13.0801C30.9308 12.5848 30.7842 12.113 30.5246 11.7148H28.0294C27.6917 11.7148 27.4935 12.0947 27.6866 12.3717L28.4909 13.5249C28.7677 13.9216 29.2209 14.1582 29.7046 14.1582H30.9309V13.0801H30.9308Z" fill="#F9F6F9"/>
<path d="M30.5244 11.7148H29.9331C29.9545 11.8462 29.9666 11.9802 29.9666 12.1161V12.531C29.9666 12.8973 29.6697 13.1941 29.3035 13.1941H28.7404C28.5468 13.1941 28.3584 13.1557 28.1838 13.0848L28.4908 13.525C28.7675 13.9217 29.2207 14.1583 29.7045 14.1583H30.9307V13.0802C30.9306 12.5848 30.7841 12.113 30.5244 11.7148Z" fill="#DDDAEC"/>
<path d="M0.56543 14.1607H1.72624C2.25509 14.1607 2.72093 13.8129 2.87121 13.3059L3.23571 12.0761C3.28915 11.8958 3.15405 11.7148 2.96609 11.7148H0.56543V14.1607Z" fill="#E28086"/>
<path d="M2.96599 11.7148H2.24824L2.0269 12.4617C1.87662 12.9687 1.41077 13.3166 0.88193 13.3166H0.56543V14.1608H1.72624C2.25509 14.1608 2.72093 13.813 2.87121 13.3059L3.23571 12.0761C3.28915 11.8958 3.15405 11.7148 2.96599 11.7148Z" fill="#DD636E"/>
<path d="M14.9917 12.5605H13.6165C13.228 12.5605 12.9133 12.2457 12.9133 11.8574C12.9133 11.4691 13.228 11.1543 13.6165 11.1543H14.9917C15.3801 11.1543 15.6948 11.4691 15.6948 11.8574C15.6948 12.2457 15.38 12.5605 14.9917 12.5605Z" fill="#FFC250"/>
<path d="M21.3051 11.1619H18.8676C18.6776 11.1619 18.5234 11.0079 18.5234 10.8178V8.98478C18.5234 8.79475 18.6775 8.64062 18.8676 8.64062H19.9028C20.8673 8.64062 21.6493 9.4225 21.6493 10.3871V10.8178C21.6493 11.0078 21.4951 11.1619 21.3051 11.1619Z" fill="#FFD064"/>
<path d="M19.9027 8.64062H18.8675C18.8357 8.64062 18.8055 8.64634 18.7764 8.65441C19.6419 8.75809 20.3132 9.49366 20.3132 10.3871V10.8178C20.3132 11.0078 20.1592 11.1619 19.9691 11.1619H21.305C21.495 11.1619 21.6491 11.0078 21.6491 10.8178V10.3871C21.6491 9.4225 20.8673 8.64062 19.9027 8.64062Z" fill="#FFC250"/>
<path d="M22.7785 18.8022C23.9768 18.8022 24.9482 17.8308 24.9482 16.6325C24.9482 15.4343 23.9768 14.4629 22.7785 14.4629C21.5803 14.4629 20.6089 15.4343 20.6089 16.6325C20.6089 17.8308 21.5803 18.8022 22.7785 18.8022Z" fill="#F9F6F9"/>
<path d="M23.6271 14.6348C23.738 14.8954 23.7994 15.1822 23.7994 15.4833C23.7994 16.6816 22.828 17.653 21.6298 17.653C21.3287 17.653 21.0419 17.5915 20.7812 17.4806C21.1116 18.2572 21.8815 18.8018 22.7786 18.8018C23.9769 18.8018 24.9483 17.8303 24.9483 16.6321C24.9483 15.735 24.4038 14.9651 23.6271 14.6348Z" fill="#DDDAEC"/>
<path d="M22.7786 19.5054C21.1946 19.5054 19.9058 18.2166 19.9058 16.6325C19.9058 15.0485 21.1945 13.7598 22.7786 13.7598C24.3627 13.7598 25.6515 15.0485 25.6515 16.6325C25.6515 18.2166 24.3627 19.5054 22.7786 19.5054ZM22.7786 15.166C21.97 15.166 21.312 15.824 21.312 16.6325C21.312 17.4412 21.97 18.0992 22.7786 18.0992C23.5873 18.0992 24.2453 17.4412 24.2453 16.6325C24.2453 15.824 23.5873 15.166 22.7786 15.166Z" fill="#26457D"/>
<path d="M7.57859 18.8022C8.77686 18.8022 9.74825 17.8308 9.74825 16.6325C9.74825 15.4343 8.77686 14.4629 7.57859 14.4629C6.38032 14.4629 5.40894 15.4343 5.40894 16.6325C5.40894 17.8308 6.38032 18.8022 7.57859 18.8022Z" fill="#F9F6F9"/>
<path d="M8.42717 14.6348C8.53808 14.8954 8.59949 15.1822 8.59949 15.4833C8.59949 16.6816 7.62805 17.653 6.42983 17.653C6.1287 17.653 5.84192 17.5915 5.5813 17.4806C5.91167 18.2572 6.68155 18.8018 7.57864 18.8018C8.77695 18.8018 9.7483 17.8303 9.7483 16.6321C9.7483 15.735 9.2038 14.9651 8.42717 14.6348Z" fill="#DDDAEC"/>
<path d="M7.57859 19.5054C5.99459 19.5054 4.70581 18.2166 4.70581 16.6325C4.70581 15.0485 5.9945 13.7598 7.57859 13.7598C9.16268 13.7598 10.4515 15.0485 10.4515 16.6325C10.4514 18.2166 9.16259 19.5054 7.57859 19.5054ZM7.57859 15.166C6.77 15.166 6.11206 15.824 6.11206 16.6325C6.11206 17.4412 6.77 18.0992 7.57859 18.0992C8.38728 18.0992 9.04522 17.4412 9.04522 16.6325C9.04512 15.824 8.38728 15.166 7.57859 15.166Z" fill="#26457D"/>
</svg>
