<svg width="32" height="33" viewBox="0 0 32 33" fill="none" xmlns="http://www.w3.org/2000/svg">
<path opacity="0.4" d="M14 21.8327H18C21.3333 21.8327 23.3333 19.4327 23.3333 16.4993V9.71269C23.3333 8.31269 22.1866 7.16602 20.7866 7.16602H11.2267C9.82667 7.16602 8.68 8.31269 8.68 9.71269V16.4993C8.66666 19.4327 10.6667 21.8327 14 21.8327Z" fill="#053396"/>
<path d="M13.6667 3.16602V7.16602H11.6667V3.16602C11.6667 2.61935 12.1201 2.16602 12.6667 2.16602C13.2134 2.16602 13.6667 2.61935 13.6667 3.16602Z" fill="#053396"/>
<path d="M20.3333 3.16602V7.16602H18.3333V3.16602C18.3333 2.61935 18.7866 2.16602 19.3333 2.16602C19.8799 2.16602 20.3333 2.61935 20.3333 3.16602Z" fill="#053396"/>
<path d="M17 21.834V29.834C17 30.3807 16.5467 30.834 16 30.834C15.4533 30.834 15 30.3807 15 29.834V21.834H17Z" fill="#053396"/>
</svg>
