<svg width="32" height="32" viewBox="0 0 32 32" fill="none" xmlns="http://www.w3.org/2000/svg">
<path opacity="0.4" d="M14 21.3337H18C21.3333 21.3337 23.3333 18.9337 23.3333 16.0003V9.21366C23.3333 7.81366 22.1866 6.66699 20.7866 6.66699H11.2267C9.82667 6.66699 8.68 7.81366 8.68 9.21366V16.0003C8.66666 18.9337 10.6667 21.3337 14 21.3337Z" fill="#053396"/>
<path d="M13.6667 2.66699V6.66699H11.6667V2.66699C11.6667 2.12033 12.1201 1.66699 12.6667 1.66699C13.2134 1.66699 13.6667 2.12033 13.6667 2.66699Z" fill="#053396"/>
<path d="M20.3333 2.66699V6.66699H18.3333V2.66699C18.3333 2.12033 18.7866 1.66699 19.3333 1.66699C19.8799 1.66699 20.3333 2.12033 20.3333 2.66699Z" fill="#053396"/>
<path d="M17 21.333V29.333C17 29.8797 16.5467 30.333 16 30.333C15.4533 30.333 15 29.8797 15 29.333V21.333H17Z" fill="#053396"/>
</svg>
