<svg width="16" height="16" viewBox="0 0 16 16" fill="none" xmlns="http://www.w3.org/2000/svg">
<path d="M14 10.834H10C9.72667 10.834 9.5 10.6073 9.5 10.334C9.5 10.0607 9.72667 9.83398 10 9.83398H14C14.2733 9.83398 14.5 10.0607 14.5 10.334C14.5 10.6073 14.2733 10.834 14 10.834Z" fill="#5960D9"/>
<path d="M14 13.5H10C9.72667 13.5 9.5 13.2733 9.5 13C9.5 12.7267 9.72667 12.5 10 12.5H14C14.2733 12.5 14.5 12.7267 14.5 13C14.5 13.2733 14.2733 13.5 14 13.5Z" fill="#5960D9"/>
<path d="M14.6667 5.68065V2.65398C14.6667 1.71398 14.24 1.33398 13.18 1.33398H10.4867C9.42667 1.33398 9 1.71398 9 2.65398V5.67398C9 6.62065 9.42667 6.99398 10.4867 6.99398H13.18C14.24 7.00065 14.6667 6.62065 14.6667 5.68065Z" fill="#5960D9"/>
<path d="M7.00016 5.68065V2.65398C7.00016 1.71398 6.5735 1.33398 5.5135 1.33398H2.82016C1.76016 1.33398 1.3335 1.71398 1.3335 2.65398V5.67398C1.3335 6.62065 1.76016 6.99398 2.82016 6.99398H5.5135C6.5735 7.00065 7.00016 6.62065 7.00016 5.68065Z" fill="#5960D9"/>
<path d="M7.00016 13.18V10.4867C7.00016 9.42667 6.5735 9 5.5135 9H2.82016C1.76016 9 1.3335 9.42667 1.3335 10.4867V13.18C1.3335 14.24 1.76016 14.6667 2.82016 14.6667H5.5135C6.5735 14.6667 7.00016 14.24 7.00016 13.18Z" fill="#5960D9"/>
</svg>
