<svg width="21" height="20" viewBox="0 0 21 20" fill="none" xmlns="http://www.w3.org/2000/svg">
<path d="M10.4999 13.1083C8.78441 13.1083 7.3916 11.7155 7.3916 9.99993C7.3916 8.28441 8.78441 6.8916 10.4999 6.8916C12.2155 6.8916 13.6083 8.28441 13.6083 9.99993C13.6083 11.7155 12.2155 13.1083 10.4999 13.1083ZM10.4999 7.1416C8.92379 7.1416 7.6416 8.42379 7.6416 9.99993C7.6416 11.5761 8.92379 12.8583 10.4999 12.8583C12.0761 12.8583 13.3583 11.5761 13.3583 9.99993C13.3583 8.42379 12.0761 7.1416 10.4999 7.1416Z" fill="#1D1F1F" stroke="#1D1F1F"/>
<path d="M2.79628 12.2309L2.79557 12.2298C2.41686 11.6403 2.2124 10.8356 2.2124 10.0032C2.2124 9.17116 2.41671 8.36387 2.79604 7.76959C4.76867 4.69413 7.58387 2.9834 10.4999 2.9834C13.4161 2.9834 16.2311 4.69431 18.1952 7.76922L18.1959 7.77032C18.5746 8.35982 18.7791 9.16457 18.7791 9.99694C18.7791 10.8292 18.5747 11.6367 18.1952 12.231C16.2311 15.3058 13.4161 17.0167 10.4999 17.0167C7.57513 17.0167 4.76021 15.3056 2.79628 12.2309ZM10.4999 3.2334C7.59498 3.2334 4.87822 4.9771 3.01193 7.90581C2.63427 8.49528 2.46449 9.26514 2.46449 10.0001C2.46449 10.7347 2.63416 11.5043 3.01156 12.0937C4.87786 15.0228 7.59479 16.7667 10.4999 16.7667C13.4048 16.7667 16.1216 15.023 17.9879 12.0943C18.3655 11.5049 18.5353 10.735 18.5353 10.0001C18.5353 9.26538 18.3656 8.49578 17.9882 7.90639C16.1219 4.97733 13.405 3.2334 10.4999 3.2334Z" fill="#1D1F1F" stroke="#1D1F1F"/>
</svg>
