<svg width="20" height="20" viewBox="0 0 20 20" fill="none" xmlns="http://www.w3.org/2000/svg">
<path d="M17.725 7.64992C17.4834 7.26659 17.225 6.90825 16.9584 6.57492C16.65 6.18325 16.0667 6.14992 15.7167 6.49992L13.2167 8.99992C13.4 9.54992 13.4334 10.1833 13.2667 10.8416C12.975 12.0166 12.025 12.9666 10.85 13.2583C10.1917 13.4249 9.55837 13.3916 9.00837 13.2083C9.00837 13.2083 7.81671 14.3999 6.95837 15.2583C6.54171 15.6749 6.67504 16.4083 7.23337 16.6249C8.12504 16.9666 9.05004 17.1416 10 17.1416C11.4834 17.1416 12.925 16.7083 14.2417 15.8999C15.5834 15.0666 16.7917 13.8416 17.7667 12.2833C18.5584 11.0249 18.5167 8.90825 17.725 7.64992Z" fill="#1D1F1F"/>
<path d="M11.6834 8.31719L8.3167 11.6839C7.8917 11.2505 7.6167 10.6505 7.6167 10.0005C7.6167 8.69219 8.68337 7.61719 10 7.61719C10.65 7.61719 11.25 7.89219 11.6834 8.31719Z" fill="#1D1F1F"/>
<path d="M15.2082 4.79076L12.3832 7.61576C11.7748 6.99909 10.9332 6.63242 9.99984 6.63242C8.13317 6.63242 6.63317 8.14075 6.63317 9.99909C6.63317 10.9324 7.00817 11.7741 7.6165 12.3824L4.79984 15.2074H4.7915C3.8665 14.4574 3.0165 13.4991 2.2915 12.3658C1.45817 11.0574 1.45817 8.93242 2.2915 7.62409C3.25817 6.10742 4.4415 4.91576 5.75817 4.09909C7.07484 3.29909 8.5165 2.85742 9.99984 2.85742C11.8582 2.85742 13.6582 3.54076 15.2082 4.79076Z" fill="#1D1F1F"/>
<path d="M12.3834 10.001C12.3834 11.3094 11.3167 12.3844 10.0001 12.3844C9.95007 12.3844 9.9084 12.3844 9.8584 12.3677L12.3667 9.85938C12.3834 9.90938 12.3834 9.95104 12.3834 10.001Z" fill="#1D1F1F"/>
<path d="M18.1417 1.85938C17.8917 1.60938 17.4834 1.60938 17.2334 1.85938L1.8584 17.2427C1.6084 17.4927 1.6084 17.901 1.8584 18.151C1.9834 18.2677 2.14173 18.3344 2.3084 18.3344C2.47507 18.3344 2.6334 18.2677 2.7584 18.1427L18.1417 2.75937C18.4001 2.50937 18.4001 2.10938 18.1417 1.85938Z" fill="#1D1F1F"/>
</svg>
