<svg width="20" height="20" viewBox="0 0 20 20" fill="none" xmlns="http://www.w3.org/2000/svg">
<path d="M9.99993 13.1083C8.28441 13.1083 6.8916 11.7155 6.8916 9.99993C6.8916 8.28441 8.28441 6.8916 9.99993 6.8916C11.7155 6.8916 13.1083 8.28441 13.1083 9.99993C13.1083 11.7155 11.7155 13.1083 9.99993 13.1083ZM9.99993 7.1416C8.42379 7.1416 7.1416 8.42379 7.1416 9.99993C7.1416 11.5761 8.42379 12.8583 9.99993 12.8583C11.5761 12.8583 12.8583 11.5761 12.8583 9.99993C12.8583 8.42379 11.5761 7.1416 9.99993 7.1416Z" fill="#053396" stroke="white"/>
<path d="M2.29628 12.2309L2.29557 12.2298C1.91686 11.6403 1.7124 10.8356 1.7124 10.0032C1.7124 9.17116 1.91671 8.36387 2.29604 7.76959C4.26867 4.69413 7.08387 2.9834 9.9999 2.9834C12.9161 2.9834 15.7311 4.69431 17.6952 7.76922L17.6959 7.77032C18.0746 8.35982 18.2791 9.16457 18.2791 9.99694C18.2791 10.8292 18.0747 11.6367 17.6952 12.231C15.7311 15.3058 12.9161 17.0167 9.9999 17.0167C7.07513 17.0167 4.26021 15.3056 2.29628 12.2309ZM9.9999 3.2334C7.09498 3.2334 4.37822 4.9771 2.51193 7.90581C2.13427 8.49528 1.96449 9.26514 1.96449 10.0001C1.96449 10.7347 2.13416 11.5043 2.51156 12.0937C4.37786 15.0228 7.09479 16.7667 9.9999 16.7667C12.9048 16.7667 15.6216 15.023 17.4879 12.0943C17.8655 11.5049 18.0353 10.735 18.0353 10.0001C18.0353 9.26538 17.8656 8.49578 17.4882 7.90639C15.6219 4.97733 12.905 3.2334 9.9999 3.2334Z" fill="#053396" stroke="white"/>
</svg>
