<svg width="32" height="32" viewBox="0 0 32 32" fill="none" xmlns="http://www.w3.org/2000/svg">
<g filter="url(#filter0_d_1_11984)">
<path d="M21.9203 4.1333C19.507 4.1333 17.347 5.30663 16.0003 7.10663C14.6537 5.30663 12.4937 4.1333 10.0803 4.1333C5.98699 4.1333 2.66699 7.46663 2.66699 11.5866C2.66699 13.1733 2.92033 14.64 3.36033 16C5.46699 22.6666 11.9603 26.6533 15.1737 27.7466C15.627 27.9066 16.3737 27.9066 16.827 27.7466C20.0403 26.6533 26.5337 22.6666 28.6403 16C29.0803 14.64 29.3337 13.1733 29.3337 11.5866C29.3337 7.46663 26.0137 4.1333 21.9203 4.1333Z" fill="white"/>
</g>
<defs>
<filter id="filter0_d_1_11984" x="-2" y="-2" width="36" height="36" filterUnits="userSpaceOnUse" color-interpolation-filters="sRGB">
<feFlood flood-opacity="0" result="BackgroundImageFix"/>
<feColorMatrix in="SourceAlpha" type="matrix" values="0 0 0 0 0 0 0 0 0 0 0 0 0 0 0 0 0 0 127 0" result="hardAlpha"/>
<feOffset/>
<feGaussianBlur stdDeviation="1"/>
<feComposite in2="hardAlpha" operator="out"/>
<feColorMatrix type="matrix" values="0 0 0 0 0 0 0 0 0 0 0 0 0 0 0 0 0 0 0.5 0"/>
<feBlend mode="normal" in2="BackgroundImageFix" result="effect1_dropShadow_1_11984"/>
<feBlend mode="normal" in="SourceGraphic" in2="effect1_dropShadow_1_11984" result="shape"/>
</filter>
</defs>
</svg>
