<svg width="20" height="20" viewBox="0 0 20 20" fill="none" xmlns="http://www.w3.org/2000/svg">
<path d="M18.3333 15.2085H12.5C12.1583 15.2085 11.875 14.9252 11.875 14.5835C11.875 14.2418 12.1583 13.9585 12.5 13.9585H18.3333C18.675 13.9585 18.9583 14.2418 18.9583 14.5835C18.9583 14.9252 18.675 15.2085 18.3333 15.2085Z" fill="#053396"/>
<path d="M4.16675 15.2085H1.66675C1.32508 15.2085 1.04175 14.9252 1.04175 14.5835C1.04175 14.2418 1.32508 13.9585 1.66675 13.9585H4.16675C4.50841 13.9585 4.79175 14.2418 4.79175 14.5835C4.79175 14.9252 4.50841 15.2085 4.16675 15.2085Z" fill="#053396"/>
<path d="M18.3333 6.0415H15.8333C15.4916 6.0415 15.2083 5.75817 15.2083 5.4165C15.2083 5.07484 15.4916 4.7915 15.8333 4.7915H18.3333C18.6749 4.7915 18.9583 5.07484 18.9583 5.4165C18.9583 5.75817 18.6749 6.0415 18.3333 6.0415Z" fill="#053396"/>
<path d="M7.50008 6.0415H1.66675C1.32508 6.0415 1.04175 5.75817 1.04175 5.4165C1.04175 5.07484 1.32508 4.7915 1.66675 4.7915H7.50008C7.84175 4.7915 8.12508 5.07484 8.12508 5.4165C8.12508 5.75817 7.84175 6.0415 7.50008 6.0415Z" fill="#053396"/>
<path d="M10.8334 17.7085H5.83341C4.40008 17.7085 3.54175 16.8502 3.54175 15.4168V13.7502C3.54175 12.3168 4.40008 11.4585 5.83341 11.4585H10.8334C12.2667 11.4585 13.1251 12.3168 13.1251 13.7502V15.4168C13.1251 16.8502 12.2667 17.7085 10.8334 17.7085ZM5.83341 12.7085C5.09175 12.7085 4.79175 13.0085 4.79175 13.7502V15.4168C4.79175 16.1585 5.09175 16.4585 5.83341 16.4585H10.8334C11.5751 16.4585 11.8751 16.1585 11.8751 15.4168V13.7502C11.8751 13.0085 11.5751 12.7085 10.8334 12.7085H5.83341Z" fill="#053396"/>
<path d="M14.1667 8.5415H9.16667C7.73333 8.5415 6.875 7.68317 6.875 6.24984V4.58317C6.875 3.14984 7.73333 2.2915 9.16667 2.2915H14.1667C15.6 2.2915 16.4583 3.14984 16.4583 4.58317V6.24984C16.4583 7.68317 15.6 8.5415 14.1667 8.5415ZM9.16667 3.5415C8.425 3.5415 8.125 3.8415 8.125 4.58317V6.24984C8.125 6.9915 8.425 7.2915 9.16667 7.2915H14.1667C14.9083 7.2915 15.2083 6.9915 15.2083 6.24984V4.58317C15.2083 3.8415 14.9083 3.5415 14.1667 3.5415H9.16667Z" fill="#053396"/>
</svg>
