<svg width="16" height="16" viewBox="0 0 16 16" fill="none" xmlns="http://www.w3.org/2000/svg">
<mask id="path-1-outside-1_2121_4954" maskUnits="userSpaceOnUse" x="0.466796" y="2.7998" width="15" height="11" fill="black">
<rect fill="white" x="0.466796" y="2.7998" width="15" height="11"/>
<path d="M1.90682 12.7591C1.66146 12.6727 1.47839 12.4301 1.46972 12.169C1.4643 11.9615 1.46972 11.7538 1.46755 11.5461C1.46891 11.3896 1.4532 11.2257 1.51793 11.0787C1.61434 10.8385 1.86078 10.6687 2.12023 10.667C2.436 10.6643 2.75151 10.667 3.06728 10.666C3.06728 10.3995 3.06728 10.1332 3.06728 9.86676C2.88692 9.87489 2.69463 9.85458 2.5465 9.74137C2.37128 9.61761 2.26349 9.40637 2.26755 9.19161C2.26809 8.38836 2.26647 7.58484 2.26837 6.78132C2.2708 6.50915 2.46038 6.25377 2.71847 6.16927C2.83031 6.12865 2.95029 6.13271 3.06728 6.13217C3.06728 5.86568 3.06728 5.59947 3.06728 5.33298C2.75178 5.3319 2.436 5.33433 2.1205 5.33217C1.86051 5.33108 1.61461 5.16047 1.51765 4.92025C1.44914 4.76372 1.4708 4.58931 1.46782 4.42357C1.4708 4.21585 1.46159 4.00813 1.47189 3.80068C1.49491 3.47353 1.79497 3.19865 2.12239 3.20082C2.9251 3.19865 3.72781 3.19974 4.53052 3.20028C4.76153 3.19757 4.98766 3.32513 5.10493 3.52418C5.17642 3.63928 5.20377 3.77631 5.20025 3.91064C5.197 4.18037 5.20405 4.45038 5.197 4.72012C5.17886 5.04564 4.88746 5.32567 4.56166 5.33135C4.24128 5.33569 3.92063 5.33135 3.59998 5.33298C3.59998 5.59919 3.59998 5.86568 3.59998 6.1319C3.7901 6.12269 3.9924 6.14923 4.14352 6.27489C4.30086 6.3954 4.39375 6.58796 4.40025 6.78511C4.397 6.85877 4.4509 6.93406 4.52943 6.93081C4.89125 6.93704 5.25333 6.92919 5.61515 6.93406C5.87378 6.93623 6.11996 7.10549 6.21583 7.34544C6.26999 7.46676 6.26782 7.60244 6.26755 7.73271C8.4008 7.73271 10.5338 7.73271 12.667 7.73271C12.667 6.93271 12.667 6.13298 12.667 5.33298C12.3469 5.33162 12.0268 5.33542 11.707 5.33135C11.372 5.32702 11.0746 5.0321 11.0686 4.69682C11.0667 4.40732 11.0659 4.11754 11.0689 3.82831C11.0789 3.49493 11.3768 3.20434 11.7102 3.20136C12.5219 3.19838 13.3338 3.19947 14.1454 3.20082C14.4823 3.19919 14.7873 3.49033 14.797 3.82777C14.8019 4.10752 14.7986 4.38755 14.7989 4.66758C14.8016 4.91186 14.6554 5.14882 14.4379 5.25877C14.332 5.31538 14.2107 5.33515 14.0918 5.33325C13.7944 5.33271 13.4971 5.33298 13.1997 5.33298C13.1997 7.11064 13.1997 8.88829 13.1997 10.666C13.5149 10.667 13.8302 10.6643 14.1454 10.6668C14.4114 10.6681 14.664 10.8466 14.7556 11.0957C14.8162 11.2479 14.7962 11.4145 14.7992 11.5743C14.7962 11.7815 14.8054 11.9892 14.7951 12.1961C14.7726 12.5232 14.4734 12.8003 14.1454 12.7984C13.3335 12.7995 12.5213 12.8005 11.7097 12.7976C11.3766 12.7949 11.0792 12.5043 11.0689 12.1712C11.0651 11.8903 11.0678 11.6095 11.0676 11.3286C11.0654 11.0817 11.216 10.8431 11.4378 10.7356C11.5464 10.6792 11.6701 10.6632 11.7909 10.6657C12.0829 10.6662 12.3748 10.666 12.667 10.666C12.667 9.86595 12.667 9.06622 12.667 8.26622C10.5338 8.26622 8.40052 8.26622 6.26755 8.26622C6.27595 8.44957 6.25401 8.64456 6.13648 8.79351C6.01731 8.95844 5.8188 9.0627 5.61488 9.06487C5.262 9.06839 4.90912 9.06405 4.55652 9.06649C4.49667 9.06243 4.42734 9.09032 4.41082 9.15315C4.39294 9.23088 4.39511 9.31185 4.37236 9.3885C4.31332 9.59107 4.15218 9.76006 3.95259 9.82885C3.83993 9.87028 3.71806 9.86622 3.59998 9.86703C3.59998 10.1332 3.59998 10.3997 3.59998 10.666C3.92036 10.6676 4.24101 10.6632 4.56139 10.6676C4.89585 10.673 5.19186 10.9679 5.19836 11.3024C5.2008 11.5911 5.2008 11.88 5.19809 12.1685C5.18861 12.5021 4.89152 12.7946 4.5576 12.7976C3.78143 12.8019 3.00526 12.7973 2.2291 12.7997C2.12077 12.8003 2.00919 12.7987 1.90682 12.7591ZM2.01515 12.1931C2.04196 12.254 2.11264 12.2692 2.17277 12.2662C2.95083 12.2654 3.72889 12.2662 4.50669 12.2657C4.59199 12.2779 4.67595 12.2085 4.6662 12.1194C4.66701 11.8554 4.66972 11.5913 4.66484 11.3276C4.66728 11.2447 4.5836 11.1903 4.50696 11.1995C3.71996 11.1997 2.93296 11.1981 2.14596 11.2003C2.07148 11.1938 1.99863 11.2539 2.00242 11.3311C1.99619 11.5564 2.0035 11.782 1.99944 12.0073C2.00161 12.0691 1.99294 12.1341 2.01515 12.1931ZM2.02273 4.74016C2.05388 4.79351 2.11941 4.80136 2.1752 4.80001C2.95245 4.79919 3.72998 4.80028 4.50723 4.79947C4.58495 4.80949 4.66836 4.75288 4.66484 4.66947C4.66945 4.40705 4.66701 4.14408 4.6662 3.88166C4.67703 3.79202 4.59281 3.72106 4.50641 3.73325C3.72077 3.73325 2.93485 3.73244 2.14893 3.73352C2.0769 3.72756 2.00242 3.78119 2.00296 3.85729C1.99538 4.09181 2.00377 4.32662 1.99944 4.56142C2.00269 4.62072 1.99132 4.6868 2.02273 4.74016ZM2.80757 9.23927C2.82382 9.30698 2.89694 9.33785 2.96112 9.33271C3.19565 9.33406 3.43045 9.33135 3.66525 9.33352C3.71914 9.33081 3.78279 9.33867 3.82476 9.29669C3.87595 9.24767 3.86268 9.1694 3.87595 9.10576C3.91007 8.79567 4.19524 8.54029 4.50614 8.5346C4.86769 8.52892 5.22923 8.53596 5.59078 8.53189C5.67554 8.53948 5.74325 8.46094 5.7335 8.37807C5.73458 8.1254 5.73485 7.87272 5.7335 7.62005C5.74325 7.53691 5.67419 7.45918 5.58942 7.46703C5.22842 7.46297 4.86715 7.47001 4.50614 7.4646C4.22774 7.45891 3.96992 7.25553 3.89463 6.9885C3.86945 6.90563 3.87568 6.81653 3.84941 6.73393C3.8096 6.6562 3.71237 6.66649 3.63898 6.66514C3.40337 6.6692 3.16776 6.66189 2.93241 6.66812C2.84467 6.66378 2.78942 6.75261 2.80025 6.83278C2.79971 7.55532 2.8008 8.27787 2.79971 9.00041C2.80107 9.08003 2.79375 9.16047 2.80757 9.23927ZM11.6127 12.1893C11.6368 12.247 11.7015 12.2695 11.76 12.2657C12.5373 12.2662 13.3148 12.2654 14.0921 12.2662C14.1392 12.2654 14.1936 12.2646 14.228 12.2264C14.2781 12.176 14.2638 12.0986 14.2676 12.0344C14.2635 11.8001 14.2708 11.5656 14.2646 11.3314C14.2681 11.2534 14.1942 11.1932 14.1194 11.2C13.3793 11.1976 12.6388 11.2008 11.8987 11.1987C11.8296 11.1997 11.7592 11.194 11.691 11.207C11.6273 11.2244 11.5951 11.2926 11.6003 11.3549C11.5981 11.581 11.6019 11.8072 11.5989 12.0333C11.6008 12.0853 11.5954 12.1395 11.6127 12.1893ZM11.61 4.71632C11.6314 4.77834 11.6996 4.80407 11.7608 4.79946C12.5476 4.79919 13.3346 4.80082 14.1213 4.79892C14.1947 4.80542 14.267 4.74639 14.2646 4.67001C14.2711 4.43548 14.2635 4.20068 14.2676 3.96615C14.2635 3.90143 14.2787 3.8237 14.228 3.77279C14.1939 3.73488 14.1395 3.73406 14.0923 3.73271C13.3145 3.73379 12.5367 3.73244 11.759 3.73325C11.6856 3.72513 11.6035 3.77441 11.6027 3.85404C11.5946 4.03521 11.6027 4.21693 11.6 4.39811C11.6032 4.504 11.5892 4.61179 11.61 4.71632Z"/>
</mask>
<path d="M1.90682 12.7591C1.66146 12.6727 1.47839 12.4301 1.46972 12.169C1.4643 11.9615 1.46972 11.7538 1.46755 11.5461C1.46891 11.3896 1.4532 11.2257 1.51793 11.0787C1.61434 10.8385 1.86078 10.6687 2.12023 10.667C2.436 10.6643 2.75151 10.667 3.06728 10.666C3.06728 10.3995 3.06728 10.1332 3.06728 9.86676C2.88692 9.87489 2.69463 9.85458 2.5465 9.74137C2.37128 9.61761 2.26349 9.40637 2.26755 9.19161C2.26809 8.38836 2.26647 7.58484 2.26837 6.78132C2.2708 6.50915 2.46038 6.25377 2.71847 6.16927C2.83031 6.12865 2.95029 6.13271 3.06728 6.13217C3.06728 5.86568 3.06728 5.59947 3.06728 5.33298C2.75178 5.3319 2.436 5.33433 2.1205 5.33217C1.86051 5.33108 1.61461 5.16047 1.51765 4.92025C1.44914 4.76372 1.4708 4.58931 1.46782 4.42357C1.4708 4.21585 1.46159 4.00813 1.47189 3.80068C1.49491 3.47353 1.79497 3.19865 2.12239 3.20082C2.9251 3.19865 3.72781 3.19974 4.53052 3.20028C4.76153 3.19757 4.98766 3.32513 5.10493 3.52418C5.17642 3.63928 5.20377 3.77631 5.20025 3.91064C5.197 4.18037 5.20405 4.45038 5.197 4.72012C5.17886 5.04564 4.88746 5.32567 4.56166 5.33135C4.24128 5.33569 3.92063 5.33135 3.59998 5.33298C3.59998 5.59919 3.59998 5.86568 3.59998 6.1319C3.7901 6.12269 3.9924 6.14923 4.14352 6.27489C4.30086 6.3954 4.39375 6.58796 4.40025 6.78511C4.397 6.85877 4.4509 6.93406 4.52943 6.93081C4.89125 6.93704 5.25333 6.92919 5.61515 6.93406C5.87378 6.93623 6.11996 7.10549 6.21583 7.34544C6.26999 7.46676 6.26782 7.60244 6.26755 7.73271C8.4008 7.73271 10.5338 7.73271 12.667 7.73271C12.667 6.93271 12.667 6.13298 12.667 5.33298C12.3469 5.33162 12.0268 5.33542 11.707 5.33135C11.372 5.32702 11.0746 5.0321 11.0686 4.69682C11.0667 4.40732 11.0659 4.11754 11.0689 3.82831C11.0789 3.49493 11.3768 3.20434 11.7102 3.20136C12.5219 3.19838 13.3338 3.19947 14.1454 3.20082C14.4823 3.19919 14.7873 3.49033 14.797 3.82777C14.8019 4.10752 14.7986 4.38755 14.7989 4.66758C14.8016 4.91186 14.6554 5.14882 14.4379 5.25877C14.332 5.31538 14.2107 5.33515 14.0918 5.33325C13.7944 5.33271 13.4971 5.33298 13.1997 5.33298C13.1997 7.11064 13.1997 8.88829 13.1997 10.666C13.5149 10.667 13.8302 10.6643 14.1454 10.6668C14.4114 10.6681 14.664 10.8466 14.7556 11.0957C14.8162 11.2479 14.7962 11.4145 14.7992 11.5743C14.7962 11.7815 14.8054 11.9892 14.7951 12.1961C14.7726 12.5232 14.4734 12.8003 14.1454 12.7984C13.3335 12.7995 12.5213 12.8005 11.7097 12.7976C11.3766 12.7949 11.0792 12.5043 11.0689 12.1712C11.0651 11.8903 11.0678 11.6095 11.0676 11.3286C11.0654 11.0817 11.216 10.8431 11.4378 10.7356C11.5464 10.6792 11.6701 10.6632 11.7909 10.6657C12.0829 10.6662 12.3748 10.666 12.667 10.666C12.667 9.86595 12.667 9.06622 12.667 8.26622C10.5338 8.26622 8.40052 8.26622 6.26755 8.26622C6.27595 8.44957 6.25401 8.64456 6.13648 8.79351C6.01731 8.95844 5.8188 9.0627 5.61488 9.06487C5.262 9.06839 4.90912 9.06405 4.55652 9.06649C4.49667 9.06243 4.42734 9.09032 4.41082 9.15315C4.39294 9.23088 4.39511 9.31185 4.37236 9.3885C4.31332 9.59107 4.15218 9.76006 3.95259 9.82885C3.83993 9.87028 3.71806 9.86622 3.59998 9.86703C3.59998 10.1332 3.59998 10.3997 3.59998 10.666C3.92036 10.6676 4.24101 10.6632 4.56139 10.6676C4.89585 10.673 5.19186 10.9679 5.19836 11.3024C5.2008 11.5911 5.2008 11.88 5.19809 12.1685C5.18861 12.5021 4.89152 12.7946 4.5576 12.7976C3.78143 12.8019 3.00526 12.7973 2.2291 12.7997C2.12077 12.8003 2.00919 12.7987 1.90682 12.7591ZM2.01515 12.1931C2.04196 12.254 2.11264 12.2692 2.17277 12.2662C2.95083 12.2654 3.72889 12.2662 4.50669 12.2657C4.59199 12.2779 4.67595 12.2085 4.6662 12.1194C4.66701 11.8554 4.66972 11.5913 4.66484 11.3276C4.66728 11.2447 4.5836 11.1903 4.50696 11.1995C3.71996 11.1997 2.93296 11.1981 2.14596 11.2003C2.07148 11.1938 1.99863 11.2539 2.00242 11.3311C1.99619 11.5564 2.0035 11.782 1.99944 12.0073C2.00161 12.0691 1.99294 12.1341 2.01515 12.1931ZM2.02273 4.74016C2.05388 4.79351 2.11941 4.80136 2.1752 4.80001C2.95245 4.79919 3.72998 4.80028 4.50723 4.79947C4.58495 4.80949 4.66836 4.75288 4.66484 4.66947C4.66945 4.40705 4.66701 4.14408 4.6662 3.88166C4.67703 3.79202 4.59281 3.72106 4.50641 3.73325C3.72077 3.73325 2.93485 3.73244 2.14893 3.73352C2.0769 3.72756 2.00242 3.78119 2.00296 3.85729C1.99538 4.09181 2.00377 4.32662 1.99944 4.56142C2.00269 4.62072 1.99132 4.6868 2.02273 4.74016ZM2.80757 9.23927C2.82382 9.30698 2.89694 9.33785 2.96112 9.33271C3.19565 9.33406 3.43045 9.33135 3.66525 9.33352C3.71914 9.33081 3.78279 9.33867 3.82476 9.29669C3.87595 9.24767 3.86268 9.1694 3.87595 9.10576C3.91007 8.79567 4.19524 8.54029 4.50614 8.5346C4.86769 8.52892 5.22923 8.53596 5.59078 8.53189C5.67554 8.53948 5.74325 8.46094 5.7335 8.37807C5.73458 8.1254 5.73485 7.87272 5.7335 7.62005C5.74325 7.53691 5.67419 7.45918 5.58942 7.46703C5.22842 7.46297 4.86715 7.47001 4.50614 7.4646C4.22774 7.45891 3.96992 7.25553 3.89463 6.9885C3.86945 6.90563 3.87568 6.81653 3.84941 6.73393C3.8096 6.6562 3.71237 6.66649 3.63898 6.66514C3.40337 6.6692 3.16776 6.66189 2.93241 6.66812C2.84467 6.66378 2.78942 6.75261 2.80025 6.83278C2.79971 7.55532 2.8008 8.27787 2.79971 9.00041C2.80107 9.08003 2.79375 9.16047 2.80757 9.23927ZM11.6127 12.1893C11.6368 12.247 11.7015 12.2695 11.76 12.2657C12.5373 12.2662 13.3148 12.2654 14.0921 12.2662C14.1392 12.2654 14.1936 12.2646 14.228 12.2264C14.2781 12.176 14.2638 12.0986 14.2676 12.0344C14.2635 11.8001 14.2708 11.5656 14.2646 11.3314C14.2681 11.2534 14.1942 11.1932 14.1194 11.2C13.3793 11.1976 12.6388 11.2008 11.8987 11.1987C11.8296 11.1997 11.7592 11.194 11.691 11.207C11.6273 11.2244 11.5951 11.2926 11.6003 11.3549C11.5981 11.581 11.6019 11.8072 11.5989 12.0333C11.6008 12.0853 11.5954 12.1395 11.6127 12.1893ZM11.61 4.71632C11.6314 4.77834 11.6996 4.80407 11.7608 4.79946C12.5476 4.79919 13.3346 4.80082 14.1213 4.79892C14.1947 4.80542 14.267 4.74639 14.2646 4.67001C14.2711 4.43548 14.2635 4.20068 14.2676 3.96615C14.2635 3.90143 14.2787 3.8237 14.228 3.77279C14.1939 3.73488 14.1395 3.73406 14.0923 3.73271C13.3145 3.73379 12.5367 3.73244 11.759 3.73325C11.6856 3.72513 11.6035 3.77441 11.6027 3.85404C11.5946 4.03521 11.6027 4.21693 11.6 4.39811C11.6032 4.504 11.5892 4.61179 11.61 4.71632Z" fill="#5960D9"/>
<path d="M1.90682 12.7591C1.66146 12.6727 1.47839 12.4301 1.46972 12.169C1.4643 11.9615 1.46972 11.7538 1.46755 11.5461C1.46891 11.3896 1.4532 11.2257 1.51793 11.0787C1.61434 10.8385 1.86078 10.6687 2.12023 10.667C2.436 10.6643 2.75151 10.667 3.06728 10.666C3.06728 10.3995 3.06728 10.1332 3.06728 9.86676C2.88692 9.87489 2.69463 9.85458 2.5465 9.74137C2.37128 9.61761 2.26349 9.40637 2.26755 9.19161C2.26809 8.38836 2.26647 7.58484 2.26837 6.78132C2.2708 6.50915 2.46038 6.25377 2.71847 6.16927C2.83031 6.12865 2.95029 6.13271 3.06728 6.13217C3.06728 5.86568 3.06728 5.59947 3.06728 5.33298C2.75178 5.3319 2.436 5.33433 2.1205 5.33217C1.86051 5.33108 1.61461 5.16047 1.51765 4.92025C1.44914 4.76372 1.4708 4.58931 1.46782 4.42357C1.4708 4.21585 1.46159 4.00813 1.47189 3.80068C1.49491 3.47353 1.79497 3.19865 2.12239 3.20082C2.9251 3.19865 3.72781 3.19974 4.53052 3.20028C4.76153 3.19757 4.98766 3.32513 5.10493 3.52418C5.17642 3.63928 5.20377 3.77631 5.20025 3.91064C5.197 4.18037 5.20405 4.45038 5.197 4.72012C5.17886 5.04564 4.88746 5.32567 4.56166 5.33135C4.24128 5.33569 3.92063 5.33135 3.59998 5.33298C3.59998 5.59919 3.59998 5.86568 3.59998 6.1319C3.7901 6.12269 3.9924 6.14923 4.14352 6.27489C4.30086 6.3954 4.39375 6.58796 4.40025 6.78511C4.397 6.85877 4.4509 6.93406 4.52943 6.93081C4.89125 6.93704 5.25333 6.92919 5.61515 6.93406C5.87378 6.93623 6.11996 7.10549 6.21583 7.34544C6.26999 7.46676 6.26782 7.60244 6.26755 7.73271C8.4008 7.73271 10.5338 7.73271 12.667 7.73271C12.667 6.93271 12.667 6.13298 12.667 5.33298C12.3469 5.33162 12.0268 5.33542 11.707 5.33135C11.372 5.32702 11.0746 5.0321 11.0686 4.69682C11.0667 4.40732 11.0659 4.11754 11.0689 3.82831C11.0789 3.49493 11.3768 3.20434 11.7102 3.20136C12.5219 3.19838 13.3338 3.19947 14.1454 3.20082C14.4823 3.19919 14.7873 3.49033 14.797 3.82777C14.8019 4.10752 14.7986 4.38755 14.7989 4.66758C14.8016 4.91186 14.6554 5.14882 14.4379 5.25877C14.332 5.31538 14.2107 5.33515 14.0918 5.33325C13.7944 5.33271 13.4971 5.33298 13.1997 5.33298C13.1997 7.11064 13.1997 8.88829 13.1997 10.666C13.5149 10.667 13.8302 10.6643 14.1454 10.6668C14.4114 10.6681 14.664 10.8466 14.7556 11.0957C14.8162 11.2479 14.7962 11.4145 14.7992 11.5743C14.7962 11.7815 14.8054 11.9892 14.7951 12.1961C14.7726 12.5232 14.4734 12.8003 14.1454 12.7984C13.3335 12.7995 12.5213 12.8005 11.7097 12.7976C11.3766 12.7949 11.0792 12.5043 11.0689 12.1712C11.0651 11.8903 11.0678 11.6095 11.0676 11.3286C11.0654 11.0817 11.216 10.8431 11.4378 10.7356C11.5464 10.6792 11.6701 10.6632 11.7909 10.6657C12.0829 10.6662 12.3748 10.666 12.667 10.666C12.667 9.86595 12.667 9.06622 12.667 8.26622C10.5338 8.26622 8.40052 8.26622 6.26755 8.26622C6.27595 8.44957 6.25401 8.64456 6.13648 8.79351C6.01731 8.95844 5.8188 9.0627 5.61488 9.06487C5.262 9.06839 4.90912 9.06405 4.55652 9.06649C4.49667 9.06243 4.42734 9.09032 4.41082 9.15315C4.39294 9.23088 4.39511 9.31185 4.37236 9.3885C4.31332 9.59107 4.15218 9.76006 3.95259 9.82885C3.83993 9.87028 3.71806 9.86622 3.59998 9.86703C3.59998 10.1332 3.59998 10.3997 3.59998 10.666C3.92036 10.6676 4.24101 10.6632 4.56139 10.6676C4.89585 10.673 5.19186 10.9679 5.19836 11.3024C5.2008 11.5911 5.2008 11.88 5.19809 12.1685C5.18861 12.5021 4.89152 12.7946 4.5576 12.7976C3.78143 12.8019 3.00526 12.7973 2.2291 12.7997C2.12077 12.8003 2.00919 12.7987 1.90682 12.7591ZM2.01515 12.1931C2.04196 12.254 2.11264 12.2692 2.17277 12.2662C2.95083 12.2654 3.72889 12.2662 4.50669 12.2657C4.59199 12.2779 4.67595 12.2085 4.6662 12.1194C4.66701 11.8554 4.66972 11.5913 4.66484 11.3276C4.66728 11.2447 4.5836 11.1903 4.50696 11.1995C3.71996 11.1997 2.93296 11.1981 2.14596 11.2003C2.07148 11.1938 1.99863 11.2539 2.00242 11.3311C1.99619 11.5564 2.0035 11.782 1.99944 12.0073C2.00161 12.0691 1.99294 12.1341 2.01515 12.1931ZM2.02273 4.74016C2.05388 4.79351 2.11941 4.80136 2.1752 4.80001C2.95245 4.79919 3.72998 4.80028 4.50723 4.79947C4.58495 4.80949 4.66836 4.75288 4.66484 4.66947C4.66945 4.40705 4.66701 4.14408 4.6662 3.88166C4.67703 3.79202 4.59281 3.72106 4.50641 3.73325C3.72077 3.73325 2.93485 3.73244 2.14893 3.73352C2.0769 3.72756 2.00242 3.78119 2.00296 3.85729C1.99538 4.09181 2.00377 4.32662 1.99944 4.56142C2.00269 4.62072 1.99132 4.6868 2.02273 4.74016ZM2.80757 9.23927C2.82382 9.30698 2.89694 9.33785 2.96112 9.33271C3.19565 9.33406 3.43045 9.33135 3.66525 9.33352C3.71914 9.33081 3.78279 9.33867 3.82476 9.29669C3.87595 9.24767 3.86268 9.1694 3.87595 9.10576C3.91007 8.79567 4.19524 8.54029 4.50614 8.5346C4.86769 8.52892 5.22923 8.53596 5.59078 8.53189C5.67554 8.53948 5.74325 8.46094 5.7335 8.37807C5.73458 8.1254 5.73485 7.87272 5.7335 7.62005C5.74325 7.53691 5.67419 7.45918 5.58942 7.46703C5.22842 7.46297 4.86715 7.47001 4.50614 7.4646C4.22774 7.45891 3.96992 7.25553 3.89463 6.9885C3.86945 6.90563 3.87568 6.81653 3.84941 6.73393C3.8096 6.6562 3.71237 6.66649 3.63898 6.66514C3.40337 6.6692 3.16776 6.66189 2.93241 6.66812C2.84467 6.66378 2.78942 6.75261 2.80025 6.83278C2.79971 7.55532 2.8008 8.27787 2.79971 9.00041C2.80107 9.08003 2.79375 9.16047 2.80757 9.23927ZM11.6127 12.1893C11.6368 12.247 11.7015 12.2695 11.76 12.2657C12.5373 12.2662 13.3148 12.2654 14.0921 12.2662C14.1392 12.2654 14.1936 12.2646 14.228 12.2264C14.2781 12.176 14.2638 12.0986 14.2676 12.0344C14.2635 11.8001 14.2708 11.5656 14.2646 11.3314C14.2681 11.2534 14.1942 11.1932 14.1194 11.2C13.3793 11.1976 12.6388 11.2008 11.8987 11.1987C11.8296 11.1997 11.7592 11.194 11.691 11.207C11.6273 11.2244 11.5951 11.2926 11.6003 11.3549C11.5981 11.581 11.6019 11.8072 11.5989 12.0333C11.6008 12.0853 11.5954 12.1395 11.6127 12.1893ZM11.61 4.71632C11.6314 4.77834 11.6996 4.80407 11.7608 4.79946C12.5476 4.79919 13.3346 4.80082 14.1213 4.79892C14.1947 4.80542 14.267 4.74639 14.2646 4.67001C14.2711 4.43548 14.2635 4.20068 14.2676 3.96615C14.2635 3.90143 14.2787 3.8237 14.228 3.77279C14.1939 3.73488 14.1395 3.73406 14.0923 3.73271C13.3145 3.73379 12.5367 3.73244 11.759 3.73325C11.6856 3.72513 11.6035 3.77441 11.6027 3.85404C11.5946 4.03521 11.6027 4.21693 11.6 4.39811C11.6032 4.504 11.5892 4.61179 11.61 4.71632Z" stroke="#5960D9" stroke-width="0.5" mask="url(#path-1-outside-1_2121_4954)"/>
</svg>
