<svg width="32" height="32" viewBox="0 0 32 32" fill="none" xmlns="http://www.w3.org/2000/svg">
<path d="M6 13.75C5.59 13.75 5.25 13.41 5.25 13V10.5C5.25 7.61 7.61 5.25 10.5 5.25H13C13.41 5.25 13.75 5.59 13.75 6C13.75 6.41 13.41 6.75 13 6.75H10.5C8.43 6.75 6.75 8.43 6.75 10.5V13C6.75 13.41 6.41 13.75 6 13.75Z" fill="white"/>
<path d="M26 13.75C25.59 13.75 25.25 13.41 25.25 13V10.5C25.25 8.43 23.57 6.75 21.5 6.75H19C18.59 6.75 18.25 6.41 18.25 6C18.25 5.59 18.59 5.25 19 5.25H21.5C24.39 5.25 26.75 7.61 26.75 10.5V13C26.75 13.41 26.41 13.75 26 13.75Z" fill="white"/>
<path d="M21.5 26.75H20C19.59 26.75 19.25 26.41 19.25 26C19.25 25.59 19.59 25.25 20 25.25H21.5C23.57 25.25 25.25 23.57 25.25 21.5V20C25.25 19.59 25.59 19.25 26 19.25C26.41 19.25 26.75 19.59 26.75 20V21.5C26.75 24.39 24.39 26.75 21.5 26.75Z" fill="white"/>
<path d="M13 26.75H10.5C7.61 26.75 5.25 24.39 5.25 21.5V19C5.25 18.59 5.59 18.25 6 18.25C6.41 18.25 6.75 18.59 6.75 19V21.5C6.75 23.57 8.43 25.25 10.5 25.25H13C13.41 25.25 13.75 25.59 13.75 26C13.75 26.41 13.41 26.75 13 26.75Z" fill="white"/>
</svg>
