<svg width="167" height="98" viewBox="0 0 167 98" fill="none" xmlns="http://www.w3.org/2000/svg">
<g clip-path="url(#clip0_6281_75400)">
<path d="M196.268 -77.9824H-26.2695V196.201H196.268V-77.9824Z" fill="#F9F9F9"/>
<path d="M131.576 -4.17555L133.906 14.6636C133.906 14.6636 136.533 16.382 136.533 16.2547C136.533 16.0638 137.716 -11.4312 137.716 -11.7494C137.716 -12.004 136.089 -16.0137 136.089 -16.0137L131.576 -4.17555Z" fill="#F9F9F9"/>
<path d="M96.2909 99.8218L95.0703 104.913L98.3622 107.014L101.876 102.686L103.762 104.786L106.5 103.45L108.719 98.8034L108.09 96.7031L96.2909 99.8218Z" fill="#F9F9F9"/>
<path d="M102.799 85.1821L101.135 83.3363L116.633 28.41L117.853 28.0918L119.444 31.5923L116.892 35.5384L102.799 85.1821Z" fill="#F9F9F9"/>
<g opacity="0.5">
<g opacity="0.5">
<path opacity="0.5" d="M64.3672 -8.31448L78.9404 -11.2422L88.8901 5.49666L87.0777 8.86989" stroke="#4D2161" stroke-width="0.5206" stroke-miterlimit="10" stroke-linecap="round" stroke-linejoin="round" stroke-dasharray="2.08 2.08"/>
<path opacity="0.5" d="M116.409 15.2357L113.561 10.9078L109.307 7.59823L97.4713 5.17969L88.7422 5.43427" stroke="#4D2161" stroke-width="0.5206" stroke-miterlimit="10" stroke-linecap="round" stroke-linejoin="round" stroke-dasharray="2.08 2.08"/>
<path opacity="0.5" d="M109.197 -13.2148L109.752 26.3728" stroke="#4D2161" stroke-width="0.5206" stroke-miterlimit="10" stroke-linecap="round" stroke-linejoin="round" stroke-dasharray="2.08 2.08"/>
<path opacity="0.5" d="M116.483 -2.39453L107.828 34.9656" stroke="#4D2161" stroke-width="0.5206" stroke-miterlimit="10" stroke-linecap="round" stroke-linejoin="round" stroke-dasharray="2.08 2.08"/>
<path opacity="0.5" d="M106.385 41.0117L81.8252 129.67" stroke="#4D2161" stroke-width="0.5206" stroke-miterlimit="10" stroke-linecap="round" stroke-linejoin="round" stroke-dasharray="2.08 2.08"/>
<path opacity="0.5" d="M28.1186 97.0848C28.1186 96.3847 68.6943 35.8575 68.6943 35.8575C68.6943 35.8575 55.4526 -0.547877 39.9917 -16.332L26.1582 -2.71184" stroke="#4D2161" stroke-width="0.5206" stroke-miterlimit="10" stroke-linecap="round" stroke-linejoin="round" stroke-dasharray="2.08 2.08"/>
<path opacity="0.5" d="M90.7023 -46.4367C90.6653 -46.6276 87.5214 -51.1465 87.5214 -51.1465L79.7909 -37.0808L86.6337 -25.1154L70.8398 2.12504" stroke="#4D2161" stroke-width="0.5206" stroke-miterlimit="10" stroke-linecap="round" stroke-linejoin="round" stroke-dasharray="2.08 2.08"/>
<path opacity="0.5" d="M125.434 13.7717L132.276 8.10718L136.049 0.851562" stroke="#4D2161" stroke-width="0.5206" stroke-miterlimit="10" stroke-linecap="round" stroke-linejoin="round" stroke-dasharray="2.08 2.08"/>
<path opacity="0.5" d="M117.482 16.5703L118.332 18.3524L115.04 34.6457L89.2968 122.859L76.7949 166.647L107.458 197.515" stroke="#4D2161" stroke-width="0.5206" stroke-miterlimit="10" stroke-linecap="round" stroke-linejoin="round" stroke-dasharray="2.08 2.08"/>
<path opacity="0.5" d="M111.343 94.7285L136.495 118.787" stroke="#4D2161" stroke-width="0.5206" stroke-miterlimit="10" stroke-linecap="round" stroke-linejoin="round" stroke-dasharray="2.08 2.08"/>
<path opacity="0.5" d="M45.6143 80.8535L51.3474 88.8092L69.1755 104.53" stroke="#4D2161" stroke-width="0.5206" stroke-miterlimit="10" stroke-linecap="round" stroke-linejoin="round" stroke-dasharray="2.08 2.08"/>
<path opacity="0.5" d="M79.3086 89.7012L70.6905 95.9385L68.6191 109.75" stroke="#4D2161" stroke-width="0.5206" stroke-miterlimit="10" stroke-linecap="round" stroke-linejoin="round" stroke-dasharray="2.08 2.08"/>
<path opacity="0.5" d="M50.6459 72.0078L28.1572 107.204" stroke="#4D2161" stroke-width="0.5206" stroke-miterlimit="10" stroke-linecap="round" stroke-linejoin="round" stroke-dasharray="2.08 2.08"/>
<path opacity="0.5" d="M83.3062 48.9668V52.4037L74.0962 76.2708C74.0962 76.2708 66.9206 71.4338 66.6247 70.8609C66.3288 70.2881 60.6326 58.1954 60.6326 58.1954L56.7119 58.7046" stroke="#4D2161" stroke-width="0.5206" stroke-miterlimit="10" stroke-linecap="round" stroke-linejoin="round" stroke-dasharray="2.08 2.08"/>
<path opacity="0.5" d="M77.3505 75.7617L76.1299 83.1446" stroke="#4D2161" stroke-width="0.5206" stroke-miterlimit="10" stroke-linecap="round" stroke-linejoin="round" stroke-dasharray="2.08 2.08"/>
<path opacity="0.5" d="M74.0938 76.2715L76.8309 77.9899" stroke="#4D2161" stroke-width="0.5206" stroke-miterlimit="10" stroke-linecap="round" stroke-linejoin="round" stroke-dasharray="2.08 2.08"/>
<path opacity="0.5" d="M87.8906 85.4355L93.3648 87.4722" stroke="#4D2161" stroke-width="0.5206" stroke-miterlimit="10" stroke-linecap="round" stroke-linejoin="round" stroke-dasharray="2.08 2.08"/>
<path opacity="0.5" d="M96.029 55.078L84.5998 51.0684L83.1572 62.1427" stroke="#4D2161" stroke-width="0.5206" stroke-miterlimit="10" stroke-linecap="round" stroke-linejoin="round" stroke-dasharray="2.08 2.08"/>
<path opacity="0.5" d="M69.5449 72.6433C69.5449 72.6433 81.64 54.8862 81.529 54.6316C81.418 54.377 71.8382 36.3652 71.8382 36.3652" stroke="#4D2161" stroke-width="0.5206" stroke-miterlimit="10" stroke-linecap="round" stroke-linejoin="round" stroke-dasharray="2.08 2.08"/>
<path opacity="0.5" d="M70.7646 42.2853L73.1319 38.9121" stroke="#4D2161" stroke-width="0.5206" stroke-miterlimit="10" stroke-linecap="round" stroke-linejoin="round" stroke-dasharray="2.08 2.08"/>
<path opacity="0.5" d="M51.7917 4.41602L28.8223 37.7028" stroke="#4D2161" stroke-width="0.5206" stroke-miterlimit="10" stroke-linecap="round" stroke-linejoin="round" stroke-dasharray="2.08 2.08"/>
<path opacity="0.5" d="M33.7041 30.2559L35.7754 35.0929L38.1796 31.6561L52.1241 60.4876" stroke="#4D2161" stroke-width="0.5206" stroke-miterlimit="10" stroke-linecap="round" stroke-linejoin="round" stroke-dasharray="2.08 2.08"/>
<path opacity="0.5" d="M116.187 68.1876L107.458 60.8047" stroke="#4D2161" stroke-width="0.5206" stroke-miterlimit="10" stroke-linecap="round" stroke-linejoin="round" stroke-dasharray="2.08 2.08"/>
<path opacity="0.5" d="M119.924 38.7206L123.734 33.2471L123.179 30.9559L126.508 26.1188L124.806 23.5729L128.283 18.5449" stroke="#4D2161" stroke-width="0.5206" stroke-miterlimit="10" stroke-linecap="round" stroke-linejoin="round" stroke-dasharray="2.08 2.08"/>
<g opacity="0.5">
<path opacity="0.5" d="M105.829 40.502L106.902 41.4566" stroke="#4D2161" stroke-width="0.5206" stroke-miterlimit="10" stroke-linecap="round" stroke-linejoin="round"/>
<path opacity="0.5" d="M106.125 39.3555L107.198 40.3102" stroke="#4D2161" stroke-width="0.5206" stroke-miterlimit="10" stroke-linecap="round" stroke-linejoin="round"/>
<path opacity="0.5" d="M106.457 38.2109L107.53 39.102" stroke="#4D2161" stroke-width="0.5206" stroke-miterlimit="10" stroke-linecap="round" stroke-linejoin="round"/>
<path opacity="0.5" d="M106.754 37.0664L107.827 37.9575" stroke="#4D2161" stroke-width="0.5206" stroke-miterlimit="10" stroke-linecap="round" stroke-linejoin="round"/>
<path opacity="0.5" d="M107.05 35.918L108.122 36.809" stroke="#4D2161" stroke-width="0.5206" stroke-miterlimit="10" stroke-linecap="round" stroke-linejoin="round"/>
<path opacity="0.5" d="M107.383 34.7734L108.455 35.6645" stroke="#4D2161" stroke-width="0.5206" stroke-miterlimit="10" stroke-linecap="round" stroke-linejoin="round"/>
</g>
<path opacity="0.5" d="M96.4365 99.2464L107.385 96.1914L112.896 98.8009L136.235 119.868" stroke="#4D2161" stroke-width="0.5206" stroke-miterlimit="10" stroke-linecap="round" stroke-linejoin="round" stroke-dasharray="2.08 2.08"/>
</g>
</g>
<path d="M86.3763 -25.0519C86.1544 -24.6701 86.1544 -24.0336 86.4133 -23.6517L95.8822 -8.24945L97.2138 9.95325L94.5136 30.7654L85.0447 13.7084L87.301 9.8896C87.5229 9.50773 87.5229 8.87127 87.301 8.4894C87.0791 8.10752 86.7092 8.10752 86.4873 8.4894L80.3473 18.8637L66.9947 -5.2581C66.7727 -5.63997 66.4029 -5.63997 66.1809 -5.32174C65.959 -4.93986 65.959 -4.30341 66.1439 -3.92153L79.6445 20.4548L78.6089 24.2736L68.0673 40.4396L59.0053 21.9823C58.9683 21.9187 58.9683 21.855 58.9313 21.7277C58.8943 21.6641 58.8573 21.6004 58.7834 21.5368L52.1255 7.98023C52.0146 7.78929 51.8666 7.66201 51.7187 7.59836C51.5707 7.59836 51.4228 7.662 51.3118 7.85294L39.7346 25.0373C38.9209 26.2466 38.8099 28.2832 39.4757 29.6834L43.9142 39.3576C44.58 40.8215 45.7636 41.076 46.6513 39.9304L58.3765 23.7007L67.1796 41.7125L40.8812 82.0003L37.8852 75.5721L46.3924 63.0338C47.687 61.1245 47.8719 57.8149 46.7993 55.46L38.2551 37.13C38.1441 36.9391 38.0332 36.8118 37.8852 36.7481L32.6699 35.6661C32.374 35.6025 32.0781 35.9844 32.0411 36.5572C32.0041 37.13 32.2261 37.5755 32.559 37.6392L37.5523 38.6575L40.0675 44.0038L30.3767 58.6423C29.7849 59.5333 29.7109 61.1245 30.1917 62.2064L40.1415 83.4641L28.0464 101.985C27.8245 102.367 27.7875 103.003 28.0095 103.385C28.1204 103.576 28.2684 103.704 28.4533 103.704C28.6013 103.704 28.7122 103.64 28.8232 103.449L49.4994 71.7533L79.1637 90.2106L78.3499 97.0843C78.276 97.5935 78.4979 98.1663 78.7938 98.23C78.8308 98.23 78.8678 98.23 78.9048 98.23C79.1637 98.23 79.4226 97.9117 79.4596 97.4662L83.6392 62.7156C83.7132 62.2064 83.4913 61.6336 83.1954 61.57C82.8994 61.4427 82.5666 61.8246 82.5296 62.3337L79.3856 88.2376L50.4611 70.2258L53.4941 65.5797C53.9379 66.7253 55.0106 68.8893 56.86 68.8893C56.934 68.8893 56.971 68.8893 57.0449 68.8893C57.1559 68.8893 57.3038 68.8256 57.3778 68.6347L59.4122 65.7706C59.6711 65.4524 59.7081 64.8159 59.4861 64.3704C59.3012 63.9249 58.9313 63.8612 58.6724 64.2431L56.786 66.9162C55.3435 66.8526 54.5667 64.9432 54.3448 64.3068L73.2826 35.2843L79.9034 48.268C80.4582 49.35 81.272 49.9228 82.0857 49.9228C82.7515 49.9228 83.4173 49.5409 83.9721 48.7135L86.4873 44.9584C87.0791 44.0674 87.449 42.8581 87.4859 41.5216C87.5229 40.185 87.264 38.8484 86.7462 37.8937L79.8295 24.8464L80.8651 20.964L84.268 15.2359L94.2547 33.2476L91.8875 51.5776C91.8135 52.0868 91.9985 52.6596 92.3314 52.7869C92.3683 52.7869 92.4053 52.7869 92.4423 52.7869C92.7012 52.7869 92.9601 52.4686 92.9971 52.0231L98.3604 10.3988C98.3604 10.2715 98.3604 10.1442 98.3604 10.0805L96.9918 -8.63132C96.9918 -8.8859 96.9178 -9.07684 96.8069 -9.20413L87.153 -24.861C86.9681 -25.4975 86.5982 -25.4338 86.3763 -25.0519ZM45.9856 38.5302C45.6157 38.9757 45.1348 38.8484 44.8759 38.2756L40.4374 28.6015C40.1785 28.0287 40.2154 27.1376 40.5483 26.6921L51.6817 10.1442L57.6737 22.3642L45.9856 38.5302ZM31.0425 60.9335C30.9315 60.6789 30.9315 60.3607 31.0794 60.1061L40.7333 45.5312L45.9856 56.8602C46.6513 58.3241 46.5404 60.4244 45.7266 61.6336L37.2194 74.1082L31.0425 60.9335ZM85.8955 39.1667C86.2284 39.7395 86.3763 40.5669 86.3393 41.3306C86.3023 42.158 86.0804 42.8581 85.7475 43.4309L83.2323 47.186C82.5296 48.268 81.4199 48.1407 80.7911 46.8678L74.1703 33.8841L79.1267 26.3102L85.8955 39.1667Z" fill="white" stroke="#BBB4B5" stroke-width="0.5206" stroke-miterlimit="10"/>
<path d="M137.9 78.6261L132.019 78.3715L132.13 64.4967L136.162 67.3607C136.458 67.5517 136.791 67.2971 136.939 66.8516C137.05 66.3424 136.902 65.7696 136.643 65.5787L132.019 62.2691C131.945 62.2054 131.908 62.2054 131.834 62.2054C131.834 62.2054 131.834 62.2054 131.797 62.2054H131.39L118.482 61.4417C118.26 61.4417 118.075 61.6326 117.964 61.9509L113.636 75.5074C113.599 75.6347 113.562 75.762 113.562 75.9529L113.081 93.1373L110.455 93.5828L98.8041 83.3995L118.889 10.2068L126.545 16.4441L130.947 24.5908L120.923 38.6565C120.664 38.9747 120.627 39.6112 120.849 40.0567C120.96 40.3113 121.145 40.4386 121.293 40.4386C121.404 40.4386 121.552 40.3749 121.663 40.184L124.548 36.1743L131.353 45.9758C131.464 46.1031 131.575 46.2303 131.723 46.2303C131.871 46.2303 132.056 46.1031 132.167 45.8485C132.389 45.4029 132.352 44.8301 132.093 44.4483L125.435 34.8377L127.914 31.3372L135.348 45.0211C135.459 45.212 135.607 45.3393 135.755 45.3393C135.903 45.3393 136.051 45.2757 136.162 45.0847C136.384 44.7029 136.421 44.0664 136.199 43.6845L128.801 30.128L136.273 19.6264C136.532 19.3082 136.569 18.6717 136.347 18.2262C136.162 17.7807 135.792 17.717 135.533 18.0989L131.797 23.3179L127.285 14.9803C127.248 14.9166 127.174 14.7893 127.1 14.7893L119.332 8.4884L119.776 6.8336C120.516 4.09683 120.109 0.850899 118.778 -1.12212L118.112 -2.14045L126.545 -26.2622C126.693 -26.7077 126.619 -27.3442 126.36 -27.5988C126.101 -27.8533 125.731 -27.7261 125.583 -27.2805L117.261 -3.47701L106.535 -19.2612C106.128 -19.834 105.536 -19.7703 105.166 -19.0702C104.833 -18.3701 104.87 -17.3518 105.277 -16.7153L117.557 1.36007C118.223 2.3784 118.445 3.96955 118.038 5.36976L96.9917 81.9993L96.5479 83.6541L73.4305 167.794L69.6947 161.175C69.6207 161.047 69.5467 160.984 69.4727 160.856L61.9642 153.664C62.1122 153.601 62.2231 153.41 62.2971 153.155L63.5547 148.891C63.5917 148.827 63.5917 148.764 63.5917 148.7L69.0289 111.022C69.0659 110.767 69.0289 110.513 68.9549 110.258C68.8809 110.003 68.733 109.876 68.585 109.812L51.0898 102.811C50.7939 102.684 50.461 103.002 50.387 103.575C50.313 104.084 50.498 104.657 50.8309 104.784L67.7713 111.531L62.482 148.127L61.2614 152.328C61.1875 152.582 61.1875 152.773 61.2245 153.028L47.6869 140.108L52.8652 122.796C53.2721 121.523 53.3091 119.996 53.0501 118.596C52.7542 117.195 52.1994 116.113 51.4227 115.477L46.2074 111.404C45.9115 111.149 45.5786 111.404 45.4306 111.913C45.2827 112.422 45.4306 112.995 45.7265 113.249L50.9418 117.323C51.4227 117.705 51.7925 118.405 51.9775 119.232C52.1624 120.123 52.1254 121.014 51.8665 121.842L46.6882 139.153L28.2313 121.46C27.7504 121.014 27.1956 121.332 26.9367 122.096C26.6778 122.924 26.8627 123.878 27.3066 124.324L68.4001 163.657L72.5058 170.912L72.5427 170.976L65.626 196.18C65.4041 197.007 65.589 198.026 66.0699 198.407C66.2178 198.535 66.3288 198.598 66.4767 198.598C66.8466 198.598 67.1795 198.216 67.3644 197.644L73.6154 174.922L99.6918 199.808C99.8398 199.935 99.9877 199.999 100.173 199.999C100.506 199.999 100.838 199.68 101.023 199.171C101.282 198.344 101.097 197.389 100.654 196.944L74.4661 171.931L92.3313 106.821L99.4329 112.995L89.2613 143.099C89.1133 143.545 89.1873 144.181 89.4832 144.436C89.5572 144.499 89.6681 144.563 89.7791 144.563C89.964 144.563 90.186 144.372 90.2969 144.054L94.8834 130.497L102.207 137.753L97.1397 153.601C96.5479 155.447 96.9178 157.738 97.9534 158.82L110.677 172.376C111.047 172.758 111.454 172.949 111.898 172.949C112.083 172.949 112.305 172.885 112.49 172.822C113.081 172.567 113.599 171.803 113.895 170.912L119.073 154.365L125.066 160.284C125.657 160.856 126.064 161.811 126.212 162.893C126.36 164.039 126.286 165.184 125.916 166.139L120.109 182.114C120.072 182.178 120.072 182.241 120.035 182.305L117.335 195.734C117.224 196.243 117.409 196.816 117.705 197.007C117.779 197.071 117.816 197.071 117.89 197.071C118.112 197.071 118.371 196.816 118.445 196.371L121.108 183.069L126.878 167.221C127.396 165.757 127.544 164.102 127.322 162.448C127.1 160.793 126.471 159.456 125.62 158.565L103.761 136.926L107.459 125.342C107.607 124.833 107.496 124.26 107.237 124.006C106.941 123.751 106.609 123.942 106.461 124.387L102.762 135.907L95.4382 128.652L100.764 112.931C100.838 112.677 100.875 112.422 100.801 112.167C100.764 111.913 100.654 111.658 100.506 111.531L92.8491 104.912L98.2493 85.1816L110.011 95.4286C110.085 95.4922 110.196 95.5558 110.27 95.5558C110.307 95.5558 110.307 95.5558 110.344 95.5558L113.636 94.983L135.459 96.3196H135.496C135.792 96.3196 136.051 95.8741 136.088 95.3649C136.088 94.7921 135.866 94.3466 135.533 94.3466L114.228 93.01L114.672 76.2075L118.778 63.4147L130.984 64.1148L130.873 78.3078L127.063 78.1805C126.767 78.1805 126.471 78.6261 126.471 79.1352C126.471 79.708 126.73 80.1536 127.026 80.1536L131.169 80.3445H131.612L137.826 80.5991C138.122 80.5991 138.381 80.1535 138.418 79.6444C138.455 79.0716 138.196 78.6261 137.9 78.6261ZM103.243 138.644L118.075 153.346L112.897 169.958C112.749 170.467 112.49 170.785 112.194 170.912C111.898 171.04 111.565 170.976 111.306 170.658L98.5822 157.101C98.0644 156.529 97.8794 155.447 98.1753 154.492L103.243 138.644Z" fill="white" stroke="#BBB4B5" stroke-width="0.5206" stroke-miterlimit="10"/>
<path d="M32.5958 -17.0949L27.8984 -11.876C27.6395 -11.5577 27.5655 -10.9849 27.7134 -10.4757C27.8244 -10.1575 28.0093 -10.0302 28.1943 -10.0302C28.3052 -10.0302 28.4162 -10.0939 28.4902 -10.1575L33.6315 -15.8856L38.0331 -17.1586L43.6182 -1.50169C44.0991 -0.101479 43.8402 1.80788 43.0264 2.69893L28.3422 18.4194C28.0833 18.7377 27.9724 19.3105 28.1573 19.8196C28.2683 20.1379 28.4532 20.2652 28.6381 20.2652C28.7491 20.2652 28.8601 20.2015 28.934 20.1379L43.6182 4.41737C44.9868 2.95352 45.3936 -0.101479 44.5799 -2.45638L39.1057 -18.2405L45.8745 -29.7604C46.0964 -30.1423 46.0964 -30.7788 45.8745 -31.1606L41.9168 -38.2253C41.6949 -38.6072 41.325 -38.6072 41.103 -38.2253C40.8811 -37.8434 40.8811 -37.207 41.103 -36.8251L44.6909 -30.3969L38.292 -19.5134C38.218 -19.5134 38.107 -19.4498 38.0331 -19.3862C37.9591 -19.3225 37.8851 -19.1952 37.8481 -19.0679L33.7425 -17.9223L27.9354 -28.7421C27.7134 -29.124 27.3436 -29.1876 27.1216 -28.8057C26.8997 -28.4239 26.8627 -27.7874 27.0846 -27.4055L32.5958 -17.0949Z" fill="white" stroke="#BBB4B5" stroke-width="0.5206" stroke-miterlimit="10"/>
<path d="M49.6039 45.0839L47.3906 48.168L49.276 52.1742L51.4893 49.0901L49.6039 45.0839Z" fill="#E2E0E1"/>
<path d="M55.0129 46.2092L52.8965 49.4883L54.9011 53.3192L57.0175 50.0401L55.0129 46.2092Z" fill="#E2E0E1"/>
<path d="M60.7833 31.0001L58.1172 35.1309L59.5031 37.7794L62.1692 33.6486L60.7833 31.0001Z" fill="#E2E0E1"/>
<path d="M112.934 94.5377L135.755 116.686V95.4924L114.302 93.9648L112.934 94.5377Z" fill="#E2E0E1"/>
<path d="M123.143 42.7943L124.215 40.4395L131.946 48.9043C131.946 48.9043 132.501 46.7404 132.648 46.804C132.796 46.8677 137.679 51.6411 137.679 51.6411L136.902 56.8601L123.143 42.7943Z" fill="#E2E0E1"/>
<path d="M128.396 14.8526L129.653 12.625L131.65 16.0619L130.356 18.2895L128.396 14.8526Z" fill="#E2E0E1"/>
<path d="M120.627 64.752L120.516 74.1079L124.177 74.4898L123.992 82.891L115.152 82.7001L114.856 91.6741L136.679 93.3926L135.903 83.5275L126.988 83.1456L127.173 74.5534L131.131 74.808L131.168 65.0702L120.627 64.752Z" fill="#E2E0E1"/>
<path d="M48.3154 93.0741L50.9046 98.2931L52.4211 95.8745L49.8689 90.9102L48.3154 93.0741Z" fill="#E2E0E1"/>
<path d="M86.9316 45.9124L88.0413 47.4399L90.4085 43.6211L89.1879 41.7754L86.9316 45.9124Z" fill="#E2E0E1"/>
<path d="M116.447 36.684L124.585 24.4004L125.842 26.3098L122.772 30.765L123.29 32.8016L119.258 38.7843L116.447 36.684Z" fill="#E2E0E1"/>
<path d="M116.261 52.3477V46.6952H117.068V51.6451H120.129V52.3477H116.261ZM123.505 52.4123C123.074 52.4123 122.673 52.3396 122.302 52.1942C121.935 52.0489 121.618 51.847 121.349 51.5886C121.079 51.3248 120.87 51.018 120.719 50.6681C120.568 50.3181 120.493 49.9359 120.493 49.5214C120.493 49.1069 120.568 48.7247 120.719 48.3748C120.87 48.0248 121.079 47.7207 121.349 47.4623C121.618 47.1985 121.935 46.9939 122.302 46.8486C122.668 46.7032 123.069 46.6306 123.505 46.6306C123.935 46.6306 124.331 46.7032 124.692 46.8486C125.058 46.9885 125.375 47.1904 125.645 47.4542C125.919 47.7126 126.129 48.0168 126.274 48.3667C126.425 48.7166 126.501 49.1015 126.501 49.5214C126.501 49.9413 126.425 50.3262 126.274 50.6761C126.129 51.026 125.919 51.3329 125.645 51.5967C125.375 51.8551 125.058 52.057 124.692 52.2023C124.331 52.3423 123.935 52.4123 123.505 52.4123ZM123.505 51.6936C123.817 51.6936 124.105 51.6397 124.369 51.5321C124.638 51.4244 124.869 51.2737 125.063 51.0799C125.262 50.8807 125.416 50.6492 125.523 50.3854C125.636 50.1216 125.693 49.8336 125.693 49.5214C125.693 49.2092 125.636 48.9212 125.523 48.6574C125.416 48.3936 125.262 48.1648 125.063 47.971C124.869 47.7718 124.638 47.6184 124.369 47.5107C124.105 47.4031 123.817 47.3492 123.505 47.3492C123.187 47.3492 122.894 47.4031 122.625 47.5107C122.361 47.6184 122.129 47.7718 121.93 47.971C121.731 48.1648 121.575 48.3936 121.462 48.6574C121.354 48.9212 121.3 49.2092 121.3 49.5214C121.3 49.8336 121.354 50.1216 121.462 50.3854C121.575 50.6492 121.731 50.8807 121.93 51.0799C122.129 51.2737 122.361 51.4244 122.625 51.5321C122.894 51.6397 123.187 51.6936 123.505 51.6936ZM128.861 52.3477L126.972 46.6952H127.803L129.54 51.9116H129.12L130.92 46.6952H131.663L133.424 51.9116H133.02L134.78 46.6952H135.547L133.658 52.3477H132.81L131.163 47.5107H131.381L129.725 52.3477H128.861ZM137.27 49.1338H140.177V49.8202H137.27V49.1338ZM137.343 51.6451H140.637V52.3477H136.535V46.6952H140.524V47.3977H137.343V51.6451ZM116.261 62.3477V56.6952H118.465C118.961 56.6952 119.383 56.7732 119.733 56.9293C120.083 57.0854 120.352 57.3115 120.541 57.6076C120.729 57.9037 120.823 58.2563 120.823 58.6655C120.823 59.0746 120.729 59.4272 120.541 59.7233C120.352 60.014 120.083 60.2374 119.733 60.3935C119.383 60.5496 118.961 60.6277 118.465 60.6277H116.705L117.068 60.2562V62.3477H116.261ZM120.04 62.3477L118.603 60.2966H119.467L120.92 62.3477H120.04ZM117.068 60.337L116.705 59.9413H118.441C118.958 59.9413 119.348 59.8309 119.612 59.6102C119.881 59.3841 120.016 59.0692 120.016 58.6655C120.016 58.2617 119.881 57.9495 119.612 57.7288C119.348 57.508 118.958 57.3977 118.441 57.3977H116.705L117.068 56.9939V60.337ZM123.759 62.3477L121.272 56.6952H122.144L124.429 61.9116H123.929L126.23 56.6952H127.038L124.559 62.3477H123.759ZM126.721 62.3477L129.281 56.6952H130.08L132.648 62.3477H131.8L129.515 57.1474H129.838L127.553 62.3477H126.721ZM127.811 60.9345L128.029 60.2885H131.211L131.445 60.9345H127.811ZM133.491 62.3477V56.6952H134.299V62.3477H133.491ZM135.991 62.3477V56.6952H136.799V61.6451H139.859V62.3477H135.991ZM142.378 62.4123C141.947 62.4123 141.535 62.3477 141.142 62.2185C140.749 62.0839 140.44 61.9116 140.214 61.7017L140.512 61.0718C140.728 61.2602 141.002 61.4163 141.336 61.5402C141.67 61.664 142.017 61.7259 142.378 61.7259C142.706 61.7259 142.973 61.6882 143.177 61.6128C143.382 61.5375 143.532 61.4352 143.629 61.306C143.726 61.1714 143.775 61.0207 143.775 60.8538C143.775 60.66 143.71 60.5039 143.581 60.3854C143.457 60.267 143.293 60.1728 143.088 60.1028C142.889 60.0274 142.668 59.9628 142.426 59.909C142.184 59.8552 141.939 59.7933 141.691 59.7233C141.449 59.6479 141.226 59.5537 141.021 59.4407C140.822 59.3276 140.66 59.1769 140.537 58.9885C140.413 58.7947 140.351 58.547 140.351 58.2456C140.351 57.9549 140.426 57.6884 140.577 57.4461C140.733 57.1985 140.97 57.002 141.288 56.8567C141.611 56.7059 142.02 56.6306 142.515 56.6306C142.843 56.6306 143.169 56.6736 143.492 56.7598C143.815 56.8459 144.095 56.9697 144.332 57.1312L144.065 57.7772C143.823 57.6157 143.567 57.5 143.298 57.43C143.029 57.3546 142.768 57.3169 142.515 57.3169C142.197 57.3169 141.936 57.3573 141.732 57.4381C141.527 57.5188 141.376 57.6265 141.28 57.7611C141.188 57.8956 141.142 58.0464 141.142 58.2133C141.142 58.4124 141.204 58.5712 141.328 58.6897C141.457 58.8081 141.621 58.9023 141.821 58.9723C142.025 59.0423 142.249 59.1069 142.491 59.1661C142.733 59.2199 142.975 59.2818 143.218 59.3518C143.465 59.4218 143.689 59.5133 143.888 59.6264C144.092 59.7394 144.257 59.8902 144.38 60.0786C144.504 60.267 144.566 60.5092 144.566 60.8053C144.566 61.0906 144.488 61.3571 144.332 61.6048C144.176 61.847 143.934 62.0435 143.605 62.1942C143.282 62.3396 142.873 62.4123 142.378 62.4123ZM116.261 72.3477V66.6952H118.797C119.448 66.6952 119.949 66.827 120.298 67.0908C120.648 67.3492 120.823 67.7045 120.823 68.1567C120.823 68.4636 120.753 68.722 120.613 68.9319C120.479 69.1419 120.296 69.3034 120.064 69.4164C119.833 69.5295 119.582 69.586 119.313 69.586L119.459 69.3438C119.782 69.3438 120.067 69.4003 120.315 69.5133C120.562 69.6264 120.759 69.7933 120.904 70.014C121.049 70.2293 121.122 70.4985 121.122 70.8215C121.122 71.306 120.939 71.6828 120.573 71.952C120.212 72.2158 119.674 72.3477 118.958 72.3477H116.261ZM117.068 71.6936H118.926C119.373 71.6936 119.714 71.6182 119.951 71.4675C120.188 71.3167 120.307 71.0799 120.307 70.7569C120.307 70.4285 120.188 70.1889 119.951 70.0382C119.714 69.8875 119.373 69.8121 118.926 69.8121H116.996V69.158H118.724C119.133 69.158 119.451 69.0827 119.677 68.9319C119.903 68.7812 120.016 68.5551 120.016 68.2536C120.016 67.9522 119.903 67.7261 119.677 67.5753C119.451 67.4246 119.133 67.3492 118.724 67.3492H117.068V71.6936ZM124.714 72.4123C123.971 72.4123 123.387 72.1996 122.962 71.7743C122.537 71.349 122.324 70.7273 122.324 69.909V66.6952H123.131V69.8767C123.131 70.5066 123.269 70.9668 123.543 71.2575C123.823 71.5482 124.216 71.6936 124.722 71.6936C125.234 71.6936 125.627 71.5482 125.901 71.2575C126.181 70.9668 126.321 70.5066 126.321 69.8767V66.6952H127.104V69.909C127.104 70.7273 126.892 71.349 126.466 71.7743C126.047 72.1996 125.462 72.4123 124.714 72.4123ZM128.76 72.3477V66.6952H130.964C131.46 66.6952 131.882 66.7732 132.232 66.9293C132.582 67.0854 132.851 67.3115 133.04 67.6076C133.228 67.9037 133.322 68.2563 133.322 68.6655C133.322 69.0746 133.228 69.4272 133.04 69.7233C132.851 70.014 132.582 70.2374 132.232 70.3935C131.882 70.5496 131.46 70.6277 130.964 70.6277H129.204L129.567 70.2562V72.3477H128.76ZM132.539 72.3477L131.102 70.2966H131.966L133.419 72.3477H132.539ZM129.567 70.337L129.204 69.9413H130.94C131.457 69.9413 131.847 69.8309 132.111 69.6102C132.38 69.3841 132.515 69.0692 132.515 68.6655C132.515 68.2617 132.38 67.9495 132.111 67.7288C131.847 67.508 131.457 67.3977 130.94 67.3977H129.204L129.567 66.9939V70.337ZM137.179 72.4123C136.743 72.4123 136.341 72.3423 135.975 72.2023C135.609 72.057 135.292 71.8551 135.023 71.5967C134.753 71.3329 134.543 71.026 134.393 70.6761C134.242 70.3262 134.167 69.9413 134.167 69.5214C134.167 69.1015 134.242 68.7166 134.393 68.3667C134.543 68.0168 134.753 67.7126 135.023 67.4542C135.297 67.1904 135.617 66.9885 135.983 66.8486C136.35 66.7032 136.753 66.6306 137.195 66.6306C137.642 66.6306 138.051 66.7032 138.422 66.8486C138.794 66.9939 139.108 67.212 139.367 67.5027L138.866 68.0033C138.635 67.7772 138.382 67.613 138.107 67.5107C137.838 67.4031 137.545 67.3492 137.227 67.3492C136.904 67.3492 136.603 67.4031 136.323 67.5107C136.048 67.6184 135.808 67.7691 135.604 67.9629C135.405 68.1567 135.249 68.3882 135.136 68.6574C135.028 68.9212 134.974 69.2092 134.974 69.5214C134.974 69.8283 135.028 70.1163 135.136 70.3854C135.249 70.6492 135.405 70.8807 135.604 71.0799C135.808 71.2737 136.048 71.4244 136.323 71.5321C136.597 71.6397 136.896 71.6936 137.219 71.6936C137.52 71.6936 137.808 71.6478 138.083 71.5563C138.363 71.4594 138.621 71.3006 138.858 71.0799L139.318 71.6936C139.038 71.9304 138.71 72.1108 138.333 72.2346C137.962 72.353 137.577 72.4123 137.179 72.4123ZM138.543 71.5886V69.4891H139.318V71.6936L138.543 71.5886Z" fill="#606161"/>
<path d="M68.2746 -20.8534C67.5317 -20.8534 66.9476 -21.066 66.5223 -21.4913C66.097 -21.9166 65.8844 -22.5384 65.8844 -23.3566V-26.5705H66.6919V-23.3889C66.6919 -22.7591 66.8292 -22.2988 67.1037 -22.0081C67.3836 -21.7174 67.7766 -21.572 68.2827 -21.572C68.7941 -21.572 69.1871 -21.7174 69.4616 -22.0081C69.7415 -22.2988 69.8815 -22.7591 69.8815 -23.3889V-26.5705H70.6648V-23.3566C70.6648 -22.5384 70.4521 -21.9166 70.0269 -21.4913C69.607 -21.066 69.0229 -20.8534 68.2746 -20.8534ZM65.9328 -10.918V-16.5705H66.595L70.3337 -11.9273H69.9865V-16.5705H70.794V-10.918H70.1318L66.3931 -15.5611H66.7403V-10.918H65.9328ZM72.4859 -10.918V-16.5705H73.2934V-10.918H72.4859ZM68.4845 -0.853369C68.0539 -0.853369 67.6528 -0.926044 67.2814 -1.07139C66.9153 -1.21674 66.5977 -1.41862 66.3285 -1.67702C66.0593 -1.9408 65.8494 -2.24765 65.6987 -2.59757C65.5479 -2.94749 65.4726 -3.3297 65.4726 -3.74422C65.4726 -4.15874 65.5479 -4.54095 65.6987 -4.89087C65.8494 -5.24079 66.0593 -5.54494 66.3285 -5.80334C66.5977 -6.06713 66.9153 -6.27169 67.2814 -6.41704C67.6474 -6.56239 68.0485 -6.63507 68.4845 -6.63507C68.9152 -6.63507 69.3109 -6.56239 69.6716 -6.41704C70.0376 -6.27708 70.3552 -6.0752 70.6244 -5.81142C70.899 -5.55302 71.1089 -5.24886 71.2543 -4.89894C71.405 -4.54903 71.4804 -4.16412 71.4804 -3.74422C71.4804 -3.32432 71.405 -2.93941 71.2543 -2.58949C71.1089 -2.23958 70.899 -1.93273 70.6244 -1.66894C70.3552 -1.41054 70.0376 -1.20867 69.6716 -1.06332C69.3109 -0.923352 68.9152 -0.853369 68.4845 -0.853369ZM68.4845 -1.57204C68.7968 -1.57204 69.0848 -1.62588 69.3486 -1.73354C69.6177 -1.84121 69.8492 -1.99194 70.043 -2.18574C70.2422 -2.38493 70.3956 -2.61641 70.5033 -2.88019C70.6163 -3.14398 70.6729 -3.43199 70.6729 -3.74422C70.6729 -4.05645 70.6163 -4.34446 70.5033 -4.60824C70.3956 -4.87203 70.2422 -5.10082 70.043 -5.29462C69.8492 -5.4938 69.6177 -5.64723 69.3486 -5.75489C69.0848 -5.86256 68.7968 -5.91639 68.4845 -5.91639C68.1669 -5.91639 67.8735 -5.86256 67.6044 -5.75489C67.3406 -5.64723 67.1091 -5.4938 66.9099 -5.29462C66.7107 -5.10082 66.5546 -4.87203 66.4416 -4.60824C66.3339 -4.34446 66.2801 -4.05645 66.2801 -3.74422C66.2801 -3.43199 66.3339 -3.14398 66.4416 -2.88019C66.5546 -2.61641 66.7107 -2.38493 66.9099 -2.18574C67.1091 -1.99194 67.3406 -1.84121 67.6044 -1.73354C67.8735 -1.62588 68.1669 -1.57204 68.4845 -1.57204ZM65.9328 9.08203V3.42953H66.595L70.3337 8.07266H69.9865V3.42953H70.794V9.08203H70.1318L66.3931 4.43891H66.7403V9.08203H65.9328Z" fill="#606161"/>
<path d="M97.176 27.5124C97.1489 27.7307 97.0948 27.9287 97.0138 28.1065C96.9333 28.2809 96.8453 28.4094 96.75 28.4919L96.4181 28.1622C96.504 28.0762 96.5823 27.9597 96.6529 27.8128C96.7235 27.6658 96.7695 27.5063 96.7909 27.3343C96.8184 27.1126 96.8085 26.9429 96.761 26.8251C96.7139 26.704 96.6371 26.6239 96.5308 26.5847C96.4526 26.5559 96.3879 26.5632 96.3367 26.6067C96.2855 26.6501 96.2428 26.7174 96.2085 26.8086C96.1747 26.8964 96.1426 26.997 96.1121 27.1104C96.0785 27.2225 96.0418 27.3336 96.002 27.4434C95.959 27.5522 95.9079 27.6475 95.8487 27.7295C95.7863 27.8103 95.7092 27.8649 95.6173 27.8934C95.5223 27.9207 95.4029 27.9078 95.259 27.8549C95.1088 27.7996 94.983 27.7066 94.8815 27.5758C94.78 27.445 94.7096 27.2877 94.6703 27.1037C94.6283 26.9153 94.6212 26.7086 94.6492 26.4836C94.6706 26.3116 94.7125 26.1454 94.775 25.9851C94.8347 25.8203 94.9076 25.6949 94.9935 25.6089L95.3248 25.9436C95.2349 26.0351 95.1679 26.1401 95.1237 26.2587C95.0795 26.3774 95.0494 26.5012 95.0334 26.6302C95.0075 26.8386 95.021 27.0062 95.0739 27.1329C95.1237 27.2585 95.1987 27.3397 95.2988 27.3766C95.3833 27.4077 95.4527 27.4021 95.507 27.3598C95.5586 27.3131 95.6029 27.2463 95.6398 27.1596C95.6772 27.0696 95.7127 26.9685 95.7462 26.8563C95.7767 26.743 95.8134 26.632 95.8563 26.5232C95.8962 26.4134 95.9455 26.3191 96.0044 26.2404C96.0636 26.1585 96.1392 26.1033 96.231 26.0748C96.3233 26.0431 96.4398 26.0531 96.5806 26.1049C96.7308 26.1602 96.8548 26.2543 96.9528 26.3872C97.0508 26.5201 97.1206 26.6825 97.1621 26.8742C97.2006 27.0648 97.2052 27.2775 97.176 27.5124ZM97.5036 24.8777C97.4707 25.1423 97.3779 25.3227 97.2253 25.4187C97.0727 25.5147 96.8713 25.5167 96.621 25.4246L94.3406 24.5851L94.3998 24.1088L96.6615 24.9413C96.796 24.9908 96.9035 24.9941 96.9841 24.9511C97.0651 24.9048 97.1138 24.8155 97.1303 24.6832C97.1488 24.5344 97.1251 24.3959 97.0593 24.2679L97.4015 24.2382C97.4519 24.3329 97.4848 24.4366 97.5002 24.5496C97.516 24.6592 97.5172 24.7685 97.5036 24.8777ZM95.2 25.3685L94.8294 25.2321L95.0379 23.5549L95.4086 23.6914L95.2 25.3685ZM97.6186 23.7159L95.1317 22.8004L95.1884 22.3439L95.8641 22.5926L95.6896 22.5751C95.5266 22.439 95.4105 22.2682 95.3411 22.0628C95.2718 21.8574 95.2528 21.629 95.284 21.3776L95.7204 21.5382C95.7148 21.5569 95.7108 21.5762 95.7083 21.5961C95.7063 21.6126 95.7042 21.6291 95.7021 21.6457C95.6705 21.9004 95.7173 22.1287 95.8427 22.3305C95.9681 22.5323 96.1669 22.6833 96.439 22.7835L97.6778 23.2395L97.6186 23.7159ZM98.0381 20.5782C98.0032 20.8594 97.9176 21.0873 97.7814 21.262C97.6456 21.4334 97.4748 21.5436 97.2692 21.5924C97.064 21.6379 96.8378 21.6152 96.5907 21.5242C96.3436 21.4333 96.1316 21.2964 95.9547 21.1137C95.7783 20.9277 95.6493 20.7159 95.5676 20.4782C95.4832 20.2362 95.4566 19.9894 95.4879 19.738C95.5195 19.4833 95.6007 19.2779 95.7313 19.1219C95.8619 18.9659 96.031 18.869 96.2385 18.8312C96.4433 18.789 96.674 18.8151 96.9305 18.9095C96.9493 18.9164 96.971 18.9261 96.9956 18.9387C97.0206 18.9479 97.0438 18.9582 97.0653 18.9695L96.7871 21.2074L96.4633 21.0882L96.7107 19.0985L96.7993 19.3334C96.6401 19.2714 96.4935 19.2537 96.3593 19.2804C96.2251 19.3072 96.1156 19.3723 96.0308 19.476C95.9432 19.5752 95.8889 19.7092 95.8679 19.8779C95.8474 20.0433 95.865 20.2038 95.921 20.3592C95.9737 20.5136 96.0597 20.6508 96.1789 20.7707C96.295 20.8896 96.4344 20.9789 96.5971 21.0388L96.6721 21.0665C96.8379 21.1275 96.9915 21.1425 97.1327 21.1115C97.2713 21.076 97.3855 20.9987 97.4756 20.8796C97.5656 20.7606 97.6224 20.6068 97.6458 20.4182C97.6652 20.2627 97.6576 20.1129 97.6232 19.9688C97.5892 19.8214 97.5281 19.6813 97.4399 19.5485L97.7635 19.3926C97.8801 19.56 97.9617 19.7458 98.0083 19.9497C98.0553 20.1504 98.0653 20.3599 98.0381 20.5782ZM98.4158 17.54C98.3809 17.8211 98.2953 18.0491 98.1591 18.2238C98.0233 18.3952 97.8526 18.5053 97.6469 18.5542C97.4417 18.5997 97.2155 18.577 96.9684 18.486C96.7213 18.3951 96.5093 18.2582 96.3325 18.0755C96.156 17.8895 96.027 17.6777 95.9453 17.44C95.8609 17.1979 95.8343 16.9512 95.8656 16.6998C95.8973 16.4451 95.9784 16.2397 96.109 16.0837C96.2396 15.9277 96.4087 15.8308 96.6162 15.793C96.821 15.7508 97.0517 15.7769 97.3082 15.8713C97.327 15.8782 97.3487 15.8879 97.3733 15.9005C97.3983 15.9097 97.4216 15.92 97.4431 15.9313L97.1648 18.1692L96.8411 18.05L97.0884 16.0602L97.177 16.2952C97.0179 16.2332 96.8712 16.2155 96.737 16.2422C96.6029 16.2689 96.4934 16.3341 96.4085 16.4378C96.3209 16.537 96.2666 16.671 96.2457 16.8397C96.2251 17.0051 96.2428 17.1655 96.2987 17.321C96.3515 17.4754 96.4375 17.6125 96.5567 17.7325C96.6728 17.8514 96.8121 17.9407 96.9748 18.0006L97.0499 18.0282C97.2157 18.0893 97.3692 18.1043 97.5104 18.0732C97.649 18.0378 97.7633 17.9605 97.8533 17.8414C97.9434 17.7224 98.0001 17.5685 98.0235 17.38C98.0429 17.2245 98.0353 17.0747 98.0009 16.9306C97.9669 16.7832 97.9058 16.6431 97.8176 16.5103L98.1412 16.3544C98.2578 16.5218 98.3394 16.7075 98.386 16.9115C98.4331 17.1122 98.443 17.3216 98.4158 17.54ZM98.7603 14.7697C98.7274 15.0343 98.6346 15.2147 98.482 15.3107C98.3294 15.4067 98.128 15.4087 97.8777 15.3166L95.5972 14.4771L95.6565 14.0008L97.9182 14.8333C98.0527 14.8828 98.1602 14.8861 98.2408 14.8431C98.3218 14.7968 98.3705 14.7075 98.387 14.5752C98.4055 14.4264 98.3818 14.2879 98.3159 14.1599L98.6582 14.1302C98.7086 14.2249 98.7415 14.3286 98.7569 14.4416C98.7727 14.5512 98.7738 14.6605 98.7603 14.7697ZM96.4567 15.2605L96.086 15.1241L96.2945 13.4469L96.6652 13.5834L96.4567 15.2605ZM100.349 28.0006C100.376 27.7856 100.438 27.6115 100.537 27.4782C100.635 27.3416 100.77 27.2563 100.941 27.2224C101.113 27.1885 101.32 27.2165 101.564 27.3063L102.995 27.8331L102.936 28.3095L101.556 27.8016C101.316 27.713 101.126 27.709 100.989 27.7898C100.851 27.8673 100.769 28.0185 100.741 28.2435C100.72 28.4122 100.733 28.5709 100.78 28.7196C100.827 28.8684 100.907 28.9999 101.02 29.1143C101.134 29.2254 101.282 29.3143 101.463 29.3811L102.744 29.8526L102.685 30.329L100.198 29.4135L100.255 28.957L100.926 29.204L100.738 29.2128C100.586 29.0669 100.476 28.888 100.407 28.6759C100.339 28.4639 100.319 28.2388 100.349 28.0006ZM103.308 25.3191L102.782 25.1256L102.681 25.1142L101.784 24.7842C101.594 24.714 101.439 24.7194 101.321 24.8005C101.2 24.8771 101.125 25.0329 101.096 25.2678C101.077 25.4232 101.083 25.5846 101.114 25.7519C101.143 25.918 101.191 26.0673 101.26 26.1998L100.897 26.2739C100.811 26.1003 100.753 25.9094 100.723 25.7013C100.691 25.4887 100.688 25.2782 100.713 25.0698C100.758 24.7092 100.876 24.4619 101.066 24.3277C101.256 24.1936 101.521 24.1893 101.862 24.3148L103.364 24.8675L103.308 25.3191ZM103.229 26.1928C103.204 26.388 103.152 26.5485 103.071 26.6743C102.99 26.7968 102.89 26.8776 102.771 26.9167C102.648 26.9547 102.516 26.9477 102.376 26.8959C102.241 26.8464 102.123 26.7684 102.022 26.6619C101.921 26.5522 101.847 26.4091 101.801 26.2328C101.754 26.0531 101.747 25.8326 101.78 25.5713L101.883 24.7377L102.207 24.8569L102.106 25.6706C102.076 25.9088 102.094 26.083 102.159 26.1934C102.224 26.3037 102.309 26.3785 102.415 26.4176C102.537 26.4625 102.642 26.4475 102.73 26.3726C102.815 26.2965 102.869 26.1675 102.891 25.9856C102.913 25.807 102.895 25.6377 102.837 25.4777C102.778 25.3145 102.681 25.1766 102.545 25.0641L102.866 25.0838C103.005 25.2008 103.109 25.3548 103.177 25.5458C103.241 25.7357 103.259 25.9513 103.229 26.1928ZM101.372 19.7722C101.398 19.5605 101.461 19.388 101.559 19.2546C101.657 19.1213 101.792 19.0394 101.963 19.0088C102.134 18.9749 102.341 19.0029 102.585 19.0927L104.016 19.6195L103.957 20.0959L102.578 19.588C102.337 19.4994 102.148 19.4921 102.011 19.5663C101.874 19.6405 101.792 19.7851 101.766 20.0001C101.746 20.1589 101.76 20.3093 101.808 20.4515C101.856 20.5936 101.936 20.7202 102.05 20.8312C102.164 20.939 102.312 21.0263 102.494 21.0931L103.775 21.5646L103.715 22.0409L102.336 21.5331C102.095 21.4445 101.906 21.4372 101.769 21.5114C101.633 21.5823 101.551 21.7269 101.524 21.9452C101.505 22.1007 101.519 22.2495 101.567 22.3916C101.614 22.5337 101.695 22.6603 101.809 22.7713C101.923 22.8824 102.07 22.9713 102.252 23.0381L103.533 23.5097L103.473 23.986L100.987 23.0706L101.043 22.6141L101.705 22.8576L101.527 22.8699C101.374 22.7273 101.263 22.5533 101.194 22.3479C101.125 22.1425 101.104 21.9256 101.133 21.6974C101.164 21.446 101.25 21.2512 101.392 21.113C101.53 20.9737 101.722 20.9197 101.966 20.9509L101.867 21.1168C101.686 20.9672 101.55 20.7718 101.459 20.5307C101.368 20.2897 101.339 20.0368 101.372 19.7722ZM104.299 17.5824C104.264 17.8636 104.178 18.0915 104.042 18.2662C103.906 18.4376 103.736 18.5478 103.53 18.5966C103.325 18.6421 103.099 18.6194 102.852 18.5285C102.604 18.4375 102.393 18.3006 102.216 18.1179C102.039 17.9319 101.91 17.7201 101.828 17.4824C101.744 17.2404 101.718 16.9936 101.749 16.7422C101.78 16.4875 101.862 16.2821 101.992 16.1261C102.123 15.9701 102.292 15.8732 102.499 15.8354C102.704 15.7932 102.935 15.8193 103.191 15.9137C103.21 15.9206 103.232 15.9304 103.256 15.9429C103.282 15.9521 103.305 15.9624 103.326 15.9737L103.048 18.2116L102.724 18.0924L102.972 16.1027L103.06 16.3376C102.901 16.2756 102.754 16.2579 102.62 16.2846C102.486 16.3114 102.377 16.3766 102.292 16.4802C102.204 16.5795 102.15 16.7134 102.129 16.8821C102.108 17.0475 102.126 17.208 102.182 17.3635C102.235 17.5178 102.321 17.655 102.44 17.775C102.556 17.8938 102.695 17.9831 102.858 18.043L102.933 18.0707C103.099 18.1317 103.252 18.1467 103.394 18.1157C103.532 18.0802 103.646 18.0029 103.737 17.8838C103.827 17.7648 103.883 17.611 103.907 17.4224C103.926 17.2669 103.919 17.1171 103.884 16.973C103.85 16.8256 103.789 16.6855 103.701 16.5527L104.024 16.3968C104.141 16.5643 104.223 16.75 104.269 16.9539C104.316 17.1546 104.326 17.3641 104.299 17.5824Z" fill="#818181"/>
<path d="M105.622 84.1126C105.564 84.3246 105.484 84.5079 105.384 84.6626C105.285 84.814 105.187 84.9168 105.09 84.9711L104.85 84.5372C104.939 84.4767 105.027 84.383 105.113 84.2562C105.199 84.1295 105.265 83.9826 105.311 83.8156C105.371 83.6004 105.389 83.4261 105.366 83.2928C105.344 83.1562 105.289 83.052 105.201 82.9801C105.137 82.9272 105.078 82.9149 105.026 82.9431C104.974 82.9713 104.926 83.0261 104.881 83.1077C104.837 83.186 104.793 83.2777 104.748 83.3828C104.7 83.4857 104.65 83.5866 104.597 83.6853C104.542 83.7819 104.482 83.8625 104.417 83.9271C104.349 83.9897 104.272 84.0213 104.186 84.022C104.098 84.0206 103.995 83.9712 103.876 83.8739C103.753 83.7724 103.656 83.6402 103.588 83.4774C103.519 83.3145 103.482 83.1343 103.477 82.9367C103.47 82.7338 103.497 82.5231 103.557 82.3047C103.603 82.1377 103.667 81.9828 103.748 81.8401C103.827 81.692 103.911 81.5877 104 81.5271L104.239 81.9658C104.145 82.0306 104.07 82.1162 104.012 82.2224C103.954 82.3287 103.907 82.4444 103.873 82.5697C103.817 82.772 103.802 82.9452 103.828 83.0892C103.852 83.2311 103.905 83.3359 103.988 83.4035C104.057 83.4606 104.119 83.4761 104.174 83.4501C104.227 83.4186 104.277 83.3648 104.323 83.2886C104.371 83.2091 104.418 83.118 104.465 83.015C104.51 82.91 104.561 82.8091 104.616 82.7125C104.668 82.6138 104.727 82.5338 104.791 82.4723C104.857 82.4077 104.932 82.375 105.018 82.3743C105.104 82.3704 105.206 82.416 105.322 82.5112C105.445 82.6127 105.54 82.7455 105.605 82.9094C105.67 83.0734 105.706 83.2584 105.712 83.4645C105.715 83.6685 105.686 83.8846 105.622 84.1126ZM106.332 81.5544C106.26 81.8113 106.15 81.965 106 82.0154C105.85 82.0658 105.672 82.0063 105.466 81.8371L103.588 80.2953L103.716 79.8327L105.579 81.3619C105.689 81.4529 105.784 81.4889 105.862 81.4701C105.94 81.4481 105.998 81.3729 106.033 81.2444C106.073 81.0998 106.075 80.953 106.037 80.8037L106.344 80.8781C106.373 80.9889 106.385 81.1037 106.381 81.2223C106.377 81.3377 106.361 81.4484 106.332 81.5544ZM104.221 81.3475L103.916 81.0969L104.367 79.4684L104.673 79.7191L104.221 81.3475ZM106.618 80.4172L104.57 78.7358L104.693 78.2925L105.25 78.7494L105.099 78.6785C104.977 78.4915 104.901 78.2839 104.873 78.0555C104.844 77.8271 104.864 77.5909 104.932 77.3468L105.291 77.6418C105.283 77.659 105.277 77.6772 105.271 77.6965C105.267 77.7125 105.262 77.7286 105.258 77.7447C105.189 77.992 105.194 78.2366 105.273 78.4784C105.351 78.7202 105.502 78.9331 105.727 79.1172L106.747 79.9547L106.618 80.4172ZM107.489 77.3795C107.414 77.6526 107.302 77.8564 107.154 77.9912C107.006 78.1227 106.838 78.1818 106.649 78.1684C106.461 78.1518 106.265 78.06 106.061 77.8929C105.858 77.7258 105.693 77.5232 105.566 77.2849C105.44 77.0435 105.36 76.7905 105.325 76.5258C105.29 76.2559 105.306 75.9988 105.373 75.7547C105.442 75.5074 105.546 75.3249 105.686 75.2073C105.826 75.0897 105.991 75.0435 106.18 75.0686C106.368 75.0885 106.567 75.1851 106.778 75.3585C106.794 75.3712 106.811 75.3876 106.831 75.4077C106.852 75.4247 106.87 75.4421 106.888 75.4602L106.285 77.6331L106.018 77.4142L106.554 75.4821L106.595 75.7462C106.464 75.6351 106.338 75.5726 106.215 75.5587C106.092 75.5447 105.985 75.5771 105.894 75.6559C105.801 75.7293 105.732 75.8479 105.686 76.0117C105.642 76.1723 105.632 76.3396 105.656 76.5135C105.678 76.6853 105.732 76.8499 105.818 77.0072C105.902 77.1625 106.01 77.2951 106.144 77.4051L106.206 77.4559C106.343 77.568 106.476 77.6299 106.605 77.6416C106.733 77.6481 106.846 77.6049 106.945 77.5122C107.043 77.4196 107.118 77.2817 107.169 77.0986C107.21 76.9476 107.228 76.7942 107.22 76.6383C107.214 76.4792 107.182 76.3192 107.126 76.1584L107.436 76.0997C107.512 76.3042 107.555 76.5164 107.563 76.7364C107.573 76.9532 107.548 77.1675 107.489 77.3795ZM108.307 74.4294C108.232 74.7025 108.12 74.9064 107.972 75.0411C107.824 75.1726 107.656 75.2317 107.467 75.2183C107.279 75.2017 107.083 75.1099 106.879 74.9428C106.676 74.7757 106.511 74.5731 106.384 74.3348C106.258 74.0934 106.178 73.8404 106.143 73.5757C106.108 73.3058 106.124 73.0487 106.191 72.8046C106.26 72.5573 106.364 72.3748 106.504 72.2572C106.644 72.1396 106.809 72.0934 106.998 72.1186C107.186 72.1384 107.385 72.235 107.596 72.4084C107.612 72.4211 107.629 72.4375 107.649 72.4576C107.67 72.4746 107.688 72.492 107.706 72.5101L107.103 74.683L106.836 74.4641L107.372 72.5321L107.413 72.7961C107.282 72.685 107.156 72.6225 107.033 72.6086C106.91 72.5946 106.803 72.627 106.712 72.7058C106.619 72.7792 106.55 72.8978 106.504 73.0616C106.46 73.2222 106.45 73.3895 106.474 73.5634C106.496 73.7352 106.55 73.8998 106.636 74.0571C106.72 74.2124 106.828 74.345 106.962 74.455L107.024 74.5058C107.161 74.6179 107.294 74.6798 107.423 74.6915C107.551 74.698 107.664 74.6548 107.763 74.5621C107.861 74.4695 107.936 74.3316 107.987 74.1485C108.028 73.9975 108.046 73.8441 108.038 73.6882C108.032 73.5291 108 73.3691 107.944 73.2083L108.254 73.1496C108.33 73.3541 108.373 73.5663 108.381 73.7863C108.391 74.0031 108.366 74.2174 108.307 74.4294ZM109.053 71.7395C108.982 71.9965 108.871 72.1501 108.721 72.2005C108.571 72.2509 108.393 72.1915 108.187 72.0223L106.309 70.4804L106.437 70.0179L108.3 71.5471C108.411 71.638 108.505 71.6741 108.583 71.6553C108.662 71.6333 108.719 71.558 108.755 71.4295C108.795 71.285 108.796 71.1381 108.758 70.9889L109.065 71.0632C109.094 71.1741 109.107 71.2888 109.102 71.4074C109.099 71.5228 109.082 71.6335 109.053 71.7395ZM106.942 71.5327L106.637 71.2821L107.089 69.6536L107.394 69.9042L106.942 71.5327ZM108.344 85.5722C108.402 85.3634 108.485 85.2067 108.593 85.1022C108.702 84.9945 108.834 84.9496 108.991 84.9675C109.147 84.9855 109.326 85.0769 109.527 85.2419L110.705 86.2095L110.577 86.6721L109.441 85.7393C109.242 85.5765 109.076 85.5148 108.942 85.5544C108.808 85.5907 108.711 85.7181 108.651 85.9366C108.605 86.1004 108.592 86.2644 108.609 86.4288C108.627 86.5932 108.677 86.7503 108.758 86.9003C108.841 87.047 108.957 87.1817 109.107 87.3043L110.161 88.1705L110.033 88.633L107.985 86.9515L108.108 86.5083L108.661 86.9619L108.494 86.9137C108.383 86.7202 108.314 86.506 108.288 86.2712C108.261 86.0365 108.28 85.8034 108.344 85.5722ZM111.382 83.7684L110.949 83.4131L110.861 83.3705L110.123 82.7646C109.966 82.6356 109.829 82.594 109.712 82.6398C109.593 82.6803 109.502 82.8146 109.439 83.0427C109.397 83.1936 109.377 83.3583 109.378 83.5367C109.376 83.7129 109.395 83.8784 109.435 84.0329L109.103 83.9972C109.055 83.7957 109.034 83.5855 109.041 83.3664C109.046 83.1421 109.077 82.9287 109.133 82.7263C109.23 82.3762 109.373 82.1625 109.562 82.0851C109.751 82.0076 109.986 82.0842 110.267 82.3147L111.504 83.33L111.382 83.7684ZM111.173 84.6258C111.12 84.8153 111.048 84.9612 110.957 85.0634C110.866 85.1624 110.765 85.2135 110.653 85.2165C110.539 85.2175 110.424 85.1704 110.308 85.0752C110.197 84.9842 110.106 84.8696 110.033 84.7314C109.962 84.5899 109.92 84.4231 109.907 84.2309C109.894 84.0355 109.923 83.811 109.994 83.5572L110.218 82.7478L110.485 82.9667L110.266 83.7568C110.202 83.9881 110.189 84.1693 110.229 84.3003C110.268 84.4314 110.332 84.5329 110.42 84.6048C110.52 84.6873 110.615 84.7041 110.704 84.6553C110.791 84.6044 110.859 84.4906 110.908 84.3139C110.956 84.1405 110.967 83.9641 110.941 83.7849C110.916 83.6024 110.852 83.4336 110.749 83.2785L111.03 83.3964C111.134 83.5568 111.201 83.7437 111.23 83.9571C111.257 84.1684 111.238 84.3913 111.173 84.6258ZM110.559 77.5823C110.616 77.3768 110.699 77.2217 110.807 77.1172C110.915 77.0127 111.047 76.971 111.202 76.9922C111.358 77.0101 111.537 77.1015 111.738 77.2665L112.917 78.2342L112.788 78.6967L111.652 77.7639C111.454 77.6011 111.288 77.5362 111.156 77.5694C111.023 77.6025 110.928 77.7235 110.87 77.9323C110.827 78.0864 110.816 78.2425 110.835 78.4004C110.855 78.5584 110.906 78.7107 110.988 78.8574C111.072 79.0009 111.189 79.134 111.338 79.2567L112.393 80.1228L112.265 80.5853L111.129 79.6526C110.93 79.4898 110.765 79.4249 110.632 79.458C110.501 79.488 110.405 79.6089 110.347 79.8209C110.305 79.9719 110.293 80.1264 110.313 80.2843C110.332 80.4422 110.383 80.5945 110.466 80.7413C110.549 80.888 110.665 81.0227 110.814 81.1454L111.869 82.0115L111.741 82.474L109.693 80.7926L109.816 80.3493L110.361 80.7966L110.202 80.7547C110.09 80.5644 110.02 80.3551 109.991 80.1267C109.963 79.8984 109.979 79.6734 110.041 79.4517C110.109 79.2076 110.216 79.0374 110.363 78.9411C110.507 78.8427 110.685 78.8466 110.896 78.9527L110.782 79.0899C110.646 78.8838 110.557 78.6452 110.515 78.3743C110.473 78.1033 110.488 77.8393 110.559 77.5823ZM113.491 76.2651C113.415 76.5381 113.303 76.742 113.155 76.8767C113.008 77.0083 112.84 77.0674 112.651 77.054C112.463 77.0374 112.267 76.9455 112.063 76.7784C111.86 76.6114 111.694 76.4087 111.567 76.1705C111.442 75.929 111.361 75.676 111.327 75.4114C111.291 75.1414 111.307 74.8844 111.375 74.6403C111.444 74.3929 111.548 74.2105 111.688 74.0929C111.828 73.9753 111.993 73.9291 112.182 73.9542C112.369 73.974 112.569 74.0706 112.78 74.2441C112.795 74.2567 112.813 74.2732 112.833 74.2933C112.853 74.3102 112.872 74.3277 112.889 74.3457L112.287 76.5186L112.02 76.2997L112.556 74.3677L112.597 74.6317C112.466 74.5207 112.34 74.4581 112.217 74.4442C112.094 74.4303 111.987 74.4627 111.896 74.5414C111.803 74.6148 111.733 74.7334 111.688 74.8972C111.644 75.0578 111.634 75.2251 111.658 75.399C111.68 75.5708 111.734 75.7354 111.82 75.8928C111.903 76.0481 112.012 76.1807 112.146 76.2907L112.208 76.3414C112.345 76.4535 112.478 76.5154 112.607 76.5272C112.735 76.5336 112.848 76.4905 112.947 76.3978C113.045 76.3051 113.12 76.1672 113.17 75.9841C113.212 75.8332 113.23 75.6797 113.222 75.5238C113.216 75.3647 113.184 75.2048 113.128 75.0439L113.438 74.9853C113.514 75.1897 113.556 75.402 113.565 75.6219C113.574 75.8387 113.55 76.0531 113.491 76.2651Z" fill="#818181"/>
<path d="M55.982 81.1585C55.7953 81.0422 55.6232 80.9018 55.4658 80.7373C55.3112 80.5746 55.1948 80.4209 55.1164 80.2762L55.3644 80.0101C55.4448 80.145 55.5503 80.2826 55.6808 80.4229C55.8113 80.5633 55.9501 80.6792 56.0972 80.7709C56.2868 80.889 56.4291 80.9426 56.5242 80.9317C56.6221 80.9226 56.6827 80.8626 56.7061 80.7517C56.7232 80.6702 56.7111 80.5907 56.6698 80.5133C56.6285 80.4359 56.5678 80.3593 56.4877 80.2836C56.4105 80.2097 56.3226 80.1328 56.2242 80.0531C56.1265 79.9701 56.0294 79.8838 55.9331 79.7942C55.8374 79.7014 55.7522 79.6041 55.6777 79.5023C55.6038 79.3973 55.5506 79.2848 55.5182 79.165C55.4865 79.042 55.4864 78.9054 55.518 78.7554C55.5509 78.5988 55.6179 78.4856 55.719 78.4157C55.8201 78.3459 55.9465 78.3232 56.0982 78.3475C56.2534 78.3704 56.4272 78.4418 56.6196 78.5616C56.7667 78.6533 56.9108 78.767 57.0518 78.9028C57.1964 79.0371 57.3089 79.1718 57.3893 79.3067L57.137 79.5702C57.0517 79.4285 56.9569 79.3086 56.8527 79.2105C56.7485 79.1124 56.6413 79.0289 56.5309 78.9602C56.3527 78.8492 56.2125 78.8006 56.1104 78.8145C56.0089 78.8251 55.9472 78.8826 55.9253 78.9869C55.9068 79.075 55.9178 79.1594 55.9584 79.24C56.0026 79.3192 56.0629 79.3974 56.1395 79.4746C56.2189 79.5535 56.3075 79.6345 56.4052 79.7176C56.5036 79.7973 56.6007 79.8836 56.6964 79.9764C56.7927 80.066 56.8768 80.1607 56.9485 80.2608C57.0231 80.3626 57.0766 80.4734 57.109 80.5932C57.1443 80.7147 57.1464 80.8489 57.1155 80.9957C57.0826 81.1523 57.0145 81.263 56.9113 81.3278C56.808 81.3926 56.6774 81.4127 56.5194 81.3881C56.362 81.3602 56.1829 81.2836 55.982 81.1585ZM58.2355 82.5622C58.0092 82.4212 57.8485 82.2418 57.7535 82.024C57.6585 81.8062 57.6385 81.5668 57.6934 81.3059L58.1937 78.9279L58.6011 79.1817L58.105 81.5401C58.0754 81.6804 58.0825 81.8065 58.1261 81.9185C58.1726 82.0323 58.2524 82.1245 58.3656 82.195C58.4929 82.2743 58.6076 82.2996 58.7096 82.2709L58.7659 82.6879C58.6906 82.7111 58.6061 82.71 58.5122 82.6848C58.4211 82.6612 58.3289 82.6204 58.2355 82.5622ZM57.611 79.6441L57.6923 79.2575L59.1268 80.1511L59.0455 80.5377L57.611 79.6441ZM59.2266 83.1464L59.7722 80.5531L60.1626 80.7963L60.0144 81.5009L60.0132 81.301C60.1132 81.1603 60.2467 81.0886 60.4138 81.0856C60.5808 81.0827 60.7718 81.1482 60.9869 81.2821L60.8911 81.7371C60.8748 81.7233 60.8582 81.7111 60.8412 81.7005C60.8271 81.6917 60.8129 81.6829 60.7988 81.6741C60.5809 81.5384 60.3926 81.5059 60.2337 81.5766C60.0748 81.6474 59.9655 81.8246 59.9058 82.1084L59.634 83.4002L59.2266 83.1464ZM55.1033 87.2521C54.8628 87.1023 54.6626 86.9131 54.5027 86.6843C54.3456 86.4574 54.2371 86.2127 54.1771 85.9502C54.1199 85.6896 54.1185 85.4304 54.1727 85.1727C54.2269 84.915 54.323 84.7166 54.4611 84.5776C54.602 84.4403 54.769 84.369 54.9621 84.3639C55.1587 84.3572 55.3645 84.4209 55.5795 84.5548C55.7974 84.6905 55.9781 84.8658 56.1217 85.0807C56.2653 85.2956 56.3625 85.5333 56.4133 85.7937C56.4677 86.0526 56.4667 86.3158 56.4104 86.5832C56.4063 86.6028 56.4001 86.6248 56.3918 86.6491C56.3863 86.6752 56.3797 86.6988 56.3721 86.7199L54.458 85.5275L54.5291 85.1899L56.2309 86.2501L56.0407 86.2644C56.0785 86.0998 56.08 85.9329 56.0453 85.7636C56.0105 85.5944 55.9454 85.4395 55.8502 85.299C55.7585 85.157 55.6404 85.041 55.4961 84.9511C55.3547 84.863 55.2209 84.8221 55.0948 84.8284C54.9693 84.8314 54.8614 84.8804 54.771 84.9754C54.6813 85.0671 54.6186 85.1978 54.5829 85.3674L54.5665 85.4457C54.5301 85.6186 54.5315 85.7946 54.5705 85.974C54.6131 86.1518 54.6888 86.3169 54.7975 86.4695C54.9062 86.6221 55.0412 86.7486 55.2025 86.8491C55.3354 86.9319 55.4612 86.9807 55.5797 86.9955C55.701 87.012 55.8137 86.9937 55.9177 86.9404L56.0788 87.3839C55.9481 87.4574 55.7988 87.4825 55.6309 87.4591C55.4659 87.4375 55.29 87.3685 55.1033 87.2521ZM57.7019 88.8709C57.4614 88.7211 57.2612 88.5318 57.1013 88.3031C56.9443 88.0761 56.8357 87.8314 56.7757 87.569C56.7186 87.3083 56.7171 87.0491 56.7713 86.7914C56.8255 86.5337 56.9217 86.3354 57.0597 86.1963C57.2006 86.059 57.3676 85.9878 57.5607 85.9826C57.7573 85.976 57.9631 86.0396 58.1782 86.1736C58.396 86.3093 58.5768 86.4846 58.7204 86.6995C58.864 86.9144 58.9612 87.152 59.012 87.4124C59.0663 87.6713 59.0654 87.9345 59.0091 88.202C59.005 88.2216 58.9987 88.2435 58.9904 88.2679C58.9849 88.294 58.9784 88.3175 58.9707 88.3386L57.0567 87.1463L57.1277 86.8087L58.8296 87.8688L58.6393 87.8831C58.6772 87.7185 58.6787 87.5516 58.6439 87.3824C58.6091 87.2131 58.5441 87.0582 58.4488 86.9177C58.3571 86.7757 58.2391 86.6598 58.0948 86.5699C57.9533 86.4818 57.8195 86.4409 57.6934 86.4471C57.5679 86.4502 57.46 86.4992 57.3697 86.5941C57.28 86.6858 57.2173 86.8165 57.1816 86.9861L57.1651 87.0644C57.1287 87.2373 57.1301 87.4134 57.1692 87.5927C57.2118 87.7705 57.2874 87.9357 57.3961 88.0883C57.5048 88.2408 57.6398 88.3674 57.8011 88.4678C57.9341 88.5507 58.0598 88.5995 58.1783 88.6142C58.2996 88.6308 58.4123 88.6124 58.5163 88.5592L58.6774 89.0026C58.5467 89.0762 58.3975 89.1013 58.2296 89.0779C58.0645 89.0562 57.8886 88.9872 57.7019 88.8709ZM60.0714 90.3469C59.845 90.2059 59.6843 90.0265 59.5894 89.8087C59.4944 89.5909 59.4743 89.3515 59.5292 89.0905L60.0295 86.7125L60.437 86.9663L59.9408 89.3247C59.9113 89.465 59.9183 89.5911 59.962 89.7032C60.0084 89.817 60.0882 89.9091 60.2014 89.9796C60.3287 90.0589 60.4434 90.0843 60.5455 90.0556L60.6018 90.4725C60.5265 90.4957 60.4419 90.4947 60.348 90.4694C60.2569 90.4459 60.1647 90.405 60.0714 90.3469ZM59.4468 87.4287L59.5282 87.0422L60.9626 87.9357L60.8813 88.3223L59.4468 87.4287ZM54.6244 90.6009C54.8083 90.7154 54.961 90.8567 55.0824 91.0246C55.2067 91.1943 55.291 91.3869 55.3352 91.6027C55.3795 91.8184 55.3748 92.0534 55.3213 92.3079L55.0073 93.8002L54.5999 93.5464L54.9025 92.1079C54.9554 91.8567 54.9414 91.634 54.8607 91.4399C54.7827 91.2474 54.6476 91.0913 54.4552 90.9714C54.3109 90.8816 54.1781 90.8357 54.0569 90.834C53.9356 90.8323 53.8319 90.8765 53.7457 90.9667C53.6624 91.0587 53.6008 91.1993 53.561 91.3885L53.28 92.7242L52.8726 92.4705L53.4181 89.8772L53.8086 90.1204L53.6614 90.8201L53.6368 90.5945C53.7461 90.4707 53.8871 90.4091 54.0598 90.4097C54.2324 90.4102 54.4206 90.474 54.6244 90.6009ZM57.1576 95.1397L57.2729 94.5917L57.2733 94.4757L57.4699 93.5412C57.5118 93.3422 57.4931 93.1571 57.4139 92.986C57.3382 92.8134 57.1999 92.6646 56.999 92.5394C56.866 92.4566 56.7304 92.4016 56.5921 92.3745C56.4545 92.3441 56.3329 92.344 56.2273 92.3742L56.1317 91.9162C56.2704 91.8808 56.4261 91.8856 56.5991 91.9306C56.7755 91.9741 56.9529 92.0514 57.1311 92.1624C57.4395 92.3545 57.659 92.589 57.7896 92.8659C57.9201 93.1428 57.948 93.459 57.8732 93.8145L57.5438 95.3803L57.1576 95.1397ZM56.413 94.7091C56.246 94.6051 56.1058 94.4808 55.9922 94.3362C55.8814 94.1935 55.8041 94.0438 55.7602 93.8874C55.717 93.7276 55.7108 93.5744 55.7417 93.4276C55.7712 93.2873 55.8263 93.1777 55.9069 93.0988C55.9903 93.0216 56.1043 92.9894 56.2489 93.0019C56.3963 93.0163 56.5817 93.093 56.8053 93.2323L57.5183 93.6764L57.4472 94.014L56.7512 93.5805C56.5475 93.4536 56.402 93.4072 56.3148 93.4415C56.2276 93.4757 56.1724 93.5483 56.149 93.6592C56.1223 93.7864 56.1445 93.9164 56.2157 94.0494C56.2877 94.179 56.4014 94.2923 56.557 94.3893C56.7098 94.4844 56.851 94.5281 56.9807 94.5203C57.1132 94.5143 57.2206 94.4521 57.3031 94.3338L57.3158 94.707C57.2298 94.8268 57.1093 94.8901 56.9543 94.8968C56.7999 94.9003 56.6195 94.8377 56.413 94.7091ZM61.6623 94.985C61.8434 95.0978 61.9947 95.2381 62.1161 95.406C62.2376 95.5739 62.3191 95.7649 62.3605 95.9788C62.4047 96.1945 62.4 96.4296 62.3465 96.684L62.0325 98.1764L61.6251 97.9226L61.9277 96.4841C61.9806 96.2329 61.9695 96.012 61.8944 95.8213C61.8193 95.6306 61.6898 95.478 61.5059 95.3635C61.3701 95.2789 61.2444 95.2375 61.1288 95.2393C61.0132 95.241 60.9137 95.2879 60.8304 95.3799C60.7499 95.4736 60.6897 95.6151 60.6499 95.8043L60.3689 97.1401L59.9614 96.8863L60.2641 95.4477C60.3169 95.1966 60.3058 94.9756 60.2307 94.785C60.1585 94.5961 60.029 94.4435 59.8422 94.3271C59.7092 94.2443 59.585 94.2038 59.4694 94.2056C59.3538 94.2074 59.2543 94.2542 59.171 94.3462C59.0876 94.4382 59.026 94.5788 58.9862 94.768L58.7052 96.1037L58.2978 95.8499L58.8434 93.2567L59.2338 93.4999L59.0887 94.1898L59.0621 93.974C59.1685 93.8484 59.3052 93.7842 59.4722 93.7812C59.6393 93.7783 59.8204 93.8376 60.0156 93.9592C60.2307 94.0932 60.4029 94.2706 60.5325 94.4915C60.6627 94.7091 60.7258 94.9569 60.7217 95.2347L60.5727 95.0533C60.6824 94.8967 60.8349 94.8108 61.0301 94.7959C61.2252 94.7809 61.436 94.844 61.6623 94.985ZM52.6327 98.9953C52.3922 98.8455 52.192 98.6562 52.0321 98.4275C51.8751 98.2005 51.7665 97.9558 51.7065 97.6934C51.6494 97.4327 51.6479 97.1735 51.7021 96.9158C51.7563 96.6581 51.8525 96.4598 51.9905 96.3207C52.1314 96.1834 52.2984 96.1122 52.4915 96.107C52.6881 96.1004 52.8939 96.164 53.109 96.298C53.3268 96.4337 53.5075 96.609 53.6511 96.8239C53.7947 97.0388 53.892 97.2764 53.9428 97.5368C53.9971 97.7957 53.9961 98.0589 53.9399 98.3264C53.9358 98.346 53.9295 98.3679 53.9212 98.3923C53.9157 98.4183 53.9092 98.4419 53.9015 98.463L51.9875 97.2707L52.0585 96.9331L53.7604 97.9932L53.5701 98.0075C53.608 97.8429 53.6095 97.676 53.5747 97.5068C53.5399 97.3375 53.4749 97.1826 53.3796 97.0421C53.2879 96.9001 53.1699 96.7842 53.0256 96.6943C52.8841 96.6062 52.7503 96.5653 52.6242 96.5715C52.4987 96.5746 52.3908 96.6236 52.3004 96.7185C52.2107 96.8102 52.1481 96.9409 52.1124 97.1105L52.0959 97.1888C52.0595 97.3617 52.0609 97.5378 52.1 97.7171C52.1426 97.8949 52.2182 98.0601 52.3269 98.2127C52.4356 98.3652 52.5706 98.4918 52.7319 98.5922C52.8649 98.6751 52.9906 98.7239 53.1091 98.7386C53.2304 98.7552 53.3431 98.7368 53.4471 98.6836L53.6082 99.127C53.4775 99.2006 53.3283 99.2257 53.1604 99.2022C52.9953 99.1806 52.8194 99.1116 52.6327 98.9953Z" fill="#818181"/>
<path d="M84.2497 17.8961C83.7188 17.2602 82.7729 17.175 82.1369 17.706C81.501 18.2369 81.4159 19.1828 81.9468 19.8187L83.0983 18.8574L84.2497 17.8961ZM102.262 41.8114L103.275 42.9182L104.332 41.9506L103.414 40.8501L102.262 41.8114ZM70.9639 70.4408L69.9514 69.334L68.1277 71.0022L70.4495 71.8498L70.9639 70.4408ZM83.0983 18.8574L81.9468 19.8187L101.111 42.7727L102.262 41.8114L103.414 40.8501L84.2497 17.8961L83.0983 18.8574ZM102.262 41.8114L101.25 40.7046L69.9514 69.334L70.9639 70.4408L71.9763 71.5476L103.275 42.9182L102.262 41.8114ZM70.9639 70.4408L70.4495 71.8498L85.7346 77.4301L86.2491 76.0211L86.7635 74.6121L71.4783 69.0318L70.9639 70.4408Z" fill="#112C2D"/>
<path d="M85.7637 75.7793L116.091 87.1825" stroke="black" stroke-opacity="0.3" stroke-width="3" stroke-linecap="round"/>
<path d="M82.6357 4.80469C85.3156 4.80469 87.4882 6.97734 87.4883 9.65723C87.4883 11.8213 86.0717 13.6537 84.1152 14.2793C84.1375 14.3622 84.1504 14.4491 84.1504 14.5391V18.8477C84.1502 19.3997 83.7025 19.8477 83.1504 19.8477C82.5985 19.8474 82.1506 19.3996 82.1504 18.8477V14.5391C82.1504 14.521 82.1524 14.5032 82.1533 14.4854C79.7001 14.243 77.7832 12.1742 77.7832 9.65723C77.7833 6.97746 79.956 4.80488 82.6357 4.80469Z" fill="#C91C1C"/>
<circle cx="117.307" cy="87.423" r="12.6163" fill="#1A1A1A" fill-opacity="0.2"/>
<path d="M117.304 72.3828C119.984 72.3828 122.156 74.5554 122.156 77.2354C122.156 79.3994 120.739 81.231 118.782 81.8564C118.805 81.9397 118.818 82.0269 118.818 82.1172V86.4258C118.818 86.9778 118.37 87.4258 117.818 87.4258C117.266 87.4257 116.819 86.9778 116.818 86.4258V82.1172C116.818 82.0992 116.819 82.0812 116.82 82.0635C114.367 81.8209 112.451 79.752 112.451 77.2354C112.451 74.5554 114.624 72.3828 117.304 72.3828Z" fill="#C91C1C"/>
<circle cx="74.1196" cy="-1.37651" r="2.42622" fill="white"/>
<circle cx="117.306" cy="77.2329" r="2.42622" fill="white"/>
<path d="M82.588 78.1121C82.4895 78.056 82.4137 77.9672 82.3738 77.861C82.3514 77.8013 82.3409 77.7377 82.3431 77.6739C82.3453 77.6101 82.36 77.5474 82.3865 77.4893C82.4129 77.4312 82.4506 77.3789 82.4973 77.3354C82.544 77.2919 82.5988 77.258 82.6586 77.2358L85.8368 76.0568L85.3103 72.7543C85.3 72.6912 85.3022 72.6266 85.3168 72.5644C85.3315 72.5022 85.3583 72.4434 85.3958 72.3916C85.4332 72.3398 85.4805 72.2958 85.535 72.2623C85.5894 72.2288 85.65 72.2064 85.7131 72.1964C85.7786 72.183 85.8462 72.1832 85.9116 72.1972C85.977 72.2111 86.0388 72.2384 86.0932 72.2773C86.1476 72.3163 86.1933 72.3661 86.2275 72.4235C86.2617 72.481 86.2837 72.5449 86.292 72.6112L86.8816 76.302C86.9004 76.4128 86.8803 76.5268 86.8245 76.6243C86.7687 76.7219 86.6808 76.7971 86.5757 76.837L83.0244 78.1603C82.9529 78.1871 82.8762 78.1967 82.8004 78.1884C82.7246 78.18 82.6518 78.1538 82.588 78.1121Z" fill="#020202"/>
</g>
<defs>
<clipPath id="clip0_6281_75400">
<path d="M0 8C0 3.58172 3.58172 0 8 0H158.5C162.918 0 166.5 3.58172 166.5 8V90C166.5 94.4183 162.918 98 158.5 98H8C3.58172 98 0 94.4183 0 90V8Z" fill="white"/>
</clipPath>
</defs>
</svg>
