<svg width="16" height="16" viewBox="0 0 16 16" fill="none" xmlns="http://www.w3.org/2000/svg">
<path fill-rule="evenodd" clip-rule="evenodd" d="M6.00016 3.33317C6.00016 2.96498 6.29864 2.6665 6.66683 2.6665H9.3335C9.70169 2.6665 10.0002 2.96498 10.0002 3.33317C10.0002 3.70136 9.70169 3.99984 9.3335 3.99984H8.66683V4.6665H8.9215C9.16905 4.66664 9.41203 4.73568 9.62255 4.86591C9.83308 4.99613 10.0032 5.1824 10.1139 5.40384L11.079 7.33286L11.3335 7.33317V6.6665C11.3335 6.29831 11.632 5.99984 12.0002 5.99984H13.3335C13.6871 5.99984 14.0263 6.14031 14.2763 6.39036C14.5264 6.64041 14.6668 6.97955 14.6668 7.33317V11.3332C14.6668 11.6868 14.5264 12.0259 14.2763 12.276C14.0263 12.526 13.6871 12.6665 13.3335 12.6665H12.0002C11.632 12.6665 11.3335 12.368 11.3335 11.9998V11.3332H10.6668V11.9998C10.6668 12.3535 10.5264 12.6926 10.2763 12.9426C10.0263 13.1927 9.68712 13.3332 9.3335 13.3332H7.0236C7.02356 13.3332 7.02363 13.3332 7.0236 13.3332C6.80417 13.3332 6.58804 13.279 6.39455 13.1756C6.20104 13.0721 6.03606 12.9224 5.91426 12.7398L4.97667 11.3332H4.00016C3.63197 11.3332 3.3335 11.0347 3.3335 10.6665V9.33317H2.66683V10.6665C2.66683 11.0347 2.36835 11.3332 2.00016 11.3332C1.63197 11.3332 1.3335 11.0347 1.3335 10.6665V6.6665C1.3335 6.29831 1.63197 5.99984 2.00016 5.99984C2.36835 5.99984 2.66683 6.29831 2.66683 6.6665V7.99984H3.3335V6.6665C3.3335 6.29831 3.63197 5.99984 4.00016 5.99984H5.05735L6.19543 4.86177C6.32045 4.73674 6.49002 4.6665 6.66683 4.6665H7.3335V3.99984H6.66683C6.29864 3.99984 6.00016 3.70136 6.00016 3.33317ZM6.94297 5.99984L5.8049 7.13791C5.67988 7.26293 5.51031 7.33317 5.3335 7.33317H4.66683V9.99984H5.3335C5.55642 9.99984 5.76459 10.1113 5.88823 10.2968L7.0234 11.9998H9.3335V10.6665C9.3335 10.2983 9.63197 9.99984 10.0002 9.99984H12.0002C12.3684 9.99984 12.6668 10.2983 12.6668 10.6665V11.3332H13.3335V7.33317H12.6668V7.99984C12.6668 8.36803 12.3684 8.6665 12.0002 8.6665H11.0788C10.8313 8.66637 10.5883 8.59733 10.3778 8.4671C10.1672 8.33687 9.99713 8.15061 9.88647 7.92917L8.92129 6.00014L6.94297 5.99984Z" fill="#5960D9"/>
</svg>
