<svg width="19" height="19" viewBox="0 0 19 19" fill="none" xmlns="http://www.w3.org/2000/svg">
<path d="M7.25 8.51042C6.11 8.51042 5.1875 7.53667 5.1875 6.33333C5.1875 5.13 6.11 4.15625 7.25 4.15625C8.39 4.15625 9.3125 5.13 9.3125 6.33333C9.3125 7.53667 8.39 8.51042 7.25 8.51042ZM7.25 5.34375C6.7325 5.34375 6.3125 5.78708 6.3125 6.33333C6.3125 6.87958 6.7325 7.32292 7.25 7.32292C7.7675 7.32292 8.1875 6.87958 8.1875 6.33333C8.1875 5.78708 7.7675 5.34375 7.25 5.34375Z" fill="#8387E2"/>
<path d="M11.75 18.0101H7.25C3.1775 18.0101 1.4375 16.1734 1.4375 11.8747V7.12467C1.4375 2.82592 3.1775 0.989258 7.25 0.989258L10.25 0.989258C10.5575 0.989258 10.8125 1.25842 10.8125 1.58301C10.8125 1.90759 10.5575 2.17676 10.25 2.17676H7.25C3.7925 2.17676 2.5625 3.47509 2.5625 7.12467V11.8747C2.5625 15.5243 3.7925 16.8226 7.25 16.8226H11.75C15.2075 16.8226 16.4375 15.5243 16.4375 11.8747V7.91634C16.4375 7.59176 16.6925 7.32259 17 7.32259C17.3075 7.32259 17.5625 7.59176 17.5625 7.91634V11.8747C17.5625 16.1734 15.8225 18.0101 11.75 18.0101Z" fill="#8387E2"/>
<path d="M16.4375 4.55176H12.3125C12.005 4.55176 11.75 4.28259 11.75 3.95801C11.75 3.63342 12.005 3.36426 12.3125 3.36426H16.4375C16.745 3.36426 17 3.63342 17 3.95801C17 4.28259 16.745 4.55176 16.4375 4.55176Z" fill="#8387E2"/>
<path d="M14.375 6.72917C14.0675 6.72917 13.8125 6.46 13.8125 6.13542V1.78125C13.8125 1.45667 14.0675 1.1875 14.375 1.1875C14.6825 1.1875 14.9375 1.45667 14.9375 1.78125V6.13542C14.9375 6.46 14.6825 6.72917 14.375 6.72917Z" fill="#8387E2"/>
<path d="M2.50296 15.5959C2.32296 15.5959 2.14296 15.5009 2.03796 15.3346C1.86546 15.0654 1.93296 14.6934 2.18796 14.5113L5.88546 11.8909C6.69546 11.3209 7.81296 11.3842 8.54796 12.0413L8.79546 12.2709C9.17046 12.6113 9.80796 12.6113 10.1755 12.2709L13.2955 9.44461C14.098 8.72419 15.343 8.72419 16.1455 9.44461L17.368 10.5529C17.6005 10.7667 17.6305 11.1388 17.428 11.3921C17.2255 11.6375 16.873 11.6692 16.633 11.4554L15.4105 10.3471C15.0355 10.0067 14.398 10.0067 14.0305 10.3471L10.9105 13.1734C10.1155 13.8938 8.86296 13.8938 8.06046 13.1734L7.81296 12.9438C7.46796 12.635 6.89796 12.6034 6.51546 12.8804L2.82546 15.5009C2.72046 15.5642 2.60796 15.5959 2.50296 15.5959Z" fill="#8387E2"/>
</svg>
