<svg width="16" height="16" viewBox="0 0 16 16" fill="none" xmlns="http://www.w3.org/2000/svg">
<path d="M2.6665 14C2.11095 14 1.63873 13.8056 1.24984 13.4167C0.860948 13.0278 0.666504 12.5556 0.666504 12C0.666504 11.5667 0.791615 11.1778 1.04184 10.8333C1.29206 10.4889 1.61139 10.25 1.99984 10.1167V5.88333C1.61095 5.75 1.29161 5.51111 1.04184 5.16667C0.792059 4.82222 0.666948 4.43333 0.666504 4C0.666504 3.44444 0.860948 2.97222 1.24984 2.58333C1.63873 2.19444 2.11095 2 2.6665 2C3.22206 2 3.69428 2.19444 4.08317 2.58333C4.47206 2.97222 4.6665 3.44444 4.6665 4C4.6665 4.43333 4.54162 4.82222 4.29184 5.16667C4.04206 5.51111 3.7225 5.75 3.33317 5.88333V7.33333H7.33317V5.88333C6.94428 5.75 6.62495 5.51111 6.37517 5.16667C6.12539 4.82222 6.00028 4.43333 5.99984 4C5.99984 3.44444 6.19428 2.97222 6.58317 2.58333C6.97206 2.19444 7.44428 2 7.99984 2C8.55539 2 9.02761 2.19444 9.4165 2.58333C9.80539 2.97222 9.99984 3.44444 9.99984 4C9.99984 4.43333 9.87495 4.82222 9.62517 5.16667C9.37539 5.51111 9.05584 5.75 8.6665 5.88333V7.33333H11.9998C12.1887 7.33333 12.3472 7.26956 12.4752 7.142C12.6032 7.01444 12.6669 6.856 12.6665 6.66667V5.88333C12.2776 5.75 11.9583 5.51111 11.7085 5.16667C11.4587 4.82222 11.3336 4.43333 11.3332 4C11.3332 3.44444 11.5276 2.97222 11.9165 2.58333C12.3054 2.19444 12.7776 2 13.3332 2C13.8887 2 14.3609 2.19444 14.7498 2.58333C15.1387 2.97222 15.3332 3.44444 15.3332 4C15.3332 4.43333 15.2083 4.82222 14.9585 5.16667C14.7087 5.51111 14.3892 5.75 13.9998 5.88333V6.66667C13.9998 7.22222 13.8054 7.69444 13.4165 8.08333C13.0276 8.47222 12.5554 8.66667 11.9998 8.66667H8.6665V10.1167C9.05539 10.25 9.37495 10.4889 9.62517 10.8333C9.87539 11.1778 10.0003 11.5667 9.99984 12C9.99984 12.5556 9.80539 13.0278 9.4165 13.4167C9.02761 13.8056 8.55539 14 7.99984 14C7.44428 14 6.97206 13.8056 6.58317 13.4167C6.19428 13.0278 5.99984 12.5556 5.99984 12C5.99984 11.5667 6.12495 11.1778 6.37517 10.8333C6.62539 10.4889 6.94473 10.25 7.33317 10.1167V8.66667H3.33317V10.1167C3.72206 10.25 4.04162 10.4889 4.29184 10.8333C4.54206 11.1778 4.66695 11.5667 4.6665 12C4.6665 12.5556 4.47206 13.0278 4.08317 13.4167C3.69428 13.8056 3.22206 14 2.6665 14ZM2.6665 12.6667C2.85539 12.6667 3.01384 12.6027 3.14184 12.4747C3.26984 12.3467 3.33361 12.1884 3.33317 12C3.33273 11.8116 3.26873 11.6533 3.14117 11.5253C3.01361 11.3973 2.85539 11.3333 2.6665 11.3333C2.47761 11.3333 2.31939 11.3973 2.19184 11.5253C2.06428 11.6533 2.00028 11.8116 1.99984 12C1.99939 12.1884 2.06339 12.3469 2.19184 12.4753C2.32028 12.6038 2.4785 12.6676 2.6665 12.6667ZM2.6665 4.66667C2.85539 4.66667 3.01384 4.60267 3.14184 4.47467C3.26984 4.34667 3.33361 4.18844 3.33317 4C3.33273 3.81156 3.26873 3.65333 3.14117 3.52533C3.01361 3.39733 2.85539 3.33333 2.6665 3.33333C2.47761 3.33333 2.31939 3.39733 2.19184 3.52533C2.06428 3.65333 2.00028 3.81156 1.99984 4C1.99939 4.18844 2.06339 4.34689 2.19184 4.47533C2.32028 4.60378 2.4785 4.66756 2.6665 4.66667ZM7.99984 12.6667C8.18873 12.6667 8.34717 12.6027 8.47517 12.4747C8.60317 12.3467 8.66695 12.1884 8.6665 12C8.66606 11.8116 8.60206 11.6533 8.4745 11.5253C8.34695 11.3973 8.18873 11.3333 7.99984 11.3333C7.81095 11.3333 7.65273 11.3973 7.52517 11.5253C7.39761 11.6533 7.33361 11.8116 7.33317 12C7.33273 12.1884 7.39673 12.3469 7.52517 12.4753C7.65361 12.6038 7.81184 12.6676 7.99984 12.6667ZM7.99984 4.66667C8.18873 4.66667 8.34717 4.60267 8.47517 4.47467C8.60317 4.34667 8.66695 4.18844 8.6665 4C8.66606 3.81156 8.60206 3.65333 8.4745 3.52533C8.34695 3.39733 8.18873 3.33333 7.99984 3.33333C7.81095 3.33333 7.65273 3.39733 7.52517 3.52533C7.39761 3.65333 7.33361 3.81156 7.33317 4C7.33273 4.18844 7.39673 4.34689 7.52517 4.47533C7.65361 4.60378 7.81184 4.66756 7.99984 4.66667ZM13.3332 4.66667C13.5221 4.66667 13.6805 4.60267 13.8085 4.47467C13.9365 4.34667 14.0003 4.18844 13.9998 4C13.9994 3.81156 13.9354 3.65333 13.8078 3.52533C13.6803 3.39733 13.5221 3.33333 13.3332 3.33333C13.1443 3.33333 12.9861 3.39733 12.8585 3.52533C12.7309 3.65333 12.6669 3.81156 12.6665 4C12.6661 4.18844 12.7301 4.34689 12.8585 4.47533C12.9869 4.60378 13.1452 4.66756 13.3332 4.66667Z" fill="#5960D9"/>
</svg>
