<svg width="20" height="20" viewBox="0 0 20 20" fill="none" xmlns="http://www.w3.org/2000/svg">
<path d="M10.0001 17.8337H9.99935C8.66807 17.8356 7.35849 17.4967 6.1953 16.8493L5.94544 16.7035L5.75919 16.5948L5.5523 16.6557L3.02564 17.399L3.02542 17.3991C2.96961 17.4155 2.91052 17.4174 2.85375 17.4046L2.74434 17.8902L2.85375 17.4046C2.79699 17.3918 2.74443 17.3648 2.70106 17.326C2.65769 17.2872 2.62495 17.2379 2.60593 17.1829C2.58817 17.1316 2.58294 17.0767 2.59061 17.023L2.6051 16.9623L3.34476 14.4481L3.40696 14.2367L3.29289 14.0482C2.55437 12.8275 2.16486 11.4277 2.16676 10.001V10.0003C2.16676 5.67397 5.67373 2.16699 10.0001 2.16699C14.3264 2.16699 17.8334 5.67397 17.8334 10.0003C17.8334 14.3267 14.3264 17.8337 10.0001 17.8337ZM10.0002 2.83366H10.0002C8.71701 2.83343 7.45732 3.17771 6.35264 3.83056C5.24797 4.4834 4.33883 5.42086 3.72017 6.54504C3.10152 7.66922 2.79604 8.93889 2.83563 10.2214C2.87522 11.504 3.25843 12.7524 3.94524 13.8363L3.94542 13.8366C4.04418 13.9922 4.08651 14.1812 4.05732 14.3665L4.03178 14.4733L3.66787 15.7119L3.40964 16.5908L4.28853 16.3326L5.53937 15.9651L5.54016 15.9648C5.75528 15.9012 5.98148 15.939 6.16347 16.0548L6.16427 16.0553C7.1034 16.6499 8.16798 17.0179 9.27384 17.1303C10.3797 17.2426 11.4965 17.0962 12.5361 16.7026C13.5756 16.3089 14.5093 15.6789 15.2634 14.8623C16.0175 14.0456 16.5713 13.0648 16.881 11.9972C17.1907 10.9297 17.2479 9.80475 17.048 8.71132C16.848 7.61789 16.3965 6.58595 15.7291 5.69708C15.0616 4.80821 14.1966 4.08678 13.2023 3.58982C12.208 3.09285 11.1118 2.83398 10.0002 2.83366ZM7.78187 6.44664L7.78187 6.44665L7.78378 6.44582C7.79639 6.44036 7.81021 6.43827 7.82387 6.43977C7.83753 6.44127 7.85057 6.4463 7.86169 6.45436L8.15507 6.04952L7.86024 6.45331C8.21339 6.71116 8.50873 7.06881 8.78581 7.45673L9.05508 7.84704L9.18162 8.03315L9.18238 8.03425C9.19395 8.05117 9.19963 8.07143 9.19854 8.0919C9.19763 8.10892 9.19209 8.1253 9.1826 8.1393L9.16536 8.15677L8.42784 8.70433C8.29452 8.80202 8.20071 8.94442 8.1636 9.10558C8.1262 9.26803 8.14894 9.43852 8.22761 9.58547L8.22757 9.5855L8.2308 9.59134C8.41862 9.9312 8.7541 10.4473 9.15404 10.8472L9.15445 10.8476C9.55385 11.2461 10.0897 11.6014 10.447 11.8065L10.4489 11.8076C10.7216 11.9625 11.043 11.9074 11.2526 11.7181L11.2778 11.6954L11.2996 11.6696L11.3313 11.6321L11.3507 11.6091L11.3672 11.584L11.8556 10.8403C11.8696 10.825 11.8885 10.8147 11.9091 10.8114C11.9325 10.8076 11.9565 10.8129 11.976 10.8262C11.9762 10.8264 11.9764 10.8265 11.9766 10.8266L12.4252 11.1397C12.8632 11.4521 13.2471 11.763 13.5438 12.1415C13.5524 12.1527 13.5578 12.166 13.5596 12.1801L14.0556 12.1173L13.5596 12.1801C13.5614 12.1943 13.5593 12.2087 13.5537 12.2219L13.553 12.2234C13.2869 12.8443 12.6197 13.3342 12.0026 13.315L11.8851 13.3076L11.7398 13.2939C11.7175 13.2913 11.6951 13.2884 11.6728 13.2853L11.4863 13.2539C10.8039 13.1246 9.66661 12.7297 8.46876 11.5327C7.27161 10.3348 6.87667 9.1974 6.74734 8.51498L6.71678 8.33319L6.69871 8.18278L6.68892 8.05109C6.68792 8.03507 6.68707 8.01904 6.68637 8.003C6.66474 7.38396 7.15772 6.71385 7.78187 6.44664Z" fill="#24CB62" stroke="#24CB62"/>
</svg>
