<svg width="22" height="20" viewBox="0 0 22 20" fill="none" xmlns="http://www.w3.org/2000/svg">
<g filter="url(#filter0_d_1170_4837)">
<path d="M14.7003 2.58398C13.192 2.58398 11.842 3.31732 11.0003 4.44232C10.1587 3.31732 8.80866 2.58398 7.30033 2.58398C4.74199 2.58398 2.66699 4.66732 2.66699 7.24232C2.66699 8.23398 2.82533 9.15065 3.10033 10.0007C4.41699 14.1673 8.47533 16.659 10.4837 17.3423C10.767 17.4423 11.2337 17.4423 11.517 17.3423C13.5253 16.659 17.5837 14.1673 18.9003 10.0007C19.1753 9.15065 19.3337 8.23398 19.3337 7.24232C19.3337 4.66732 17.2587 2.58398 14.7003 2.58398Z" fill="white"/>
</g>
<defs>
<filter id="filter0_d_1170_4837" x="-1" y="-2" width="24" height="24" filterUnits="userSpaceOnUse" color-interpolation-filters="sRGB">
<feFlood flood-opacity="0" result="BackgroundImageFix"/>
<feColorMatrix in="SourceAlpha" type="matrix" values="0 0 0 0 0 0 0 0 0 0 0 0 0 0 0 0 0 0 127 0" result="hardAlpha"/>
<feOffset/>
<feGaussianBlur stdDeviation="1"/>
<feComposite in2="hardAlpha" operator="out"/>
<feColorMatrix type="matrix" values="0 0 0 0 0 0 0 0 0 0 0 0 0 0 0 0 0 0 0.25 0"/>
<feBlend mode="normal" in2="BackgroundImageFix" result="effect1_dropShadow_1170_4837"/>
<feBlend mode="normal" in="SourceGraphic" in2="effect1_dropShadow_1170_4837" result="shape"/>
</filter>
</defs>
</svg>
