<svg width="20" height="20" viewBox="0 0 20 20" fill="none" xmlns="http://www.w3.org/2000/svg">
<path d="M18.3333 15.2085H12.5C12.1583 15.2085 11.875 14.9252 11.875 14.5835C11.875 14.2418 12.1583 13.9585 12.5 13.9585H18.3333C18.675 13.9585 18.9583 14.2418 18.9583 14.5835C18.9583 14.9252 18.675 15.2085 18.3333 15.2085Z" fill="#053396"/>
<path d="M4.1665 15.2085H1.6665C1.32484 15.2085 1.0415 14.9252 1.0415 14.5835C1.0415 14.2418 1.32484 13.9585 1.6665 13.9585H4.1665C4.50817 13.9585 4.7915 14.2418 4.7915 14.5835C4.7915 14.9252 4.50817 15.2085 4.1665 15.2085Z" fill="#053396"/>
<path d="M18.3335 6.0415H15.8335C15.4918 6.0415 15.2085 5.75817 15.2085 5.4165C15.2085 5.07484 15.4918 4.7915 15.8335 4.7915H18.3335C18.6752 4.7915 18.9585 5.07484 18.9585 5.4165C18.9585 5.75817 18.6752 6.0415 18.3335 6.0415Z" fill="#053396"/>
<path d="M7.49984 6.0415H1.6665C1.32484 6.0415 1.0415 5.75817 1.0415 5.4165C1.0415 5.07484 1.32484 4.7915 1.6665 4.7915H7.49984C7.8415 4.7915 8.12484 5.07484 8.12484 5.4165C8.12484 5.75817 7.8415 6.0415 7.49984 6.0415Z" fill="#053396"/>
<path d="M10.8332 17.7085H5.83317C4.39984 17.7085 3.5415 16.8502 3.5415 15.4168V13.7502C3.5415 12.3168 4.39984 11.4585 5.83317 11.4585H10.8332C12.2665 11.4585 13.1248 12.3168 13.1248 13.7502V15.4168C13.1248 16.8502 12.2665 17.7085 10.8332 17.7085ZM5.83317 12.7085C5.0915 12.7085 4.7915 13.0085 4.7915 13.7502V15.4168C4.7915 16.1585 5.0915 16.4585 5.83317 16.4585H10.8332C11.5748 16.4585 11.8748 16.1585 11.8748 15.4168V13.7502C11.8748 13.0085 11.5748 12.7085 10.8332 12.7085H5.83317Z" fill="#053396"/>
<path d="M14.1667 8.5415H9.16667C7.73333 8.5415 6.875 7.68317 6.875 6.24984V4.58317C6.875 3.14984 7.73333 2.2915 9.16667 2.2915H14.1667C15.6 2.2915 16.4583 3.14984 16.4583 4.58317V6.24984C16.4583 7.68317 15.6 8.5415 14.1667 8.5415ZM9.16667 3.5415C8.425 3.5415 8.125 3.8415 8.125 4.58317V6.24984C8.125 6.9915 8.425 7.2915 9.16667 7.2915H14.1667C14.9083 7.2915 15.2083 6.9915 15.2083 6.24984V4.58317C15.2083 3.8415 14.9083 3.5415 14.1667 3.5415H9.16667Z" fill="#053396"/>
</svg>
