<svg width="20" height="20" viewBox="0 0 20 20" fill="none" xmlns="http://www.w3.org/2000/svg">
<path fill-rule="evenodd" clip-rule="evenodd" d="M15.3233 13.9048C16.5703 12.2971 17.158 10.2748 16.9668 8.24925C16.7757 6.22367 15.82 4.34701 14.2943 3.00104C12.7685 1.65507 10.7873 0.940903 8.75375 1.00383C6.72015 1.06676 4.7869 1.90205 3.34731 3.33978C1.90647 4.77851 1.06844 6.7125 1.00401 8.74765C0.939578 10.7828 1.65359 12.7659 3.00054 14.2929C4.34749 15.8199 6.22601 16.7758 8.25329 16.9659C10.2806 17.1559 12.304 16.5658 13.9113 15.3158L13.9543 15.3608L18.1963 19.6038C18.2892 19.6967 18.3995 19.7704 18.5209 19.8207C18.6423 19.871 18.7724 19.8968 18.9038 19.8968C19.0352 19.8968 19.1653 19.871 19.2867 19.8207C19.4081 19.7704 19.5184 19.6967 19.6113 19.6038C19.7042 19.5109 19.7779 19.4006 19.8282 19.2792C19.8785 19.1578 19.9044 19.0277 19.9044 18.8963C19.9044 18.7649 19.8785 18.6348 19.8282 18.5134C19.7779 18.392 19.7042 18.2817 19.6113 18.1888L15.3683 13.9468C15.3537 13.9324 15.3387 13.9184 15.3233 13.9048ZM13.2473 4.75478C13.8119 5.31026 14.2609 5.97203 14.5685 6.70192C14.8761 7.43181 15.0361 8.21537 15.0393 9.0074C15.0425 9.79944 14.8889 10.5843 14.5873 11.3166C14.2857 12.049 13.8421 12.7144 13.282 13.2745C12.7219 13.8345 12.0565 14.2782 11.3242 14.5798C10.5918 14.8814 9.80697 15.035 9.01493 15.0318C8.2229 15.0286 7.43933 14.8686 6.70945 14.561C5.97956 14.2534 5.31779 13.8044 4.76231 13.2398C3.65223 12.1115 3.03297 10.5902 3.03941 9.0074C3.04586 7.42458 3.67749 5.90843 4.79672 4.78919C5.91596 3.66996 7.43211 3.03833 9.01493 3.03188C10.5978 3.02544 12.119 3.6447 13.2473 4.75478Z" fill="#053396"/>
</svg>
