<svg width="32" height="32" viewBox="0 0 32 32" fill="none" xmlns="http://www.w3.org/2000/svg">
<path d="M29.3337 30.332H2.66699C2.12033 30.332 1.66699 29.8787 1.66699 29.332C1.66699 28.7854 2.12033 28.332 2.66699 28.332H29.3337C29.8803 28.332 30.3337 28.7854 30.3337 29.332C30.3337 29.8787 29.8803 30.332 29.3337 30.332Z" fill="#053396"/>
<path opacity="0.4" d="M28.0003 13.3049V29.3316H3.93359L4.00026 13.2916C4.00026 12.4783 4.37359 11.705 5.02693 11.1983L14.3603 3.945C15.3203 3.185 16.6803 3.185 17.6403 3.945L19.4269 5.33164L25.3336 9.91831L26.9736 11.1983C27.6269 11.705 28.0003 12.4783 28.0003 13.3049Z" fill="#053396"/>
<path d="M17.3337 22.668H14.667C13.5603 22.668 12.667 23.5613 12.667 24.668V29.3346H19.3337V24.668C19.3337 23.5613 18.4403 22.668 17.3337 22.668Z" fill="#053396"/>
<path d="M12.667 18.3346H10.0003C9.26699 18.3346 8.66699 17.7346 8.66699 17.0013V15.0013C8.66699 14.268 9.26699 13.668 10.0003 13.668H12.667C13.4003 13.668 14.0003 14.268 14.0003 15.0013V17.0013C14.0003 17.7346 13.4003 18.3346 12.667 18.3346Z" fill="#053396"/>
<path d="M22 18.3346H19.3333C18.6 18.3346 18 17.7346 18 17.0013V15.0013C18 14.268 18.6 13.668 19.3333 13.668H22C22.7333 13.668 23.3333 14.268 23.3333 15.0013V17.0013C23.3333 17.7346 22.7333 18.3346 22 18.3346Z" fill="#053396"/>
<path d="M25.3334 9.9187L19.4268 5.33203H23.9734C24.7068 5.33203 25.3068 5.91868 25.3068 6.65202L25.3334 9.9187Z" fill="#053396"/>
</svg>
