<svg width="32" height="32" viewBox="0 0 32 32" fill="none" xmlns="http://www.w3.org/2000/svg">
<path d="M29.3337 30.333H2.66699C2.12033 30.333 1.66699 29.8797 1.66699 29.333C1.66699 28.7863 2.12033 28.333 2.66699 28.333H29.3337C29.8803 28.333 30.3337 28.7863 30.3337 29.333C30.3337 29.8797 29.8803 30.333 29.3337 30.333Z" fill="#5960D9"/>
<path d="M4.93359 29.3336H2.93359L3.00026 13.2936C3.00026 12.1603 3.52026 11.107 4.41359 10.4136L13.7469 3.14695C15.0669 2.12029 16.9203 2.12029 18.2536 3.14695L27.5869 10.4003C28.4669 11.0936 29.0003 12.1736 29.0003 13.2936V29.3336H27.0003V13.3069C27.0003 12.8003 26.7603 12.307 26.3603 11.987L17.0269 4.73362C16.4269 4.26696 15.5869 4.26696 14.9736 4.73362L5.64027 12.0003C5.24027 12.307 5.00026 12.8003 5.00026 13.3069L4.93359 29.3336Z" fill="#5960D9"/>
<path d="M22.6663 30.3337H9.33301C8.78634 30.3337 8.33301 29.8803 8.33301 29.3337V16.667C8.33301 15.0137 9.67967 13.667 11.333 13.667H20.6663C22.3197 13.667 23.6663 15.0137 23.6663 16.667V29.3337C23.6663 29.8803 23.213 30.3337 22.6663 30.3337ZM10.333 28.3337H21.6663V16.667C21.6663 16.1203 21.213 15.667 20.6663 15.667H11.333C10.7863 15.667 10.333 16.1203 10.333 16.667V28.3337Z" fill="#5960D9"/>
<path d="M13.333 24.667C12.7863 24.667 12.333 24.2137 12.333 23.667V21.667C12.333 21.1203 12.7863 20.667 13.333 20.667C13.8797 20.667 14.333 21.1203 14.333 21.667V23.667C14.333 24.2137 13.8797 24.667 13.333 24.667Z" fill="#5960D9"/>
<path d="M18 11H14C13.4533 11 13 10.5467 13 10C13 9.45333 13.4533 9 14 9H18C18.5467 9 19 9.45333 19 10C19 10.5467 18.5467 11 18 11Z" fill="#5960D9"/>
</svg>
