<svg width="32" height="32" viewBox="0 0 32 32" fill="none" xmlns="http://www.w3.org/2000/svg">
<path d="M30.3337 29.332C30.3337 29.8787 29.8803 30.332 29.3337 30.332H2.66699C2.12033 30.332 1.66699 29.8787 1.66699 29.332C1.66699 28.772 2.12033 28.332 2.66699 28.332H29.3337C29.8803 28.332 30.3337 28.772 30.3337 29.332Z" fill="#053396"/>
<path opacity="0.4" d="M28.0003 13.3049V28.3316H3.93359L4.00026 13.2916C4.00026 12.4783 4.37359 11.705 5.02693 11.1983L14.3603 3.945C15.3203 3.185 16.6803 3.185 17.6403 3.945L26.9736 11.1983C27.6269 11.705 28.0003 12.4783 28.0003 13.3049Z" fill="#053396"/>
<path d="M18 11H14C13.4533 11 13 10.5467 13 10C13 9.45333 13.4533 9 14 9H18C18.5467 9 19 9.45333 19 10C19 10.5467 18.5467 11 18 11Z" fill="#053396"/>
<path d="M20.6663 14.668H11.333C10.2263 14.668 9.33301 15.5613 9.33301 16.668V29.3346H22.6663V16.668C22.6663 15.5613 21.773 14.668 20.6663 14.668ZM14.333 23.668C14.333 24.2146 13.8797 24.668 13.333 24.668C12.7863 24.668 12.333 24.2146 12.333 23.668V21.668C12.333 21.1213 12.7863 20.668 13.333 20.668C13.8797 20.668 14.333 21.1213 14.333 21.668V23.668Z" fill="#053396"/>
</svg>
