<svg width="16" height="16" viewBox="0 0 16 16" fill="none" xmlns="http://www.w3.org/2000/svg">
<path d="M12.9734 6.66618C12.9076 6.76337 12.8687 6.87619 12.8605 6.99324C12.8523 7.1103 12.8751 7.22745 12.9267 7.33285C13.0922 7.71903 13.2086 8.1244 13.2734 8.53951C13.445 9.61294 13.2845 10.7132 12.8134 11.6928C12.7562 11.8003 12.6706 11.89 12.566 11.9523C12.4614 12.0146 12.3418 12.0471 12.22 12.0462H3.78671C3.66429 12.0464 3.54417 12.013 3.4395 11.9495C3.33484 11.886 3.24969 11.7949 3.19338 11.6862C2.76663 10.8205 2.5828 9.85519 2.6615 8.89322C2.74019 7.93126 3.07846 7.00869 3.64023 6.22385C4.202 5.439 4.96623 4.82132 5.85143 4.43664C6.73663 4.05196 7.70964 3.91471 8.66671 4.03951C9.15097 4.09643 9.62463 4.22214 10.0734 4.41285C10.1788 4.46443 10.2959 4.48728 10.413 4.47908C10.53 4.47089 10.6429 4.43194 10.74 4.36618C10.8413 4.29948 10.9224 4.20642 10.9747 4.09703C11.027 3.98764 11.0485 3.86606 11.0369 3.74537C11.0252 3.62468 10.9809 3.50946 10.9086 3.4121C10.8363 3.31474 10.7389 3.23894 10.6267 3.19285C9.33884 2.64062 7.90971 2.50824 6.54232 2.81451C5.17492 3.12079 3.9388 3.85014 3.00955 4.89897C2.08029 5.9478 1.50514 7.26277 1.36581 8.6571C1.22648 10.0514 1.53004 11.4542 2.23338 12.6662C2.34972 12.8677 2.51677 13.0353 2.71793 13.1522C2.91909 13.2692 3.14736 13.3314 3.38004 13.3328H12.6134C12.8483 13.3338 13.0793 13.2726 13.283 13.1555C13.4868 13.0385 13.6559 12.8697 13.7734 12.6662C14.2883 11.7738 14.5894 10.7742 14.653 9.74592C14.7166 8.71761 14.541 7.68855 14.14 6.73951C14.0893 6.63135 14.0103 6.53883 13.9115 6.47163C13.8127 6.40443 13.6977 6.36502 13.5784 6.35752C13.4592 6.35003 13.3401 6.37472 13.2336 6.42902C13.1272 6.48332 13.0373 6.56523 12.9734 6.66618Z" fill="#5960D9"/>
<path d="M7.05993 8.39345C6.80974 8.64364 6.66919 8.98297 6.66919 9.33678C6.66919 9.51198 6.7037 9.68545 6.77074 9.84731C6.83778 10.0092 6.93605 10.1562 7.05993 10.2801C7.18381 10.404 7.33088 10.5023 7.49274 10.5693C7.65459 10.6364 7.82807 10.6709 8.00326 10.6709C8.35708 10.6709 8.69641 10.5303 8.9466 10.2801L12.7199 4.62012L7.05993 8.39345Z" fill="#5960D9"/>
</svg>
