<svg width="14" height="14" viewBox="0 0 14 14" fill="none" xmlns="http://www.w3.org/2000/svg">
<path d="M7.00016 13.2712C10.4593 13.2712 13.271 10.4595 13.271 7.00033C13.271 3.54116 10.4593 0.729492 7.00016 0.729492C3.541 0.729492 0.72933 3.54116 0.72933 7.00033C0.72933 10.4595 3.541 13.2712 7.00016 13.2712ZM7.00016 1.60449C9.97516 1.60449 12.396 4.02533 12.396 7.00033C12.396 9.97533 9.97516 12.3962 7.00016 12.3962C4.02516 12.3962 1.60433 9.97533 1.60433 7.00033C1.60433 4.02533 4.02516 1.60449 7.00016 1.60449Z" fill="#A5A5A5"/>
<path d="M7 8.02116C7.23917 8.02116 7.4375 7.82283 7.4375 7.58366V4.66699C7.4375 4.42783 7.23917 4.22949 7 4.22949C6.76083 4.22949 6.5625 4.42783 6.5625 4.66699V7.58366C6.5625 7.82283 6.76083 8.02116 7 8.02116Z" fill="#A5A5A5"/>
<path d="M7.00016 9.91668C7.076 9.91668 7.15183 9.89918 7.22183 9.87001C7.29183 9.84085 7.356 9.80001 7.41433 9.74751C7.46683 9.68918 7.50766 9.63085 7.53683 9.55501C7.566 9.48501 7.5835 9.40918 7.5835 9.33335C7.5835 9.25751 7.566 9.18168 7.53683 9.11168C7.50766 9.04168 7.46683 8.97751 7.41433 8.91918C7.356 8.86668 7.29183 8.82585 7.22183 8.79668C7.08183 8.73835 6.9185 8.73835 6.7785 8.79668C6.7085 8.82585 6.64433 8.86668 6.586 8.91918C6.5335 8.97751 6.49266 9.04168 6.4635 9.11168C6.43433 9.18168 6.41683 9.25751 6.41683 9.33335C6.41683 9.40918 6.43433 9.48501 6.4635 9.55501C6.49266 9.63085 6.5335 9.68918 6.586 9.74751C6.64433 9.80001 6.7085 9.84085 6.7785 9.87001C6.8485 9.89918 6.92433 9.91668 7.00016 9.91668Z" fill="#A5A5A5"/>
</svg>
