<svg width="16" height="16" viewBox="0 0 16 16" fill="none" xmlns="http://www.w3.org/2000/svg">
<path d="M8.00033 15.1668C11.9537 15.1668 15.167 11.9535 15.167 8.00016C15.167 4.04683 11.9537 0.833496 8.00033 0.833496C4.04699 0.833496 0.833658 4.04683 0.833658 8.00016C0.833658 11.9535 4.04699 15.1668 8.00033 15.1668ZM8.00033 1.8335C11.4003 1.8335 14.167 4.60016 14.167 8.00016C14.167 11.4002 11.4003 14.1668 8.00033 14.1668C4.60033 14.1668 1.83366 11.4002 1.83366 8.00016C1.83366 4.60016 4.60033 1.8335 8.00033 1.8335Z" fill="#1D1F1F"/>
<path d="M8 9.16683C8.27333 9.16683 8.5 8.94016 8.5 8.66683V5.3335C8.5 5.06016 8.27333 4.8335 8 4.8335C7.72667 4.8335 7.5 5.06016 7.5 5.3335V8.66683C7.5 8.94016 7.72667 9.16683 8 9.16683Z" fill="#1D1F1F"/>
<path d="M8.00033 11.3334C8.08699 11.3334 8.17366 11.3134 8.25366 11.2801C8.33366 11.2468 8.40699 11.2001 8.47366 11.1401C8.53366 11.0734 8.58033 11.0068 8.61366 10.9201C8.64699 10.8401 8.66699 10.7534 8.66699 10.6668C8.66699 10.5801 8.64699 10.4934 8.61366 10.4134C8.58033 10.3334 8.53366 10.2601 8.47366 10.1934C8.40699 10.1334 8.33366 10.0868 8.25366 10.0534C8.09366 9.98675 7.90699 9.98675 7.74699 10.0534C7.66699 10.0868 7.59366 10.1334 7.52699 10.1934C7.46699 10.2601 7.42033 10.3334 7.38699 10.4134C7.35366 10.4934 7.33366 10.5801 7.33366 10.6668C7.33366 10.7534 7.35366 10.8401 7.38699 10.9201C7.42033 11.0068 7.46699 11.0734 7.52699 11.1401C7.59366 11.2001 7.66699 11.2468 7.74699 11.2801C7.82699 11.3134 7.91366 11.3334 8.00033 11.3334Z" fill="#1D1F1F"/>
</svg>
