<svg width="64" height="64" viewBox="0 0 64 64" fill="none" xmlns="http://www.w3.org/2000/svg">
<path d="M62.3996 31.9996C62.3996 34.5936 61.4133 37.1878 59.4339 39.1672C58.4814 40.1198 57.7383 41.2344 57.2316 42.4504C56.725 43.6665 56.4615 44.9838 56.4615 46.3281C56.4615 49.1316 55.3266 51.6583 53.4958 53.4958C51.6583 55.3266 49.1317 56.4614 46.3282 56.4614C44.9838 56.4614 43.6665 56.725 42.4505 57.2317C41.2345 57.7383 40.1198 58.4813 39.1672 59.4338C37.3162 61.285 34.9315 62.2645 32.513 62.3861C32.3442 62.3928 32.1685 62.3996 31.9996 62.3996C29.4055 62.3996 26.8113 61.4133 24.832 59.4338C23.8795 58.4813 22.7648 57.7383 21.5488 57.2317C20.3328 56.725 19.0155 56.4614 17.6711 56.4614C14.8675 56.4614 12.341 55.3266 10.5034 53.4958C8.6727 51.6583 7.53777 49.1316 7.53777 46.3281C7.53777 44.9838 7.27429 43.6665 6.76763 42.4504C6.26096 41.2344 5.51782 40.1198 4.56531 39.1672C2.58594 37.1878 1.59961 34.5936 1.59961 31.9996C1.59961 29.4054 2.58594 26.8114 4.56531 24.8321C5.51782 23.8794 6.26096 22.7648 6.76763 21.5488C7.27429 20.3328 7.53777 19.0155 7.53777 17.6711C7.53777 14.8676 8.6727 12.3409 10.5034 10.5034C12.341 8.67266 14.8675 7.53777 17.6711 7.53777C19.0155 7.53777 20.3328 7.27421 21.5488 6.76754C22.7648 6.26088 23.8795 5.51786 24.832 4.56539C26.8113 2.58589 29.4055 1.59961 31.9996 1.59961C32.1685 1.59961 32.3442 1.60637 32.513 1.61313C34.9315 1.73469 37.3162 2.71421 39.1672 4.56539C41.0656 6.47034 43.6395 7.53777 46.3282 7.53777C49.1317 7.53777 51.6583 8.67266 53.4958 10.5034C55.3266 12.3409 56.4615 14.8676 56.4615 17.6711C56.4615 19.0155 56.725 20.3328 57.2316 21.5488C57.7383 22.7648 58.4814 23.8794 59.4339 24.8321C61.4133 26.8114 62.3996 29.4054 62.3996 31.9996Z" fill="#34C759"/>
<path d="M26.8461 43.3446C26.219 43.3446 25.6177 43.0956 25.174 42.6522L17.5196 34.9978C16.5963 34.0742 16.5963 32.5773 17.5196 31.6537C18.4432 30.7307 19.9401 30.7307 20.8637 31.6537L26.8461 37.6364L43.1353 21.3465C44.0589 20.4236 45.5558 20.4236 46.4794 21.3465C47.4027 22.2701 47.4027 23.767 46.4794 24.6903L28.5182 42.6522C28.0745 43.0956 27.4732 43.3446 26.8461 43.3446Z" fill="white"/>
<path opacity="0.25" d="M62.4002 31.9998C62.4002 34.5938 61.414 37.188 59.4345 39.1673C58.482 40.1199 57.7389 41.2345 57.2323 42.4506C56.7256 43.6666 56.4621 44.9839 56.4621 46.3283C56.4621 49.1318 55.3272 51.6585 53.4964 53.496C51.6589 55.3267 49.1323 56.4616 46.3288 56.4616C44.9844 56.4616 43.6671 56.7252 42.4511 57.2318C41.2351 57.7385 40.1204 58.4815 39.1679 59.434C37.3169 61.2852 34.9322 62.2647 32.5137 62.3862V1.61328C34.9322 1.73484 37.3169 2.71436 39.1679 4.56554C41.0662 6.47049 43.6401 7.53792 46.3288 7.53792C49.1323 7.53792 51.6589 8.6728 53.4964 10.5035C55.3272 12.341 56.4621 14.8678 56.4621 17.6712C56.4621 19.0156 56.7256 20.3329 57.2323 21.5489C57.7389 22.765 58.482 23.8796 59.4345 24.8322C61.414 26.8115 62.4002 29.4056 62.4002 31.9998Z" fill="white"/>
</svg>
