<svg width="24" height="24" viewBox="0 0 24 24" fill="none" xmlns="http://www.w3.org/2000/svg">
<path d="M20.54 19.0373C20.39 19.1873 20.2 19.2573 20.01 19.2573C19.82 19.2573 19.63 19.1873 19.48 19.0373L14.53 14.0873L15.06 13.5573L15.59 13.0273L20.54 17.9773C20.83 18.2673 20.83 18.7473 20.54 19.0373Z" fill="#666666"/>
<path d="M6.47011 9.27814L12.2701 15.0781C12.6601 15.4681 12.6601 16.0981 12.2701 16.4881L11.3701 17.3981C10.5601 18.1981 9.28011 18.1981 8.48011 17.3981L4.14011 13.0581C3.35011 12.2681 3.35011 10.9781 4.14011 10.1781L5.05011 9.26814C5.44011 8.88814 6.08011 8.88814 6.47011 9.27814Z" fill="#666666"/>
<path d="M18.59 10.1877L14.78 13.9877C14.38 14.3877 13.74 14.3877 13.34 13.9877L7.56001 8.20773C7.16001 7.80773 7.16001 7.16773 7.56001 6.76773L11.37 2.95773C12.16 2.16773 13.45 2.16773 14.25 2.95773L18.59 7.29773C19.38 8.09773 19.38 9.37773 18.59 10.1877Z" fill="#666666"/>
<path d="M8 21.748H2C1.59 21.748 1.25 21.408 1.25 20.998C1.25 20.588 1.59 20.248 2 20.248H8C8.41 20.248 8.75 20.588 8.75 20.998C8.75 21.408 8.41 21.748 8 21.748Z" fill="#666666"/>
</svg>
