<svg width="16" height="16" viewBox="0 0 16 16" fill="none" xmlns="http://www.w3.org/2000/svg">
<path d="M12.9731 6.66667C12.9074 6.76385 12.8684 6.87667 12.8602 6.99373C12.852 7.11079 12.8749 7.22794 12.9265 7.33334C13.0919 7.71951 13.2084 8.12489 13.2731 8.54C13.4447 9.61343 13.2842 10.7137 12.8131 11.6933C12.7559 11.8008 12.6704 11.8905 12.5658 11.9528C12.4612 12.0151 12.3415 12.0476 12.2198 12.0467H3.78647C3.66405 12.0469 3.54392 12.0135 3.43926 11.95C3.3346 11.8865 3.24944 11.7954 3.19313 11.6867C2.76638 10.821 2.58256 9.85567 2.66125 8.89371C2.73995 7.93175 3.07821 7.00917 3.63999 6.22433C4.20176 5.43949 4.96598 4.82181 5.85119 4.43713C6.73639 4.05245 7.70939 3.9152 8.66646 4.04C9.15072 4.09692 9.62438 4.22263 10.0731 4.41334C10.1785 4.46492 10.2957 4.48777 10.4127 4.47957C10.5298 4.47138 10.6426 4.43243 10.7398 4.36667C10.8411 4.29996 10.9222 4.20691 10.9745 4.09752C11.0268 3.98813 11.0483 3.86655 11.0366 3.74586C11.025 3.62517 10.9806 3.50995 10.9083 3.41259C10.8361 3.31523 10.7386 3.23943 10.6265 3.19334C9.3386 2.64111 7.90946 2.50873 6.54207 2.815C5.17468 3.12127 3.93856 3.85063 3.0093 4.89946C2.08004 5.94829 1.5049 7.26326 1.36556 8.65759C1.22623 10.0519 1.52979 11.4547 2.23313 12.6667C2.34947 12.8682 2.51652 13.0357 2.71769 13.1527C2.91885 13.2697 3.14711 13.3319 3.3798 13.3333H12.6131C12.8481 13.3343 13.0791 13.2731 13.2828 13.156C13.4865 13.039 13.6557 12.8701 13.7731 12.6667C14.2881 11.7743 14.5891 10.7747 14.6528 9.74641C14.7164 8.7181 14.5408 7.68904 14.1398 6.74C14.089 6.63184 14.0101 6.53932 13.9113 6.47212C13.8125 6.40492 13.6974 6.36551 13.5782 6.35801C13.4589 6.35051 13.3398 6.37521 13.2334 6.42951C13.127 6.48381 13.0371 6.56572 12.9731 6.66667Z" fill="#5960D9"/>
<path d="M7.06018 8.39345C6.80999 8.64364 6.66943 8.98297 6.66943 9.33678C6.66943 9.51198 6.70394 9.68545 6.77098 9.84731C6.83803 10.0092 6.93629 10.1562 7.06018 10.2801C7.18406 10.404 7.33112 10.5023 7.49298 10.5693C7.65484 10.6364 7.82832 10.6709 8.00351 10.6709C8.35733 10.6709 8.69665 10.5303 8.94684 10.2801L12.7202 4.62012L7.06018 8.39345Z" fill="#5960D9"/>
</svg>
