<svg width="37" height="48" viewBox="0 0 37 48" fill="none" xmlns="http://www.w3.org/2000/svg">
<path d="M22.625 33.6562H14.375L7.99559 35.0981C3.72209 36.0641 0.6875 39.8612 0.6875 44.2425V47.0625H36.3125V44.2425C36.3125 39.8612 33.2779 36.0641 29.0044 35.0982L22.625 33.6562Z" fill="#6E83B7"/>
<path d="M18.5 39.6562C21.6671 39.6562 24.2671 37.1893 24.4837 34.0763L22.625 33.6562H14.375L12.5164 34.0763C12.733 37.1893 15.3331 39.6562 18.5 39.6562Z" fill="#EDEFF1"/>
<path d="M14.375 28.9863V33.6562C14.375 35.9344 16.2218 37.7812 18.5 37.7812C20.7782 37.7812 22.625 35.9344 22.625 33.6562V28.9863H14.375Z" fill="#FFD3B3"/>
<path d="M14.375 31.1154C15.6405 31.6639 17.0352 31.9688 18.5 31.9688C19.9647 31.9688 21.3595 31.664 22.625 31.1154V28.9863H14.375V31.1154Z" fill="#FCB98B"/>
<path d="M27.0312 15.9375V21.5625C27.0312 26.2742 23.2117 30.0938 18.5 30.0938C13.7883 30.0938 9.96875 26.2742 9.96875 21.5625V15.9375H27.0312Z" fill="#FFD3B3"/>
<path d="M24.7812 15.9375L27.0312 21.5625V15.9375H24.7812Z" fill="#6E83B7"/>
<path d="M12.2188 15.9375L9.96875 21.5625V15.9375H12.2188Z" fill="#6E83B7"/>
<path d="M8.65625 20.5312H9.96875V15.9375H8.65625C8.13847 15.9375 7.71875 16.3572 7.71875 16.875V19.5938C7.71875 20.1115 8.13847 20.5312 8.65625 20.5312Z" fill="#FFD3B3"/>
<path d="M28.3438 20.5312H27.0312V15.9375H28.3438C28.8615 15.9375 29.2812 16.3572 29.2812 16.875V19.5938C29.2812 20.1115 28.8615 20.5312 28.3438 20.5312Z" fill="#FFD3B3"/>
<path d="M28.8259 44.25H29.7634V47.0625H28.8259V44.25Z" fill="#466089"/>
<path d="M7.23657 44.25H8.17407V47.0625H7.23657V44.25Z" fill="#466089"/>
<path d="M8.46875 15.9375V12.2812C8.46875 6.75 12.9688 2.25 18.5 2.25C24.0312 2.25 28.5312 6.75 28.5312 12.2812V15.9375H8.46875Z" fill="#FFE352"/>
<path d="M18.5 13.1602C23.7084 13.1602 31.0625 14.2505 31.0625 14.2505V15.938H18.5H5.9375V14.2505C5.9375 14.2505 13.2916 13.1602 18.5 13.1602Z" fill="#FFE352"/>
<path d="M18.5 2.25C16.4601 2.25 14.5615 2.86359 12.9761 3.91369L13.5688 13.3958H23.4313L24.0239 3.91369C22.4385 2.86359 20.5399 2.25 18.5 2.25Z" fill="#FFB236"/>
<path d="M14.8887 12.0487H22.111L22.7537 1.76484C21.4385 1.23309 20.0035 0.9375 18.4999 0.9375C16.9963 0.9375 15.5613 1.23309 14.2461 1.76484L14.8887 12.0487Z" fill="#FFE352"/>
<path d="M27.4062 41.0317V34.7379L24.7812 34.1445V40.9697C24.7812 43.0408 23.1023 44.7197 21.0312 44.7197H15.9688C13.8977 44.7197 12.2188 43.0408 12.2188 40.9697V34.1446L9.59375 34.738V41.0318C9.59375 41.7854 9.36669 42.5216 8.94209 43.1443L8.1875 44.251V47.0635H28.8125V44.251L28.0579 43.1443C27.6333 42.5216 27.4062 41.7853 27.4062 41.0317Z" fill="#FFE352"/>
</svg>
