<svg width="40" height="40" viewBox="0 0 40 40" fill="none" xmlns="http://www.w3.org/2000/svg">
<rect width="40" height="40" rx="20" fill="#F7B600"/>
<path d="M23.4101 26.5899C23.0101 26.5899 22.6801 26.2599 22.6801 25.8599C22.6801 25.4599 23.0101 25.1299 23.4101 25.1299C26.2301 25.1299 28.5301 22.8299 28.5301 20.0099C28.5301 17.1899 26.2301 14.8899 23.4101 14.8899C20.5901 14.8899 18.2901 17.1899 18.2901 20.0099C18.2901 20.4099 17.9601 20.7399 17.5601 20.7399C17.1601 20.7399 16.8301 20.4099 16.8301 20.0099C16.8301 16.3799 19.7801 13.4199 23.4201 13.4199C27.0601 13.4199 30.0001 16.3699 30.0001 19.9999C30.0001 23.6299 27.0501 26.5899 23.4101 26.5899Z" fill="white"/>
<path d="M16.59 13.4102C16.99 13.4102 17.32 13.7402 17.32 14.1402C17.32 14.5402 16.99 14.8702 16.59 14.8702C13.77 14.8702 11.47 17.1702 11.47 19.9902C11.47 22.8102 13.77 25.1102 16.59 25.1102C19.41 25.1102 21.71 22.8102 21.71 19.9902C21.71 19.5902 22.04 19.2602 22.44 19.2602C22.84 19.2602 23.17 19.5902 23.17 19.9902C23.17 23.6202 20.22 26.5802 16.58 26.5802C12.94 26.5802 10 23.6302 10 20.0002C10 16.3702 12.95 13.4102 16.59 13.4102Z" fill="white"/>
</svg>
