<svg width="16" height="16" viewBox="0 0 16 16" fill="none" xmlns="http://www.w3.org/2000/svg">
<path d="M8.00008 9.4463C9.42008 9.4463 10.5801 8.29297 10.5801 6.8663C10.5801 5.43964 9.42008 4.29297 8.00008 4.29297C6.58008 4.29297 5.42008 5.4463 5.42008 6.87297C5.42008 8.29964 6.58008 9.4463 8.00008 9.4463ZM8.00008 5.29297C8.86674 5.29297 9.58008 5.99964 9.58008 6.87297C9.58008 7.7463 8.87341 8.45297 8.00008 8.45297C7.12674 8.45297 6.42008 7.7463 6.42008 6.87297C6.42008 5.99964 7.13341 5.29297 8.00008 5.29297Z" fill="#1A1F71"/>
<path d="M7.99988 15.173C8.98655 15.173 9.97988 14.7997 10.7532 14.0597C12.7199 12.1663 14.8932 9.14634 14.0732 5.55301C13.3332 2.29301 10.4865 0.833008 7.99988 0.833008C7.99988 0.833008 7.99988 0.833008 7.99322 0.833008C5.50655 0.833008 2.65988 2.29301 1.91988 5.55967C1.10655 9.15301 3.27988 12.1663 5.24655 14.0597C6.01988 14.7997 7.01322 15.173 7.99988 15.173ZM7.99988 1.83301C9.93988 1.83301 12.4332 2.86634 13.0932 5.77301C13.8132 8.91301 11.8399 11.6197 10.0532 13.333C8.89988 14.4463 7.09322 14.4463 5.93988 13.333C4.15988 11.6197 2.18655 8.91301 2.89322 5.77301C3.55988 2.86634 6.05988 1.83301 7.99988 1.83301Z" fill="#1A1F71"/>
</svg>
