<svg width="20" height="20" viewBox="0 0 20 20" fill="none" xmlns="http://www.w3.org/2000/svg">
<path d="M10.0004 11.8089C8.22539 11.8089 6.77539 10.3672 6.77539 8.58385C6.77539 6.80052 8.22539 5.36719 10.0004 5.36719C11.7754 5.36719 13.2254 6.80885 13.2254 8.59219C13.2254 10.3755 11.7754 11.8089 10.0004 11.8089ZM10.0004 6.61719C8.91706 6.61719 8.02539 7.50052 8.02539 8.59219C8.02539 9.68385 8.90872 10.5672 10.0004 10.5672C11.0921 10.5672 11.9754 9.68385 11.9754 8.59219C11.9754 7.50052 11.0837 6.61719 10.0004 6.61719Z" fill="#F7B600"/>
<path d="M10.0004 18.966C8.76706 18.966 7.52539 18.4993 6.55872 17.5744C4.10039 15.2077 1.38372 11.4327 2.40872 6.94102C3.33372 2.86602 6.89206 1.04102 10.0004 1.04102C10.0004 1.04102 10.0004 1.04102 10.0087 1.04102C13.1171 1.04102 16.6754 2.86602 17.6004 6.94935C18.6171 11.441 15.9004 15.2077 13.4421 17.5744C12.4754 18.4993 11.2337 18.966 10.0004 18.966ZM10.0004 2.29102C7.57539 2.29102 4.45872 3.58268 3.63372 7.21602C2.73372 11.141 5.20039 14.5243 7.43372 16.666C8.87539 18.0577 11.1337 18.0577 12.5754 16.666C14.8004 14.5243 17.2671 11.141 16.3837 7.21602C15.5504 3.58268 12.4254 2.29102 10.0004 2.29102Z" fill="#F7B600"/>
</svg>
