<svg width="32" height="32" viewBox="0 0 32 32" fill="none" xmlns="http://www.w3.org/2000/svg">
<path opacity="0.4" d="M27.4935 11.2654C26.0935 5.10536 20.7201 2.33203 16.0001 2.33203C16.0001 2.33203 16.0001 2.33203 15.9868 2.33203C11.2801 2.33203 5.89346 5.09203 4.49346 11.252C2.93346 18.132 7.14679 23.9587 10.9601 27.6254C12.3735 28.9854 14.1868 29.6654 16.0001 29.6654C17.8135 29.6654 19.6268 28.9854 21.0268 27.6254C24.8401 23.9587 29.0535 18.1454 27.4935 11.2654Z" fill="#053396"/>
<path d="M15.9998 17.9469C18.3194 17.9469 20.1998 16.0665 20.1998 13.7469C20.1998 11.4273 18.3194 9.54688 15.9998 9.54688C13.6802 9.54688 11.7998 11.4273 11.7998 13.7469C11.7998 16.0665 13.6802 17.9469 15.9998 17.9469Z" fill="#053396"/>
</svg>
