<svg width="20" height="20" viewBox="0 0 20 20" fill="none" xmlns="http://www.w3.org/2000/svg">
<path d="M10.6083 13.0995C10.6083 13.4355 10.3359 13.7079 9.99994 13.7079C9.66396 13.7079 9.3916 13.4355 9.3916 13.0995C9.3916 12.7636 9.66396 12.4912 9.99994 12.4912C10.3359 12.4912 10.6083 12.7636 10.6083 13.0995Z" fill="#1D1F1F" stroke="#1D1F1F" stroke-width="1.5"/>
<path d="M14.0667 8.62533H14.6534L15.1404 8.6862C16.1975 8.81835 16.7289 9.12887 17.0424 9.58028C17.3884 10.0784 17.5834 10.903 17.5834 12.3253V13.8753C17.5834 15.5573 17.3147 16.3959 16.8552 16.8554C16.3956 17.315 15.557 17.5837 13.8751 17.5837H6.12508C4.44314 17.5837 3.60455 17.315 3.14499 16.8554C2.68544 16.3959 2.41675 15.5573 2.41675 13.8753V12.3253C2.41675 10.903 2.61174 10.0784 2.95773 9.58028C3.27128 9.12887 3.80262 8.81835 4.85977 8.6862L5.37508 8.62179V8.62533H6.12508H13.8751H13.8755H13.8759H13.8763H13.8766H13.877H13.8774H13.8778H13.8782H13.8786H13.879H13.8794H13.8798H13.8801H13.8805H13.8809H13.8813H13.8817H13.8821H13.8825H13.8829H13.8832H13.8836H13.884H13.8844H13.8848H13.8852H13.8856H13.8859H13.8863H13.8867H13.8871H13.8875H13.8879H13.8883H13.8886H13.889H13.8894H13.8898H13.8902H13.8906H13.8909H13.8913H13.8917H13.8921H13.8925H13.8929H13.8932H13.8936H13.894H13.8944H13.8948H13.8952H13.8955H13.8959H13.8963H13.8967H13.8971H13.8974H13.8978H13.8982H13.8986H13.899H13.8993H13.8997H13.9001H13.9005H13.9009H13.9012H13.9016H13.902H13.9024H13.9028H13.9031H13.9035H13.9039H13.9043H13.9047H13.905H13.9054H13.9058H13.9062H13.9065H13.9069H13.9073H13.9077H13.908H13.9084H13.9088H13.9092H13.9096H13.9099H13.9103H13.9107H13.9111H13.9114H13.9118H13.9122H13.9126H13.9129H13.9133H13.9137H13.9141H13.9144H13.9148H13.9152H13.9156H13.9159H13.9163H13.9167H13.9171H13.9174H13.9178H13.9182H13.9186H13.9189H13.9193H13.9197H13.9201H13.9204H13.9208H13.9212H13.9215H13.9219H13.9223H13.9227H13.923H13.9234H13.9238H13.9242H13.9245H13.9249H13.9253H13.9256H13.926H13.9264H13.9268H13.9271H13.9275H13.9279H13.9282H13.9286H13.929H13.9294H13.9297H13.9301H13.9305H13.9308H13.9312H13.9316H13.9319H13.9323H13.9327H13.9331H13.9334H13.9338H13.9342H13.9345H13.9349H13.9353H13.9356H13.936H13.9364H13.9368H13.9371H13.9375H13.9379H13.9382H13.9386H13.939H13.9393H13.9397H13.9401H13.9404H13.9408H13.9412H13.9416H13.9419H13.9423H13.9427H13.943H13.9434H13.9438H13.9441H13.9445H13.9449H13.9452H13.9456H13.946H13.9463H13.9467H13.9471H13.9474H13.9478H13.9482H13.9485H13.9489H13.9493H13.9497H13.95H13.9504H13.9508H13.9511H13.9515H13.9519H13.9522H13.9526H13.953H13.9533H13.9537H13.9541H13.9544H13.9548H13.9552H13.9555H13.9559H13.9563H13.9566H13.957H13.9574H13.9577H13.9581H13.9585H13.9588H13.9592H13.9596H13.9599H13.9603H13.9607H13.961H13.9614H13.9618H13.9621H13.9625H13.9629H13.9632H13.9636H13.964H13.9643H13.9647H13.9651H13.9654H13.9658H13.9662H13.9665H13.9669H13.9673H13.9676H13.968H13.9684H13.9687H13.9691H13.9694H13.9698H13.9702H13.9705H13.9709H13.9713H13.9716H13.972H13.9724H13.9727H13.9731H13.9735H13.9738H13.9742H13.9746H13.9749H13.9753H13.9757H13.976H13.9764H13.9768H13.9771H13.9775H13.9779H13.9782H13.9786H13.979H13.9793H13.9797H13.9801H13.9804H13.9808H13.9812H13.9815H13.9819H13.9823H13.9826H13.983H13.9834H13.9837H13.9841H13.9845H13.9848H13.9852H13.9856H13.9859H13.9863H13.9867H13.987H13.9874H13.9878H13.9881H13.9885H13.9889H13.9892H13.9896H13.99H13.9903H13.9907H13.9911H13.9914H13.9918H13.9922H13.9925H13.9929H13.9933H13.9936H13.994H13.9944H13.9948H13.9951H13.9955H13.9959H13.9962H13.9966H13.997H13.9973H13.9977H13.9981H13.9984H13.9988H13.9992H13.9995H13.9999H14.0003H14.0006H14.001H14.0014H14.0017H14.0021H14.0025H14.0029H14.0032H14.0036H14.004H14.0043H14.0047H14.0051H14.0054H14.0058H14.0062H14.0066H14.0069H14.0073H14.0077H14.008H14.0084H14.0088H14.0091H14.0095H14.0099H14.0103H14.0106H14.011H14.0114H14.0117H14.0121H14.0125H14.0128H14.0132H14.0136H14.014H14.0143H14.0147H14.0151H14.0154H14.0158H14.0162H14.0166H14.0169H14.0173H14.0177H14.0181H14.0184H14.0188H14.0192H14.0195H14.0199H14.0203H14.0207H14.021H14.0214H14.0218H14.0222H14.0225H14.0229H14.0233H14.0236H14.024H14.0244H14.0248H14.0251H14.0255H14.0259H14.0263H14.0266H14.027H14.0274H14.0278H14.0281H14.0285H14.0289H14.0293H14.0296H14.03H14.0304H14.0308H14.0311H14.0315H14.0319H14.0323H14.0326H14.033H14.0334H14.0338H14.0342H14.0345H14.0349H14.0353H14.0357H14.036H14.0364H14.0368H14.0372H14.0376H14.0379H14.0383H14.0387H14.0391H14.0394H14.0398H14.0402H14.0406H14.041H14.0413H14.0417H14.0421H14.0425H14.0429H14.0432H14.0436H14.044H14.0444H14.0448H14.0451H14.0455H14.0459H14.0463H14.0467H14.0471H14.0474H14.0478H14.0482H14.0486H14.049H14.0494H14.0497H14.0501H14.0505H14.0509H14.0513H14.0517H14.052H14.0524H14.0528H14.0532H14.0536H14.054H14.0543H14.0547H14.0551H14.0555H14.0559H14.0563H14.0567H14.057H14.0574H14.0578H14.0582H14.0586H14.059H14.0594H14.0597H14.0601H14.0605H14.0609H14.0613H14.0617H14.0621H14.0625H14.0629H14.0632H14.0636H14.064H14.0644H14.0648H14.0652H14.0656H14.066H14.0664H14.0667ZM6.73341 13.1003C6.73341 14.8963 8.19259 16.367 10.0001 16.367C11.806 16.367 13.2667 14.9062 13.2667 13.1003C13.2667 11.3028 11.7976 9.83366 10.0001 9.83366C8.20415 9.83366 6.73341 11.2928 6.73341 13.1003Z" fill="#1D1F1F" stroke="#1D1F1F" stroke-width="1.5"/>
</svg>
