<svg width="40" height="40" viewBox="0 0 40 40" fill="none" xmlns="http://www.w3.org/2000/svg">
<path d="M0.858162 19.7608C0.857225 23.1216 1.742 26.4031 3.42439 29.2955L0.697266 39.178L10.8872 36.5262C13.7056 38.0491 16.8634 38.847 20.0723 38.8472H20.0808C30.6742 38.8472 39.2975 30.2917 39.302 19.7759C39.304 14.6802 37.3064 9.88857 33.677 6.28361C30.0483 2.67896 25.2221 0.692755 20.08 0.69043C9.48535 0.69043 0.862692 9.24547 0.858319 19.7608" fill="url(#paint0_linear_577_68259)"/>
<path d="M15.1067 11.496C14.734 10.6738 14.3417 10.6573 13.9873 10.6428C13.6971 10.6304 13.3653 10.6314 13.0338 10.6314C12.702 10.6314 12.1629 10.7552 11.7073 11.249C11.2511 11.7433 9.96582 12.9377 9.96582 15.367C9.96582 17.7965 11.7486 20.1442 11.9972 20.474C12.246 20.8031 15.439 25.948 20.4958 27.9272C24.6985 29.572 25.5537 29.2449 26.4659 29.1624C27.3781 29.0802 29.4095 27.9683 29.8239 26.8152C30.2386 25.6624 30.2386 24.6742 30.1143 24.4676C29.99 24.2619 29.6582 24.1383 29.1606 23.8915C28.6629 23.6445 26.217 22.45 25.761 22.2852C25.3049 22.1205 24.9733 22.0383 24.6415 22.5328C24.3097 23.0264 23.357 24.1383 23.0666 24.4676C22.7765 24.7977 22.4861 24.8388 21.9887 24.5918C21.4909 24.3441 19.8886 23.8233 17.9877 22.1413C16.5087 20.8324 15.5102 19.2162 15.22 18.7218C14.9297 18.2281 15.1889 17.9605 15.4383 17.7145C15.6619 17.4932 15.936 17.1379 16.185 16.8497C16.4331 16.5613 16.5159 16.3555 16.6818 16.0262C16.8478 15.6966 16.7647 15.4083 16.6405 15.1613C16.5159 14.9143 15.5491 12.4723 15.1067 11.496Z" fill="white"/>
<defs>
<linearGradient id="paint0_linear_577_68259" x1="1930.93" y1="3849.45" x2="1930.93" y2="0.69043" gradientUnits="userSpaceOnUse">
<stop stop-color="#1FAF38"/>
<stop offset="1" stop-color="#60D669"/>
</linearGradient>
</defs>
</svg>
