<svg width="20" height="20" viewBox="0 0 20 20" fill="none" xmlns="http://www.w3.org/2000/svg">
<path d="M9.99984 17.8332H9.99911C8.66783 17.8351 7.35824 17.4962 6.19505 16.8488L5.9452 16.703L5.75895 16.5943L5.55206 16.6552L3.02539 17.3985L3.02518 17.3986C2.96937 17.415 2.91028 17.4169 2.85351 17.4041L2.7441 17.8897L2.8535 17.4041C2.79674 17.3913 2.74418 17.3643 2.70081 17.3255C2.65745 17.2867 2.6247 17.2375 2.60569 17.1825C2.58793 17.1311 2.5827 17.0762 2.59037 17.0225L2.60485 16.9618L3.34452 14.4476L3.40671 14.2362L3.29264 14.0477C2.55412 12.827 2.16461 11.4272 2.16651 10.0005V9.99984C2.16651 5.67348 5.67349 2.1665 9.99984 2.1665C14.3262 2.1665 17.8332 5.67348 17.8332 9.99984C17.8332 14.3262 14.3262 17.8332 9.99984 17.8332ZM9.99999 2.83317H9.99994C8.71677 2.83294 7.45707 3.17722 6.3524 3.83007C5.24772 4.48291 4.33859 5.42038 3.71993 6.54456C3.10127 7.66874 2.79579 8.9384 2.83538 10.221C2.87497 11.5035 3.25818 12.7519 3.945 13.8358L3.94518 13.8361C4.04394 13.9917 4.08626 14.1807 4.05708 14.366L4.03153 14.4728L3.66762 15.7114L3.4094 16.5903L4.28829 16.3321L5.53912 15.9646L5.53992 15.9643C5.75504 15.9007 5.98123 15.9385 6.16323 16.0543L6.16403 16.0548C7.10316 16.6494 8.16773 17.0175 9.2736 17.1298C10.3795 17.2422 11.4963 17.0957 12.5358 16.7021C13.5754 16.3085 14.5091 15.6784 15.2632 14.8618C16.0173 14.0451 16.5711 13.0643 16.8808 11.9967C17.1905 10.9292 17.2477 9.80426 17.0477 8.71083C16.8478 7.6174 16.3963 6.58546 15.7288 5.69659C15.0614 4.80772 14.1963 4.08629 13.2021 3.58933C12.2078 3.09236 11.1115 2.83349 9.99999 2.83317ZM7.78162 6.44615L7.78163 6.44616L7.78354 6.44533C7.79615 6.43987 7.80996 6.43779 7.82362 6.43928C7.83729 6.44078 7.85032 6.44581 7.86145 6.45387L8.15482 6.04904L7.86 6.45282C8.21315 6.71067 8.50849 7.06832 8.78557 7.45624L9.05483 7.84656L9.18138 8.03266L9.18213 8.03376C9.19371 8.05068 9.19939 8.07094 9.1983 8.09141C9.19739 8.10843 9.19184 8.12481 9.18236 8.13881L9.16511 8.15628L8.42759 8.70384C8.29427 8.80153 8.20046 8.94393 8.16335 9.1051C8.12595 9.26754 8.1487 9.43803 8.22737 9.58499L8.22733 9.58501L8.23056 9.59085C8.41838 9.93071 8.75385 10.4468 9.15379 10.8467L9.15421 10.8471C9.55361 11.2456 10.0895 11.6009 10.4468 11.806L10.4487 11.8071C10.7214 11.962 11.0428 11.9069 11.2524 11.7176L11.2775 11.695L11.2994 11.6691L11.331 11.6316L11.3504 11.6086L11.3669 11.5835L11.8554 10.8398C11.8694 10.8245 11.8882 10.8142 11.9089 10.8109C11.9323 10.8071 11.9562 10.8124 11.9758 10.8258C11.976 10.8259 11.9761 10.826 11.9763 10.8261L12.4249 11.1392C12.863 11.4516 13.2469 11.7625 13.5435 12.141C13.5521 12.1522 13.5576 12.1655 13.5594 12.1796L14.0554 12.1168L13.5594 12.1796C13.5612 12.1938 13.5591 12.2082 13.5534 12.2214L13.5528 12.2229C13.2866 12.8438 12.6195 13.3337 12.0024 13.3145L11.8848 13.3071L11.7396 13.2935C11.7172 13.2908 11.6949 13.2879 11.6726 13.2848L11.486 13.2534C10.8037 13.1241 9.66637 12.7292 8.46851 11.5322C7.27136 10.3343 6.87642 9.19691 6.74709 8.5145L6.71654 8.3327L6.69846 8.1823L6.68868 8.0506C6.68768 8.03458 6.68683 8.01855 6.68612 8.00251C6.6645 7.38347 7.15748 6.71336 7.78162 6.44615Z" fill="#24CB62" stroke="#24CB62"/>
</svg>
