<svg width="92" height="32" viewBox="0 0 92 32" fill="none" xmlns="http://www.w3.org/2000/svg">
<path d="M30.8218 8.7528C32.0507 8.7528 33.0469 7.75662 33.0469 6.52777C33.0469 5.29892 32.0507 4.30273 30.8218 4.30273C29.5929 4.30273 28.5967 5.29892 28.5967 6.52777C28.5967 7.75662 29.5929 8.7528 30.8218 8.7528Z" fill="#1A1F71"/>
<path d="M37.1452 8.10136C38.0138 7.23282 38.0138 5.82428 37.1452 4.95573C36.2701 4.08068 34.842 4.08719 33.9767 4.97851C33.1536 5.82428 33.1536 7.23282 33.9767 8.08184C34.8452 8.96991 36.2701 8.97966 37.1452 8.10136Z" fill="#1A1F71"/>
<path d="M9.96525 31.9987C11.2912 31.9987 12.3661 30.9238 12.3661 29.598C12.3661 28.2721 11.2912 27.1973 9.96525 27.1973C8.63933 27.1973 7.56445 28.2721 7.56445 29.598C7.56445 30.9238 8.63933 31.9987 9.96525 31.9987Z" fill="#F7B600"/>
<path d="M17.8841 31.296C18.821 30.3592 18.821 28.8368 17.8841 27.8999C16.9472 26.9631 15.4247 26.9631 14.4878 27.8999C13.5509 28.8368 13.5509 30.3592 14.4878 31.296C15.4247 32.2361 16.9439 32.2361 17.8841 31.296Z" fill="#F7B600"/>
<path d="M58.4732 8.7528C59.7021 8.7528 60.6983 7.75662 60.6983 6.52777C60.6983 5.29892 59.7021 4.30273 58.4732 4.30273C57.2443 4.30273 56.248 5.29892 56.248 6.52777C56.248 7.75662 57.2443 8.7528 58.4732 8.7528Z" fill="#1A1F71"/>
<path d="M56.134 4.46959C57.3557 4.46959 58.3461 3.46904 58.3461 2.2348C58.3461 1.00055 57.3557 0 56.134 0C54.9123 0 53.9219 1.00055 53.9219 2.2348C53.9219 3.46904 54.9123 4.46959 56.134 4.46959Z" fill="#1A1F71"/>
<path d="M55.2718 8.10172C56.1404 7.23318 56.1404 5.82464 55.2718 4.9561C54.4032 4.08755 52.9946 4.08755 52.126 4.9561C51.2575 5.82464 51.2575 7.23318 52.126 8.10172C52.9946 8.97027 54.4032 8.97027 55.2718 8.10172Z" fill="#1A1F71"/>
<path d="M83.4175 7.97461L76.8429 13.0655C75.0765 14.5196 74.3738 16.8585 74.9724 19.0087H71.2768L66.8396 11.0779C66.4004 10.2907 65.5709 9.80603 64.6697 9.80603C62.7699 9.80603 61.5728 11.8489 62.4999 13.5079L63.3327 14.9978L65.5806 19.0087H63.7068L61.4622 14.9978L59.2761 11.091C58.8304 10.2972 57.9944 9.80603 57.0835 9.80603C55.1641 9.80603 53.954 11.8717 54.8909 13.547L55.7041 14.9978L57.9488 19.0087H56.1824L53.9377 14.9978L51.7581 11.1007C51.3092 10.3005 50.4666 9.80603 49.5492 9.80603C47.6136 9.80603 46.3937 11.8879 47.3404 13.5762L48.1374 14.9978L50.382 19.0087H46.0164L43.7684 14.9978L41.5954 11.1137C41.1432 10.307 40.2909 9.80603 39.3637 9.80603C37.4086 9.80603 36.1789 11.9075 37.1321 13.612L40.151 19.0087H35.782L35.7853 19.0022L33.5439 14.9978L32.916 13.8755L31.3513 11.0812C30.9089 10.294 30.0793 9.80603 29.175 9.80603C27.2816 9.80603 26.078 11.8326 26.9856 13.4949L27.7956 14.9815L29.2595 17.6067C29.7475 18.4785 29.7443 19.5389 29.2563 20.4107L24.8516 28.2764H30.9154L33.5341 23.475H63.7068H74.7609H76.7193H82.7604H91.3844L83.4175 7.97461ZM79.748 19.0054C79.3608 18.1987 79.5788 17.2293 80.2815 16.6698L82.2366 14.7668L84.491 19.038H82.7636V19.0054H79.748Z" fill="#1A1F71"/>
<path d="M24.8909 20.1677L24.0418 21.6803L23.3164 22.9815L22.6983 24.0843L21.1726 26.807C20.8472 27.3893 20.3365 27.8284 19.7379 28.0691C19.4029 28.2058 19.0385 28.2773 18.6644 28.2773H7.16788C6.79377 28.2773 6.42942 28.2058 6.09435 28.0691C5.49577 27.8284 4.98503 27.3893 4.65972 26.807L3.13401 24.0843L2.51592 22.9815L1.79047 21.6803L0.941406 20.1677C3.44956 19.4748 5.95121 18.9478 5.95121 18.9478L8.52443 22.9815H17.3079L19.8811 18.9478L16.963 13.6227C16.0131 11.8921 17.2786 9.77766 19.263 9.80694C20.2096 9.81995 21.0652 10.3827 21.5206 11.2122L24.9039 17.3799C25.3788 18.2484 25.3756 19.3024 24.8909 20.1677Z" fill="#1A1F71"/>
<path d="M9.85507 16.7734H2.89014C1.63443 16.7734 0.616211 17.7916 0.616211 19.0473C0.616211 20.3029 1.63443 21.3211 2.89014 21.3211H3.86933H9.85182C11.1075 21.3211 12.1257 20.3029 12.1257 19.0473C12.129 17.7916 11.1108 16.7734 9.85507 16.7734Z" fill="#F7B600"/>
</svg>
