<svg width="92" height="32" viewBox="0 0 92 32" fill="none" xmlns="http://www.w3.org/2000/svg">
<path d="M30.821 8.7528C32.0499 8.7528 33.0461 7.75662 33.0461 6.52777C33.0461 5.29892 32.0499 4.30273 30.821 4.30273C29.5921 4.30273 28.5958 5.29892 28.5958 6.52777C28.5958 7.75662 29.5921 8.7528 30.821 8.7528Z" fill="#1A1F71"/>
<path d="M37.145 8.10136C38.0135 7.23282 38.0135 5.82428 37.145 4.95573C36.2699 4.08068 34.8417 4.08719 33.9764 4.97851C33.1534 5.82428 33.1534 7.23282 33.9764 8.08184C34.845 8.96991 36.2699 8.97966 37.145 8.10136Z" fill="#1A1F71"/>
<path d="M9.96525 31.9987C11.2912 31.9987 12.3661 30.9238 12.3661 29.598C12.3661 28.2721 11.2912 27.1973 9.96525 27.1973C8.63933 27.1973 7.56445 28.2721 7.56445 29.598C7.56445 30.9238 8.63933 31.9987 9.96525 31.9987Z" fill="#F7B600"/>
<path d="M17.8832 31.296C18.8201 30.3592 18.8201 28.8368 17.8832 27.8999C16.9463 26.9631 15.4239 26.9631 14.487 27.8999C13.5501 28.8368 13.5501 30.3592 14.487 31.296C15.4239 32.2361 16.9431 32.2361 17.8832 31.296Z" fill="#F7B600"/>
<path d="M58.4726 8.7528C59.7015 8.7528 60.6977 7.75662 60.6977 6.52777C60.6977 5.29892 59.7015 4.30273 58.4726 4.30273C57.2437 4.30273 56.2474 5.29892 56.2474 6.52777C56.2474 7.75662 57.2437 8.7528 58.4726 8.7528Z" fill="#1A1F71"/>
<path d="M56.1334 4.46959C57.3551 4.46959 58.3455 3.46904 58.3455 2.2348C58.3455 1.00055 57.3551 0 56.1334 0C54.9117 0 53.9213 1.00055 53.9213 2.2348C53.9213 3.46904 54.9117 4.46959 56.1334 4.46959Z" fill="#1A1F71"/>
<path d="M55.2716 8.10172C56.1402 7.23318 56.1402 5.82464 55.2716 4.9561C54.403 4.08755 52.9944 4.08755 52.1258 4.9561C51.2572 5.82464 51.2572 7.23318 52.1258 8.10172C52.9944 8.97027 54.403 8.97027 55.2716 8.10172Z" fill="#1A1F71"/>
<path d="M83.4174 7.97461L76.8428 13.0655C75.0764 14.5196 74.3737 16.8585 74.9723 19.0087H71.2767L66.8395 11.0779C66.4003 10.2907 65.5707 9.80603 64.6696 9.80603C62.7698 9.80603 61.5727 11.8489 62.4998 13.5079L63.3326 14.9978L65.5805 19.0087H63.7067L61.4621 14.9978L59.276 11.091C58.8303 10.2972 57.9942 9.80603 57.0834 9.80603C55.164 9.80603 53.9538 11.8717 54.8907 13.547L55.704 14.9978L57.9487 19.0087H56.1822L53.9376 14.9978L51.758 11.1007C51.3091 10.3005 50.4665 9.80603 49.5491 9.80603C47.6135 9.80603 46.3936 11.8879 47.3403 13.5762L48.1373 14.9978L50.3819 19.0087H46.0162L43.7683 14.9978L41.5952 11.1137C41.1431 10.307 40.2907 9.80603 39.3636 9.80603C37.4085 9.80603 36.1788 11.9075 37.132 13.612L40.1509 19.0087H35.7819L35.7852 19.0022L33.5438 14.9978L32.9159 13.8755L31.3512 11.0812C30.9087 10.294 30.0792 9.80603 29.1748 9.80603C27.2815 9.80603 26.0779 11.8326 26.9855 13.4949L27.7955 14.9815L29.2594 17.6067C29.7474 18.4785 29.7441 19.5389 29.2562 20.4107L24.8514 28.2764H30.9153L33.534 23.475H63.7067H74.7608H76.7192H82.7602H91.3843L83.4174 7.97461ZM79.7478 19.0054C79.3607 18.1987 79.5787 17.2293 80.2814 16.6698L82.2365 14.7668L84.4909 19.038H82.7635V19.0054H79.7478Z" fill="#1A1F71"/>
<path d="M24.8905 20.1677L24.0414 21.6803L23.316 22.9815L22.6979 24.0843L21.1722 26.807C20.8469 27.3893 20.3361 27.8284 19.7376 28.0691C19.4025 28.2058 19.0381 28.2773 18.664 28.2773H7.16751C6.7934 28.2773 6.42905 28.2058 6.09398 28.0691C5.49541 27.8284 4.98467 27.3893 4.65935 26.807L3.13364 24.0843L2.51555 22.9815L1.7901 21.6803L0.94104 20.1677C3.4492 19.4748 5.95084 18.9478 5.95084 18.9478L8.52406 22.9815H17.3075L19.8807 18.9478L16.9627 13.6227C16.0127 11.8921 17.2782 9.77766 19.2626 9.80694C20.2093 9.81995 21.0648 10.3827 21.5203 11.2122L24.9035 17.3799C25.3785 18.2484 25.3752 19.3024 24.8905 20.1677Z" fill="#1A1F71"/>
<path d="M9.85458 16.7734H2.88965C1.63395 16.7734 0.615723 17.7916 0.615723 19.0473C0.615723 20.3029 1.63395 21.3211 2.88965 21.3211H3.86884H9.85133C11.107 21.3211 12.1253 20.3029 12.1253 19.0473C12.1285 17.7916 11.1103 16.7734 9.85458 16.7734Z" fill="#F7B600"/>
</svg>
