<svg width="17" height="16" viewBox="0 0 17 16" fill="none" xmlns="http://www.w3.org/2000/svg">
<path d="M11 3.035C11 2.185 11.69 1.5 12.535 1.5C13.38 1.5 14.065 2.185 14.07 3.035V6.1475C14.4656 6.25359 14.8152 6.48724 15.0645 6.81223C15.3139 7.13722 15.449 7.53539 15.449 7.945C15.449 8.35461 15.3139 8.75278 15.0645 9.07777C14.8152 9.40276 14.4656 9.63641 14.07 9.7425V12.86C14.07 13.2671 13.9083 13.6575 13.6204 13.9454C13.3325 14.2333 12.9421 14.395 12.535 14.395C12.1279 14.395 11.7375 14.2333 11.4496 13.9454C11.1617 13.6575 11 13.2671 11 12.86V12.744L8.035 11.285C7.72888 11.1349 7.40422 11.0259 7.0695 10.961C6.8288 10.9172 6.58465 10.8951 6.34 10.895L6.338 10.89H5.5V13.899C5.5 14.234 5.23 14.504 4.895 14.504H3.608C3.273 14.504 3.003 14.234 3.003 13.899V10.89H2.363C1.886 10.89 1.5 10.515 1.5 10.055V5.84C1.5 5.375 1.885 5 2.3635 5H6.386C6.95786 4.99186 7.52101 4.85875 8.036 4.61L11 3.1515V3.035ZM4.003 10.89V13.504H4.5V10.89H4.003ZM10.275 4.6515L8.583 5.484L8.5795 5.486C8.0835 5.725 7.5495 5.885 7 5.957V9.8165L7.049 9.945C7.582 10.02 8.102 10.18 8.586 10.4175L10.275 11.2485V4.6515Z" fill="#5960D9"/>
</svg>
