<svg width="32" height="32" viewBox="0 0 32 32" fill="none" xmlns="http://www.w3.org/2000/svg">
<path opacity="0.4" d="M26.5068 27.9181C25.2401 28.8515 23.5735 29.3315 21.5868 29.3315H10.4135C10.0935 29.3315 9.77346 29.3181 9.4668 29.2781L18.6668 20.0781L26.5068 27.9181Z" fill="#053396"/>
<path opacity="0.4" d="M29.3334 10.4115V21.5848C29.3334 23.5715 28.8534 25.2382 27.9201 26.5048L20.0801 18.6648L29.2801 9.46484C29.3201 9.77151 29.3334 10.0915 29.3334 10.4115Z" fill="#053396"/>
<path opacity="0.4" d="M20.0803 18.668L27.9203 26.508C27.5337 27.068 27.067 27.5346 26.507 27.9213L18.667 20.0813L9.467 29.2813C8.61367 29.228 7.84033 29.0546 7.13367 28.788C4.28033 27.748 2.66699 25.2146 2.66699 21.588V10.4146C2.66699 5.5613 5.56032 2.66797 10.4137 2.66797H21.587C25.2137 2.66797 27.747 4.2813 28.787 7.13463C29.0537 7.8413 29.227 8.61463 29.2803 9.46797L20.0803 18.668Z" fill="#053396"/>
<path d="M20.0804 18.6661L27.9205 26.5061C27.5338 27.0661 27.0671 27.5328 26.5071 27.9195L18.6671 20.0795L9.46712 29.2795C8.61379 29.2261 7.84046 29.0528 7.13379 28.7861L7.65377 28.2661L28.7871 7.13281C29.0538 7.83948 29.2271 8.61281 29.2804 9.46615L20.0804 18.6661Z" fill="#053396"/>
<path d="M16.3197 10.575C15.8131 8.375 13.8664 7.38833 12.1597 7.375C10.4531 7.375 8.50642 8.36167 7.99975 10.5617C7.43975 13.0017 8.93307 15.0417 10.2797 16.3217C10.8131 16.8283 11.4797 17.0683 12.1597 17.0683C12.8397 17.0683 13.5064 16.815 14.0397 16.3217C15.3864 15.0417 16.8797 13.0017 16.3197 10.575ZM12.1997 12.655C11.4664 12.655 10.8664 12.055 10.8664 11.3217C10.8664 10.5883 11.4531 9.98833 12.1997 9.98833H12.2131C12.9464 9.98833 13.5464 10.5883 13.5464 11.3217C13.5464 12.055 12.9331 12.655 12.1997 12.655Z" fill="#053396"/>
</svg>
