<svg width="18" height="18" viewBox="0 0 18 18" fill="none" xmlns="http://www.w3.org/2000/svg">
<path d="M11.7375 16.0571C11.415 16.0571 11.0925 15.9896 10.83 15.8621L6.89253 13.8896C6.66753 13.7771 6.22503 13.7846 6.00753 13.9121L4.23753 14.9246C3.47253 15.3596 2.68503 15.4196 2.09253 15.0671C1.49253 14.7221 1.15503 14.0171 1.15503 13.1321V5.84213C1.15503 5.15963 1.60503 4.38713 2.19753 4.04963L5.44503 2.18963C5.99253 1.87463 6.82503 1.85213 7.38753 2.13713L11.325 4.10963C11.55 4.22213 11.985 4.20713 12.21 4.08713L13.9725 3.08213C14.7375 2.64713 15.525 2.58713 16.1175 2.93963C16.7175 3.28463 17.055 3.98963 17.055 4.87463V12.1721C17.055 12.8546 16.605 13.6271 16.0125 13.9646L12.765 15.8246C12.48 15.9746 12.105 16.0571 11.7375 16.0571ZM6.48003 12.6896C6.80253 12.6896 7.12503 12.7571 7.38753 12.8846L11.325 14.8571C11.55 14.9696 11.985 14.9546 12.21 14.8346L15.4575 12.9746C15.6975 12.8396 15.93 12.4346 15.93 12.1646V4.86713C15.93 4.39463 15.795 4.04213 15.5475 3.90713C15.3075 3.77213 14.9325 3.82463 14.5275 4.05713L12.765 5.06213C12.2175 5.37713 11.385 5.39963 10.8225 5.11463L6.88503 3.14213C6.66003 3.02963 6.22503 3.04463 6.00003 3.16463L2.75253 5.02463C2.51253 5.15963 2.28003 5.56463 2.28003 5.84213V13.1396C2.28003 13.6121 2.41503 13.9646 2.65503 14.0996C2.89503 14.2421 3.27003 14.1821 3.68253 13.9496L5.44503 12.9446C5.73753 12.7721 6.11253 12.6896 6.48003 12.6896Z" fill="#F7B600"/>
<path d="M6.41992 13.3125C6.11242 13.3125 5.85742 13.0575 5.85742 12.75V3C5.85742 2.6925 6.11242 2.4375 6.41992 2.4375C6.72742 2.4375 6.98242 2.6925 6.98242 3V12.75C6.98242 13.0575 6.72742 13.3125 6.41992 13.3125Z" fill="#F7B600"/>
<path d="M11.7976 15.5623C11.4901 15.5623 11.2351 15.3073 11.2351 14.9998V4.96484C11.2351 4.65734 11.4901 4.40234 11.7976 4.40234C12.1051 4.40234 12.3601 4.65734 12.3601 4.96484V14.9998C12.3601 15.3073 12.1051 15.5623 11.7976 15.5623Z" fill="#F7B600"/>
</svg>
