<svg width="18" height="18" viewBox="0 0 18 18" fill="none" xmlns="http://www.w3.org/2000/svg">
<path d="M6.42003 2.50488V13.2524C6.16503 13.2599 5.91003 13.3199 5.72253 13.4324L3.96003 14.4374C2.73003 15.1424 1.71753 14.5574 1.71753 13.1324V5.83488C1.71753 5.36238 2.05503 4.77738 2.47503 4.53738L5.72253 2.67738C5.91003 2.57238 6.16503 2.51238 6.42003 2.50488Z" fill="white"/>
<path d="M11.7974 4.74721V15.4947C11.5349 15.5022 11.2799 15.4572 11.0774 15.3597L7.13992 13.3872C6.93742 13.2897 6.68242 13.2447 6.41992 13.2522V2.50471C6.68242 2.49721 6.93742 2.54221 7.13992 2.63971L11.0774 4.61221C11.2799 4.70971 11.5349 4.75471 11.7974 4.74721Z" fill="white"/>
<path d="M16.5001 4.86755V12.165C16.5001 12.6375 16.1626 13.2225 15.7426 13.4625L12.4951 15.3225C12.3076 15.4275 12.0526 15.4875 11.7976 15.495V4.74755C12.0526 4.74005 12.3076 4.68005 12.4951 4.56755L14.2576 3.56255C15.4876 2.85755 16.5001 3.44255 16.5001 4.86755Z" fill="white"/>
</svg>
