<svg width="32" height="32" viewBox="0 0 32 32" fill="none" xmlns="http://www.w3.org/2000/svg">
<path d="M21.3337 30.3332H4.00033C2.72033 30.3332 1.66699 29.2798 1.66699 27.9998V10.6665C1.66699 4.77317 4.77366 1.6665 10.667 1.6665H21.3337C27.227 1.6665 30.3337 4.77317 30.3337 10.6665V21.3332C30.3337 27.2265 27.227 30.3332 21.3337 30.3332ZM10.667 3.6665C5.89366 3.6665 3.66699 5.89317 3.66699 10.6665V27.9998C3.66699 28.1865 3.81366 28.3332 4.00033 28.3332H21.3337C26.107 28.3332 28.3337 26.1065 28.3337 21.3332V10.6665C28.3337 5.89317 26.107 3.6665 21.3337 3.6665H10.667Z" fill="white"/>
<path d="M22.6663 13.6665H9.33301C8.78634 13.6665 8.33301 13.2132 8.33301 12.6665C8.33301 12.1198 8.78634 11.6665 9.33301 11.6665H22.6663C23.213 11.6665 23.6663 12.1198 23.6663 12.6665C23.6663 13.2132 23.213 13.6665 22.6663 13.6665Z" fill="white"/>
<path d="M18.6663 20.3335H9.33301C8.78634 20.3335 8.33301 19.8802 8.33301 19.3335C8.33301 18.7868 8.78634 18.3335 9.33301 18.3335H18.6663C19.213 18.3335 19.6663 18.7868 19.6663 19.3335C19.6663 19.8802 19.213 20.3335 18.6663 20.3335Z" fill="white"/>
</svg>
