<svg width="96" height="96" viewBox="0 0 96 96" fill="none" xmlns="http://www.w3.org/2000/svg">
<rect width="96" height="96" rx="48" fill="#EAEBFA"/>
<path d="M39.94 53.66C38.5 52.02 36.36 51 34 51C29.58 51 26 54.58 26 59C26 60.5 26.42 61.92 27.16 63.12C27.56 63.8 28.08 64.42 28.68 64.94C30.08 66.22 31.94 67 34 67C36.92 67 39.46 65.44 40.84 63.12C41.58 61.92 42 60.5 42 59C42 56.96 41.22 55.08 39.94 53.66ZM37.2 62.16C36.9 62.46 36.52 62.6 36.14 62.6C35.76 62.6 35.38 62.46 35.08 62.16L34.02 61.1L32.92 62.2C32.62 62.5 32.24 62.64 31.86 62.64C31.48 62.64 31.1 62.5 30.8 62.2C30.22 61.62 30.22 60.66 30.8 60.08L31.9 58.98L30.84 57.92C30.26 57.34 30.26 56.38 30.84 55.8C31.42 55.22 32.38 55.22 32.96 55.8L34.02 56.86L35.02 55.86C35.6 55.28 36.56 55.28 37.14 55.86C37.72 56.44 37.72 57.4 37.14 57.98L36.14 58.98L37.2 60.04C37.78 60.62 37.78 61.56 37.2 62.16Z" fill="#5960D9"/>
<path d="M58.5 28.8594H39.5C33.8 28.8594 30 32.6594 30 38.3594V47.2794C30 47.9794 30.72 48.4794 31.4 48.2994C32.24 48.0994 33.1 47.9994 34 47.9994C39.72 47.9994 44.44 52.6394 44.96 58.2594C45 58.8194 45.46 59.2594 46 59.2594H47.1L55.56 64.8994C56.8 65.7394 58.5 64.8194 58.5 63.2994V59.2594C61.34 59.2594 63.72 58.2994 65.38 56.6594C67.04 54.9794 68 52.5994 68 49.7594V38.3594C68 32.6594 64.2 28.8594 58.5 28.8594ZM55.66 45.6194H42.34C41.56 45.6194 40.92 44.9794 40.92 44.1994C40.92 43.3994 41.56 42.7594 42.34 42.7594H55.66C56.44 42.7594 57.08 43.3994 57.08 44.1994C57.08 44.9794 56.44 45.6194 55.66 45.6194Z" fill="#5960D9"/>
</svg>
