<svg width="28" height="28" viewBox="0 0 28 28" fill="none" xmlns="http://www.w3.org/2000/svg">
<path d="M9.33301 2.20898H18.666C21.1186 2.20898 22.8678 2.85423 24.0068 3.99316C25.1459 5.1322 25.791 6.88132 25.791 9.33398V15.167C25.791 17.6197 25.1459 19.3688 24.0068 20.5078C22.8678 21.6468 21.1187 22.292 18.666 22.292H18.083C17.7245 22.292 17.4445 22.4734 17.2734 22.6787L17.2607 22.6934L17.25 22.709L15.501 25.041C15.0863 25.5909 14.5384 25.8622 14 25.8623C13.4618 25.8623 12.9137 25.5913 12.499 25.042H12.5L10.75 22.709L10.6807 22.6279C10.6107 22.556 10.5429 22.5116 10.5127 22.4922C10.4575 22.4566 10.4037 22.4285 10.3604 22.4082C10.2856 22.3732 10.1749 22.3289 10.0635 22.3066L9.99023 22.292H9.33301C6.92801 22.292 5.1981 21.9559 4.05469 20.9902C2.9411 20.0495 2.20801 18.3523 2.20801 15.167V9.33398C2.20801 6.88132 2.85315 5.1322 3.99219 3.99316C5.13122 2.85413 6.88034 2.20898 9.33301 2.20898ZM9.33301 2.45898C7.14218 2.45898 5.37964 2.96899 4.17383 4.1748C2.96801 5.38062 2.45801 7.14316 2.45801 9.33398V15.167C2.45801 17.8368 2.90344 19.6687 4.15625 20.7705C5.38307 21.8494 7.19089 22.042 9.33301 22.042H9.91602C10.2292 22.042 10.618 22.2156 10.8584 22.4551L10.9512 22.5615L12.6992 24.8926L12.7031 24.8965C13.0099 25.2996 13.46 25.5947 14 25.5947C14.5399 25.5946 14.9901 25.2996 15.2969 24.8965L15.2998 24.8926L17.0498 22.5586C17.2932 22.2343 17.6775 22.042 18.083 22.042H18.666C20.8568 22.042 22.6194 21.532 23.8252 20.3262C25.031 19.1204 25.541 17.3578 25.541 15.167V9.33398C25.541 7.14316 25.031 5.38062 23.8252 4.1748C22.6194 2.9691 20.8567 2.45898 18.666 2.45898H9.33301Z" fill="#053396" stroke="#053396" stroke-width="1.5"/>
<path d="M14 12.416C14.2273 12.4162 14.416 12.6057 14.416 12.833C14.4158 13.0651 14.234 13.2489 14 13.249C13.7659 13.249 13.5832 13.0652 13.583 12.833C13.583 12.6056 13.7725 12.416 14 12.416Z" fill="#053396" stroke="#053396" stroke-width="1.5"/>
<path d="M18.6667 13.9993C18.0133 13.9993 17.5 13.4743 17.5 12.8327C17.5 12.191 18.025 11.666 18.6667 11.666C19.3083 11.666 19.8333 12.191 19.8333 12.8327C19.8333 13.4743 19.32 13.9993 18.6667 13.9993Z" fill="#053396"/>
<path d="M9.33366 13.9993C8.68033 13.9993 8.16699 13.4743 8.16699 12.8327C8.16699 12.191 8.69199 11.666 9.33366 11.666C9.97533 11.666 10.5003 12.191 10.5003 12.8327C10.5003 13.4743 9.98699 13.9993 9.33366 13.9993Z" fill="#053396"/>
</svg>
