<svg width="20" height="20" viewBox="0 0 20 20" fill="none" xmlns="http://www.w3.org/2000/svg">
<path d="M7.84983 16.0915L7.64984 16.2415L7.65091 16.2429C7.65055 16.2425 7.65019 16.242 7.64983 16.2415L11.4998 18.2082L11.0998 17.9082M7.84983 16.0915L7.85101 16.0931M7.84983 16.0915C7.76206 15.9745 7.66009 15.9075 7.62529 15.8851C7.57542 15.853 7.5278 15.8286 7.49108 15.8114C7.42964 15.7826 7.33332 15.7434 7.23027 15.7227L7.15744 15.7082H7.08317H6.6665C4.95651 15.7082 3.78948 15.4663 3.03481 14.8289C2.30975 14.2166 1.7915 13.0822 1.7915 10.8332V6.6665C1.7915 4.9505 2.24238 3.76379 3.00308 3.00308C3.76379 2.24238 4.9505 1.7915 6.6665 1.7915H13.3332C15.0492 1.7915 16.2359 2.24238 16.9966 3.00308C17.7573 3.76379 18.2082 4.9505 18.2082 6.6665V10.8332C18.2082 12.5492 17.7573 13.7359 16.9966 14.4966C16.2359 15.2573 15.0492 15.7082 13.3332 15.7082H12.9165C12.5847 15.7082 12.3281 15.876 12.1737 16.0614L12.1614 16.0761L12.1498 16.0915L10.901 17.7566L11.0998 17.9082M7.84983 16.0915L8.24984 15.7915L7.85101 16.0931M7.85101 16.0931L7.65159 16.2438L8.89905 17.9071M7.85101 16.0931L9.09866 17.7566L8.89905 17.9071M8.89905 17.9071L8.49988 18.2081L8.89982 17.9082L8.90297 17.9123C9.15144 18.2389 9.53059 18.4957 9.99984 18.4957C10.4691 18.4957 10.8482 18.2389 11.0967 17.9123L11.0998 17.9082M8.89905 17.9071L8.89984 17.9082L9.09984 17.7582C9.10053 17.7591 9.10123 17.76 9.10193 17.7609C9.36287 18.1046 9.69261 18.2582 9.99984 18.2582C10.3071 18.2582 10.6368 18.1046 10.8977 17.7609C10.8984 17.76 10.8991 17.7591 10.8998 17.7582L11.0998 17.9082" fill="#053396" stroke="#053396" stroke-width="1.5"/>
<path d="M9.99984 9.25016C9.95227 9.25016 9.9165 9.21585 9.9165 9.16683C9.9165 9.14625 9.92425 9.126 9.94163 9.10862C9.959 9.09124 9.97925 9.0835 9.99984 9.0835C10.0204 9.0835 10.0407 9.09124 10.058 9.10862C10.0754 9.126 10.0832 9.14625 10.0832 9.16683C10.0832 9.21585 10.0474 9.25016 9.99984 9.25016Z" fill="#053396" stroke="#053396" stroke-width="1.5"/>
<path d="M13.3333 10.0002C12.8667 10.0002 12.5 9.62516 12.5 9.16683C12.5 8.7085 12.875 8.3335 13.3333 8.3335C13.7917 8.3335 14.1667 8.7085 14.1667 9.16683C14.1667 9.62516 13.8 10.0002 13.3333 10.0002Z" fill="#053396"/>
<path d="M6.66683 10.0002C6.20016 10.0002 5.8335 9.62516 5.8335 9.16683C5.8335 8.7085 6.2085 8.3335 6.66683 8.3335C7.12516 8.3335 7.50016 8.7085 7.50016 9.16683C7.50016 9.62516 7.1335 10.0002 6.66683 10.0002Z" fill="#053396"/>
</svg>
