<svg width="32" height="32" viewBox="0 0 32 32" fill="none" xmlns="http://www.w3.org/2000/svg">
<path d="M16.0001 21.666C12.5067 21.666 9.66675 18.826 9.66675 15.3327V7.99935C9.66675 4.50602 12.5067 1.66602 16.0001 1.66602C19.4934 1.66602 22.3334 4.50602 22.3334 7.99935V15.3327C22.3334 18.826 19.4934 21.666 16.0001 21.666ZM16.0001 3.66602C13.6134 3.66602 11.6667 5.61268 11.6667 7.99935V15.3327C11.6667 17.7193 13.6134 19.666 16.0001 19.666C18.3867 19.666 20.3334 17.7193 20.3334 15.3327V7.99935C20.3334 5.61268 18.3867 3.66602 16.0001 3.66602Z" fill="#464646"/>
<path d="M16 26.3339C9.82671 26.3339 4.80005 21.3072 4.80005 15.1339V12.8672C4.80005 12.3205 5.25338 11.8672 5.80005 11.8672C6.34672 11.8672 6.80005 12.3205 6.80005 12.8672V15.1339C6.80005 20.2005 10.9334 24.3339 16 24.3339C21.0667 24.3339 25.2 20.2005 25.2 15.1339V12.8672C25.2 12.3205 25.6534 11.8672 26.2 11.8672C26.7467 11.8672 27.2 12.3205 27.2 12.8672V15.1339C27.2 21.3072 22.1734 26.3339 16 26.3339Z" fill="#464646"/>
<path d="M17.8533 9.5731C17.7467 9.5731 17.6267 9.55977 17.5067 9.51977C16.5333 9.15977 15.4667 9.15977 14.4933 9.51977C13.9733 9.70643 13.4 9.43977 13.2133 8.91977C13.0267 8.39977 13.2933 7.82643 13.8133 7.63977C15.2267 7.1331 16.7867 7.1331 18.2 7.63977C18.72 7.82643 18.9867 8.39977 18.8 8.91977C18.64 9.31977 18.2533 9.5731 17.8533 9.5731Z" fill="#464646"/>
<path d="M17.0666 12.3998C16.9733 12.3998 16.8933 12.3864 16.7999 12.3598C16.2666 12.2131 15.7199 12.2131 15.1866 12.3598C14.6533 12.5064 14.1066 12.1864 13.9599 11.6531C13.8133 11.1331 14.1333 10.5864 14.6666 10.4398C15.5333 10.1998 16.4666 10.1998 17.3333 10.4398C17.8666 10.5864 18.1866 11.1331 18.0399 11.6664C17.9199 12.1064 17.5066 12.3998 17.0666 12.3998Z" fill="#464646"/>
<path d="M16 30.334C15.4533 30.334 15 29.8807 15 29.334V25.334C15 24.7873 15.4533 24.334 16 24.334C16.5467 24.334 17 24.7873 17 25.334V29.334C17 29.8807 16.5467 30.334 16 30.334Z" fill="#464646"/>
</svg>
