<svg width="28" height="28" viewBox="0 0 28 28" fill="none" xmlns="http://www.w3.org/2000/svg">
<path d="M14 2.58398C20.3053 2.58415 25.416 7.69565 25.416 14.001C25.4158 20.3062 20.3052 25.4168 14 25.417H13.999C12.0561 25.4198 10.1443 24.9245 8.44727 23.9785L8.09668 23.7734L8.00293 23.7197L7.89941 23.75L4.3623 24.79C4.21065 24.8347 4.04975 24.8404 3.89551 24.8057C3.74149 24.7709 3.59915 24.697 3.48145 24.5918C3.36361 24.4864 3.27431 24.3526 3.22266 24.2031C3.17151 24.0551 3.15796 23.8965 3.18457 23.7422L3.20996 23.6377L4.25098 20.1006L4.28125 19.9951L4.22461 19.9004C3.14812 18.1211 2.58024 16.0806 2.58301 14.001L2.59766 13.4131C2.90344 7.38073 7.89163 2.58398 14 2.58398ZM14 4.41699C12.2842 4.41668 10.5992 4.87703 9.12207 5.75C7.6449 6.62298 6.42883 7.87664 5.60156 9.37988C4.77436 10.883 4.36609 12.581 4.41895 14.2959C4.47189 16.0109 4.98492 17.6805 5.90332 19.1299C6.10111 19.4416 6.18471 19.824 6.12012 20.2021L6.07715 20.3838L5.56641 22.124L5.4375 22.5635L5.87695 22.4336L7.62793 21.9199V21.9189C8.06023 21.7912 8.51137 21.8686 8.87012 22.0967V22.0977C10.1259 22.8928 11.5496 23.3849 13.0283 23.5352C14.5071 23.6854 16.0006 23.4892 17.3906 22.9629C18.7807 22.4365 20.0297 21.594 21.0381 20.502C22.0463 19.41 22.787 18.0983 23.2012 16.6709C23.6153 15.2435 23.6911 13.7393 23.4238 12.2773C23.1565 10.8152 22.5527 9.4347 21.6602 8.24609C20.7677 7.05761 19.6107 6.09321 18.2812 5.42871C16.9518 4.76426 15.4862 4.41746 14 4.41699ZM11.002 8.56836C11.0743 8.5763 11.1444 8.59835 11.208 8.63281L11.2695 8.67188C11.8243 9.07709 12.2722 9.62673 12.6689 10.1826L13.0479 10.7305V10.7314L13.2256 10.9932L13.2266 10.9941C13.2985 11.0993 13.3339 11.2253 13.3271 11.3525C13.3204 11.4787 13.2718 11.5987 13.1904 11.6953L13.126 11.7598L12.0645 12.5488C11.9649 12.6217 11.895 12.7283 11.8672 12.8486C11.8393 12.9699 11.8564 13.0973 11.915 13.207L11.917 13.21C12.137 13.608 12.5056 14.181 12.9424 14.666L13.1338 14.8682C13.6537 15.3869 14.3664 15.8614 14.8496 16.1387L14.8506 16.1396C15.0529 16.2544 15.2934 16.2146 15.4521 16.0713L15.4639 16.0605L15.4756 16.0469L15.5195 15.9951L15.5293 15.9834L15.5371 15.9707L16.2295 14.916C16.3194 14.7962 16.4527 14.7164 16.6006 14.6924C16.7478 14.6686 16.8986 14.7017 17.0215 14.7861V14.7871L17.6533 15.2266V15.2275C18.2773 15.6724 18.8588 16.138 19.3154 16.7207V16.7217C19.3771 16.8012 19.417 16.8962 19.4297 16.9961C19.4422 17.0957 19.4275 17.1969 19.3877 17.2891V17.29C18.9578 18.2931 17.8725 19.1271 16.7832 19.0898L16.5986 19.0791L16.3838 19.0586C16.3469 19.0542 16.3102 19.0491 16.2734 19.0439L16.001 18.998C14.9668 18.8028 13.2871 18.2128 11.5371 16.4639C10.0058 14.9315 9.36303 13.4533 9.0957 12.415L9.00195 11.998L8.95703 11.7246L8.92871 11.4941L8.91504 11.3008L8.91113 11.2217C8.87211 10.1294 9.71114 9.04189 10.7168 8.61133H10.7178C10.8071 8.57265 10.9052 8.55777 11.002 8.56836Z" fill="#24CB62" stroke="#24CB62" stroke-width="0.5"/>
</svg>
