<svg width="32" height="32" viewBox="0 0 32 32" fill="none" xmlns="http://www.w3.org/2000/svg">
<path opacity="0.4" d="M21.6532 2.66699H10.3466C6.66659 2.66699 5.33325 4.00033 5.33325 7.74699V24.2537C5.33325 28.0003 6.66659 29.3337 10.3466 29.3337H21.6399C25.3333 29.3337 26.6666 28.0003 26.6666 24.2537V7.74699C26.6666 4.00033 25.3333 2.66699 21.6532 2.66699Z" fill="#053396"/>
<path d="M18.6666 8.33301H13.3333C12.7866 8.33301 12.3333 7.87967 12.3333 7.33301C12.3333 6.78634 12.7866 6.33301 13.3333 6.33301H18.6666C19.2133 6.33301 19.6666 6.78634 19.6666 7.33301C19.6666 7.87967 19.2133 8.33301 18.6666 8.33301Z" fill="#053396"/>
<path d="M16.0001 25.7331C17.2887 25.7331 18.3334 24.6884 18.3334 23.3997C18.3334 22.1111 17.2887 21.0664 16.0001 21.0664C14.7114 21.0664 13.6667 22.1111 13.6667 23.3997C13.6667 24.6884 14.7114 25.7331 16.0001 25.7331Z" fill="#053396"/>
</svg>
