<svg width="24" height="24" viewBox="0 0 24 24" fill="none" xmlns="http://www.w3.org/2000/svg">
<path d="M21.53 15.9313C21.37 15.6613 20.92 15.2413 19.8 15.4413C19.18 15.5513 18.55 15.6013 17.92 15.5713C15.59 15.4713 13.48 14.4013 12.01 12.7513C10.71 11.3013 9.90995 9.41134 9.89995 7.37134C9.89995 6.23134 10.12 5.13134 10.57 4.09134C11.01 3.08134 10.7 2.55134 10.48 2.33134C10.25 2.10134 9.70995 1.78134 8.64995 2.22134C4.55995 3.94134 2.02995 8.04134 2.32995 12.4313C2.62995 16.5613 5.52995 20.0913 9.36995 21.4213C10.29 21.7413 11.26 21.9313 12.26 21.9713C12.42 21.9813 12.58 21.9913 12.74 21.9913C16.09 21.9913 19.23 20.4113 21.21 17.7213C21.88 16.7913 21.7 16.2013 21.53 15.9313Z" fill="#666666"/>
</svg>
