<svg width="49" height="49" viewBox="0 0 49 49" fill="none" xmlns="http://www.w3.org/2000/svg">
<g clip-path="url(#clip0_5063_139338)">
<path d="M30.7178 41.1162H40.9552V45.5588H30.7178V41.1162Z" fill="#FDAA8E"/>
<path d="M41.6909 31.6994V38.6743C41.6909 41.0096 39.7977 42.9027 37.4625 42.9027H33.1635C30.0855 42.9027 27.5903 40.4075 27.5903 37.3295V24.3594C27.5903 23.3459 28.4119 22.5244 29.4253 22.5244C30.4387 22.5244 31.2603 23.3459 31.2603 24.3594V28.9271C31.2603 30.4582 32.5015 31.6994 34.0326 31.6994H41.6909V31.6994Z" fill="#FFC6A1"/>
<path d="M39.117 37.1563H33.6302C33.4149 37.1563 33.2402 36.9818 33.2402 36.7663V18.4199H39.507V36.7663C39.507 36.9818 39.3325 37.1563 39.117 37.1563Z" fill="#D67B42"/>
<path d="M36.374 18.4199V37.1563H39.1019C39.3258 37.1563 39.5074 36.9884 39.5074 36.7813V18.4199H36.374Z" fill="#BF6724"/>
<path d="M43.7547 23.1943C43.2614 22.3165 42.1494 22.0037 41.2708 22.4955L37.9106 24.3768C37.032 24.8686 36.7196 25.979 37.2129 26.8567C37.7061 27.7344 38.8181 28.0473 39.6967 27.5554L43.0571 25.6741C43.9355 25.1824 44.2479 24.0721 43.7547 23.1943Z" fill="#FFC6A1"/>
<path d="M43.7547 27.3691C43.2614 26.4913 42.1494 26.1785 41.2708 26.6704L37.9106 28.5517C37.032 29.0435 36.7196 30.1538 37.2129 31.0315C37.7061 31.9093 38.8181 32.2222 39.6967 31.7302L43.0571 29.849C43.9355 29.3572 44.2479 28.2469 43.7547 27.3691Z" fill="#FDAA8E"/>
<path d="M43.7547 31.5449C43.2614 30.6671 42.1494 30.3542 41.2708 30.8462L37.9106 32.7274C37.032 33.2192 36.7196 34.3296 37.2129 35.2073C37.7061 36.0851 38.8181 36.3979 39.6967 35.906L43.0571 34.0247C43.9355 33.5329 44.2479 32.4227 43.7547 31.5449Z" fill="#FFC6A1"/>
<path d="M43.7547 35.7197C43.2614 34.8419 42.1494 34.5291 41.2708 35.021L37.9106 36.9022C37.032 37.3941 36.7196 38.5044 37.2129 39.3821C37.7061 40.2599 38.8181 40.5727 39.6967 40.0808L43.0571 38.1996C43.9355 37.7076 44.2479 36.5974 43.7547 35.7197Z" fill="#FDAA8E"/>
<path d="M44.2507 19.3858H28.0254C25.6784 19.3858 23.7759 17.4833 23.7759 15.1363V4.89891C23.7759 2.55198 25.6784 0.649414 28.0254 0.649414H44.2507C46.5976 0.649414 48.5002 2.55198 48.5002 4.89891V15.1363C48.5002 17.4833 46.5976 19.3858 44.2507 19.3858Z" fill="#FFD54F"/>
<path d="M44.2504 0.649414H41.353C43.7 0.649414 45.6025 2.55198 45.6025 4.89891V15.1363C45.6025 17.4833 43.7 19.3858 41.353 19.3858H44.2504C46.5973 19.3858 48.4999 17.4833 48.4999 15.1363V4.89891C48.4999 2.55198 46.5973 0.649414 44.2504 0.649414Z" fill="#FFC328"/>
<path d="M37.4303 9.29598C37.2154 9.22005 36.9954 9.14027 36.7761 9.05711V5.59211C37.2237 5.69477 37.5302 5.8968 37.6537 5.99055C37.9632 6.2252 38.4041 6.16473 38.6389 5.85555C38.8737 5.54617 38.8131 5.10508 38.5039 4.87033C38.276 4.69745 37.6615 4.29273 36.7761 4.16364V3.44336C36.7761 3.05495 36.4614 2.74023 36.073 2.74023C35.6846 2.74023 35.3699 3.05495 35.3699 3.44336V4.21492C35.2576 4.23911 35.1433 4.26827 35.0267 4.30333C33.9981 4.61327 33.2295 5.49367 33.0209 6.60123C32.8307 7.61036 33.1535 8.58311 33.8633 9.1398C34.2439 9.4383 34.7184 9.71167 35.3699 10.0009V14.3811C34.7947 14.3418 34.4025 14.206 33.7547 13.7823C33.4297 13.5698 32.994 13.6607 32.7813 13.9857C32.5687 14.3108 32.6598 14.7465 32.9848 14.9591C33.9138 15.5669 34.5468 15.7448 35.3698 15.7889V16.5925C35.3698 16.981 35.6845 17.2957 36.0729 17.2957C36.4613 17.2957 36.776 16.981 36.776 16.5925V15.7338C38.4016 15.4227 39.3512 14.0861 39.5611 12.8376C39.83 11.2387 38.9936 9.84855 37.4303 9.29598ZM34.7312 8.03317C34.4361 7.8017 34.3102 7.35273 34.4028 6.86148C34.4869 6.41523 34.7855 5.87777 35.3699 5.67152V8.43827C35.1289 8.30917 34.9111 8.17427 34.7312 8.03317ZM38.1744 12.6042C38.0604 13.2823 37.5849 14.0033 36.7761 14.2788V10.5554C36.8374 10.5775 36.8981 10.5994 36.9616 10.6218C38.3158 11.1005 38.2323 12.2602 38.1744 12.6042Z" fill="#43809F"/>
<path d="M14.805 48.6495H9.76025C9.55316 48.6495 9.38525 48.4816 9.38525 48.2745V37.4463H15.18V48.2745C15.18 48.4816 15.0121 48.6495 14.805 48.6495Z" fill="#D67B42"/>
<path d="M12.2827 37.4463V48.6495H14.8051C15.0122 48.6495 15.1801 48.4816 15.1801 48.2745V37.4463H12.2827Z" fill="#BF6724"/>
<path d="M12.2827 40.2949C18.7901 40.2949 24.0654 35.0196 24.0654 28.5122C24.0654 22.0048 18.7901 16.7295 12.2827 16.7295C5.77529 16.7295 0.5 22.0048 0.5 28.5122C0.5 35.0196 5.77529 40.2949 12.2827 40.2949Z" fill="#7BE492"/>
<path d="M12.2827 16.7295C11.7922 16.7295 11.3088 16.76 10.834 16.8182C16.6578 17.5323 21.168 22.4953 21.168 28.5122C21.168 34.5291 16.6578 39.492 10.834 40.2062C11.3088 40.2644 11.7921 40.2949 12.2827 40.2949C18.7901 40.2949 24.0654 35.0196 24.0654 28.5122C24.0654 22.0048 18.7901 16.7295 12.2827 16.7295Z" fill="#45D987"/>
<path d="M13.5752 28.2735C13.3603 28.1976 13.1403 28.1178 12.921 28.0346V24.5697C13.3686 24.6723 13.6752 24.8744 13.7986 24.9682C14.1082 25.2028 14.5491 25.1424 14.7838 24.8332C15.0186 24.5238 14.958 24.0827 14.6488 23.848C14.4209 23.6751 13.8064 23.2704 12.921 23.1412V22.4209C12.921 22.0325 12.6063 21.7178 12.2179 21.7178C11.8295 21.7178 11.5148 22.0325 11.5148 22.4209V23.1925C11.4026 23.2166 11.2882 23.2458 11.1717 23.2809C10.143 23.5908 9.37447 24.4712 9.16578 25.5788C8.97566 26.5879 9.29844 27.5606 10.0082 28.1173C10.3889 28.4158 10.8633 28.6892 11.5148 28.9784V33.3589C10.9396 33.3197 10.5476 33.1836 9.89966 32.7598C9.57462 32.5472 9.13887 32.6383 8.92634 32.9634C8.71372 33.2883 8.80484 33.7241 9.12987 33.9367C10.0589 34.5445 10.6919 34.7223 11.5147 34.7664V35.5701C11.5147 35.9585 11.8294 36.2732 12.2178 36.2732C12.6062 36.2732 12.9209 35.9585 12.9209 35.5701V34.7113C14.5466 34.4003 15.4962 33.0636 15.7061 31.815C15.9748 30.2162 15.1385 28.8262 13.5752 28.2735ZM10.8762 27.0107C10.581 26.7792 10.4551 26.3303 10.5477 25.839C10.6318 25.3928 10.9304 24.8553 11.5148 24.6491V27.4157C11.2738 27.2868 11.0561 27.1519 10.8762 27.0107ZM14.3193 31.5817C14.2053 32.2598 13.7298 32.9808 12.921 33.2562V29.533C12.9823 29.555 13.043 29.5769 13.1066 29.5993C14.4606 30.078 14.3772 31.2377 14.3193 31.5817Z" fill="#43809F"/>
<path d="M42.1372 48.6496H30.1387C29.9316 48.6496 29.7637 48.4817 29.7637 48.2746V45.1953C29.7637 44.9882 29.9316 44.8203 30.1387 44.8203H42.1372C42.3443 44.8203 42.5122 44.9882 42.5122 45.1953V48.2746C42.5122 48.4817 42.3443 48.6496 42.1372 48.6496Z" fill="#43809F"/>
<path d="M39.6147 44.8203V48.6496H42.1371C42.3442 48.6496 42.5121 48.4817 42.5121 48.2746V45.1953C42.5121 44.9882 42.3442 44.8203 42.1371 44.8203H39.6147Z" fill="#3A7190"/>
</g>
<defs>
<clipPath id="clip0_5063_139338">
<rect width="48" height="48" fill="white" transform="translate(0.5 0.649414)"/>
</clipPath>
</defs>
</svg>
