<svg width="16" height="15" viewBox="0 0 16 15" fill="none" xmlns="http://www.w3.org/2000/svg">
<path d="M15.9388 6.28341C15.9164 5.9954 15.878 5.9522 15.7116 5.8962C15.4396 5.81386 15.1617 5.75235 14.8804 5.7122C14.437 4.24497 13.5284 2.96176 12.2918 2.05618C11.0552 1.1506 9.55756 0.671804 8.02494 0.692026C6.50042 0.671836 5.01028 1.14542 3.77712 2.04202C2.54397 2.93863 1.63398 4.21013 1.18311 5.66659C0.9279 5.7114 0.683891 5.761 0.443083 5.8162C0.202275 5.8714 0.144673 5.9682 0.111072 6.12021C0.104217 6.14817 0.0988754 6.17648 0.0950715 6.20501C-0.00396413 6.81856 -0.0257345 7.44211 0.0302693 8.06107C0.0441364 8.24775 0.0609369 8.43442 0.0806709 8.62109C0.105472 8.8611 0.080671 9.16911 0.33588 9.21151C0.612689 9.25685 0.902032 9.29845 1.20391 9.33632H1.18551C1.63684 10.7918 2.5467 12.0623 3.77932 12.9583C5.01194 13.8542 6.50123 14.3276 8.02494 14.3077C9.54276 14.3267 11.0264 13.857 12.2567 12.9677C13.4869 12.0785 14.3984 10.8171 14.8564 9.36992H14.8468C15.1093 9.34127 15.371 9.30579 15.6316 9.26352C15.704 9.25675 15.7718 9.2249 15.8232 9.17348C15.8746 9.12207 15.9064 9.05431 15.9132 8.98191C15.95 8.61869 15.9732 8.31788 15.9868 8.05628C16.0146 7.46495 15.9985 6.87238 15.9388 6.28341ZM8.02494 2.38088C9.06022 2.36579 10.0775 2.6522 10.9529 3.20521C11.8282 3.75823 12.5237 4.55395 12.9547 5.49539L12.9763 5.50579C11.3104 5.38549 9.64078 5.32385 7.97054 5.32098C5.80406 5.32098 4.29041 5.35698 3.12317 5.44019C3.56345 4.51592 4.25884 3.73683 5.12734 3.19478C5.99583 2.65273 7.00122 2.37033 8.02494 2.38088ZM11.8651 8.46109H11.4267C11.4155 8.46191 11.4044 8.45938 11.3947 8.45382C11.385 8.44826 11.3772 8.43992 11.3723 8.42989C11.3723 8.42189 11.3179 8.28908 11.2394 8.10988H10.205C10.125 8.29708 10.0642 8.42989 10.0642 8.42989C10.0593 8.43992 10.0515 8.44826 10.0418 8.45382C10.0321 8.45938 10.021 8.46191 10.0098 8.46109H9.58739C9.52419 8.46109 9.50099 8.46109 9.54019 8.38109C9.7514 7.92747 10.221 6.87143 10.221 6.87143C10.3146 6.67543 10.2674 6.69143 10.541 6.69143C10.5981 6.68435 10.6556 6.68168 10.713 6.68343C10.7705 6.6799 10.8282 6.68258 10.885 6.69143C11.1746 6.69943 11.125 6.66823 11.2602 6.96504C11.3307 7.12904 11.8395 8.22428 11.9179 8.41229C11.9419 8.46109 11.9259 8.45549 11.8635 8.45549L11.8651 8.46109ZM8.79056 7.81147C8.64176 7.80347 8.20414 7.76427 7.90653 7.73146C7.52332 7.69226 7.43772 7.52826 7.41372 7.38745C7.40704 7.33305 7.40437 7.27824 7.40572 7.22345C7.4053 7.16601 7.40797 7.10859 7.41372 7.05144C7.46892 6.80103 7.65373 6.68343 7.98494 6.68343H9.26018C9.30658 6.68343 9.32258 6.69143 9.32258 6.73063V7.02024C9.32258 7.05864 9.30658 7.07464 9.26018 7.06664H8.00654C7.95214 7.06664 7.92654 7.09064 7.92094 7.14664V7.21705C7.92094 7.25625 7.93614 7.28745 8.00094 7.29705C8.14894 7.31225 8.61056 7.35145 8.78256 7.36745C9.09618 7.39865 9.32258 7.45305 9.38498 7.75066C9.38498 7.77387 9.39299 7.85227 9.39299 7.93867C9.39529 8.00145 9.39018 8.06429 9.37778 8.12588C9.32258 8.40749 9.11138 8.46269 8.78256 8.46269H7.46732C7.42012 8.46269 7.41212 8.45469 7.41212 8.40749V8.12588C7.41212 8.07948 7.42012 8.07148 7.46732 8.07148H8.79697C8.85137 8.07148 8.86737 8.05547 8.87697 8.01627V7.89947C8.87563 7.87602 8.86608 7.85378 8.84999 7.83667C8.83389 7.81955 8.81229 7.80865 8.78897 7.80587L8.79056 7.81147ZM6.52969 7.81147C6.38168 7.80347 5.94327 7.76427 5.64966 7.73146C5.26645 7.69226 5.16964 7.52826 5.15684 7.38745C5.15164 7.33294 5.14923 7.2782 5.14964 7.22345C5.14895 7.16602 5.15136 7.1086 5.15684 7.05144C5.21204 6.80103 5.39685 6.68343 5.72806 6.68343H7.0033C7.05051 6.68343 7.06571 6.69143 7.06571 6.73063V7.02024C7.06571 7.05864 7.05051 7.07464 7.0033 7.06664H5.74566C5.69126 7.06664 5.66566 7.09064 5.66006 7.14664V7.21705C5.66006 7.25625 5.68326 7.28745 5.74006 7.29705C5.88887 7.31225 6.34968 7.35145 6.52249 7.36745C6.8353 7.39865 7.06171 7.45305 7.12411 7.75066C7.12411 7.77387 7.13211 7.85227 7.13211 7.93867C7.13441 8.00145 7.12931 8.06429 7.11691 8.12588C7.06171 8.40749 6.8505 8.46269 6.52249 8.46269H5.20644C5.15924 8.46269 5.15124 8.45469 5.15124 8.40749V8.12588C5.15124 8.07948 5.15924 8.07148 5.20644 8.07148H6.53609C6.59129 8.07148 6.60649 8.05547 6.61609 8.01627V7.89947C6.60649 7.86107 6.59849 7.81387 6.52809 7.80587L6.52969 7.81147ZM4.77763 6.71623V8.39069C4.77763 8.42989 4.76963 8.44509 4.72323 8.44509H4.31441C4.26721 8.44509 4.26001 8.43709 4.26001 8.39069V6.71063C4.26001 6.67943 4.26721 6.66423 4.29841 6.66423H4.72883C4.76803 6.66423 4.77603 6.67943 4.77603 6.71063L4.77763 6.71623ZM2.98477 8.30108C2.78876 7.99627 2.20234 7.09624 2.20234 7.09624V8.40269C2.20234 8.44989 2.19434 8.45789 2.14794 8.45789H1.79513C1.74873 8.45789 1.74073 8.44989 1.74073 8.40269V6.73463C1.74073 6.69543 1.74873 6.67943 1.79513 6.67943H2.20234C2.50715 6.67943 2.54635 6.67143 2.65596 6.82823C2.74236 6.96904 3.45598 8.06428 3.45598 8.06428V6.73463C3.45598 6.69543 3.46399 6.67943 3.51119 6.67943H3.8632C3.9096 6.67943 3.9176 6.69543 3.9176 6.73463V8.40029C3.9176 8.44749 3.9096 8.45549 3.8632 8.45549H3.38318C3.10237 8.45549 3.07837 8.45549 2.98477 8.30108ZM8.02494 12.6252C6.99255 12.6367 5.97881 12.3499 5.10556 11.7991C4.23231 11.2483 3.53671 10.457 3.10237 9.52032L3.08797 9.50912C4.58482 9.60593 6.27448 9.63793 8.07694 9.64193C9.69911 9.64909 11.3212 9.61014 12.9411 9.52512V9.53553C12.5036 10.467 11.8076 11.253 10.936 11.8001C10.0644 12.3472 9.05395 12.6322 8.02494 12.6212V12.6252ZM14.3588 8.40269C14.3588 8.44989 14.3508 8.45789 14.3044 8.45789H13.8243C13.5427 8.45789 13.5195 8.45789 13.4243 8.29788C13.2283 7.99307 12.6419 7.09304 12.6419 7.09304V8.39949C12.6419 8.44669 12.6339 8.45469 12.5867 8.45469H12.2419C12.1955 8.45469 12.1875 8.44669 12.1875 8.39949V6.73463C12.1875 6.69543 12.1955 6.67943 12.2419 6.67943H12.6491C12.9539 6.67943 12.9931 6.67143 13.1027 6.82823C13.1963 6.96904 13.9027 8.06428 13.9027 8.06428V6.73463C13.9027 6.69543 13.9107 6.67943 13.9579 6.67943H14.31C14.3564 6.67943 14.3644 6.69543 14.3644 6.73463L14.3588 8.40269ZM10.7762 7.07864C10.7682 7.07064 10.745 7.07064 10.729 7.07064C10.713 7.07064 10.6826 7.07064 10.6746 7.07864C10.6654 7.0775 10.656 7.07908 10.6476 7.0832C10.6392 7.08732 10.6322 7.0938 10.6274 7.10184C10.6274 7.10984 10.4946 7.41465 10.3618 7.72746H11.0738C10.9642 7.46185 10.8466 7.19545 10.8154 7.10984C10.8134 7.10096 10.8085 7.09302 10.8013 7.08734C10.7942 7.08167 10.7853 7.0786 10.7762 7.07864Z" fill="#053396"/>
</svg>
