<svg width="96" height="96" viewBox="0 0 96 96" fill="none" xmlns="http://www.w3.org/2000/svg">
<rect width="96" height="96" rx="48" fill="#EAEBFA"/>
<path d="M64.3799 52.1196L62.1199 48.3596C61.6199 47.5396 61.1799 45.9596 61.1799 44.9996V41.2596C61.1799 33.9996 55.2799 28.0996 48.0399 28.0996C40.7799 28.1196 34.8799 33.9996 34.8799 41.2596V44.9796C34.8799 45.9396 34.4399 47.5196 33.9599 48.3396L31.6999 52.0996C30.8399 53.5596 30.6399 55.2196 31.1799 56.6596C31.7199 58.1196 32.9399 59.2796 34.5399 59.7996C36.6999 60.5196 38.8799 61.0396 41.0999 61.4196C41.3199 61.4596 41.5399 61.4796 41.7599 61.5196C42.0399 61.5596 42.3399 61.5996 42.6399 61.6396C43.1599 61.7196 43.6799 61.7796 44.2199 61.8196C45.4799 61.9396 46.7599 61.9996 48.0399 61.9996C49.2999 61.9996 50.5599 61.9396 51.7999 61.8196C52.2599 61.7796 52.7199 61.7396 53.1599 61.6796C53.5199 61.6396 53.8799 61.5996 54.2399 61.5396C54.4599 61.5196 54.6799 61.4796 54.8999 61.4396C57.1399 61.0796 59.3599 60.5196 61.5199 59.7996C63.0599 59.2796 64.2399 58.1196 64.7999 56.6396C65.3599 55.1396 65.1999 53.4996 64.3799 52.1196ZM49.4999 43.9996C49.4999 44.8396 48.8199 45.5196 47.9799 45.5196C47.1399 45.5196 46.4599 44.8396 46.4599 43.9996V37.7996C46.4599 36.9596 47.1399 36.2796 47.9799 36.2796C48.8199 36.2796 49.4999 36.9596 49.4999 37.7996V43.9996Z" fill="#5960D9"/>
<path d="M53.6601 64.02C52.8201 66.34 50.6001 68 48.0001 68C46.4201 68 44.8601 67.36 43.7601 66.22C43.1201 65.62 42.6401 64.82 42.3601 64C42.6201 64.04 42.8801 64.06 43.1601 64.1C43.6201 64.16 44.1001 64.22 44.5801 64.26C45.7201 64.36 46.8801 64.42 48.0401 64.42C49.1801 64.42 50.3201 64.36 51.4401 64.26C51.8601 64.22 52.2801 64.2 52.6801 64.14C53.0001 64.1 53.3201 64.06 53.6601 64.02Z" fill="#5960D9"/>
</svg>
