<svg width="40" height="41" viewBox="0 0 40 41" fill="none" xmlns="http://www.w3.org/2000/svg">
<rect y="0.5" width="40" height="40" rx="20" fill="#FFF8E5"/>
<path d="M28.54 27.5393C28.39 27.6893 28.2 27.7593 28.01 27.7593C27.82 27.7593 27.63 27.6893 27.48 27.5393L22.53 22.5893L23.06 22.0593L23.59 21.5293L28.54 26.4793C28.83 26.7693 28.83 27.2493 28.54 27.5393Z" fill="#F7B600"/>
<path d="M14.4701 17.7801L20.2701 23.5801C20.6601 23.9701 20.6601 24.6001 20.2701 24.9901L19.3701 25.9001C18.5601 26.7001 17.2801 26.7001 16.4801 25.9001L12.1401 21.5601C11.3501 20.7701 11.3501 19.4801 12.1401 18.6801L13.0501 17.7701C13.4401 17.3901 14.0801 17.3901 14.4701 17.7801Z" fill="#F7B600"/>
<path d="M26.59 18.6897L22.78 22.4897C22.38 22.8897 21.74 22.8897 21.34 22.4897L15.56 16.7097C15.16 16.3097 15.16 15.6697 15.56 15.2697L19.37 11.4597C20.16 10.6697 21.45 10.6697 22.25 11.4597L26.59 15.7997C27.38 16.5997 27.38 17.8797 26.59 18.6897Z" fill="#F7B600"/>
<path d="M16 30.25H10C9.59 30.25 9.25 29.91 9.25 29.5C9.25 29.09 9.59 28.75 10 28.75H16C16.41 28.75 16.75 29.09 16.75 29.5C16.75 29.91 16.41 30.25 16 30.25Z" fill="#F7B600"/>
</svg>
