<svg width="32" height="33" viewBox="0 0 32 33" fill="none" xmlns="http://www.w3.org/2000/svg">
<g clip-path="url(#clip0_5173_129339)">
<path d="M30.8923 4.4898V10.4595C30.8923 12.0514 29.6018 13.3419 28.01 13.3419H22.0403C20.4485 13.3419 19.158 12.0514 19.158 10.4595V4.4898C19.158 2.89792 20.4485 1.60742 22.0403 1.60742H28.01C29.6018 1.60736 30.8923 2.89786 30.8923 4.4898Z" fill="#9BADD5"/>
<path d="M9.95973 13.3418H3.99004C2.39817 13.3418 1.10767 12.0513 1.10767 10.4594V4.4898C1.10767 2.89792 2.39817 1.60742 3.99004 1.60742H9.95973C11.5516 1.60742 12.8421 2.89792 12.8421 4.4898V10.4594C12.8421 12.0513 11.5516 13.3418 9.95973 13.3418Z" fill="#9BADD5"/>
<path d="M9.95973 31.3926H3.99004C2.39817 31.3926 1.10767 30.1021 1.10767 28.5102V22.5406C1.10767 20.9487 2.39817 19.6582 3.99004 19.6582H9.95973C11.5516 19.6582 12.8421 20.9487 12.8421 22.5406V28.5102C12.8421 30.1021 11.5516 31.3926 9.95973 31.3926Z" fill="#9BADD5"/>
<path d="M22.042 14.0639H28.009C29.9958 14.0639 31.612 12.4477 31.612 10.4609V8.91884C31.612 8.52078 31.2892 8.19822 30.8913 8.19822C30.4935 8.19822 30.1707 8.52078 30.1707 8.91884V10.4609C30.1707 11.653 29.201 12.6227 28.0089 12.6227H22.0419C20.8498 12.6227 19.8801 11.653 19.8801 10.4609V4.48972C19.8801 3.29766 20.8498 2.32791 22.0419 2.32791H28.0089C29.201 2.32791 30.1707 3.29759 30.1707 4.48972V5.44559C30.1707 5.84366 30.4935 6.16622 30.8913 6.16622C31.2892 6.16622 31.612 5.84366 31.612 5.44559V4.48972C31.612 2.50291 29.9958 0.886719 28.009 0.886719H22.042C20.0552 0.886719 18.439 2.50291 18.439 4.48972V10.4609C18.439 12.4477 20.0552 14.0639 22.042 14.0639Z" fill="#1A1F71"/>
<path d="M3.98996 14.0625H9.95978C11.9466 14.0625 13.5628 12.4463 13.5628 10.4595V4.48972C13.5628 2.50291 11.9466 0.886719 9.95978 0.886719H3.98996C2.00315 0.886719 0.386963 2.50291 0.386963 4.48972V10.4595C0.386963 12.4463 2.00315 14.0625 3.98996 14.0625ZM1.82815 4.48972C1.82815 3.29766 2.79784 2.32791 3.98996 2.32791H9.95978C11.1518 2.32791 12.1216 3.29759 12.1216 4.48972V10.4595C12.1216 11.6516 11.1519 12.6213 9.95978 12.6213H3.98996C2.7979 12.6213 1.82815 11.6517 1.82815 10.4595V4.48972Z" fill="#1A1F71"/>
<path d="M3.98996 32.1131H9.95978C11.9466 32.1131 13.5628 30.4969 13.5628 28.5101V22.5405C13.5628 20.5537 11.9466 18.9375 9.95978 18.9375H3.98996C2.00315 18.9375 0.386963 20.5537 0.386963 22.5405V28.5101C0.386963 30.4969 2.00315 32.1131 3.98996 32.1131ZM1.82815 22.5405C1.82815 21.3484 2.79784 20.3787 3.98996 20.3787H9.95978C11.1518 20.3787 12.1216 21.3484 12.1216 22.5405V28.5101C12.1216 29.7021 11.1519 30.6719 9.95978 30.6719H3.98996C2.7979 30.6719 1.82815 29.7022 1.82815 28.5101V22.5405Z" fill="#1A1F71"/>
<path d="M30.8923 24.8046H25.7458V19.6581C25.7458 19.2601 25.4231 18.9375 25.0252 18.9375C24.6274 18.9375 24.3046 19.26 24.3046 19.6581V24.8046H19.1576C18.7598 24.8046 18.437 25.1271 18.437 25.5252C18.437 25.9233 18.7598 26.2458 19.1576 26.2458H24.3046V31.3925C24.3046 31.7906 24.6273 32.1131 25.0252 32.1131C25.423 32.1131 25.7458 31.7906 25.7458 31.3925V26.2458H30.8923C31.2901 26.2458 31.6129 25.9232 31.6129 25.5251C31.6129 25.1271 31.2901 24.8046 30.8923 24.8046Z" fill="#1A1F71"/>
</g>
<defs>
<clipPath id="clip0_5173_129339">
<rect width="32" height="32" fill="white" transform="translate(0 0.5)"/>
</clipPath>
</defs>
</svg>
