<svg width="16" height="16" viewBox="0 0 16 16" fill="none" xmlns="http://www.w3.org/2000/svg">
<path d="M14.25 7.00001H14V2.05001C14 1.63892 13.8367 1.24468 13.546 0.953995C13.2553 0.663314 12.8611 0.500011 12.45 0.500011H11.2C11.0422 0.499349 10.8859 0.529936 10.74 0.590008C10.5941 0.650079 10.4615 0.738445 10.35 0.850007C10.2384 0.96157 10.1501 1.09412 10.09 1.24001C10.0299 1.3859 9.99932 1.54224 9.99998 1.70001V2.07001C9.57175 2.18058 9.19224 2.42998 8.92083 2.77919C8.64942 3.1284 8.50142 3.55773 8.49998 4.00001V4.50001C8.49998 4.63262 8.55266 4.7598 8.64643 4.85356C8.7402 4.94733 8.86738 5.00001 8.99998 5.00001H12C12.1326 5.00001 12.2598 4.94733 12.3535 4.85356C12.4473 4.7598 12.5 4.63262 12.5 4.50001V4.00001C12.4985 3.55773 12.3506 3.1284 12.0791 2.77919C11.8077 2.42998 11.4282 2.18058 11 2.07001V1.70001C11 1.64697 11.0211 1.5961 11.0586 1.55859C11.0961 1.52108 11.1469 1.50001 11.2 1.50001H12.45C12.5955 1.50132 12.7346 1.55968 12.8375 1.66254C12.9403 1.76541 12.9987 1.90455 13 2.05001V7.00001H1.74998C1.48739 6.99824 1.23097 7.07954 1.01737 7.23229C0.803771 7.38505 0.643941 7.60142 0.560735 7.85049C0.477528 8.09956 0.475204 8.36855 0.554097 8.61902C0.632989 8.86948 0.789057 9.08859 0.999984 9.24501V10.745C1.00218 11.4229 1.21375 12.0836 1.60576 12.6367C1.99776 13.1898 2.55106 13.6083 3.18998 13.835L2.58498 14.725C2.51262 14.8352 2.48673 14.9696 2.51295 15.0988C2.53917 15.2281 2.61538 15.3417 2.72498 15.415C2.80551 15.4714 2.90168 15.5011 2.99998 15.5C3.08234 15.4996 3.16331 15.4788 3.23571 15.4396C3.30811 15.4003 3.36969 15.3438 3.41498 15.275L4.26998 14H11.73L12.585 15.275C12.6303 15.3438 12.6919 15.4003 12.7643 15.4396C12.8367 15.4788 12.9176 15.4996 13 15.5C13.0983 15.5011 13.1945 15.4714 13.275 15.415C13.3846 15.3417 13.4608 15.2281 13.487 15.0988C13.5132 14.9696 13.4874 14.8352 13.415 14.725L12.81 13.81C13.4489 13.5834 14.0022 13.1648 14.3942 12.6117C14.7862 12.0586 14.9978 11.3979 15 10.72V9.22001C15.2008 9.06065 15.3475 8.84319 15.4201 8.59732C15.4927 8.35145 15.4876 8.08917 15.4056 7.8463C15.3235 7.60343 15.1685 7.3918 14.9617 7.24033C14.7548 7.08886 14.5063 7.00494 14.25 7.00001ZM11.5 4.00001H9.49998C9.49998 3.73479 9.60534 3.48044 9.79288 3.2929C9.98041 3.10537 10.2348 3.00001 10.5 3.00001C10.7652 3.00001 11.0196 3.10537 11.2071 3.2929C11.3946 3.48044 11.5 3.73479 11.5 4.00001ZM1.74998 8.00001H14.25C14.3163 8.00001 14.3799 8.02635 14.4268 8.07323C14.4736 8.12012 14.5 8.18371 14.5 8.25001C14.5 8.31631 14.4736 8.3799 14.4268 8.42679C14.3799 8.47367 14.3163 8.50001 14.25 8.50001H1.74998C1.68368 8.50001 1.62009 8.47367 1.57321 8.42679C1.52632 8.3799 1.49998 8.31631 1.49998 8.25001C1.49998 8.18371 1.52632 8.12012 1.57321 8.07323C1.62009 8.02635 1.68368 8.00001 1.74998 8.00001ZM14 10.72C13.9987 11.3243 13.758 11.9035 13.3307 12.3308C12.9034 12.7581 12.3243 12.9987 11.72 13H4.27998C3.6757 12.9987 3.09654 12.7581 2.66924 12.3308C2.24194 11.9035 2.0013 11.3243 1.99998 10.72V9.50001H14V10.72Z" fill="#666666"/>
</svg>
