<svg width="24" height="24" viewBox="0 0 24 24" fill="none" xmlns="http://www.w3.org/2000/svg">
<path d="M18 2.99805H6C3.79 2.99805 2 4.77805 2 6.96805V17.028C2 19.218 3.79 20.998 6 20.998H18C20.21 20.998 22 19.218 22 17.028V6.96805C22 4.77805 20.21 2.99805 18 2.99805ZM8.5 7.16805C9.77 7.16805 10.81 8.20805 10.81 9.47805C10.81 10.748 9.77 11.788 8.5 11.788C7.23 11.788 6.19 10.748 6.19 9.47805C6.19 8.20805 7.23 7.16805 8.5 7.16805ZM12.37 16.658C12.28 16.758 12.14 16.818 12 16.818H5C4.86 16.818 4.72 16.758 4.63 16.658C4.54 16.558 4.49 16.418 4.5 16.278C4.67 14.598 6.01 13.268 7.69 13.108C8.22 13.058 8.77 13.058 9.3 13.108C10.98 13.268 12.33 14.598 12.49 16.278C12.51 16.418 12.46 16.558 12.37 16.658ZM19 16.748H17C16.59 16.748 16.25 16.408 16.25 15.998C16.25 15.588 16.59 15.248 17 15.248H19C19.41 15.248 19.75 15.588 19.75 15.998C19.75 16.408 19.41 16.748 19 16.748ZM19 12.748H15C14.59 12.748 14.25 12.408 14.25 11.998C14.25 11.588 14.59 11.248 15 11.248H19C19.41 11.248 19.75 11.588 19.75 11.998C19.75 12.408 19.41 12.748 19 12.748ZM19 8.74805H14C13.59 8.74805 13.25 8.40805 13.25 7.99805C13.25 7.58805 13.59 7.24805 14 7.24805H19C19.41 7.24805 19.75 7.58805 19.75 7.99805C19.75 8.40805 19.41 8.74805 19 8.74805Z" fill="#666666"/>
</svg>
