<svg width="32" height="32" viewBox="0 0 32 32" fill="none" xmlns="http://www.w3.org/2000/svg">
<path opacity="0.4" d="M25.44 20.9601C24.6534 16.2534 20.1334 12.4268 15.36 12.4268C10.1734 12.4268 5.61338 16.6268 5.17338 21.8001C5.00004 23.8001 5.64004 25.6934 6.96004 27.1201C8.26671 28.5468 10.1067 29.3334 12.1067 29.3334H18.3467C20.6 29.3334 22.5734 28.4534 23.92 26.8668C25.2667 25.2801 25.8 23.1734 25.44 20.9601Z" fill="#053396"/>
<path d="M13.7067 10.4803C15.8643 10.4803 17.6134 8.73125 17.6134 6.57366C17.6134 4.41607 15.8643 2.66699 13.7067 2.66699C11.5491 2.66699 9.80005 4.41607 9.80005 6.57366C9.80005 8.73125 11.5491 10.4803 13.7067 10.4803Z" fill="#053396"/>
<path d="M22.5866 12.0399C24.3834 12.0399 25.8399 10.5833 25.8399 8.78654C25.8399 6.98977 24.3834 5.5332 22.5866 5.5332C20.7898 5.5332 19.3333 6.98977 19.3333 8.78654C19.3333 10.5833 20.7898 12.0399 22.5866 12.0399Z" fill="#053396"/>
<path d="M27.4 17.24C28.836 17.24 30 16.076 30 14.64C30 13.2041 28.836 12.04 27.4 12.04C25.9641 12.04 24.8 13.2041 24.8 14.64C24.8 16.076 25.9641 17.24 27.4 17.24Z" fill="#053396"/>
<path d="M5.25333 14.6405C7.0501 14.6405 8.50667 13.1839 8.50667 11.3871C8.50667 9.59036 7.0501 8.13379 5.25333 8.13379C3.45657 8.13379 2 9.59036 2 11.3871C2 13.1839 3.45657 14.6405 5.25333 14.6405Z" fill="#053396"/>
</svg>
