<svg width="16" height="16" viewBox="0 0 16 16" fill="none" xmlns="http://www.w3.org/2000/svg">
<path d="M5.59105 9.94427C4.91324 9.2667 4.23551 8.58915 3.55841 7.91097C4.20019 7.26949 4.84173 6.62789 5.48325 5.9863C6.29248 5.177 7.10169 4.36771 7.91133 3.55872C8.13971 3.78714 8.36813 4.01544 8.59653 4.24372C9.04592 4.69288 9.49523 5.14196 9.94404 5.59172C9.91615 5.61957 9.88824 5.64743 9.86032 5.67529C9.78023 5.75523 9.70005 5.83526 9.62007 5.91539C9.54628 5.90074 9.47211 5.88582 9.39775 5.87087C9.25148 5.84145 9.10449 5.81188 8.95837 5.78395C8.95835 5.78394 8.95832 5.78394 8.95829 5.78393L8.93481 5.90671M5.59105 9.94427L6.87704 7.73016C7.44484 7.16242 8.01267 6.59465 8.58039 6.02676M5.59105 9.94427C5.69902 9.8363 5.80702 9.72834 5.91501 9.62049C5.89799 9.53379 5.88022 9.44555 5.86238 9.35694C5.83553 9.2236 5.80851 9.08943 5.78362 8.95841M5.59105 9.94427L5.78362 8.95841M8.93481 5.90671C8.80591 5.88197 8.66945 5.93145 8.58039 6.02676M8.93481 5.90671C9.08056 5.93457 9.22611 5.96385 9.37165 5.99312L9.3717 5.99313L9.37175 5.99314L9.37195 5.99318L9.37202 5.9932L9.37209 5.99321L9.37216 5.99322C9.46856 6.01261 9.56495 6.032 9.66138 6.05098L8.93481 5.90671ZM8.58039 6.02676L8.49199 5.93838C8.49152 5.93885 8.49106 5.93931 8.49059 5.93978M8.58039 6.02676L8.48906 5.94141C8.48957 5.94087 8.49008 5.94032 8.49059 5.93978M8.49059 5.93978C7.92352 6.50702 7.35634 7.07414 6.78919 7.64124C6.50639 7.924 6.2236 8.20676 5.94084 8.48953C5.81763 8.60543 5.75005 8.78357 5.78362 8.95841M8.49059 5.93978L5.78362 8.95841M6.78742 1.20801V1.20734L6.77454 1.20867C6.65804 1.22074 6.5337 1.2659 6.44043 1.36129C4.74784 3.05362 3.05551 4.74596 1.36317 6.43855C1.2686 6.53071 1.22017 6.65398 1.20881 6.7741L1.20825 6.77405V6.78587V6.83978V6.84878L1.20954 6.85769C1.22638 6.97397 1.27642 7.09385 1.37188 7.18357C2.13064 7.94153 2.88876 8.69993 3.64687 9.45832C4.12967 9.94128 4.61245 10.4242 5.09539 10.9071L5.09538 10.9071L5.09711 10.9088C5.11354 10.9246 5.12948 10.941 5.14723 10.9593C5.15146 10.9636 5.1558 10.9681 5.16027 10.9727C5.18257 10.9956 5.20748 11.0208 5.2344 11.0448C5.2879 11.0925 5.35522 11.1412 5.44219 11.1661C5.62398 11.2231 5.82631 11.1672 5.95701 11.0355C6.16986 10.8246 6.3817 10.6124 6.59328 10.4005C6.67228 10.3214 6.75125 10.2423 6.83022 10.1633C6.95172 10.0459 7.01477 9.8684 6.98071 9.69621C6.94267 9.49536 6.9019 9.29517 6.86133 9.09592C6.85752 9.0772 6.85371 9.05848 6.8499 9.03978C6.90368 8.98493 6.9579 8.93092 7.01274 8.8763C7.01758 8.87147 7.02243 8.86664 7.02729 8.8618L7.09404 8.92849C7.80084 9.63457 8.50763 10.3406 9.21272 11.0479C8.96649 11.8032 9.05234 12.6581 9.44896 13.3477C9.71303 13.812 10.1095 14.2007 10.5817 14.452C10.9761 14.6652 11.4196 14.7761 11.8634 14.7913L11.8634 14.7913H11.8676H11.9973V14.7914L12.0013 14.7913C12.4658 14.7764 12.9292 14.6546 13.3368 14.4232C13.8001 14.1622 14.1873 13.7693 14.4425 13.3029C14.656 12.9174 14.7684 12.4836 14.7914 12.049L14.7916 12.049V12.0424V11.7992H14.792L14.7912 11.7889C14.7712 11.5466 14.7345 11.2989 14.6559 11.0593C14.4084 10.2728 13.8005 9.61392 13.0408 9.29788C12.4464 9.04832 11.7665 9.00412 11.1457 9.18485C11.1216 9.19114 11.0948 9.2003 11.0748 9.20715C11.0678 9.20955 11.0616 9.21167 11.0566 9.21327C11.0548 9.21385 11.0531 9.2144 11.0514 9.21493C10.6261 8.79311 10.2033 8.36973 9.78027 7.9461C9.47452 7.63992 9.16864 7.33361 8.86155 7.02765C8.89136 6.99774 8.92116 6.96788 8.951 6.938C8.97994 6.909 9.00891 6.87998 9.03795 6.85085C9.12435 6.86764 9.21365 6.88574 9.30358 6.90396C9.43613 6.93082 9.57003 6.95796 9.69797 6.9816C9.8707 7.01501 10.0478 6.95053 10.1643 6.82923C10.2663 6.72688 10.369 6.62449 10.4719 6.52193C10.6649 6.3296 10.8585 6.13665 11.0491 5.94211L11.0495 5.9417C11.2483 5.73691 11.2243 5.3929 11.0194 5.20831C10.0596 4.24773 9.0994 3.28758 8.13929 2.32757C7.81987 2.00819 7.50047 1.68882 7.18111 1.36945C7.08519 1.26993 6.95521 1.21749 6.82623 1.20832L6.82625 1.20801H6.81737H6.78742ZM10.2143 11.3087L10.2144 11.3087L10.2157 11.3047C10.2264 11.2724 10.2379 11.2467 10.2516 11.2162C10.2611 11.1948 10.2718 11.171 10.284 11.1408C10.3094 11.0782 10.3347 11.0007 10.3317 10.9118C10.3303 10.7677 10.2631 10.636 10.1674 10.5435L7.75699 8.13259C7.88192 8.00725 8.00698 7.88209 8.13233 7.75718C8.49175 8.11614 8.85116 8.47566 9.21061 8.83522C9.65912 9.28388 10.1077 9.7326 10.5564 10.1804C10.7127 10.3396 10.9622 10.3752 11.1574 10.2771C11.5167 10.1082 11.9321 10.0617 12.3195 10.1475L12.3206 10.1477C12.7566 10.2402 13.1545 10.5011 13.4151 10.8633L13.4151 10.8633L13.4161 10.8646C13.8203 11.4114 13.872 12.1935 13.5466 12.7909L13.5461 12.792C13.3392 13.1807 12.987 13.4914 12.5744 13.6436L12.5737 13.6438C12.1889 13.7883 11.7543 13.7975 11.3637 13.6692L11.363 13.669C10.9587 13.5386 10.6046 13.2594 10.3809 12.8982L10.3805 12.8975C10.087 12.4302 10.0229 11.8259 10.2143 11.3087ZM11.8637 11.6769L11.8637 11.677L11.8699 11.6754C11.9904 11.6433 12.1312 11.7137 12.1743 11.8266L12.1741 11.8266L12.177 11.833C12.2332 11.9587 12.1642 12.1272 12.0387 12.1743L12.0386 12.1741L12.0312 12.1775C11.9011 12.2364 11.7262 12.1588 11.6846 12.0255L11.6849 12.0254L11.6818 12.0174C11.6288 11.881 11.7223 11.707 11.8637 11.6769ZM5.28869 4.72265C4.46878 5.54241 3.64884 6.3622 2.82933 7.18223C2.72967 7.083 2.63026 6.9836 2.53072 6.88408C2.50492 6.85828 2.47911 6.83247 2.45328 6.80665C3.90404 5.35541 5.35504 3.90441 6.80628 2.45365C6.93181 2.57881 7.05719 2.7039 7.18204 2.82935C6.55108 3.4605 5.91989 4.09157 5.28869 4.72265ZM6.95008 6.27814C6.85572 6.03546 6.57077 5.90561 6.32714 5.98181C6.056 6.05655 5.89468 6.36486 5.98371 6.62973C6.06124 6.89692 6.36681 7.05361 6.62846 6.96629C6.91344 6.88541 7.06795 6.54614 6.95008 6.27814ZM12.7256 10.9075C12.443 10.6851 12.0675 10.5951 11.7163 10.6547C11.24 10.731 10.8267 11.0933 10.6918 11.5572C10.5792 11.9261 10.641 12.3432 10.861 12.6621C11.0802 12.9868 11.4517 13.2004 11.843 13.2249C12.2183 13.2526 12.6015 13.108 12.8625 12.8347C13.1231 12.5682 13.2576 12.1871 13.2223 11.8161C13.1924 11.4612 13.0079 11.1243 12.7256 10.9075Z" fill="#5960D9" stroke="#5960D9" stroke-width="0.25"/>
</svg>
