<svg width="14" height="14" viewBox="0 0 14 14" fill="none" xmlns="http://www.w3.org/2000/svg">
<path d="M12.8337 7.00033C12.8337 3.78033 10.2203 1.16699 7.00033 1.16699C3.78033 1.16699 1.16699 3.78033 1.16699 7.00033C1.16699 10.2203 3.78033 12.8337 7.00033 12.8337" stroke="#F7B600" stroke-linecap="round" stroke-linejoin="round"/>
<path d="M4.66725 1.75H5.25059C4.11309 5.15667 4.11309 8.84333 5.25059 12.25H4.66725" stroke="#F7B600" stroke-linecap="round" stroke-linejoin="round"/>
<path d="M8.75 1.75C9.31583 3.45333 9.60167 5.22667 9.60167 7" stroke="#F7B600" stroke-linecap="round" stroke-linejoin="round"/>
<path d="M1.75 9.33333V8.75C3.45333 9.31583 5.22667 9.60168 7 9.60168" stroke="#F7B600" stroke-linecap="round" stroke-linejoin="round"/>
<path d="M1.75 5.25059C5.15667 4.11309 8.84333 4.11309 12.25 5.25059" stroke="#F7B600" stroke-linecap="round" stroke-linejoin="round"/>
<path d="M10.6167 12.4833C11.6476 12.4833 12.4833 11.6476 12.4833 10.6167C12.4833 9.58574 11.6476 8.75 10.6167 8.75C9.58573 8.75 8.75 9.58574 8.75 10.6167C8.75 11.6476 9.58573 12.4833 10.6167 12.4833Z" stroke="#F7B600" stroke-linecap="round" stroke-linejoin="round"/>
<path d="M12.8333 12.8333L12.25 12.25" stroke="#F7B600" stroke-linecap="round" stroke-linejoin="round"/>
</svg>
