<svg width="49" height="49" viewBox="0 0 49 49" fill="none" xmlns="http://www.w3.org/2000/svg">
<g clip-path="url(#clip0_6281_73373)">
<path d="M47.4744 10.1675C46.5716 6.09122 42.62 2.35716 38.5325 1.56403C36.0416 1.06622 29.0938 0.451222 24.5 0.499034C19.9062 0.448409 12.9594 1.06153 10.4684 1.56122C6.38094 2.35716 2.42937 6.09122 1.53125 10.1675C1.01281 12.6425 0.5075 16.01 0.5 20.6065C0.5075 25.2003 1.01281 28.5687 1.53125 31.0447C2.43406 35.1209 6.38562 38.855 10.4731 39.6481C11.8175 39.9162 14.4622 40.22 17.3328 40.4337C17.6578 40.9443 18.0109 41.4881 18.3922 42.065C19.9156 44.3731 21.0809 45.9809 21.965 47.1012C23.435 48.965 25.5744 48.965 27.0444 47.1012C27.9284 45.9809 29.0938 44.3731 30.6172 42.065C30.9984 41.4887 31.3516 40.945 31.6766 40.4337C34.5481 40.22 37.1919 39.9162 38.5372 39.6481C42.6247 38.855 46.5762 35.1209 47.4791 31.0447C47.9928 28.5687 48.4972 25.2022 48.5056 20.6065C48.4925 16.009 47.9881 12.6434 47.4744 10.1675Z" fill="#F9973E"/>
<path d="M24.5 0.499034C19.9062 0.448409 12.9594 1.06153 10.4684 1.56122C6.38094 2.35716 2.42937 6.09122 1.53125 10.1675C1.01281 12.6425 0.5075 16.01 0.5 20.6065C0.5075 25.2003 1.01281 28.5687 1.53125 31.0447C2.06281 33.4437 3.65094 35.7247 5.70125 37.3568C7.70123 37.8357 9.75069 38.077 11.8072 38.0759C26.21 38.0759 37.8856 26.4003 37.8856 11.9984C37.8889 8.24775 37.0798 4.54088 35.5138 1.13278C32.3103 0.772784 27.7991 0.465284 24.5 0.499034Z" fill="#FCA84C"/>
<path d="M27.1511 34.5439C27.0888 34.8359 26.9434 35.1036 26.7323 35.3148C26.5211 35.5259 26.2534 35.6714 25.9614 35.7336C24.993 35.8823 24.0076 35.8823 23.0392 35.7336C22.7471 35.6715 22.4794 35.526 22.2682 35.3149C22.0571 35.1038 21.9116 34.836 21.8495 34.5439C21.6995 33.5753 21.6995 32.5894 21.8495 31.6208C21.9116 31.3287 22.0571 31.0609 22.2682 30.8498C22.4794 30.6387 22.7471 30.4932 23.0392 30.4311C24.0076 30.2823 24.993 30.2823 25.9614 30.4311C26.2539 30.4936 26.522 30.6396 26.7331 30.8515C26.9443 31.0633 27.0895 31.3318 27.1511 31.6245C27.3011 32.5931 27.3011 33.5791 27.1511 34.5477V34.5439ZM32.8586 19.1886C32.1348 20.2123 31.0501 21.147 29.4451 22.1286C27.4136 23.3811 27.0883 23.8958 27.0883 24.9036V25.302C27.0948 25.6465 27.0326 25.9889 26.9053 26.3091C26.778 26.6292 26.5882 26.9208 26.3468 27.1668C26.1055 27.4127 25.8176 27.6081 25.4999 27.7415C25.1822 27.8748 24.8411 27.9435 24.4965 27.9435C24.152 27.9435 23.8109 27.8748 23.4932 27.7415C23.1755 27.6081 22.8876 27.4127 22.6462 27.1668C22.4049 26.9208 22.2151 26.6292 22.0878 26.3091C21.9605 25.9889 21.8983 25.6465 21.9048 25.302V24.3786C21.9048 23.1898 22.202 22.1811 22.8133 21.2952C23.4058 20.4364 24.2945 19.6733 25.6108 18.8905C28.038 17.4627 28.4823 16.6611 28.4823 15.597C28.4823 14.2602 27.3433 13.3958 25.5761 13.3958C23.6458 13.3958 22.3886 14.2733 21.8401 16.0048C21.6624 16.5619 21.3113 17.0476 20.8381 17.3909C20.3648 17.7343 19.7942 17.9175 19.2095 17.9136C19.142 17.9136 19.0736 17.9136 19.007 17.9061C18.587 17.8765 18.1792 17.7513 17.815 17.5401C17.4507 17.3289 17.1395 17.0372 16.9051 16.6873C16.671 16.3437 16.5185 15.9511 16.4594 15.5395C16.4002 15.128 16.436 14.7083 16.5639 14.3127C17.1264 12.5097 18.28 10.9488 19.8386 9.88203C21.4098 8.81141 23.3945 8.24609 25.5761 8.24609C27.842 8.24609 29.9448 8.96891 31.4973 10.2814C33.0958 11.6314 33.9751 13.4942 33.9751 15.5258C33.9798 16.9227 33.6133 18.1245 32.8586 19.1886Z" fill="white"/>
</g>
<defs>
<clipPath id="clip0_6281_73373">
<rect width="48" height="48" fill="white" transform="translate(0.5 0.5)"/>
</clipPath>
</defs>
</svg>
