<svg width="14" height="14" viewBox="0 0 14 14" fill="none" xmlns="http://www.w3.org/2000/svg">
<path d="M3.90867 10.9378H2.42117C1.34784 10.9378 0.729492 10.3195 0.729492 9.24614V2.42117C0.729492 1.34784 1.34784 0.729492 2.42117 0.729492H4.9295C6.00283 0.729492 6.62115 1.34784 6.62115 2.42117V3.50033C6.62115 3.73949 6.42281 3.93783 6.18364 3.93783C5.94448 3.93783 5.74614 3.73949 5.74614 3.50033V2.42117C5.74614 1.82617 5.5245 1.60449 4.9295 1.60449H2.42117C1.82617 1.60449 1.60449 1.82617 1.60449 2.42117V9.24614C1.60449 9.84114 1.82617 10.0628 2.42117 10.0628H3.90867C4.14783 10.0628 4.34617 10.2612 4.34617 10.5003C4.34617 10.7395 4.14783 10.9378 3.90867 10.9378Z" fill="#F7B600"/>
<path d="M8.72654 13.2708H5.31986C4.14736 13.2708 3.4707 12.5942 3.4707 11.4217V4.91166C3.4707 3.73916 4.14736 3.0625 5.31986 3.0625H8.72654C9.89904 3.0625 10.5699 3.73916 10.5699 4.91166V11.4217C10.5699 12.5942 9.89904 13.2708 8.72654 13.2708ZM5.31986 3.9375C4.61986 3.9375 4.3457 4.21166 4.3457 4.91166V11.4217C4.3457 12.1217 4.61986 12.3958 5.31986 12.3958H8.72654C9.42071 12.3958 9.69486 12.1217 9.69486 11.4217V4.91166C9.69486 4.21166 9.42071 3.9375 8.72654 3.9375H5.31986Z" fill="#F7B600"/>
<path d="M11.5789 10.9378H10.1322C9.89306 10.9378 9.69472 10.7395 9.69472 10.5003C9.69472 10.2612 9.89306 10.0628 10.1322 10.0628H11.5789C12.1739 10.0628 12.3956 9.84114 12.3956 9.24614V2.42117C12.3956 1.82617 12.1739 1.60449 11.5789 1.60449H9.07055C8.47555 1.60449 8.25391 1.82617 8.25391 2.42117V3.50033C8.25391 3.73949 8.05557 3.93783 7.81641 3.93783C7.57724 3.93783 7.37891 3.73949 7.37891 3.50033V2.42117C7.37891 1.34784 7.99722 0.729492 9.07055 0.729492H11.5789C12.6522 0.729492 13.2706 1.34784 13.2706 2.42117V9.24614C13.2706 10.3195 12.6522 10.9378 11.5789 10.9378Z" fill="#F7B600"/>
<path d="M8.16634 6.85449H5.83301C5.59384 6.85449 5.39551 6.65616 5.39551 6.41699C5.39551 6.17783 5.59384 5.97949 5.83301 5.97949H8.16634C8.40551 5.97949 8.60384 6.17783 8.60384 6.41699C8.60384 6.65616 8.40551 6.85449 8.16634 6.85449Z" fill="#F7B600"/>
<path d="M8.16634 8.60449H5.83301C5.59384 8.60449 5.39551 8.40616 5.39551 8.16699C5.39551 7.92783 5.59384 7.72949 5.83301 7.72949H8.16634C8.40551 7.72949 8.60384 7.92783 8.60384 8.16699C8.60384 8.40616 8.40551 8.60449 8.16634 8.60449Z" fill="#F7B600"/>
<path d="M7 13.2705C6.76083 13.2705 6.5625 13.0722 6.5625 12.833V11.083C6.5625 10.8438 6.76083 10.6455 7 10.6455C7.23917 10.6455 7.4375 10.8438 7.4375 11.083V12.833C7.4375 13.0722 7.23917 13.2705 7 13.2705Z" fill="#F7B600"/>
</svg>
