<svg width="45" height="45" viewBox="0 0 45 45" fill="none" xmlns="http://www.w3.org/2000/svg">
<path d="M3 32.3994H34.5V35.3994H3V32.3994Z" fill="#EF5350"/>
<path d="M34.5 32.3994V35.3994H3V33.8994H28.5C28.8978 33.8994 29.2794 33.7414 29.5607 33.4601C29.842 33.1788 30 32.7972 30 32.3994H34.5Z" fill="#E53935"/>
<path d="M18.75 0.899414C18.264 0.899413 17.7921 1.06214 17.4094 1.36165L0.75 14.3994L2.8575 17.0844L18.75 4.64941L34.6425 17.0844L36.75 14.3994L20.0906 1.36165C19.7079 1.06214 19.236 0.899413 18.75 0.899414Z" fill="#EF5350"/>
<path d="M32.25 10.8774V0.899414H26.25V6.18166L32.25 10.8774Z" fill="#757575"/>
<path d="M32.25 15.2094V32.3994H5.25V15.2094L18.75 4.64941L32.25 15.2094Z" fill="#EEEEEE"/>
<path d="M32.2095 15.1779L18.75 4.64941L5.25 15.2094V18.0692L18.75 7.50616L30 16.3082V32.3994H32.25V15.2094L32.2095 15.1779Z" fill="#E0E0E0"/>
<path d="M28.5 25.6494H20.25V18.8994H28.5V25.6494Z" fill="#64B5F6"/>
<path d="M28.5 18.8994V25.6494H20.25V23.3994H23.25C24.0456 23.3994 24.8087 23.0833 25.3713 22.5207C25.9339 21.9581 26.25 21.1951 26.25 20.3994V18.8994H28.5Z" fill="#42A5F5"/>
<path d="M9 18.8994H16.5V32.3994H9V18.8994Z" fill="#757575"/>
<path d="M16.5 18.8994V32.3994H9V30.1494H11.25C12.0456 30.1494 12.8087 29.8333 13.3713 29.2707C13.9339 28.7081 14.25 27.9451 14.25 27.1494V18.8994H16.5Z" fill="#616161"/>
<path d="M30.9637 20.9308L29.7744 22.1201C29.4815 22.413 29.4815 22.8878 29.7744 23.1806L35.4629 28.8692C35.7558 29.162 36.2306 29.162 36.5234 28.8692L37.7128 27.6798C38.0056 27.387 38.0056 26.9122 37.7128 26.6193L32.0242 20.9308C31.7314 20.6379 31.2566 20.6379 30.9637 20.9308Z" fill="#FFB74D"/>
<path d="M21.9637 29.9288L20.7744 31.1182C20.4815 31.411 20.4815 31.8858 20.7744 32.1787L26.4629 37.8672C26.7558 38.1601 27.2306 38.1601 27.5234 37.8672L28.7128 36.6779C29.0056 36.385 29.0056 35.9102 28.7128 35.6174L23.0242 29.9288C22.7314 29.636 22.2566 29.636 21.9637 29.9288Z" fill="#FFB74D"/>
<path d="M23.6187 30.5244L30.3677 23.7754L34.8668 28.2746L28.1178 35.0236L23.6187 30.5244Z" fill="#FFA726"/>
<path d="M34.875 28.2744L28.125 35.0244L26.625 33.5244L30.1287 30.0207C30.4073 29.7422 30.6282 29.4114 30.779 29.0475C30.9298 28.6835 31.0074 28.2934 31.0074 27.8994C31.0074 27.5054 30.9298 27.1153 30.779 26.7514C30.6282 26.3874 30.4073 26.0567 30.1287 25.7781L29.25 24.8994L30.375 23.7744L34.875 28.2744Z" fill="#FF9800"/>
<path d="M44.25 41.8058V41.8587C44.25 42.5325 43.9823 43.1788 43.5058 43.6553C43.0294 44.1317 42.3831 44.3994 41.7093 44.3994C41.3315 44.3994 40.9585 44.3152 40.6174 44.1528C40.2763 43.9904 39.9757 43.7541 39.7374 43.4609L30.75 32.3994L32.625 30.5244L43.378 39.8899C43.6518 40.1284 43.8713 40.4228 44.0217 40.7533C44.1722 41.0838 44.25 41.4427 44.25 41.8058Z" fill="#FFB74D"/>
<path d="M44.25 41.8044V41.8569C44.2574 42.3359 44.127 42.8069 43.8743 43.2139C43.6216 43.6208 43.2573 43.9466 42.8248 44.1525C42.411 44.3495 41.952 44.4318 41.4955 44.3908C41.0391 44.3498 40.602 44.187 40.23 43.9194C40.4624 43.687 40.6468 43.411 40.7726 43.1073C40.8984 42.8036 40.9632 42.4781 40.9632 42.1494C40.9632 41.8207 40.8984 41.4952 40.7726 41.1915C40.6468 40.8878 40.4624 40.6119 40.23 40.3794L31.5 31.6494L32.625 30.5244L43.38 39.8919C43.6539 40.1295 43.8734 40.4233 44.0235 40.7533C44.1736 41.0834 44.2509 41.4418 44.25 41.8044Z" fill="#FFA726"/>
<path d="M19.5 41.3994H30C30.5967 41.3994 31.169 41.6365 31.591 42.0584C32.0129 42.4804 32.25 43.0527 32.25 43.6494V44.3994H17.25V43.6494C17.25 43.0527 17.4871 42.4804 17.909 42.0584C18.331 41.6365 18.9033 41.3994 19.5 41.3994Z" fill="#FFB74D"/>
<path d="M32.25 43.6494V44.3994H17.25V43.6494C17.2484 43.3932 17.2942 43.139 17.385 42.8994H26.25C26.7151 42.9017 27.1692 42.7582 27.5485 42.4892C27.9278 42.2201 28.2134 41.8391 28.365 41.3994H30C30.2956 41.399 30.5884 41.4569 30.8615 41.5699C31.1347 41.6828 31.3829 41.8485 31.5919 42.0575C31.8009 42.2666 31.9666 42.5147 32.0796 42.7879C32.1925 43.0611 32.2504 43.3538 32.25 43.6494Z" fill="#FFA726"/>
<path d="M26.25 3.3252V6.18195L32.25 10.8777V8.02095L26.25 3.3252Z" fill="#616161"/>
</svg>
