<svg width="138" height="32" viewBox="0 0 138 32" fill="none" xmlns="http://www.w3.org/2000/svg">
<path d="M6.67122 25.304C6.67122 25.7093 6.74589 26.0507 6.89522 26.328C7.04456 26.5947 7.23656 26.808 7.47122 26.968C7.70589 27.128 7.97256 27.24 8.27122 27.304C8.56989 27.368 8.87389 27.4 9.18322 27.4H12.3672C12.9859 27.4 13.4072 27.3147 13.6312 27.144C13.8659 26.984 13.9832 26.7813 13.9832 26.536C13.9832 26.376 13.8926 26.216 13.7112 26.056C13.5406 25.896 13.3166 25.7307 13.0392 25.56C12.7726 25.3787 12.4846 25.1867 12.1752 24.984C11.8659 24.7813 11.5726 24.552 11.2952 24.296C11.0286 24.0293 10.8046 23.736 10.6232 23.416C10.4526 23.0853 10.3672 22.7067 10.3672 22.28C10.3672 21.896 10.4419 21.5387 10.5912 21.208C10.7406 20.8667 10.9486 20.5733 11.2152 20.328C11.4926 20.072 11.8232 19.8747 12.2072 19.736C12.5912 19.5867 13.0232 19.512 13.5032 19.512C14.2392 19.512 14.8259 19.6293 15.2632 19.864C15.7112 20.088 16.0899 20.3867 16.3992 20.76C16.4632 20.8347 16.4472 20.9093 16.3512 20.984L15.4872 21.832C15.4019 21.896 15.3272 21.8907 15.2632 21.816C15.0392 21.592 14.7992 21.4213 14.5432 21.304C14.2872 21.176 13.9726 21.112 13.5992 21.112C13.2366 21.112 12.9112 21.2133 12.6232 21.416C12.3459 21.608 12.2072 21.896 12.2072 22.28C12.2072 22.536 12.2979 22.7707 12.4792 22.984C12.6606 23.1973 12.8846 23.4053 13.1512 23.608C13.4286 23.8107 13.7219 24.0187 14.0312 24.232C14.3512 24.4453 14.6446 24.6747 14.9112 24.92C15.1886 25.1547 15.4179 25.416 15.5992 25.704C15.7806 25.9813 15.8712 26.3013 15.8712 26.664C15.8712 26.984 15.8126 27.288 15.6952 27.576C15.5779 27.864 15.3912 28.1147 15.1352 28.328C14.8792 28.552 14.5486 28.7227 14.1432 28.84C13.7379 28.968 13.2526 29.032 12.6872 29.032H8.95922C7.57256 29.032 6.53789 28.712 5.85522 28.072C5.18322 27.432 4.84722 26.5627 4.84722 25.464C4.84722 24.888 4.93789 24.312 5.11922 23.736C5.30056 23.16 5.52456 22.664 5.79122 22.248C5.84456 22.152 5.92456 22.1413 6.03122 22.216L7.32722 22.728C7.38056 22.7493 7.40722 22.7813 7.40722 22.824C7.41789 22.856 7.41256 22.8933 7.39122 22.936C7.22056 23.2347 7.05522 23.5867 6.89522 23.992C6.74589 24.3867 6.67122 24.824 6.67122 25.304ZM10.8632 31.768C10.7566 31.768 10.7032 31.7147 10.7032 31.608V30.232C10.7032 30.1253 10.7566 30.072 10.8632 30.072H12.2072C12.3139 30.072 12.3672 30.1253 12.3672 30.232V31.608C12.3672 31.7147 12.3139 31.768 12.2072 31.768H10.8632ZM8.78322 31.768C8.67656 31.768 8.62322 31.7147 8.62322 31.608V30.232C8.62322 30.1253 8.67656 30.072 8.78322 30.072H10.1272C10.2339 30.072 10.2872 30.1253 10.2872 30.232V31.608C10.2872 31.7147 10.2339 31.768 10.1272 31.768H8.78322ZM17.1511 30.232C17.0444 30.232 16.9911 30.1787 16.9911 30.072V28.792C16.9911 28.6853 17.0444 28.632 17.1511 28.632H17.5031C17.9511 28.632 18.2711 28.52 18.4631 28.296C18.6658 28.072 18.7671 27.7307 18.7671 27.272V20.52C18.7671 20.4133 18.8204 20.36 18.9271 20.36H20.4151C20.5218 20.36 20.5751 20.4133 20.5751 20.52V27.304C20.5751 29.256 19.6311 30.232 17.7431 30.232H17.1511ZM22.5932 16.28C22.5932 16.1733 22.6466 16.12 22.7532 16.12H24.2412C24.3479 16.12 24.4012 16.1733 24.4012 16.28V24.568C24.4012 24.888 24.4599 25.112 24.5772 25.24C24.7052 25.3573 24.9026 25.416 25.1692 25.416H25.7292C25.9426 25.416 26.1026 25.48 26.2092 25.608C26.3159 25.7253 26.3692 25.9333 26.3692 26.232C26.3692 26.5627 26.3159 26.776 26.2092 26.872C26.1132 26.9573 25.9532 27 25.7292 27H24.4652C23.7932 27 23.3132 26.84 23.0252 26.52C22.7372 26.1893 22.5932 25.6773 22.5932 24.984V16.28ZM30.0291 20.072C31.1171 20.072 31.9491 20.3333 32.5251 20.856C33.1011 21.368 33.3891 22.056 33.3891 22.92C33.3891 23.4427 33.2664 23.9227 33.0211 24.36C32.7864 24.7867 32.4664 25.1387 32.0611 25.416H34.3331C34.5464 25.416 34.7064 25.4693 34.8131 25.576C34.9198 25.672 34.9731 25.8693 34.9731 26.168C34.9731 26.4773 34.9198 26.696 34.8131 26.824C34.7171 26.9413 34.5571 27 34.3331 27H32.1091C31.7251 27 31.3624 26.984 31.0211 26.952C30.6798 26.92 30.3544 26.808 30.0451 26.616C29.6931 26.808 29.3144 26.92 28.9091 26.952C28.5144 26.984 28.1624 27 27.8531 27H25.7251C25.5118 27 25.3518 26.936 25.2451 26.808C25.1384 26.68 25.0851 26.472 25.0851 26.184C25.0851 25.8747 25.1384 25.672 25.2451 25.576C25.3411 25.4693 25.5011 25.416 25.7251 25.416H27.9811C27.5864 25.1387 27.2664 24.7867 27.0211 24.36C26.7864 23.9227 26.6691 23.4427 26.6691 22.92C26.6691 22.056 26.9571 21.368 27.5331 20.856C28.1091 20.3333 28.9411 20.072 30.0291 20.072ZM30.0291 21.496C29.6131 21.496 29.2504 21.6293 28.9411 21.896C28.6424 22.152 28.4931 22.536 28.4931 23.048C28.4931 23.592 28.6424 24.0347 28.9411 24.376C29.2398 24.7067 29.6024 24.9627 30.0291 25.144C30.4451 24.9627 30.8024 24.7067 31.1011 24.376C31.3998 24.0347 31.5491 23.592 31.5491 23.048C31.5491 22.536 31.3998 22.152 31.1011 21.896C30.8024 21.6293 30.4451 21.496 30.0291 21.496ZM30.4611 18.76C30.3544 18.76 30.3011 18.7067 30.3011 18.6V17.224C30.3011 17.1173 30.3544 17.064 30.4611 17.064H31.8051C31.9118 17.064 31.9651 17.1173 31.9651 17.224V18.6C31.9651 18.7067 31.9118 18.76 31.8051 18.76H30.4611ZM28.3811 18.76C28.2744 18.76 28.2211 18.7067 28.2211 18.6V17.224C28.2211 17.1173 28.2744 17.064 28.3811 17.064H29.7251C29.8318 17.064 29.8851 17.1173 29.8851 17.224V18.6C29.8851 18.7067 29.8318 18.76 29.7251 18.76H28.3811ZM35.8865 25.416C35.6731 25.1707 35.4971 24.8827 35.3585 24.552C35.2198 24.2213 35.1505 23.8213 35.1505 23.352C35.1505 22.9787 35.2091 22.6 35.3265 22.216C35.4438 21.8213 35.6358 21.4693 35.9025 21.16C36.1798 20.84 36.5371 20.5787 36.9745 20.376C37.4225 20.1733 37.9718 20.072 38.6225 20.072C39.3265 20.072 39.9238 20.1947 40.4145 20.44C40.9051 20.6747 41.2891 20.9733 41.5665 21.336C41.6198 21.4213 41.6038 21.496 41.5185 21.56L40.6545 22.456C40.5798 22.5307 40.5051 22.5253 40.4305 22.44C39.9611 21.928 39.3958 21.672 38.7345 21.672C38.1905 21.672 37.7691 21.832 37.4705 22.152C37.1825 22.472 37.0385 22.904 37.0385 23.448C37.0385 23.768 37.0865 24.0453 37.1825 24.28C37.2891 24.504 37.4065 24.696 37.5345 24.856C37.6731 25.016 37.8118 25.144 37.9505 25.24C38.0998 25.3253 38.2171 25.384 38.3025 25.416H41.7745C41.8811 25.416 41.9345 25.4693 41.9345 25.576V26.84C41.9345 26.9467 41.8811 27 41.7745 27H34.3345C34.1211 27 33.9611 26.9413 33.8545 26.824C33.7478 26.696 33.6945 26.488 33.6945 26.2C33.6945 25.8907 33.7478 25.6827 33.8545 25.576C33.9505 25.4693 34.1105 25.416 34.3345 25.416H35.8865Z" fill="#F7B600"/>
<path d="M76.8208 8.75182C78.0497 8.75182 79.046 7.75564 79.046 6.52679C79.046 5.29794 78.0497 4.30176 76.8208 4.30176C75.5919 4.30176 74.5957 5.29794 74.5957 6.52679C74.5957 7.75564 75.5919 8.75182 76.8208 8.75182Z" fill="#1A1F71"/>
<path d="M83.1452 8.10038C84.0138 7.23184 84.0138 5.8233 83.1452 4.95476C82.2701 4.07971 80.842 4.08621 79.9767 4.97753C79.1536 5.8233 79.1536 7.23184 79.9767 8.08087C80.8452 8.96893 82.2701 8.97869 83.1452 8.10038Z" fill="#1A1F71"/>
<path d="M55.9653 31.9977C57.2912 31.9977 58.3661 30.9229 58.3661 29.597C58.3661 28.2711 57.2912 27.1963 55.9653 27.1963C54.6393 27.1963 53.5645 28.2711 53.5645 29.597C53.5645 30.9229 54.6393 31.9977 55.9653 31.9977Z" fill="#F7B600"/>
<path d="M63.8831 31.295C64.82 30.3582 64.82 28.8358 63.8831 27.8989C62.9462 26.9621 61.4238 26.9621 60.4869 27.8989C59.55 28.8358 59.55 30.3582 60.4869 31.295C61.4238 32.2351 62.943 32.2351 63.8831 31.295Z" fill="#F7B600"/>
<path d="M104.473 8.75182C105.702 8.75182 106.698 7.75564 106.698 6.52679C106.698 5.29794 105.702 4.30176 104.473 4.30176C103.244 4.30176 102.248 5.29794 102.248 6.52679C102.248 7.75564 103.244 8.75182 104.473 8.75182Z" fill="#1A1F71"/>
<path d="M102.134 4.46861C103.355 4.46861 104.346 3.46806 104.346 2.23382C104.346 0.999578 103.355 -0.000976562 102.134 -0.000976562C100.912 -0.000976562 99.9214 0.999578 99.9214 2.23382C99.9214 3.46806 100.912 4.46861 102.134 4.46861Z" fill="#1A1F71"/>
<path d="M101.271 8.10075C102.14 7.2322 102.14 5.82366 101.271 4.95512C100.403 4.08657 98.9941 4.08657 98.1256 4.95512C97.257 5.82366 97.257 7.2322 98.1256 8.10075C98.9941 8.96929 100.403 8.96929 101.271 8.10075Z" fill="#1A1F71"/>
<path d="M129.417 7.97363L122.843 13.0645C121.076 14.5186 120.374 16.8575 120.972 19.0077H117.277L112.84 11.077C112.4 10.2897 111.571 9.80505 110.67 9.80505C108.77 9.80505 107.573 11.8479 108.5 13.5069L109.333 14.9968L111.581 19.0077H109.707L107.462 14.9968L105.276 11.09C104.83 10.2963 103.994 9.80505 103.083 9.80505C101.164 9.80505 99.954 11.8707 100.891 13.546L101.704 14.9968L103.949 19.0077H102.182L99.9377 14.9968L97.7581 11.0997C97.3092 10.2995 96.4666 9.80505 95.5492 9.80505C93.6136 9.80505 92.3937 11.887 93.3404 13.5753L94.1374 14.9968L96.382 19.0077H92.0164L89.7684 14.9968L87.5954 11.1127C87.1432 10.306 86.2909 9.80505 85.3637 9.80505C83.4086 9.80505 82.1789 11.9065 83.1321 13.611L86.151 19.0077H81.782L81.7853 19.0012L79.5439 14.9968L78.916 13.8745L77.3513 11.0802C76.9089 10.293 76.0793 9.80505 75.175 9.80505C73.2816 9.80505 72.078 11.8317 72.9856 13.4939L73.7956 14.9805L75.2595 17.6057C75.7475 18.4775 75.7443 19.538 75.2563 20.4098L70.8516 28.2754H76.9154L79.5341 23.4741H109.707H120.761H122.719H128.76H137.384L129.417 7.97363ZM125.748 19.0045C125.361 18.1977 125.579 17.2283 126.281 16.6688L128.237 14.7658L130.491 19.037H128.764V19.0045H125.748Z" fill="#1A1F71"/>
<path d="M70.8904 20.1667L70.0413 21.6793L69.3159 22.9805L68.6978 24.0833L67.1721 26.806C66.8468 27.3883 66.336 27.8275 65.7374 28.0682C65.4024 28.2048 65.038 28.2764 64.6639 28.2764H53.1674C52.7933 28.2764 52.4289 28.2048 52.0939 28.0682C51.4953 27.8275 50.9845 27.3883 50.6592 26.806L49.1335 24.0833L48.5154 22.9805L47.79 21.6793L46.9409 20.1667C49.4491 19.4738 51.9507 18.9468 51.9507 18.9468L54.5239 22.9805H63.3074L65.8806 18.9468L62.9625 13.6217C62.0126 11.8911 63.2781 9.77669 65.2625 9.80596C66.2091 9.81898 67.0647 10.3817 67.5202 11.2113L70.9034 17.3789C71.3784 18.2474 71.3751 19.3014 70.8904 20.1667Z" fill="#1A1F71"/>
<path d="M55.8546 16.7725H48.8896C47.6339 16.7725 46.6157 17.7906 46.6157 19.0463C46.6157 20.3019 47.6339 21.3201 48.8896 21.3201H49.8688H55.8513C57.107 21.3201 58.1253 20.3019 58.1253 19.0463C58.1285 17.7906 57.1103 16.7725 55.8546 16.7725Z" fill="#F7B600"/>
</svg>
