<svg width="20" height="20" viewBox="0 0 20 20" fill="none" xmlns="http://www.w3.org/2000/svg">
<path fill-rule="evenodd" clip-rule="evenodd" d="M16.2504 5.20846C16.4162 5.20846 16.5752 5.27431 16.6924 5.39152C16.8096 5.50873 16.8754 5.6677 16.8754 5.83346C16.8754 7.70346 16.0821 8.93346 15.0529 9.67429C14.0563 10.3918 12.8779 10.6251 12.0838 10.6251H5.25876L8.35876 13.7251C8.42017 13.7823 8.46942 13.8513 8.50358 13.928C8.53774 14.0047 8.55611 14.0874 8.55759 14.1714C8.55907 14.2553 8.54363 14.3386 8.5122 14.4165C8.48076 14.4943 8.43397 14.565 8.37462 14.6243C8.31528 14.6837 8.24458 14.7305 8.16676 14.7619C8.08893 14.7933 8.00558 14.8088 7.92166 14.8073C7.83774 14.8058 7.75498 14.7874 7.67831 14.7533C7.60165 14.7191 7.53265 14.6699 7.47543 14.6085L3.30876 10.4418C3.19172 10.3246 3.12598 10.1658 3.12598 10.0001C3.12598 9.8345 3.19172 9.67565 3.30876 9.55846L7.47543 5.39179C7.53265 5.33039 7.60165 5.28114 7.67831 5.24698C7.75498 5.21282 7.83774 5.19445 7.92166 5.19297C8.00558 5.19149 8.08893 5.20692 8.16676 5.23836C8.24458 5.26979 8.31528 5.31658 8.37462 5.37593C8.43397 5.43528 8.48076 5.50597 8.5122 5.5838C8.54363 5.66162 8.55907 5.74498 8.55759 5.8289C8.55611 5.91282 8.53774 5.99558 8.50358 6.07224C8.46942 6.14891 8.42017 6.21791 8.35876 6.27513L5.25876 9.37513H12.0838C12.6779 9.37513 13.5838 9.19179 14.3229 8.65929C15.0296 8.15096 15.6254 7.29679 15.6254 5.83346C15.6254 5.6677 15.6913 5.50873 15.8085 5.39152C15.9257 5.27431 16.0847 5.20846 16.2504 5.20846Z" fill="#053396"/>
</svg>
