<svg width="22" height="22" viewBox="0 0 22 22" fill="none" xmlns="http://www.w3.org/2000/svg">
<path fill-rule="evenodd" clip-rule="evenodd" d="M11 22C17.0751 22 22 17.0751 22 11C22 4.92487 17.0751 0 11 0C4.92487 0 0 4.92487 0 11C0 17.0751 4.92487 22 11 22ZM7.56455 4.00938L7.70732 4C7.71754 4.04028 7.72561 4.08216 7.73373 4.12435C7.75948 4.25802 7.78582 4.39482 7.88333 4.49394C7.96796 4.57069 8.07243 4.61425 8.1768 4.65776C8.23064 4.68021 8.28445 4.70264 8.3355 4.72962C8.40555 4.76673 8.47723 4.80089 8.54893 4.83505C8.65999 4.88797 8.7712 4.94097 8.87632 5.00493C8.8938 5.46605 8.8141 5.92121 8.70287 6.36657C8.59393 6.37347 8.49193 6.33829 8.39039 6.30327C8.35409 6.29074 8.31785 6.27824 8.28138 6.26769C8.34759 6.76271 8.41964 7.25696 8.49168 7.75119C8.64174 8.78069 8.79179 9.8101 8.88911 10.8461C8.96113 11.456 8.98926 12.0701 8.97605 12.6847C8.97562 13.2464 8.81964 13.82 8.48467 14.2764C8.13094 14.7371 7.59907 15.0299 7.04418 15.1769C6.24979 15.4071 5.41405 15.4075 4.59409 15.3913C4.04602 15.3619 3.49156 15.2554 3.00359 14.995C2.50965 14.7278 2.12822 14.2432 2.03957 13.6819C1.94496 13.0755 2.03062 12.4545 2.18405 11.8647C2.35622 11.2595 2.60937 10.6795 2.8979 10.1216C2.94289 10.0423 2.98457 9.96099 3.02625 9.8797C3.10144 9.73306 3.17664 9.58641 3.27123 9.45125L3.2747 9.4541C3.36309 9.52682 3.46861 9.61362 3.44042 9.7436C3.41019 9.89917 3.32305 10.0305 3.23594 10.1617C3.18799 10.2339 3.14005 10.3062 3.10161 10.3824C2.79263 11.0038 2.53096 11.6806 2.55951 12.3868C2.53991 12.9016 2.79561 13.4266 3.235 13.7037C3.75963 14.048 4.40572 14.1422 5.02197 14.1251C5.50355 14.1303 5.98769 14.0864 6.45435 13.9632C6.97685 13.8353 7.49849 13.6546 7.93916 13.3397C8.15821 13.1714 8.38281 12.9387 8.37897 12.6433C8.38579 12.1737 8.34573 11.7057 8.29246 11.2399C8.08108 9.46872 7.81685 7.70434 7.51128 5.94721C7.4831 5.93111 7.45463 5.91548 7.42616 5.89985C7.34012 5.85262 7.25412 5.80541 7.1763 5.7452C7.18499 5.65992 7.19125 5.57431 7.1975 5.48867C7.2112 5.30129 7.2249 5.11376 7.26409 4.92949C7.32546 4.61157 7.43968 4.30727 7.56455 4.00938ZM10.4617 4.51469C10.7937 5.52004 10.9045 6.58464 10.9352 7.63857C10.957 7.86878 10.9623 8.10001 10.9676 8.33132C10.9725 8.54663 10.9774 8.76209 10.9957 8.97677L10.9963 9.02076C11.0067 9.83243 11.0172 10.6548 11.2403 11.4414C11.3025 11.6225 11.3733 11.8104 11.5135 11.9468C11.6 12.0346 11.7087 12.1211 11.8395 12.1122C12.5272 12.1127 13.215 12.1126 13.9027 12.1125C14.4185 12.1125 14.9343 12.1124 15.4501 12.1126C15.4578 11.7162 15.4169 11.3156 15.2916 10.938C15.2026 10.6798 15.0265 10.4657 14.8551 10.2572L14.8202 10.2148C14.7924 10.1794 14.76 10.1467 14.7275 10.114C14.6675 10.0534 14.6073 9.99265 14.576 9.91437C14.6805 9.66226 14.8009 9.41683 14.9213 9.17149C14.9935 9.02449 15.0656 8.87751 15.1343 8.72916C15.465 9.15151 15.8132 9.60581 15.8822 10.1552C15.9425 10.4693 15.9538 10.7879 15.965 11.1065C15.9706 11.2633 15.9761 11.4202 15.9875 11.5765L15.9877 12.0685C15.988 12.5058 15.9882 12.9432 15.9867 13.3805C14.576 13.386 13.1645 13.3839 11.7539 13.3818C11.3511 13.3673 11.0298 13.0621 10.8776 12.7075C10.6295 12.1407 10.5621 11.5207 10.4957 10.91C10.4872 10.8316 10.4787 10.7531 10.4698 10.6751C10.4341 10.2455 10.4124 9.81477 10.3908 9.38406C10.3583 8.73596 10.3258 8.0878 10.2452 7.44338C10.1898 6.89021 10.0001 6.32637 9.58248 5.94111C9.62597 5.83828 9.68712 5.74519 9.74828 5.6521C9.77102 5.61748 9.79376 5.58286 9.8156 5.54774C10.0291 5.20254 10.2443 4.85776 10.4617 4.51469ZM18.2093 9.64359C18.1446 9.82673 18.0799 10.0099 18.0115 10.1916C17.9741 10.2509 18.0173 10.3005 18.056 10.345C18.0632 10.3532 18.0703 10.3614 18.0767 10.3693C18.3499 10.6881 18.5996 11.0303 18.7888 11.4062C18.9448 11.7549 19.0795 12.1282 19.0697 12.5156C19.0778 12.8714 18.9273 13.206 18.762 13.5124C18.2889 14.3094 17.5917 14.9631 16.7909 15.4234C16.3068 15.694 15.777 15.9105 15.2196 15.9561C14.923 16.0037 14.6241 15.9641 14.3282 15.9248C14.2665 15.9167 14.2049 15.9085 14.1435 15.9011C13.9865 15.884 13.8358 15.8393 13.6851 15.7946C13.5548 15.756 13.4245 15.7173 13.2903 15.6966C13.1032 15.6582 12.9221 15.798 12.8726 15.974C13.2701 16.1305 13.6702 16.28 14.0705 16.4295L14.129 16.4513C14.7495 16.6695 15.3939 16.8707 16.0596 16.8502C16.2752 16.8583 16.4858 16.8008 16.6852 16.7228C17.1425 16.5434 17.5614 16.277 17.9518 15.9813C18.5804 15.4814 19.1639 14.874 19.4601 14.1142C19.6142 13.7245 19.6097 13.3067 19.6053 12.8932C19.6041 12.7809 19.603 12.6683 19.605 12.5573C19.6048 12.4628 19.6056 12.3677 19.6064 12.2723C19.6118 11.6178 19.6172 10.9472 19.3399 10.3412C19.1208 9.86901 18.7752 9.4667 18.4019 9.10956C18.3354 9.28657 18.2723 9.46522 18.2093 9.64359ZM12.1238 13.7556C12.4089 13.8816 12.6841 14.0294 12.959 14.177C13.0708 14.2371 13.1826 14.2971 13.295 14.3556C13.2178 14.56 13.1162 14.7532 13.0145 14.9465C12.9422 15.0841 12.8697 15.2218 12.8061 15.3636C12.7869 15.4269 12.7259 15.398 12.6808 15.3766C12.6728 15.3728 12.6653 15.3693 12.6587 15.3665C12.4382 15.2502 12.2161 15.1366 11.994 15.0229C11.8746 14.9618 11.7546 14.9004 11.6354 14.8389C11.5702 14.8125 11.6107 14.7349 11.6341 14.6928C11.7286 14.5173 11.8201 14.3402 11.9116 14.163C11.9819 14.0271 12.0522 13.8909 12.1238 13.7556ZM11.1951 14.7742C10.9619 14.6477 10.7287 14.5212 10.4915 14.4022C10.4427 14.4932 10.3936 14.5841 10.3446 14.675C10.2048 14.934 10.0651 15.1929 9.9307 15.4544C10.0515 15.5192 10.1735 15.5818 10.2956 15.6444C10.4512 15.7242 10.6072 15.8042 10.7605 15.8887C10.7969 15.9054 10.8326 15.9248 10.8683 15.9441C10.9544 15.9909 11.0409 16.0379 11.1398 16.0485C11.2125 15.8971 11.2909 15.7483 11.3693 15.5995C11.4697 15.4089 11.5701 15.2184 11.6584 15.0227C11.5033 14.9413 11.3492 14.8577 11.1951 14.7742Z" fill="#8387E2"/>
</svg>
