<svg width="20" height="20" viewBox="0 0 20 20" fill="none" xmlns="http://www.w3.org/2000/svg">
<g clip-path="url(#clip0_2121_4903)">
<path fill-rule="evenodd" clip-rule="evenodd" d="M9.99992 19.1668C15.0625 19.1668 19.1666 15.0628 19.1666 10.0002C19.1666 4.93755 15.0625 0.833496 9.99992 0.833496C4.93731 0.833496 0.833252 4.93755 0.833252 10.0002C0.833252 15.0628 4.93731 19.1668 9.99992 19.1668ZM7.13704 4.17464L7.25602 4.16683C7.26454 4.2004 7.27126 4.2353 7.27803 4.27046C7.29948 4.38185 7.32144 4.49584 7.40269 4.57845C7.47321 4.64241 7.56027 4.6787 7.64725 4.71496C7.69212 4.73367 7.73696 4.75236 7.77951 4.77484C7.83787 4.80577 7.89761 4.83423 7.95736 4.86271C8.04991 4.90681 8.14259 4.95097 8.23019 5.00427C8.24475 5.38854 8.17834 5.76784 8.08564 6.13897C7.99486 6.14472 7.90986 6.1154 7.82524 6.08622C7.795 6.07578 7.7648 6.06537 7.7344 6.05657C7.78958 6.46908 7.84961 6.88096 7.90965 7.29282C8.0347 8.15074 8.15974 9.00858 8.24084 9.87193C8.30086 10.3802 8.3243 10.8919 8.31329 11.404C8.31294 11.8721 8.18295 12.3502 7.90381 12.7305C7.60903 13.1144 7.16581 13.3584 6.7034 13.481C6.04141 13.6727 5.34496 13.6731 4.66166 13.6596C4.20494 13.6351 3.74289 13.5463 3.33624 13.3293C2.92463 13.1066 2.60677 12.7028 2.5329 12.2351C2.45405 11.7297 2.52544 11.2123 2.65329 10.7207C2.79677 10.2164 3.00773 9.73307 3.24817 9.26818C3.28566 9.20207 3.32039 9.13432 3.35513 9.06658C3.41779 8.94438 3.48045 8.82217 3.55928 8.70953L3.56217 8.71191C3.63583 8.77251 3.72376 8.84484 3.70027 8.95316C3.67507 9.08281 3.60246 9.19221 3.52987 9.30158C3.48991 9.36178 3.44996 9.42198 3.41793 9.48553C3.16044 10.0033 2.94238 10.5673 2.96618 11.1558C2.94984 11.5848 3.16293 12.0224 3.52909 12.2532C3.96628 12.5402 4.50468 12.6187 5.01823 12.6044C5.41954 12.6087 5.82299 12.5721 6.21188 12.4695C6.64729 12.3629 7.08199 12.2124 7.44922 11.9499C7.63176 11.8096 7.81893 11.6157 7.81573 11.3696C7.82141 10.9782 7.78803 10.5883 7.74364 10.2001C7.56748 8.72409 7.34729 7.25378 7.09265 5.7895C7.06916 5.77608 7.04544 5.76306 7.02172 5.75004C6.95002 5.71068 6.87835 5.67133 6.8135 5.62116C6.82074 5.5501 6.82596 5.47875 6.83117 5.40739C6.84258 5.25124 6.854 5.09496 6.88666 4.94141C6.9378 4.67647 7.03298 4.42289 7.13704 4.17464ZM9.55132 4.59574C9.82798 5.43353 9.92032 6.32069 9.94589 7.19897C9.9641 7.39081 9.9685 7.5835 9.9729 7.77626C9.97699 7.95569 9.98109 8.13523 9.99632 8.31414L9.99679 8.35079C10.0055 9.02719 10.0142 9.71249 10.2002 10.368C10.252 10.5189 10.311 10.6755 10.4278 10.7892C10.4999 10.8623 10.5905 10.9344 10.6995 10.927C11.2726 10.9274 11.8457 10.9273 12.4188 10.9273C12.8487 10.9272 13.2785 10.9272 13.7083 10.9273C13.7147 10.597 13.6806 10.2632 13.5762 9.94853C13.5021 9.73337 13.3553 9.55495 13.2125 9.3812L13.1834 9.34585C13.1603 9.31632 13.1332 9.28907 13.1062 9.2618C13.0562 9.21132 13.006 9.16071 12.9799 9.09547C13.067 8.88538 13.1674 8.68085 13.2677 8.47641C13.3278 8.3539 13.3879 8.23142 13.4452 8.1078C13.7208 8.45975 14.0109 8.83834 14.0685 9.29613C14.1187 9.55794 14.1281 9.82342 14.1374 10.0889C14.1421 10.2196 14.1467 10.3503 14.1562 10.4805L14.1563 10.8906C14.1565 11.255 14.1568 11.6195 14.1555 11.9839C12.9799 11.9885 11.8037 11.9867 10.6281 11.985C10.2925 11.9729 10.0247 11.7186 9.89795 11.4231C9.6912 10.9508 9.63502 10.4341 9.57969 9.9252C9.57258 9.85983 9.56547 9.79441 9.55807 9.72941C9.52829 9.37139 9.51029 9.01247 9.49229 8.65355C9.4652 8.11346 9.43811 7.57333 9.3709 7.03632C9.32474 6.57533 9.16669 6.10547 8.81865 5.78442C8.85489 5.69873 8.90586 5.62115 8.95682 5.54358C8.97577 5.51473 8.99472 5.48588 9.01292 5.45662C9.19084 5.16895 9.37019 4.88163 9.55132 4.59574ZM16.0077 8.86982C15.9538 9.02244 15.8998 9.17507 15.8428 9.32652C15.8117 9.37591 15.8477 9.41722 15.8799 9.45429C15.8859 9.46118 15.8919 9.46799 15.8972 9.47462C16.1248 9.74027 16.3329 10.0255 16.4906 10.3387C16.6206 10.6292 16.7328 10.9403 16.7246 11.2631C16.7314 11.5597 16.606 11.8385 16.4682 12.0938C16.074 12.758 15.493 13.3028 14.8257 13.6863C14.4222 13.9118 13.9808 14.0923 13.5162 14.1303C13.2691 14.1699 13.02 14.1369 12.7734 14.1042C12.722 14.0974 12.6707 14.0906 12.6195 14.0844C12.4887 14.0702 12.3631 14.0329 12.2375 13.9957C12.1289 13.9635 12.0203 13.9313 11.9085 13.914C11.7526 13.882 11.6016 13.9985 11.5604 14.1452C11.8916 14.2756 12.2251 14.4001 12.5587 14.5247L12.6074 14.5429C13.1245 14.7248 13.6615 14.8924 14.2162 14.8754C14.3959 14.8821 14.5714 14.8342 14.7376 14.7692C15.1187 14.6197 15.4678 14.3977 15.7931 14.1512C16.3169 13.7346 16.8031 13.2285 17.05 12.5953C17.1784 12.2706 17.1747 11.9224 17.171 11.5778C17.17 11.4843 17.169 11.3904 17.1707 11.2979C17.1706 11.2192 17.1713 11.1399 17.1719 11.0604C17.1764 10.515 17.1809 9.95619 16.9498 9.45118C16.7673 9.05767 16.4792 8.72241 16.1681 8.4248C16.1128 8.5723 16.0602 8.72118 16.0077 8.86982ZM10.9364 12.2965C11.174 12.4015 11.4033 12.5247 11.6324 12.6477C11.7256 12.6977 11.8187 12.7478 11.9124 12.7965C11.8481 12.9668 11.7634 13.1278 11.6787 13.2889C11.6184 13.4035 11.558 13.5183 11.505 13.6365C11.489 13.6893 11.4382 13.6652 11.4006 13.6474C11.3939 13.6442 11.3877 13.6412 11.3821 13.6389C11.1984 13.542 11.0133 13.4473 10.8282 13.3526C10.7287 13.3017 10.6287 13.2505 10.5294 13.1993C10.4751 13.1773 10.5088 13.1126 10.5284 13.0775C10.6071 12.9312 10.6834 12.7836 10.7596 12.636C10.8181 12.5227 10.8768 12.4092 10.9364 12.2965ZM10.1625 13.1453C9.96818 13.0399 9.7738 12.9345 9.57621 12.8353C9.5355 12.9112 9.49461 12.9869 9.45372 13.0627C9.33726 13.2785 9.22081 13.4943 9.10883 13.7122C9.2095 13.7662 9.31119 13.8183 9.41292 13.8705C9.54261 13.937 9.67257 14.0036 9.80031 14.0741C9.83068 14.088 9.86038 14.1041 9.89013 14.1203C9.96193 14.1593 10.034 14.1984 10.1164 14.2072C10.177 14.0811 10.2423 13.9571 10.3077 13.8331C10.3914 13.6743 10.475 13.5155 10.5486 13.3524C10.4193 13.2846 10.2909 13.2149 10.1625 13.1453Z" fill="#1D1F1F"/>
</g>
<defs>
<clipPath id="clip0_2121_4903">
<rect width="20" height="20" fill="white"/>
</clipPath>
</defs>
</svg>
