<svg width="20" height="20" viewBox="0 0 20 20" fill="none" xmlns="http://www.w3.org/2000/svg">
<g clip-path="url(#clip0_811_11502)">
<path fill-rule="evenodd" clip-rule="evenodd" d="M10.0002 19.1668C15.0628 19.1668 19.1668 15.0628 19.1668 10.0002C19.1668 4.93755 15.0628 0.833496 10.0002 0.833496C4.93755 0.833496 0.833496 4.93755 0.833496 10.0002C0.833496 15.0628 4.93755 19.1668 10.0002 19.1668ZM7.13729 4.17464L7.25626 4.16683C7.26478 4.2004 7.2715 4.2353 7.27827 4.27046C7.29973 4.38185 7.32168 4.49584 7.40294 4.57845C7.47346 4.64241 7.56052 4.6787 7.6475 4.71496C7.69236 4.73367 7.73721 4.75236 7.77975 4.77484C7.83812 4.80577 7.89785 4.83423 7.9576 4.86271C8.05015 4.90681 8.14283 4.95097 8.23043 5.00427C8.24499 5.38854 8.17858 5.76784 8.08589 6.13897C7.9951 6.14472 7.9101 6.1154 7.82549 6.08622C7.79524 6.07578 7.76504 6.06537 7.73465 6.05657C7.78982 6.46908 7.84986 6.88096 7.90989 7.29282C8.03494 8.15074 8.15998 9.00858 8.24109 9.87193C8.30111 10.3802 8.32455 10.8919 8.31354 11.404C8.31318 11.8721 8.1832 12.3502 7.90405 12.7305C7.60928 13.1144 7.16605 13.3584 6.70365 13.481C6.04165 13.6727 5.34521 13.6731 4.6619 13.6596C4.20518 13.6351 3.74313 13.5463 3.33649 13.3293C2.92487 13.1066 2.60701 12.7028 2.53314 12.2351C2.4543 11.7297 2.52568 11.2123 2.65354 10.7207C2.79702 10.2164 3.00797 9.73307 3.24841 9.26818C3.2859 9.20207 3.32064 9.13432 3.35537 9.06658C3.41803 8.94438 3.48069 8.82217 3.55952 8.70953L3.56241 8.71191C3.63607 8.77251 3.724 8.84484 3.70051 8.95316C3.67532 9.08281 3.6027 9.19221 3.53012 9.30158C3.49015 9.36178 3.4502 9.42198 3.41817 9.48553C3.16069 10.0033 2.94263 10.5673 2.96642 11.1558C2.95009 11.5848 3.16317 12.0224 3.52933 12.2532C3.96652 12.5402 4.50493 12.6187 5.01847 12.6044C5.41979 12.6087 5.82324 12.5721 6.21212 12.4695C6.64754 12.3629 7.08224 12.2124 7.44946 11.9499C7.63201 11.8096 7.81917 11.6157 7.81597 11.3696C7.82166 10.9782 7.78827 10.5883 7.74388 10.2001C7.56773 8.72409 7.34753 7.25378 7.09289 5.7895C7.06941 5.77608 7.04568 5.76306 7.02196 5.75004C6.95026 5.71068 6.87859 5.67133 6.81375 5.62116C6.82099 5.5501 6.8262 5.47875 6.83141 5.40739C6.84283 5.25124 6.85424 5.09496 6.88691 4.94141C6.93805 4.67647 7.03323 4.42289 7.13729 4.17464ZM9.55156 4.59574C9.82823 5.43353 9.92056 6.32069 9.94613 7.19897C9.96434 7.39081 9.96874 7.5835 9.97314 7.77626C9.97723 7.95569 9.98133 8.13523 9.99657 8.31414L9.99704 8.35079C10.0057 9.02719 10.0145 9.71249 10.2004 10.368C10.2523 10.5189 10.3112 10.6755 10.4281 10.7892C10.5002 10.8623 10.5907 10.9344 10.6998 10.927C11.2729 10.9274 11.846 10.9273 12.4191 10.9273C12.8489 10.9272 13.2787 10.9272 13.7086 10.9273C13.715 10.597 13.6809 10.2632 13.5765 9.94853C13.5023 9.73337 13.3556 9.55495 13.2127 9.3812L13.1837 9.34585C13.1605 9.31632 13.1335 9.28907 13.1064 9.2618C13.0564 9.21132 13.0062 9.16071 12.9802 9.09547C13.0672 8.88538 13.1676 8.68085 13.268 8.47641C13.3281 8.3539 13.3882 8.23142 13.4454 8.1078C13.721 8.45975 14.0112 8.83834 14.0687 9.29613C14.1189 9.55794 14.1283 9.82342 14.1377 10.0889C14.1423 10.2196 14.1469 10.3503 14.1564 10.4805L14.1566 10.8906C14.1568 11.255 14.157 11.6195 14.1557 11.9839C12.9802 11.9885 11.8039 11.9867 10.6284 11.985C10.2928 11.9729 10.025 11.7186 9.89819 11.4231C9.69144 10.9508 9.63526 10.4341 9.57993 9.9252C9.57282 9.85983 9.56571 9.79441 9.55831 9.72941C9.52854 9.37139 9.51054 9.01247 9.49253 8.65355C9.46545 8.11346 9.43836 7.57333 9.37115 7.03632C9.32498 6.57533 9.16694 6.10547 8.81889 5.78442C8.85514 5.69873 8.9061 5.62115 8.95706 5.54358C8.97601 5.51473 8.99497 5.48588 9.01316 5.45662C9.19109 5.16895 9.37044 4.88163 9.55156 4.59574ZM16.0079 8.86982C15.954 9.02244 15.9001 9.17507 15.8431 9.32652C15.8119 9.37591 15.8479 9.41722 15.8802 9.45429C15.8862 9.46118 15.8921 9.46799 15.8974 9.47462C16.125 9.74027 16.3332 10.0255 16.4908 10.3387C16.6208 10.6292 16.7331 10.9403 16.7249 11.2631C16.7316 11.5597 16.6063 11.8385 16.4685 12.0938C16.0743 12.758 15.4932 13.3028 14.8259 13.6863C14.4225 13.9118 13.981 14.0923 13.5165 14.1303C13.2693 14.1699 13.0203 14.1369 12.7737 14.1042C12.7222 14.0974 12.6709 14.0906 12.6197 14.0844C12.4889 14.0702 12.3633 14.0329 12.2378 13.9957C12.1292 13.9635 12.0206 13.9313 11.9087 13.914C11.7528 13.882 11.6019 13.9985 11.5607 14.1452C11.8919 14.2756 12.2253 14.4001 12.5589 14.5247L12.6077 14.5429C13.1248 14.7248 13.6617 14.8924 14.2165 14.8754C14.3962 14.8821 14.5716 14.8342 14.7378 14.7692C15.1189 14.6197 15.468 14.3977 15.7933 14.1512C16.3172 13.7346 16.8034 13.2285 17.0502 12.5953C17.1786 12.2706 17.1749 11.9224 17.1713 11.5778C17.1703 11.4843 17.1693 11.3904 17.171 11.2979C17.1709 11.2192 17.1715 11.1399 17.1722 11.0604C17.1766 10.515 17.1812 9.95619 16.9501 9.45118C16.7675 9.05767 16.4795 8.72241 16.1684 8.4248C16.113 8.5723 16.0604 8.72118 16.0079 8.86982ZM10.9367 12.2965C11.1742 12.4015 11.4036 12.5247 11.6326 12.6477C11.7258 12.6977 11.819 12.7478 11.9126 12.7965C11.8483 12.9668 11.7637 13.1278 11.6789 13.2889C11.6187 13.4035 11.5583 13.5183 11.5053 13.6365C11.4893 13.6893 11.4384 13.6652 11.4009 13.6474C11.3942 13.6442 11.388 13.6412 11.3824 13.6389C11.1986 13.542 11.0136 13.4473 10.8285 13.3526C10.729 13.3017 10.629 13.2505 10.5297 13.1993C10.4753 13.1773 10.5091 13.1126 10.5286 13.0775C10.6074 12.9312 10.6836 12.7836 10.7598 12.636C10.8184 12.5227 10.877 12.4092 10.9367 12.2965ZM10.1628 13.1453C9.96842 13.0399 9.77404 12.9345 9.57645 12.8353C9.53575 12.9112 9.49486 12.9869 9.45396 13.0627C9.3375 13.2785 9.22105 13.4943 9.10907 13.7122C9.20974 13.7662 9.31143 13.8183 9.41316 13.8705C9.54285 13.937 9.67281 14.0036 9.80055 14.0741C9.83092 14.088 9.86063 14.1041 9.89038 14.1203C9.96217 14.1593 10.0343 14.1984 10.1166 14.2072C10.1772 14.0811 10.2426 13.9571 10.3079 13.8331C10.3916 13.6743 10.4753 13.5155 10.5488 13.3524C10.4196 13.2846 10.2912 13.2149 10.1628 13.1453Z" fill="white"/>
</g>
<defs>
<clipPath id="clip0_811_11502">
<rect width="20" height="20" fill="white"/>
</clipPath>
</defs>
</svg>
