<svg width="12" height="12" viewBox="0 0 12 12" fill="none" xmlns="http://www.w3.org/2000/svg">
<g clip-path="url(#clip0_2099_828)">
<path d="M3.72092 6.55147C3.72156 6.54867 3.72348 6.53893 3.72453 6.51765C3.7253 6.50191 3.72548 6.48361 3.72534 6.45851C3.7253 6.453 3.72525 6.44663 3.72519 6.43969L3.72092 6.55147ZM3.72092 6.55147L3.71814 6.55916C3.70527 6.59471 3.66059 6.64943 3.5729 6.68614C3.42102 6.74891 3.24044 6.73344 3.11566 6.65339L3.11362 6.65209C3.08434 6.63356 3.06025 6.6091 3.04474 6.58463C3.02967 6.56085 3.02606 6.54286 3.02582 6.53214L2.62592 6.54124C2.62428 6.44093 2.59077 6.34061 2.52092 6.26702M3.72092 6.55147L3.02587 6.5347C3.02295 6.35594 2.96369 6.15514 2.81536 5.99623M2.52092 6.26702L2.81963 6.00099C2.81821 5.9994 2.81679 5.99781 2.81536 5.99623M2.52092 6.26702C2.39881 6.12991 2.17147 6.11139 2.02686 6.22343L2.81536 5.99623M2.52092 6.26702L2.81106 5.99167C2.8125 5.99319 2.81394 5.99471 2.81536 5.99623M8.16651 1.2427L8.16651 1.2427L8.16855 1.24363C9.38007 1.78983 10.3651 2.82265 10.8528 4.05882L10.8537 4.06092C11.2057 4.93869 11.3091 5.91546 11.1559 6.85089L11.1559 6.85107C11.0168 7.70274 10.6626 8.51877 10.1334 9.19906L10.1325 9.20021C9.60312 9.88585 8.89898 10.4368 8.10586 10.7843L8.10477 10.7848C7.29964 11.1404 6.40067 11.2835 5.52174 11.2031L5.52091 11.203C4.54263 11.1155 3.59076 10.7437 2.81402 10.1435L2.81298 10.1427C2.21677 9.68508 1.72112 9.09621 1.37213 8.43064L1.37191 8.43023C0.98689 7.69803 0.78045 6.8723 0.775456 6.04499L0.77542 6.04221C0.759116 4.78809 1.21819 3.53276 2.04106 2.58691L2.04107 2.58691L2.04266 2.58506C2.7644 1.74516 3.76155 1.14378 4.84124 0.905343L4.84126 0.905414L4.84868 0.903625C5.08216 0.84737 5.32523 0.813087 5.57604 0.791997C6.46016 0.720623 7.36215 0.874613 8.16651 1.2427ZM1.78423 5.90541C1.57086 6.06706 1.46141 6.32707 1.47599 6.58019C1.49199 7.19187 1.87139 7.7251 2.36152 8.00482C3.06016 8.41391 4.0005 8.35617 4.63585 7.83345C4.92445 7.60082 5.1448 7.26836 5.23277 6.89425C5.24016 6.90236 5.24763 6.91038 5.25519 6.91832C5.36112 7.03111 5.47981 7.12688 5.60656 7.20664C5.33283 7.37048 5.17228 7.70247 5.24188 8.02637L5.24164 8.02642L5.24505 8.03997C5.31518 8.31858 5.53321 8.53608 5.79379 8.61887L5.79373 8.61905L5.80563 8.62243C6.11111 8.70919 6.38958 8.57356 6.5528 8.40332C6.55631 8.39966 6.5598 8.39595 6.56326 8.39219C6.57789 8.40775 6.59303 8.42269 6.60861 8.43699C6.48149 8.55532 6.39262 8.71203 6.36101 8.87823L6.35902 8.8887L6.35759 8.89925C6.32341 9.15153 6.42742 9.37522 6.568 9.52372C6.70666 9.67017 6.91614 9.78154 7.15578 9.77478C7.52973 9.77146 7.91794 9.7149 8.28742 9.5744C8.84604 9.36662 9.31131 8.95653 9.60342 8.45039C10.0058 7.75895 10.121 6.96687 10.1455 6.24786L10.1459 6.23742L10.1457 6.22698C10.1452 6.19685 10.146 6.18192 10.1471 6.16094C10.1481 6.14061 10.1495 6.11459 10.1503 6.06357C10.1514 5.99021 10.1488 5.88516 10.1159 5.77166L10.1159 5.77164L10.1138 5.76493C9.99988 5.39642 9.61096 5.16813 9.23761 5.23856C8.96769 5.28774 8.72019 5.48634 8.63398 5.77093C8.62391 5.71929 8.60824 5.66617 8.58486 5.61338C8.44372 5.28875 8.07928 5.09334 7.72622 5.16574C7.40184 5.22884 7.11789 5.51298 7.10206 5.87867C7.04062 5.92952 6.93441 5.96743 6.78365 5.97416C6.62093 5.97901 6.49249 5.94626 6.40912 5.88834L6.40892 5.88821C6.40565 5.88593 6.40265 5.88364 6.39999 5.88142C6.39998 5.61854 6.39997 5.35565 6.39996 5.09277C6.39991 4.27889 6.39987 3.46504 6.40022 2.6513C6.40189 2.51486 6.37701 2.32257 6.25028 2.15282C6.03708 1.86087 5.67815 1.8134 5.42733 1.87293C5.27991 1.90519 5.1571 1.97955 5.06319 2.07797C4.84971 1.85549 4.53289 1.81884 4.30555 1.87215C3.93248 1.95211 3.71501 2.30188 3.72522 2.63103C3.7248 3.37892 3.72488 4.12705 3.72497 4.87503C3.72502 5.37475 3.72508 5.8744 3.72499 6.37387L1.78423 5.90541ZM8.35247 7.50412C8.24417 7.75183 8.07549 7.95374 7.87188 8.06653C7.90879 7.93663 7.91229 7.79063 7.85915 7.64002L7.85917 7.64002L7.85784 7.63637C7.8161 7.52164 7.74766 7.41695 7.6612 7.33128C7.76134 7.2857 7.85839 7.23171 7.95108 7.16897L7.95138 7.16877C8.23198 6.97846 8.48252 6.6876 8.59112 6.32551C8.56944 6.75264 8.50788 7.15114 8.35288 7.50318L8.35247 7.50412Z" fill="#F7B600" stroke="#F7B600" stroke-width="0.8"/>
</g>
<defs>
<clipPath id="clip0_2099_828">
<rect width="12" height="12" fill="white"/>
</clipPath>
</defs>
</svg>
