<svg width="12" height="12" viewBox="0 0 12 12" fill="none" xmlns="http://www.w3.org/2000/svg">
<g clip-path="url(#clip0_735_28751)">
<path fill-rule="evenodd" clip-rule="evenodd" d="M6 11.5C9.03757 11.5 11.5 9.03757 11.5 6C11.5 2.96243 9.03757 0.5 6 0.5C2.96243 0.5 0.5 2.96243 0.5 6C0.5 9.03757 2.96243 11.5 6 11.5ZM4.28227 2.50469L4.35366 2.5C4.35877 2.52014 4.3628 2.54108 4.36687 2.56218C4.37974 2.62901 4.39291 2.69741 4.44166 2.74697C4.48398 2.78535 4.53621 2.80712 4.5884 2.82888C4.61532 2.8401 4.64223 2.85132 4.66775 2.86481C4.70277 2.88336 4.73861 2.90044 4.77446 2.91753C4.82999 2.94399 4.8856 2.97049 4.93816 3.00246C4.9469 3.23303 4.90705 3.46061 4.85143 3.68328C4.79696 3.68674 4.74596 3.66914 4.6952 3.65163C4.67705 3.64537 4.65893 3.63912 4.64069 3.63385C4.6738 3.88135 4.70982 4.12848 4.74584 4.37559C4.82087 4.89034 4.89589 5.40505 4.94456 5.92306C4.98057 6.22799 4.99463 6.53506 4.98802 6.84233C4.98781 7.12318 4.90982 7.41 4.74233 7.63822C4.56547 7.86857 4.29953 8.01496 4.02209 8.08847C3.62489 8.20354 3.20703 8.20376 2.79704 8.19566C2.52301 8.18096 2.24578 8.12768 2.00179 7.99749C1.75482 7.86388 1.56411 7.6216 1.51979 7.34096C1.47248 7.03773 1.51531 6.72726 1.59202 6.43235C1.67811 6.12976 1.80469 5.83975 1.94895 5.56081C1.97144 5.52114 1.99228 5.4805 2.01313 5.43985C2.05072 5.36653 2.08832 5.29321 2.13561 5.22562L2.13735 5.22705C2.18155 5.26341 2.2343 5.30681 2.22021 5.3718C2.20509 5.44959 2.16152 5.51523 2.11797 5.58085C2.09399 5.61697 2.07002 5.65309 2.05081 5.69122C1.89632 6.00191 1.76548 6.34029 1.77976 6.69338C1.76995 6.95079 1.89781 7.21332 2.1175 7.35183C2.37981 7.524 2.70286 7.57109 3.01098 7.56257C3.25178 7.56513 3.49384 7.54318 3.72718 7.4816C3.98842 7.41767 4.24925 7.32732 4.46958 7.16985C4.57911 7.08568 4.6914 6.96933 4.68949 6.82166C4.6929 6.58684 4.67287 6.35286 4.64623 6.11996C4.54054 5.23436 4.40842 4.35217 4.25564 3.4736C4.24155 3.46555 4.22731 3.45774 4.21308 3.44993C4.17006 3.42631 4.12706 3.4027 4.08815 3.3726C4.09249 3.32996 4.09562 3.28715 4.09875 3.24434C4.1056 3.15065 4.11245 3.05688 4.13205 2.96475C4.16273 2.80578 4.21984 2.65364 4.28227 2.50469ZM5.73084 2.75734C5.89684 3.26002 5.95224 3.79232 5.96758 4.31929C5.97851 4.43439 5.98115 4.55 5.98379 4.66566C5.98624 4.77331 5.9887 4.88104 5.99784 4.98839L5.99813 5.01038C6.00333 5.41621 6.0086 5.82739 6.12016 6.22068C6.15127 6.31124 6.18664 6.40522 6.25675 6.4734C6.3 6.5173 6.35434 6.56056 6.41976 6.55608C6.76362 6.55633 7.10749 6.55629 7.45135 6.55626C7.70925 6.55623 7.96715 6.5562 8.22505 6.5563C8.22888 6.35812 8.20843 6.15782 8.14578 5.96902C8.10128 5.83992 8.01325 5.73287 7.92753 5.62862L7.9101 5.60741C7.8962 5.5897 7.87999 5.57335 7.86377 5.55698C7.83374 5.52669 7.80363 5.49633 7.788 5.45718C7.84024 5.33113 7.90047 5.20841 7.96067 5.08575C7.99675 5.01224 8.03282 4.93876 8.06715 4.86458C8.23251 5.07575 8.4066 5.30291 8.44112 5.57758C8.47125 5.73466 8.47688 5.89395 8.48252 6.05326C8.48529 6.13167 8.48806 6.21008 8.49375 6.28823L8.49385 6.53427C8.49398 6.75292 8.4941 6.97158 8.49333 7.19024C7.788 7.19301 7.08225 7.19194 6.37693 7.19088C6.17556 7.18363 6.01489 7.03106 5.93882 6.85377C5.81477 6.57036 5.78106 6.26035 5.74786 5.95502C5.7436 5.9158 5.73933 5.87655 5.73489 5.83755C5.71703 5.62274 5.70622 5.40739 5.69542 5.19203C5.67917 4.86798 5.66292 4.5439 5.62259 4.22169C5.59489 3.9451 5.50007 3.66319 5.29124 3.47055C5.31298 3.41914 5.34356 3.37259 5.37414 3.32605C5.38551 3.30874 5.39688 3.29143 5.4078 3.27387C5.51456 3.10127 5.62217 2.92888 5.73084 2.75734ZM9.60465 5.3218C9.5723 5.41337 9.53995 5.50495 9.50574 5.59581C9.48706 5.62545 9.50865 5.65024 9.52801 5.67248C9.53161 5.67661 9.53517 5.6807 9.53834 5.68467C9.67493 5.84406 9.7998 6.01517 9.89441 6.20312C9.9724 6.37743 10.0397 6.56409 10.0348 6.75779C10.0389 6.93572 9.96367 7.10299 9.88099 7.25621C9.64446 7.65468 9.29585 7.98156 8.89545 8.2117C8.65338 8.34701 8.38851 8.45526 8.10979 8.47806C7.96151 8.50186 7.81206 8.48204 7.66411 8.46242C7.63324 8.45833 7.60245 8.45425 7.57174 8.45057C7.49326 8.442 7.41789 8.41965 7.34257 8.39731C7.2774 8.37799 7.21225 8.35866 7.14514 8.34829C7.05159 8.32911 6.96103 8.399 6.93631 8.48701C7.13503 8.56524 7.33511 8.63998 7.53525 8.71474L7.5645 8.72567C7.87475 8.83477 8.19695 8.93535 8.52979 8.92512C8.63761 8.92917 8.74288 8.9004 8.84261 8.8614C9.07125 8.77169 9.28072 8.63851 9.47591 8.49063C9.79021 8.24068 10.0819 7.93702 10.23 7.55709C10.3071 7.36227 10.3049 7.15336 10.3027 6.94661C10.3021 6.89047 10.3015 6.83417 10.3025 6.77867C10.3024 6.7314 10.3028 6.68385 10.3032 6.63613C10.3059 6.30888 10.3086 5.97362 10.1699 5.67061C10.0604 5.43451 9.88759 5.23335 9.70093 5.05478C9.66771 5.14328 9.63616 5.23261 9.60465 5.3218ZM6.56191 7.37779C6.70445 7.44081 6.84203 7.51469 6.97949 7.58851C7.03539 7.61854 7.09129 7.64856 7.14748 7.67782C7.1089 7.78001 7.0581 7.8766 7.00727 7.97324C6.97109 8.04203 6.93487 8.1109 6.90307 8.18178C6.89347 8.21346 6.86296 8.199 6.84041 8.18832C6.83642 8.18642 6.83267 8.18465 6.82934 8.18327C6.71909 8.1251 6.60803 8.06828 6.49698 8.01146C6.43728 7.98092 6.37729 7.95022 6.31771 7.91947C6.28511 7.90625 6.30535 7.86747 6.31707 7.84638C6.36432 7.75864 6.41006 7.67008 6.45581 7.58152C6.49093 7.51353 6.52611 7.44543 6.56191 7.37779ZM6.09756 7.88709C5.98096 7.82386 5.86433 7.76062 5.74577 7.70108C5.72135 7.7466 5.69682 7.79206 5.67228 7.83752C5.6024 7.96699 5.53253 8.09645 5.46535 8.2272C5.52575 8.2596 5.58676 8.29089 5.6478 8.32219C5.72561 8.36209 5.80359 8.40208 5.88023 8.44434C5.89846 8.4527 5.91628 8.46238 5.93413 8.47207C5.97721 8.49547 6.02047 8.51897 6.06988 8.52424C6.10623 8.44856 6.14545 8.37414 6.18466 8.29974C6.23486 8.20446 6.28506 8.10921 6.32921 8.01134C6.25164 7.97064 6.1746 7.92887 6.09756 7.88709Z" fill="#1D1F1F"/>
</g>
<defs>
<clipPath id="clip0_735_28751">
<rect width="12" height="12" fill="white"/>
</clipPath>
</defs>
</svg>
