<svg width="16" height="16" viewBox="0 0 16 16" fill="none" xmlns="http://www.w3.org/2000/svg">
<path d="M12.6668 11.8337H3.3335C1.72016 11.8337 0.833496 10.947 0.833496 9.33366V6.66699C0.833496 5.05366 1.72016 4.16699 3.3335 4.16699H12.6668C14.2802 4.16699 15.1668 5.05366 15.1668 6.66699V9.33366C15.1668 10.947 14.2802 11.8337 12.6668 11.8337ZM3.3335 5.16699C2.28016 5.16699 1.8335 5.61366 1.8335 6.66699V9.33366C1.8335 10.387 2.28016 10.8337 3.3335 10.8337H12.6668C13.7202 10.8337 14.1668 10.387 14.1668 9.33366V6.66699C14.1668 5.61366 13.7202 5.16699 12.6668 5.16699H3.3335Z" fill="#666666"/>
<path d="M12 8.50033C11.7267 8.50033 11.5 8.27366 11.5 8.00033V4.66699C11.5 4.39366 11.7267 4.16699 12 4.16699C12.2733 4.16699 12.5 4.39366 12.5 4.66699V8.00033C12.5 8.27366 12.2733 8.50033 12 8.50033Z" fill="#666666"/>
<path d="M4 7.83366C3.72667 7.83366 3.5 7.60699 3.5 7.33366V4.66699C3.5 4.39366 3.72667 4.16699 4 4.16699C4.27333 4.16699 4.5 4.39366 4.5 4.66699V7.33366C4.5 7.60699 4.27333 7.83366 4 7.83366Z" fill="#666666"/>
<path d="M6.6665 8.50033C6.3865 8.50033 6.1665 8.27366 6.1665 7.99366L6.19984 4.66033C6.19984 4.38699 6.4265 4.16699 6.69984 4.16699C6.69984 4.16699 6.69984 4.16699 6.7065 4.16699C6.97984 4.16699 7.2065 4.39366 7.19984 4.67366L7.1665 8.00699C7.1665 8.28033 6.93984 8.50033 6.6665 8.50033Z" fill="#666666"/>
<path d="M9.3335 7.16699C9.06016 7.16699 8.8335 6.94033 8.8335 6.66699V4.66699C8.8335 4.39366 9.06016 4.16699 9.3335 4.16699C9.60683 4.16699 9.8335 4.39366 9.8335 4.66699V6.66699C9.8335 6.94033 9.60683 7.16699 9.3335 7.16699Z" fill="#666666"/>
</svg>
