<svg width="16" height="16" viewBox="0 0 16 16" fill="none" xmlns="http://www.w3.org/2000/svg">
<path d="M12.6663 4.66699C12.573 4.66699 12.4997 4.74033 12.4997 4.83366V8.00033C12.4997 8.27366 12.273 8.50033 11.9997 8.50033C11.7263 8.50033 11.4997 8.27366 11.4997 8.00033V4.83366C11.4997 4.74033 11.4263 4.66699 11.333 4.66699H9.99967C9.90634 4.66699 9.83301 4.74033 9.83301 4.83366V6.40033C9.83301 6.67366 9.60634 6.90033 9.33301 6.90033C9.05967 6.90033 8.83301 6.67366 8.83301 6.40033V4.83366C8.83301 4.74033 8.75967 4.66699 8.66634 4.66699H7.35967C7.26634 4.66699 7.19301 4.74033 7.19301 4.83366L7.16634 8.00699C7.16634 8.28033 6.93967 8.50033 6.66634 8.50033C6.66634 8.50033 6.66634 8.50033 6.65967 8.50033C6.38634 8.50033 6.16634 8.27366 6.16634 7.99366L6.19301 4.83366C6.19301 4.74033 6.11967 4.66699 6.02634 4.66699H4.66634C4.57301 4.66699 4.49967 4.74033 4.49967 4.83366V7.20033C4.49967 7.47366 4.27301 7.70033 3.99967 7.70033C3.72634 7.70033 3.49967 7.47366 3.49967 7.20033V4.83366C3.49967 4.74033 3.42634 4.66699 3.33301 4.66699C2.22634 4.66699 1.33301 5.56033 1.33301 6.66699V9.33366C1.33301 10.4403 2.22634 11.3337 3.33301 11.3337H12.6663C13.773 11.3337 14.6663 10.4403 14.6663 9.33366V6.66699C14.6663 5.56033 13.773 4.66699 12.6663 4.66699Z" fill="#053396"/>
</svg>
