<svg width="20" height="20" viewBox="0 0 20 20" fill="none" xmlns="http://www.w3.org/2000/svg">
<path d="M15.4916 1.87504C16.425 1.87504 17.0166 2.19171 17.3916 2.56671C18.125 3.30004 18.6416 4.85837 16.9916 8.16671L16.2666 9.60837C16.175 9.80004 16.175 10.2 16.2666 10.3917L16.9916 11.8334C18.65 15.1417 18.125 16.7084 17.3916 17.4334C16.6666 18.1667 15.1 18.6917 11.8 17.0334L4.66663 13.4667C2.89163 12.5834 1.91663 11.35 1.91663 10C1.91663 8.65004 2.89163 7.41671 4.6583 6.53337L11.7916 2.96671C13.4083 2.15837 14.6083 1.87504 15.4916 1.87504ZM15.4916 16.875C15.9416 16.875 16.2916 16.7667 16.5083 16.55C17.1166 15.95 16.875 14.3917 15.875 12.4L15.15 10.95C14.8833 10.4084 14.8833 9.59171 15.15 9.05004L15.875 7.60837C16.875 5.60837 17.1166 4.05838 16.5083 3.45837C15.9083 2.85004 14.35 3.09171 12.35 4.09171L5.21663 7.65837C3.9083 8.30837 3.16663 9.16671 3.16663 10.0084C3.16663 10.85 3.91663 11.7084 5.22496 12.3584L12.3583 15.9167C13.625 16.55 14.7166 16.875 15.4916 16.875Z" fill="#464646"/>
<path d="M10.9666 9.375L15.4666 9.375C15.8082 9.375 16.0916 9.65833 16.0916 10C16.0916 10.3417 15.8082 10.625 15.4666 10.625L10.9666 10.625C10.6249 10.625 10.3416 10.3417 10.3416 10C10.3416 9.65833 10.6249 9.375 10.9666 9.375Z" fill="#464646"/>
</svg>
