<svg width="12" height="12" viewBox="0 0 12 12" fill="none" xmlns="http://www.w3.org/2000/svg">
<path d="M10.25 11.375H1.75C1.545 11.375 1.375 11.205 1.375 11C1.375 10.795 1.545 10.625 1.75 10.625H10.25C10.455 10.625 10.625 10.795 10.625 11C10.625 11.205 10.455 11.375 10.25 11.375Z" fill="white"/>
<path d="M9.49997 9.12473C9.40497 9.12473 9.30997 9.08973 9.23497 9.01473L2.23497 2.01473C2.08997 1.86973 2.08997 1.62973 2.23497 1.48473C2.37997 1.33973 2.61997 1.33973 2.76497 1.48473L9.76497 8.48473C9.90997 8.62973 9.90997 8.86973 9.76497 9.01473C9.68997 9.08973 9.59497 9.12473 9.49997 9.12473Z" fill="white"/>
<path d="M2.5 7.26C2.295 7.26 2.125 7.09 2.125 6.885V1.75C2.125 1.545 2.295 1.375 2.5 1.375H7.635C7.84 1.375 8.01 1.545 8.01 1.75C8.01 1.955 7.84 2.125 7.635 2.125H2.875V6.885C2.875 7.09 2.705 7.26 2.5 7.26Z" fill="white"/>
</svg>
