<svg width="32" height="32" viewBox="0 0 32 32" fill="none" xmlns="http://www.w3.org/2000/svg">
<path d="M10.4801 3.94672L22.5201 7.94672C30.6134 10.6534 30.6134 15.0667 22.5201 17.7601L18.9468 18.9467L17.7601 22.5201C15.0668 30.6134 10.6401 30.6134 7.94675 22.5201L3.93342 10.4934C2.14676 5.09339 5.08009 2.14672 10.4801 3.94672ZM10.0534 11.1201L15.1201 16.2134C15.3201 16.4134 15.5734 16.5067 15.8268 16.5067C16.0801 16.5067 16.3334 16.4134 16.5334 16.2134C16.9201 15.8267 16.9201 15.1867 16.5334 14.8001L11.4668 9.70672C11.0801 9.32006 10.4401 9.32006 10.0534 9.70672C9.66676 10.0934 9.66676 10.7334 10.0534 11.1201Z" fill="#D6D6D6"/>
</svg>
