<svg width="32" height="32" viewBox="0 0 32 32" fill="none" xmlns="http://www.w3.org/2000/svg">
<path d="M24 29.3332C22.8889 29.3332 21.9444 28.9443 21.1667 28.1665C20.3889 27.3887 20 26.4443 20 25.3332C20 25.1776 20.0111 25.0163 20.0333 24.8492C20.0556 24.6821 20.0889 24.5323 20.1333 24.3998L10.7333 18.9332C10.3556 19.2665 9.93333 19.5278 9.46667 19.7172C9 19.9065 8.51111 20.0007 8 19.9998C6.88889 19.9998 5.94444 19.6109 5.16667 18.8332C4.38889 18.0554 4 17.1109 4 15.9998C4 14.8887 4.38889 13.9443 5.16667 13.1665C5.94444 12.3887 6.88889 11.9998 8 11.9998C8.51111 11.9998 9 12.0945 9.46667 12.2838C9.93333 12.4732 10.3556 12.7341 10.7333 13.0665L20.1333 7.59984C20.0889 7.4665 20.0556 7.31673 20.0333 7.1505C20.0111 6.98428 20 6.82295 20 6.6665C20 5.55539 20.3889 4.61095 21.1667 3.83317C21.9444 3.05539 22.8889 2.6665 24 2.6665C25.1111 2.6665 26.0556 3.05539 26.8333 3.83317C27.6111 4.61095 28 5.55539 28 6.6665C28 7.77762 27.6111 8.72206 26.8333 9.49984C26.0556 10.2776 25.1111 10.6665 24 10.6665C23.4889 10.6665 23 10.5723 22.5333 10.3838C22.0667 10.1954 21.6444 9.93406 21.2667 9.59984L11.8667 15.0665C11.9111 15.1998 11.9444 15.3501 11.9667 15.5172C11.9889 15.6843 12 15.8452 12 15.9998C12 16.1545 11.9889 16.3158 11.9667 16.4838C11.9444 16.6518 11.9111 16.8016 11.8667 16.9332L21.2667 22.3998C21.6444 22.0665 22.0667 21.8056 22.5333 21.6172C23 21.4287 23.4889 21.3341 24 21.3332C25.1111 21.3332 26.0556 21.7221 26.8333 22.4998C27.6111 23.2776 28 24.2221 28 25.3332C28 26.4443 27.6111 27.3887 26.8333 28.1665C26.0556 28.9443 25.1111 29.3332 24 29.3332Z" fill="white"/>
</svg>
