<svg width="24" height="24" viewBox="0 0 24 24" fill="none" xmlns="http://www.w3.org/2000/svg">
<path d="M18.54 4.11789L13.04 2.05789C12.47 1.84789 11.54 1.84789 10.97 2.05789L5.47005 4.11789C4.41005 4.51789 3.55005 5.75789 3.55005 6.88789V14.9879C3.55005 15.7979 4.08005 16.8679 4.73005 17.3479L10.23 21.4579C11.2 22.1879 12.79 22.1879 13.76 21.4579L19.26 17.3479C19.91 16.8579 20.4401 15.7979 20.4401 14.9879V6.88789C20.4501 5.75789 19.59 4.51789 18.54 4.11789ZM15.48 9.71789L11.18 14.0179C11.03 14.1679 10.84 14.2379 10.65 14.2379C10.46 14.2379 10.27 14.1679 10.12 14.0179L8.52005 12.3979C8.23005 12.1079 8.23005 11.6279 8.52005 11.3379C8.81005 11.0479 9.29005 11.0479 9.58005 11.3379L10.66 12.4179L14.43 8.64789C14.72 8.35789 15.2 8.35789 15.49 8.64789C15.78 8.93789 15.78 9.42789 15.48 9.71789Z" fill="#666666"/>
</svg>
