<svg width="16" height="16" viewBox="0 0 16 16" fill="none" xmlns="http://www.w3.org/2000/svg">
<g clip-path="url(#clip0_814_61181)">
<path d="M14.2495 7.00001H13.9995V2.05001C13.9995 1.63892 13.8362 1.24468 13.5455 0.953995C13.2548 0.663314 12.8606 0.500011 12.4495 0.500011H11.1995C11.0417 0.499349 10.8854 0.529936 10.7395 0.590008C10.5936 0.650079 10.4611 0.738445 10.3495 0.850007C10.2379 0.96157 10.1496 1.09412 10.0895 1.24001C10.0294 1.3859 9.99884 1.54224 9.9995 1.70001V2.07001C9.57126 2.18058 9.19175 2.42998 8.92034 2.77919C8.64893 3.1284 8.50093 3.55773 8.4995 4.00001V4.50001C8.4995 4.63262 8.55217 4.7598 8.64594 4.85356C8.73971 4.94733 8.86689 5.00001 8.9995 5.00001H11.9995C12.1321 5.00001 12.2593 4.94733 12.3531 4.85356C12.4468 4.7598 12.4995 4.63262 12.4995 4.50001V4.00001C12.4981 3.55773 12.3501 3.1284 12.0787 2.77919C11.8072 2.42998 11.4277 2.18058 10.9995 2.07001V1.70001C10.9995 1.64697 11.0206 1.5961 11.0581 1.55859C11.0956 1.52108 11.1465 1.50001 11.1995 1.50001H12.4495C12.595 1.50132 12.7341 1.55968 12.837 1.66254C12.9398 1.76541 12.9982 1.90455 12.9995 2.05001V7.00001H1.7495C1.4869 6.99824 1.23048 7.07954 1.01688 7.23229C0.803282 7.38505 0.643453 7.60142 0.560246 7.85049C0.47704 8.09956 0.474716 8.36855 0.553608 8.61902C0.632501 8.86948 0.788568 9.08859 0.999495 9.24501V10.745C1.00169 11.4229 1.21326 12.0836 1.60527 12.6367C1.99728 13.1898 2.55058 13.6083 3.1895 13.835L2.5845 14.725C2.51213 14.8352 2.48624 14.9696 2.51246 15.0988C2.53868 15.2281 2.61489 15.3417 2.7245 15.415C2.80502 15.4714 2.9012 15.5011 2.9995 15.5C3.08185 15.4996 3.16282 15.4788 3.23522 15.4396C3.30762 15.4003 3.3692 15.3438 3.4145 15.275L4.2695 14H11.7295L12.5845 15.275C12.6298 15.3438 12.6914 15.4003 12.7638 15.4396C12.8362 15.4788 12.9171 15.4996 12.9995 15.5C13.0978 15.5011 13.194 15.4714 13.2745 15.415C13.3841 15.3417 13.4603 15.2281 13.4865 15.0988C13.5128 14.9696 13.4869 14.8352 13.4145 14.725L12.8095 13.81C13.4484 13.5834 14.0017 13.1648 14.3937 12.6117C14.7857 12.0586 14.9973 11.3979 14.9995 10.72V9.22001C15.2003 9.06065 15.347 8.84319 15.4196 8.59732C15.4922 8.35145 15.4871 8.08917 15.4051 7.8463C15.323 7.60343 15.168 7.3918 14.9612 7.24033C14.7544 7.08886 14.5058 7.00494 14.2495 7.00001ZM11.4995 4.00001H9.4995C9.4995 3.73479 9.60485 3.48044 9.79239 3.2929C9.97993 3.10537 10.2343 3.00001 10.4995 3.00001C10.7647 3.00001 11.0191 3.10537 11.2066 3.2929C11.3941 3.48044 11.4995 3.73479 11.4995 4.00001ZM1.7495 8.00001H14.2495C14.3158 8.00001 14.3794 8.02635 14.4263 8.07323C14.4732 8.12012 14.4995 8.18371 14.4995 8.25001C14.4995 8.31631 14.4732 8.3799 14.4263 8.42679C14.3794 8.47367 14.3158 8.50001 14.2495 8.50001H1.7495C1.68319 8.50001 1.6196 8.47367 1.57272 8.42679C1.52583 8.3799 1.4995 8.31631 1.4995 8.25001C1.4995 8.18371 1.52583 8.12012 1.57272 8.07323C1.6196 8.02635 1.68319 8.00001 1.7495 8.00001ZM13.9995 10.72C13.9982 11.3243 13.7575 11.9035 13.3302 12.3308C12.9029 12.7581 12.3238 12.9987 11.7195 13H4.2795C3.67521 12.9987 3.09605 12.7581 2.66875 12.3308C2.24145 11.9035 2.00082 11.3243 1.9995 10.72V9.50001H13.9995V10.72Z" fill="#5960D9"/>
</g>
<defs>
<clipPath id="clip0_814_61181">
<rect width="16" height="16" fill="white"/>
</clipPath>
</defs>
</svg>
