<svg width="49" height="49" viewBox="0 0 49 49" fill="none" xmlns="http://www.w3.org/2000/svg">
<g clip-path="url(#clip0_5063_139359)">
<path fill-rule="evenodd" clip-rule="evenodd" d="M16.5491 30.2529C12.304 30.2529 8.86234 33.6935 8.86234 37.9387C8.86234 42.1838 12.3039 45.6255 16.5491 45.6255C20.7943 45.6255 24.2349 42.1839 24.2349 37.9387C24.2349 33.6935 20.7942 30.2529 16.5491 30.2529Z" fill="#FEDA2C"/>
<path fill-rule="evenodd" clip-rule="evenodd" d="M36.3674 24.4492C32.1223 24.4492 28.6817 27.8908 28.6817 32.136C28.6817 36.3801 32.1223 39.8217 36.3674 39.8217C40.6125 39.8217 44.0542 36.3802 44.0542 32.136C44.0542 27.8908 40.6125 24.4492 36.3674 24.4492Z" fill="#FEDA2C"/>
<path fill-rule="evenodd" clip-rule="evenodd" d="M16.5493 32.1367C13.3439 32.1367 10.7461 34.7344 10.7461 37.9389C10.7461 41.1443 13.3438 43.7421 16.5493 43.7421C19.7538 43.7421 22.3525 41.1444 22.3525 37.9389C22.3524 34.7345 19.7538 32.1367 16.5493 32.1367Z" fill="#FCAA17"/>
<path fill-rule="evenodd" clip-rule="evenodd" d="M36.3677 26.333C33.1632 26.333 30.5645 28.9307 30.5645 32.1362C30.5645 35.3407 33.1632 37.9384 36.3677 37.9384C39.5731 37.9384 42.1709 35.3407 42.1709 32.1362C42.1709 28.9307 39.5731 26.333 36.3677 26.333Z" fill="#FCAA17"/>
<path fill-rule="evenodd" clip-rule="evenodd" d="M24.2351 45.7749V47.9743H48.5V45.7749C48.5 44.2591 47.2712 43.0312 45.7563 43.0312H26.9797C25.4638 43.0312 24.2351 44.2591 24.2351 45.7749Z" fill="#713708"/>
<path fill-rule="evenodd" clip-rule="evenodd" d="M11.1165 12.3642L23.2169 24.4645C23.2687 24.4002 31.241 16.3884 31.4268 16.2546L19.3274 4.1543C19.1946 4.34173 11.1809 12.3123 11.1165 12.3642Z" fill="#FEA832"/>
<path fill-rule="evenodd" clip-rule="evenodd" d="M14.2176 15.4648C13.3229 16.3586 13.3142 17.8024 14.1917 18.7077C14.1994 18.7173 14.209 18.727 14.2176 18.7356L16.8796 21.3976C16.8883 21.4063 16.8969 21.4149 16.9065 21.4225C17.8118 22.301 19.2556 22.2923 20.1504 21.3976L14.2176 15.4648Z" fill="#713708"/>
<path fill-rule="evenodd" clip-rule="evenodd" d="M1.79301 28.8561C0.178278 30.1779 0.0573311 32.6058 1.5338 34.0813C2.22597 34.7735 3.12736 35.1142 4.02689 35.1142C5.04351 35.1142 6.0563 34.6784 6.75811 33.8211L16.9053 21.4237C16.8958 21.4161 16.888 21.4065 16.8794 21.3979L14.2173 18.7359C14.2087 18.7272 14.1991 18.7176 14.1914 18.708L1.79301 28.8561ZM3.0804 32.5338C2.53609 31.9895 2.53609 31.1063 3.0804 30.5619C3.62566 30.0167 4.50887 30.0167 5.05318 30.5619C5.59749 31.1062 5.59749 31.9895 5.05318 32.5338C4.50885 33.0781 3.62564 33.0781 3.0804 32.5338Z" fill="#994C0F"/>
<path fill-rule="evenodd" clip-rule="evenodd" d="M8.95783 9.85188C8.06308 10.7466 8.06308 12.1971 8.95783 13.091C9.79305 13.9262 11.1121 13.9818 12.0106 13.258C12.0749 13.2062 12.1374 13.1505 12.1969 13.091L20.0544 5.23436C20.114 5.17483 20.1697 5.11249 20.2215 5.04807C20.9453 4.14854 20.8896 2.82947 20.0544 1.99529C19.6071 1.5479 19.0206 1.32422 18.4349 1.32422C17.8493 1.32422 17.2628 1.5479 16.8154 1.99529L8.95783 9.85188Z" fill="#BF6015"/>
<path fill-rule="evenodd" clip-rule="evenodd" d="M22.3563 23.6036C21.6325 24.5031 21.6882 25.8222 22.5233 26.6564C23.4181 27.5511 24.8686 27.5511 25.7624 26.6564L33.62 18.7998C34.5147 17.905 34.5147 16.4545 33.62 15.5607C33.1726 15.1133 32.587 14.8896 32.0004 14.8896C31.4917 14.8896 30.9838 15.0577 30.5662 15.3936C30.5019 15.4455 30.4404 15.5012 30.3809 15.5607L22.5234 23.4173C22.4638 23.4768 22.4081 23.5393 22.3563 23.6036Z" fill="#BF6015"/>
<path fill-rule="evenodd" clip-rule="evenodd" d="M36.3677 29.666H34.8451C34.527 29.666 34.2691 29.408 34.2691 29.0899C34.2691 28.7718 34.527 28.5139 34.8451 28.5139L35.7917 28.514V28.2576C35.7917 27.9395 36.0496 27.6816 36.3677 27.6816C36.6858 27.6816 36.9437 27.9395 36.9437 28.2576V28.5953C37.2828 28.6919 37.5948 28.8726 37.8528 29.1298C38.2484 29.5268 38.4662 30.0533 38.4662 30.6125C38.4662 31.1723 38.2483 31.6993 37.8514 32.0977C37.4538 32.4938 36.927 32.7121 36.3677 32.7121C36.1148 32.7121 35.8769 32.8107 35.698 32.9897C35.5195 33.1682 35.4212 33.4057 35.4212 33.6586C35.4212 34.1806 35.8458 34.6052 36.3678 34.6052L37.8903 34.6052C38.2084 34.6052 38.4663 34.8631 38.4663 35.1812C38.4663 35.4993 38.2084 35.7572 37.8903 35.7572H36.9438V36.0135C36.9438 36.3316 36.6859 36.5895 36.3678 36.5895C36.0497 36.5895 35.7918 36.3316 35.7918 36.0135V35.6762C34.9139 35.4251 34.2692 34.6161 34.2692 33.6586C34.2692 33.0981 34.4873 32.5713 34.8833 32.1752C35.2799 31.7785 35.8072 31.5601 36.3678 31.5601C36.62 31.5601 36.8581 31.4612 37.0369 31.2831C37.2159 31.1035 37.3143 30.8654 37.3143 30.6125C37.3143 30.3603 37.2158 30.1225 37.0383 29.9444C36.8581 29.7649 36.62 29.666 36.3677 29.666Z" fill="#FEDA2C"/>
<path fill-rule="evenodd" clip-rule="evenodd" d="M16.5493 37.3628C16.8022 37.3628 17.0401 37.2642 17.2192 37.0852C17.3977 36.9067 17.4959 36.6691 17.4959 36.4163C17.4959 36.1634 17.3977 35.9258 17.2193 35.7474C17.0401 35.5683 16.8022 35.4697 16.5494 35.4697H15.0268C14.7087 35.4697 14.4508 35.2118 14.4508 34.8937C14.4508 34.5756 14.7087 34.3176 15.0268 34.3176L15.9734 34.3177V34.0614C15.9734 33.7433 16.2313 33.4854 16.5494 33.4854C16.8675 33.4854 17.1254 33.7433 17.1254 34.0614V34.3989C17.4651 34.4954 17.777 34.6761 18.0338 34.9329C18.4299 35.3288 18.6479 35.8556 18.6479 36.4163C18.6479 36.9767 18.4299 37.5036 18.0338 37.8998C17.637 38.2963 17.1099 38.5148 16.5494 38.5148C16.2965 38.5148 16.0587 38.6134 15.8795 38.7925C15.7011 38.971 15.6029 39.2084 15.6029 39.4614C15.6029 39.9834 16.0275 40.408 16.5494 40.408H18.0719C18.39 40.408 18.6479 40.6659 18.6479 40.984C18.6479 41.3021 18.39 41.56 18.0719 41.56L17.1253 41.5599V41.8172C17.1253 42.1353 16.8674 42.3932 16.5493 42.3932C16.2312 42.3932 15.9733 42.1353 15.9733 41.8172V41.4789C15.0955 41.2279 14.4508 40.4188 14.4508 39.4614C14.4508 38.9007 14.6689 38.3739 15.065 37.978C15.4617 37.5812 15.9888 37.3628 16.5493 37.3628Z" fill="#FEDA2C"/>
</g>
<defs>
<clipPath id="clip0_5063_139359">
<rect width="48" height="48" fill="white" transform="matrix(-1 0 0 1 48.5 0.649414)"/>
</clipPath>
</defs>
</svg>
