<svg width="12" height="12" viewBox="0 0 12 12" fill="none" xmlns="http://www.w3.org/2000/svg">
<g clip-path="url(#clip0_6281_75347)">
<path d="M7.19829 8.15625H4.80171C4.54773 8.15596 4.30424 8.05495 4.12465 7.87535C3.94505 7.69576 3.84404 7.45227 3.84375 7.19829V4.80171C3.84404 4.54773 3.94505 4.30424 4.12465 4.12465C4.30424 3.94505 4.54773 3.84404 4.80171 3.84375H7.19829C7.45227 3.84404 7.69576 3.94505 7.87535 4.12465C8.05495 4.30424 8.15596 4.54773 8.15625 4.80171V7.19829C8.15596 7.45227 8.05495 7.69576 7.87535 7.87535C7.69576 8.05495 7.45227 8.15596 7.19829 8.15625ZM4.80171 4.42969C4.70308 4.4298 4.60852 4.46903 4.53877 4.53877C4.46903 4.60852 4.4298 4.70308 4.42969 4.80171V7.19829C4.4298 7.29692 4.46903 7.39148 4.53877 7.46123C4.60852 7.53097 4.70308 7.5702 4.80171 7.57031H7.19829C7.29692 7.5702 7.39148 7.53097 7.46123 7.46123C7.53097 7.39148 7.5702 7.29692 7.57031 7.19829V4.80171C7.5702 4.70308 7.53097 4.60852 7.46123 4.53877C7.39148 4.46903 7.29692 4.4298 7.19829 4.42969H4.80171Z" fill="#666666"/>
<path d="M0.11741 0.117377C0.080077 0.154509 0.0504784 0.198676 0.0303271 0.247322C0.0101757 0.295968 -0.000128123 0.348128 1.17197e-05 0.400783V2.27449C-0.000334708 2.31326 0.00700218 2.35172 0.0215988 2.38764C0.0361954 2.42355 0.0577625 2.45622 0.0850549 2.48376C0.112347 2.5113 0.144824 2.53316 0.180611 2.54807C0.216397 2.56299 0.254784 2.57067 0.293555 2.57067C0.332326 2.57067 0.370712 2.56299 0.406499 2.54807C0.442285 2.53316 0.474762 2.5113 0.502055 2.48376C0.529347 2.45622 0.550914 2.42355 0.565511 2.38764C0.580107 2.35172 0.587444 2.31326 0.587098 2.27449V1.00221L3.2285 3.64362C3.2837 3.69797 3.35814 3.72831 3.4356 3.72801C3.51307 3.72772 3.58727 3.69681 3.64205 3.64204C3.69683 3.58727 3.72773 3.51306 3.72803 3.4356C3.72833 3.35813 3.698 3.28369 3.64365 3.22849L1.00225 0.587088H2.27453C2.35193 0.586396 2.42592 0.555165 2.4804 0.50019C2.53489 0.445215 2.56546 0.370946 2.56546 0.293545C2.56546 0.216143 2.53489 0.141874 2.4804 0.0868996C2.42592 0.0319247 2.35193 0.000693303 2.27453 1.70361e-06H0.400793C0.348142 -0.000152348 0.295983 0.0101428 0.247339 0.0302908C0.198695 0.0504388 0.154533 0.080039 0.11741 0.117377Z" fill="#666666"/>
<path d="M11.8824 11.8834C11.8453 11.9207 11.8011 11.9503 11.7524 11.9704C11.7038 11.9906 11.6516 12.0009 11.599 12.0008H9.72527C9.6865 12.0011 9.64805 11.9938 9.61213 11.9792C9.57621 11.9646 9.54354 11.943 9.516 11.9157C9.48846 11.8884 9.46661 11.8559 9.45169 11.8202C9.43677 11.7844 9.42909 11.746 9.42909 11.7072C9.42909 11.6684 9.43677 11.63 9.45169 11.5943C9.46661 11.5585 9.48846 11.526 9.516 11.4987C9.54354 11.4714 9.57621 11.4498 9.61213 11.4353C9.64805 11.4207 9.6865 11.4133 9.72527 11.4137H10.9976L8.35614 8.77226C8.32854 8.74508 8.30659 8.7127 8.29156 8.677C8.27652 8.64129 8.26871 8.60296 8.26856 8.56422C8.26841 8.52548 8.27593 8.4871 8.29068 8.45128C8.30544 8.41546 8.32714 8.38291 8.35453 8.35552C8.38192 8.32812 8.41447 8.30642 8.45029 8.29166C8.4861 8.27691 8.52449 8.26939 8.56323 8.26953C8.60197 8.26968 8.6403 8.2775 8.676 8.29253C8.71171 8.30756 8.74409 8.32951 8.77127 8.35711L11.4127 10.9985V9.72623C11.4134 9.64884 11.4446 9.57484 11.4996 9.52036C11.5545 9.46587 11.6288 9.4353 11.7062 9.4353C11.7836 9.4353 11.8579 9.46587 11.9129 9.52036C11.9678 9.57484 11.9991 9.64884 11.9998 9.72623V11.6C11.9999 11.6526 11.9896 11.7048 11.9695 11.7534C11.9493 11.8021 11.9197 11.8462 11.8824 11.8834Z" fill="#666666"/>
<path d="M0.117377 11.8834C0.154509 11.9207 0.198676 11.9503 0.247322 11.9704C0.295968 11.9906 0.348128 12.0009 0.400783 12.0008H2.27449C2.31326 12.0011 2.35172 11.9938 2.38764 11.9792C2.42355 11.9646 2.45622 11.943 2.48376 11.9157C2.5113 11.8884 2.53316 11.8559 2.54807 11.8202C2.56299 11.7844 2.57067 11.746 2.57067 11.7072C2.57067 11.6684 2.56299 11.63 2.54807 11.5943C2.53316 11.5585 2.5113 11.526 2.48376 11.4987C2.45622 11.4714 2.42355 11.4498 2.38764 11.4353C2.35172 11.4207 2.31326 11.4133 2.27449 11.4137H1.00221L3.64362 8.77226C3.67122 8.74508 3.69317 8.7127 3.70821 8.677C3.72324 8.64129 3.73106 8.60296 3.73121 8.56422C3.73136 8.52548 3.72384 8.4871 3.70908 8.45128C3.69433 8.41546 3.67263 8.38291 3.64523 8.35552C3.61784 8.32812 3.5853 8.30642 3.54948 8.29166C3.51366 8.27691 3.47527 8.26939 3.43653 8.26953C3.39779 8.26968 3.35947 8.2775 3.32376 8.29253C3.28805 8.30756 3.25568 8.32951 3.22849 8.35711L0.587088 10.9985V9.72623C0.586396 9.64884 0.555165 9.57484 0.50019 9.52036C0.445215 9.46587 0.370946 9.4353 0.293545 9.4353C0.216143 9.4353 0.141874 9.46587 0.0868996 9.52036C0.0319247 9.57484 0.000693303 9.64884 1.70361e-06 9.72623V11.6C-0.000152348 11.6526 0.0101428 11.7048 0.0302908 11.7534C0.0504388 11.8021 0.080039 11.8462 0.117377 11.8834Z" fill="#666666"/>
<path d="M11.8824 0.117377C11.9197 0.154509 11.9493 0.198676 11.9695 0.247322C11.9896 0.295968 11.9999 0.348128 11.9998 0.400783V2.27449C12.0001 2.31326 11.9928 2.35172 11.9782 2.38764C11.9636 2.42355 11.942 2.45622 11.9147 2.48376C11.8874 2.5113 11.855 2.53316 11.8192 2.54807C11.7834 2.56299 11.745 2.57067 11.7062 2.57067C11.6675 2.57067 11.6291 2.56299 11.5933 2.54807C11.5575 2.53316 11.525 2.5113 11.4977 2.48376C11.4704 2.45622 11.4489 2.42355 11.4343 2.38764C11.4197 2.35172 11.4123 2.31326 11.4127 2.27449V1.00221L8.77128 3.64362C8.7441 3.67122 8.71172 3.69317 8.67602 3.70821C8.64031 3.72324 8.60199 3.73106 8.56325 3.73121C8.52451 3.73136 8.48612 3.72384 8.4503 3.70908C8.41448 3.69433 8.38193 3.67263 8.35454 3.64523C8.32715 3.61784 8.30544 3.5853 8.29069 3.54948C8.27593 3.51366 8.26841 3.47527 8.26856 3.43653C8.2687 3.39779 8.27652 3.35947 8.29155 3.32376C8.30658 3.28805 8.32853 3.25568 8.35613 3.22849L10.9975 0.587088H9.72526C9.64786 0.586396 9.57387 0.555165 9.51938 0.50019C9.4649 0.445215 9.43433 0.370946 9.43433 0.293545C9.43433 0.216143 9.4649 0.141874 9.51938 0.0868996C9.57387 0.0319247 9.64786 0.000693303 9.72526 1.70361e-06H11.599C11.6516 -0.000152348 11.7038 0.0101428 11.7524 0.0302908C11.8011 0.0504388 11.8453 0.080039 11.8824 0.117377Z" fill="#666666"/>
</g>
<defs>
<clipPath id="clip0_6281_75347">
<rect width="12" height="12" fill="white"/>
</clipPath>
</defs>
</svg>
