<svg width="18" height="18" viewBox="0 0 18 18" fill="none" xmlns="http://www.w3.org/2000/svg">
<rect width="18" height="18" fill="#FFF8E5"/>
<path d="M12.375 14.8125H5.625C5.0625 14.8125 4.65 14.79 4.2975 14.7375C1.8075 14.4675 1.3125 12.975 1.3125 10.5V7.5C1.3125 5.025 1.8075 3.5325 4.32 3.255C4.65 3.21 5.0625 3.1875 5.625 3.1875H12.375C12.9375 3.1875 13.35 3.21 13.7025 3.2625C16.2 3.54 16.6875 5.025 16.6875 7.5V10.5C16.6875 12.975 16.1925 14.4675 13.68 14.745C13.35 14.79 12.9375 14.8125 12.375 14.8125ZM5.625 4.3125C5.115 4.3125 4.755 4.335 4.4625 4.3725C2.94 4.545 2.4375 5.0175 2.4375 7.5V10.5C2.4375 12.9825 2.94 13.455 4.44 13.6275C4.755 13.6725 5.115 13.6875 5.625 13.6875H12.375C12.885 13.6875 13.245 13.665 13.5375 13.6275C15.06 13.4625 15.5625 12.9825 15.5625 10.5V7.5C15.5625 5.0175 15.06 4.545 13.56 4.3725C13.245 4.3275 12.885 4.3125 12.375 4.3125H5.625Z" fill="#F7B600"/>
<path d="M14.625 2.0625H3.375C3.0675 2.0625 2.8125 1.8075 2.8125 1.5C2.8125 1.1925 3.0675 0.9375 3.375 0.9375H14.625C14.9325 0.9375 15.1875 1.1925 15.1875 1.5C15.1875 1.8075 14.9325 2.0625 14.625 2.0625Z" fill="#F7B600"/>
<path d="M15 17.0625H3.75C3.4425 17.0625 3.1875 16.8075 3.1875 16.5C3.1875 16.1925 3.4425 15.9375 3.75 15.9375H15C15.3075 15.9375 15.5625 16.1925 15.5625 16.5C15.5625 16.8075 15.3075 17.0625 15 17.0625Z" fill="#F7B600"/>
</svg>
