<svg width="20" height="20" viewBox="0 0 20 20" fill="none" xmlns="http://www.w3.org/2000/svg">
<path fill-rule="evenodd" clip-rule="evenodd" d="M16.2499 5.20797C16.4157 5.20797 16.5747 5.27382 16.6919 5.39103C16.8091 5.50824 16.8749 5.66721 16.8749 5.83297C16.8749 7.70297 16.0816 8.93297 15.0524 9.67381C14.0558 10.3913 12.8774 10.6246 12.0833 10.6246H5.25827L8.35827 13.7246C8.41968 13.7819 8.46893 13.8509 8.50309 13.9275C8.53725 14.0042 8.55562 14.087 8.5571 14.1709C8.55858 14.2548 8.54314 14.3381 8.51171 14.416C8.48027 14.4938 8.43349 14.5645 8.37414 14.6238C8.31479 14.6832 8.24409 14.73 8.16627 14.7614C8.08845 14.7928 8.00509 14.8083 7.92117 14.8068C7.83725 14.8053 7.75449 14.787 7.67782 14.7528C7.60116 14.7186 7.53216 14.6694 7.47494 14.608L3.30827 10.4413C3.19123 10.3241 3.12549 10.1653 3.12549 9.99964C3.12549 9.83401 3.19123 9.67516 3.30827 9.55797L7.47494 5.39131C7.53216 5.3299 7.60116 5.28065 7.67782 5.24649C7.75449 5.21233 7.83725 5.19396 7.92117 5.19248C8.00509 5.191 8.08845 5.20644 8.16627 5.23787C8.24409 5.2693 8.31479 5.31609 8.37414 5.37544C8.43349 5.43479 8.48027 5.50548 8.51171 5.58331C8.54314 5.66113 8.55858 5.74449 8.5571 5.82841C8.55562 5.91233 8.53725 5.99509 8.50309 6.07175C8.46893 6.14842 8.41968 6.21742 8.35827 6.27464L5.25827 9.37464H12.0833C12.6774 9.37464 13.5833 9.19131 14.3224 8.65881C15.0291 8.15047 15.6249 7.29631 15.6249 5.83297C15.6249 5.66721 15.6908 5.50824 15.808 5.39103C15.9252 5.27382 16.0842 5.20797 16.2499 5.20797Z" fill="#053396"/>
</svg>
