<svg width="12" height="12" viewBox="0 0 12 12" fill="none" xmlns="http://www.w3.org/2000/svg">
<path fill-rule="evenodd" clip-rule="evenodd" d="M6 1C8.7615 1 11 3.2385 11 6C11 8.7615 8.7615 11 6 11C3.2385 11 1 8.7615 1 6C1 3.2385 3.2385 1 6 1ZM2.1025 6.905C2.27748 7.65619 2.66564 8.34087 3.22036 8.87678C3.77507 9.41269 4.47273 9.77702 5.2295 9.926C5.133 8.6135 4.7015 7.826 4.1565 7.3905C3.6345 6.973 2.9265 6.8115 2.1025 6.9045V6.905ZM7.8435 7.39C7.2985 7.8265 6.867 8.6135 6.7705 9.926C7.52734 9.77698 8.22504 9.41258 8.77976 8.87657C9.33448 8.34057 9.72261 7.65578 9.8975 6.9045C9.0735 6.8115 8.3655 6.973 7.8435 7.3905V7.39ZM6 2C5.06809 2.00012 4.16544 2.32551 3.44779 2.92002C2.73015 3.51453 2.2425 4.34088 2.069 5.2565L2.0475 5.3805L3.1525 5.1595C3.4435 5.1015 3.72 4.948 4.029 4.7395L4.2675 4.5735C4.666 4.2905 5.2565 4 6 4C6.694 4 7.2545 4.253 7.65 4.517L7.971 4.7395C8.241 4.922 8.487 5.062 8.739 5.1335L8.8475 5.1595L9.9525 5.3805C9.80461 4.43846 9.32513 3.58022 8.60046 2.96042C7.87579 2.34062 6.95357 2.00002 6 2Z" fill="#F7B600"/>
</svg>
