<svg width="16" height="16" viewBox="0 0 16 16" fill="none" xmlns="http://www.w3.org/2000/svg">
<g clip-path="url(#clip0_814_61212)">
<path d="M13.7331 3.83681L13.7331 3.83684L13.7346 3.83536C13.7878 3.78211 13.8492 3.69495 13.8492 3.6C13.8492 3.51453 13.8204 3.4225 13.7303 3.36068L12.1838 1.93887C12.1238 1.8794 12.0363 1.85 11.9742 1.85H9.47422V0.275C9.47422 0.0973856 9.32683 -0.05 9.14922 -0.05H6.94922C6.7716 -0.05 6.62422 0.0973859 6.62422 0.275V1.825H4.49922C4.3216 1.825 4.17422 1.97239 4.17422 2.15V5C4.17422 5.17761 4.3216 5.325 4.49922 5.325H6.62422V5.825H4.02422C3.98088 5.825 3.94254 5.83228 3.90704 5.84806C3.87208 5.8636 3.84236 5.88627 3.81463 5.91388L2.26538 7.33819L2.26535 7.33816L2.26386 7.33964C2.21062 7.39289 2.14922 7.48005 2.14922 7.575C2.14922 7.66047 2.17803 7.7525 2.26811 7.81432L3.81464 9.23613C3.87461 9.2956 3.96212 9.325 4.02422 9.325H6.59922V15.7C6.59922 15.8776 6.7466 16.025 6.92422 16.025H9.12422C9.30183 16.025 9.44922 15.8776 9.44922 15.7V9.35H13.4992C13.6768 9.35 13.8242 9.20261 13.8242 9.025V6.17894C13.8521 5.99547 13.6985 5.85 13.5242 5.85H9.47422V5.35H11.9742C12.0176 5.35 12.0559 5.34272 12.0914 5.32694C12.1264 5.3114 12.1561 5.28872 12.1838 5.26112L13.7331 3.83681ZM7.27422 0.6H8.82422V1.825H7.27422V0.6ZM4.82422 2.475H6.94922H9.14922H11.8297L13.0254 3.575L11.8297 4.675H9.14922H6.94922H4.82422V2.475ZM7.27422 5.35H8.82422V5.85H7.27422V5.35ZM8.82422 15.4H7.27422V9.35H8.82422V15.4ZM13.1992 8.7H9.14922H6.94922H4.16872L2.97307 7.6L4.16872 6.5H6.94922H9.14922H13.1992V8.7Z" fill="#5960D9" stroke="#5960D9" stroke-width="0.1"/>
<path d="M7.67461 7.6002C7.67461 7.77781 7.822 7.9252 7.99961 7.9252H12.4246C12.6022 7.9252 12.7496 7.77781 12.7496 7.6002C12.7496 7.42258 12.6022 7.2752 12.4246 7.2752H7.99961C7.822 7.2752 7.67461 7.42258 7.67461 7.6002Z" fill="#5960D9" stroke="#5960D9" stroke-width="0.1"/>
<path d="M6.37383 7.2752H5.82383C5.64621 7.2752 5.49883 7.42258 5.49883 7.6002C5.49883 7.77781 5.64621 7.9252 5.82383 7.9252H6.37383C6.55144 7.9252 6.69883 7.77781 6.69883 7.6002C6.69883 7.42258 6.55144 7.2752 6.37383 7.2752Z" fill="#5960D9" stroke="#5960D9" stroke-width="0.1"/>
<path d="M8.325 3.5748C8.325 3.39719 8.17761 3.2498 8 3.2498H5.275C5.09739 3.2498 4.95 3.39719 4.95 3.5748C4.95 3.75242 5.09739 3.8998 5.275 3.8998H8C8.17761 3.8998 8.325 3.75242 8.325 3.5748Z" fill="#5960D9" stroke="#5960D9" stroke-width="0.1"/>
<path d="M10.5484 3.8998H11.0984C11.2761 3.8998 11.4234 3.75242 11.4234 3.5748C11.4234 3.39719 11.2761 3.2498 11.0984 3.2498H10.5484C10.3708 3.2498 10.2234 3.39719 10.2234 3.5748C10.2234 3.75242 10.3708 3.8998 10.5484 3.8998Z" fill="#5960D9" stroke="#5960D9" stroke-width="0.1"/>
</g>
<defs>
<clipPath id="clip0_814_61212">
<rect width="16" height="16" fill="white"/>
</clipPath>
</defs>
</svg>
