<svg width="16" height="16" viewBox="0 0 16 16" fill="none" xmlns="http://www.w3.org/2000/svg">
<path fill-rule="evenodd" clip-rule="evenodd" d="M5.99992 3.33366C5.99992 2.96547 6.2984 2.66699 6.66659 2.66699H9.33325C9.70144 2.66699 9.99992 2.96547 9.99992 3.33366C9.99992 3.70185 9.70144 4.00033 9.33325 4.00033H8.66659V4.66699H8.92125C9.1688 4.66712 9.41178 4.73617 9.62231 4.8664C9.83284 4.99662 10.003 5.18289 10.1136 5.40433L11.0788 7.33335L11.3333 7.33366V6.66699C11.3333 6.2988 11.6317 6.00033 11.9999 6.00033H13.3333C13.6869 6.00033 14.026 6.1408 14.2761 6.39085C14.5261 6.6409 14.6666 6.98004 14.6666 7.33366V11.3337C14.6666 11.6873 14.5261 12.0264 14.2761 12.2765C14.026 12.5265 13.6869 12.667 13.3333 12.667H11.9999C11.6317 12.667 11.3333 12.3685 11.3333 12.0003V11.3337H10.6666V12.0003C10.6666 12.3539 10.5261 12.6931 10.2761 12.9431C10.026 13.1932 9.68687 13.3337 9.33325 13.3337H7.02335C7.02332 13.3337 7.02339 13.3337 7.02335 13.3337C6.80393 13.3337 6.58779 13.2795 6.39431 13.1761C6.20079 13.0725 6.03582 12.9229 5.91402 12.7403L4.97642 11.3337H3.99992C3.63173 11.3337 3.33325 11.0352 3.33325 10.667V9.33366H2.66659V10.667C2.66659 11.0352 2.36811 11.3337 1.99992 11.3337C1.63173 11.3337 1.33325 11.0352 1.33325 10.667V6.66699C1.33325 6.2988 1.63173 6.00033 1.99992 6.00033C2.36811 6.00033 2.66659 6.2988 2.66659 6.66699V8.00033H3.33325V6.66699C3.33325 6.2988 3.63173 6.00033 3.99992 6.00033H5.05711L6.19518 4.86225C6.32021 4.73723 6.48977 4.66699 6.66659 4.66699H7.33325V4.00033H6.66659C6.2984 4.00033 5.99992 3.70185 5.99992 3.33366ZM6.94273 6.00033L5.80466 7.1384C5.67963 7.26342 5.51006 7.33366 5.33325 7.33366H4.66659V10.0003H5.33325C5.55618 10.0003 5.76435 10.1117 5.88799 10.2972L7.02315 12.0003H9.33325V10.667C9.33325 10.2988 9.63173 10.0003 9.99992 10.0003H11.9999C12.3681 10.0003 12.6666 10.2988 12.6666 10.667V11.3337H13.3333V7.33366H12.6666V8.00033C12.6666 8.36852 12.3681 8.66699 11.9999 8.66699H11.0786C10.831 8.66686 10.5881 8.59781 10.3775 8.46759C10.167 8.33736 9.99688 8.1511 9.88623 7.92966L8.92105 6.00063L6.94273 6.00033Z" fill="#5960D9"/>
</svg>
