<svg width="49" height="48" viewBox="0 0 49 48" fill="none" xmlns="http://www.w3.org/2000/svg">
<g clip-path="url(#clip0_5381_72018)">
<path fill-rule="evenodd" clip-rule="evenodd" d="M4.63137 32.2979C4.21094 32.2979 3.87012 31.957 3.87012 31.5366V27.6837V15.1617C3.87012 14.7412 4.21097 14.4004 4.63137 14.4004C5.05176 14.4004 5.39261 14.7413 5.39261 15.1617V26.9224H8.12578C10.0998 26.7004 15.8682 31.8398 15.7998 31.8004C15.7998 31.8004 17.2694 32.4508 17.2998 32.7004L4.63137 32.2979ZM8.12578 26.9224L34.0213 26.9224V31.5367C34.0213 31.8028 34.0647 32.0587 34.1449 32.2979L17.2998 32.7004C15.5719 31.7319 15.795 31.7197 15.7998 31.8004C15.7998 31.8004 11.0719 26.9224 8.12578 26.9224Z" fill="#304859"/>
<path fill-rule="evenodd" clip-rule="evenodd" d="M8.89993 28.8004L8.8999 15.3089C8.8999 14.8072 9.16856 14.4004 9.4999 14.4004C9.83125 14.4004 10.0999 14.8072 10.0999 15.3089V27.8377C9.6688 28.0749 9.26562 28.4006 8.89993 28.8004Z" fill="#304859"/>
<path fill-rule="evenodd" clip-rule="evenodd" d="M14.3001 27.9255L14.3 15.3215C14.3 14.8128 14.5687 14.4004 14.9 14.4004C15.2314 14.4004 15.5 14.8129 15.5 15.3215V28.8004C15.1312 28.4304 14.7283 28.1341 14.3001 27.9255Z" fill="#304859"/>
<path fill-rule="evenodd" clip-rule="evenodd" d="M20.5252 28.4449C20.1048 28.4449 19.7639 28.1041 19.7639 27.6837V15.1617C19.7639 14.7412 20.1048 14.4004 20.5252 14.4004C20.9456 14.4004 21.2864 14.7413 21.2864 15.1617V27.6836C21.2865 28.1041 20.9456 28.4449 20.5252 28.4449Z" fill="#304859"/>
<path fill-rule="evenodd" clip-rule="evenodd" d="M26.063 28.4449C25.6426 28.4449 25.3018 28.1041 25.3018 27.6837L25.3018 21.4227L25.3018 15.1617C25.3018 14.7412 25.6426 14.4004 26.063 14.4004C26.4834 14.4004 26.8243 14.7413 26.8243 15.1617V27.6836C26.8243 28.1041 26.4834 28.4449 26.063 28.4449Z" fill="#304859"/>
<path fill-rule="evenodd" clip-rule="evenodd" d="M31.6011 28.4449C31.1807 28.4449 30.8398 28.1041 30.8398 27.6837V15.1617C30.8398 14.7412 31.1807 14.4004 31.6011 14.4004C32.0215 14.4004 32.3624 14.7413 32.3624 15.1617V27.6836C32.3624 28.1041 32.0215 28.4449 31.6011 28.4449Z" fill="#304859"/>
<path fill-rule="evenodd" clip-rule="evenodd" d="M34.0213 23.628H4.63137C4.21094 23.628 3.87012 23.2871 3.87012 22.8667C3.87012 22.4464 4.21097 22.1055 4.63137 22.1055L34.0213 22.1055V23.628Z" fill="#304859"/>
<path fill-rule="evenodd" clip-rule="evenodd" d="M34.0213 18.8135H4.63137C4.21094 18.8135 3.87012 18.4727 3.87012 18.0523C3.87012 17.6319 4.21097 17.291 4.63137 17.291L34.0213 17.291V18.8135Z" fill="#304859"/>
<path d="M31.3463 29.3633H5.39209V31.8892H31.3463V29.3633Z" fill="#3A556A"/>
<path d="M38.9 16.8008H33.5V28.8008H38.9V16.8008Z" fill="#2F4859"/>
<path d="M48.5 20.3306V32.5283C48.5 33.3346 47.8409 33.9938 47.0345 33.9938H2.90921C2.1732 33.9938 1.57812 33.3986 1.57812 32.6627C1.57812 31.9268 2.17331 31.3251 2.90921 31.3251H36.6223V16.4141H44.5706C45.8825 16.4141 47.0409 17.0604 47.7512 18.0395C48.2183 18.6859 48.5 19.4795 48.5 20.3306Z" fill="#E56353"/>
<path d="M23.6926 33.2993C23.6926 35.3183 22.0541 36.9567 20.0352 36.9567C18.0162 36.9567 16.3823 35.3183 16.3823 33.2993C16.3823 31.2802 18.0161 29.6465 20.0352 29.6465C22.0541 29.6464 23.6926 31.2802 23.6926 33.2993Z" fill="#2F4859"/>
<path d="M22.4731 33.2991C22.4731 34.6445 21.3813 35.7362 20.0361 35.7362C18.6907 35.7362 17.6021 34.6445 17.6021 33.2991C17.6021 31.9538 18.6907 30.8652 20.0361 30.8652C21.3814 30.8652 22.4731 31.9538 22.4731 33.2991Z" fill="#64798A"/>
<path d="M20.6576 33.1391L22.3307 34.1257C22.2781 34.2679 22.2132 34.4071 22.1358 34.537L20.5895 33.6278L21.075 35.505C20.9389 35.57 20.7967 35.6226 20.6482 35.6597L20.1967 33.9216L19.2132 35.5917C19.0679 35.5421 18.9287 35.4773 18.7988 35.3999L19.7081 33.8566L17.8339 34.3391C17.7689 34.203 17.7164 34.0607 17.6792 33.9123L19.4174 33.4608L17.7473 32.4773C17.7968 32.3319 17.8617 32.1928 17.939 32.0629L19.4823 32.9753L18.9967 31.098C19.1328 31.033 19.2781 30.9805 19.4266 30.9434L19.875 32.6784L20.8584 31.0083C21.0038 31.0609 21.1399 31.1259 21.2729 31.2032L20.3605 32.7495L22.2378 32.2608C22.3059 32.3969 22.3584 32.5423 22.3955 32.6907L20.6576 33.1391Z" fill="#EBF0F3"/>
<path d="M46.4616 33.2993C46.4616 35.3183 44.8232 36.9567 42.8042 36.9567C40.7852 36.9567 39.1514 35.3183 39.1514 33.2993C39.1514 31.2802 40.7851 29.6465 42.8042 29.6465C44.8232 29.6464 46.4616 31.2802 46.4616 33.2993Z" fill="#2F4859"/>
<path d="M45.2419 33.2991C45.2419 34.6445 44.1501 35.7362 42.8049 35.7362C41.4595 35.7362 40.3708 34.6445 40.3708 33.2991C40.3708 31.9538 41.4595 30.8652 42.8049 30.8652C44.1501 30.8652 45.2419 31.9538 45.2419 33.2991Z" fill="#64798A"/>
<path d="M43.4264 33.1391L45.0995 34.1257C45.0469 34.2679 44.982 34.4071 44.9046 34.537L43.3583 33.6278L43.8438 35.505C43.7077 35.57 43.5655 35.6226 43.417 35.6597L42.9655 33.9216L41.982 35.5917C41.8367 35.5421 41.6975 35.4773 41.5676 35.3999L42.4769 33.8566L40.6027 34.3391C40.5377 34.203 40.4852 34.0607 40.448 33.9123L42.1862 33.4608L40.5161 32.4773C40.5656 32.3319 40.6305 32.1928 40.7078 32.0629L42.2511 32.9753L41.7655 31.098C41.9016 31.033 42.0469 30.9805 42.1954 30.9434L42.6438 32.6784L43.6272 31.0083C43.7726 31.0609 43.9087 31.1259 44.0417 31.2032L43.1293 32.7495L45.0066 32.2608C45.0747 32.3969 45.1272 32.5423 45.1643 32.6907L43.4264 33.1391Z" fill="#EBF0F3"/>
<path d="M15.1433 33.2993C15.1433 35.3183 13.5048 36.9567 11.4859 36.9567C9.46686 36.9567 7.83301 35.3183 7.83301 33.2993C7.83301 31.2802 9.46676 29.6465 11.4859 29.6465C13.5048 29.6464 15.1433 31.2802 15.1433 33.2993Z" fill="#2F4859"/>
<path d="M13.9237 33.2991C13.9237 34.6445 12.832 35.7362 11.4868 35.7362C10.1414 35.7362 9.05273 34.6445 9.05273 33.2991C9.05273 31.9538 10.1414 30.8652 11.4868 30.8652C12.832 30.8652 13.9237 31.9538 13.9237 33.2991Z" fill="#64798A"/>
<path d="M12.1082 33.1391L13.7813 34.1257C13.7288 34.2679 13.6639 34.4071 13.5865 34.537L12.0402 33.6278L12.5257 35.505C12.3896 35.57 12.2474 35.6226 12.0989 35.6597L11.6474 33.9216L10.6639 35.5917C10.5186 35.5421 10.3794 35.4773 10.2495 35.3999L11.1587 33.8566L9.28455 34.3391C9.21956 34.203 9.16709 34.0607 9.12988 33.9123L10.8681 33.4608L9.19794 32.4773C9.24744 32.3319 9.31242 32.1928 9.3897 32.0629L10.933 32.9753L10.4473 31.098C10.5834 31.033 10.7288 30.9805 10.8773 30.9434L11.3257 32.6784L12.3091 31.0083C12.4545 31.0609 12.5906 31.1259 12.7236 31.2032L11.8112 32.7495L13.6885 32.2608C13.7565 32.3969 13.8091 32.5423 13.8462 32.6907L12.1082 33.1391Z" fill="#EBF0F3"/>
<path d="M44.9054 23.9609C45.056 23.9609 45.1782 24.0831 45.1782 24.2338V25.3342C44.2136 24.8029 43.3226 24.8356 42.4888 25.3342V24.2338C42.4888 24.0831 42.6109 23.9609 42.7616 23.9609H44.9054Z" fill="#64798A"/>
<path d="M48.497 20.3319V22.7924H41.1807V18.043H47.7531C48.219 18.6888 48.497 19.4817 48.497 20.3319Z" fill="#27A2DB"/>
<path d="M37.2942 11.7676V15.8473H45.507C45.507 14.7266 45.046 13.7027 43.7861 12.9609C42.5261 12.2272 40.4671 11.7676 37.2942 11.7676Z" fill="#E56353"/>
<path d="M7.1001 26.9199H16.0462L16.1001 29.3996H7.1001V26.9199Z" fill="#304859"/>
</g>
<defs>
<clipPath id="clip0_5381_72018">
<rect width="48" height="48" fill="white" transform="translate(0.5)"/>
</clipPath>
</defs>
</svg>
