<svg width="16" height="16" viewBox="0 0 16 16" fill="none" xmlns="http://www.w3.org/2000/svg">
<path d="M10.7935 1.33398H5.20683C2.78016 1.33398 1.3335 2.78065 1.3335 5.20732V10.794C1.3335 13.2207 2.78016 14.6673 5.20683 14.6673H10.7935C13.2202 14.6673 14.6668 13.2207 14.6668 10.794V5.20732C14.6668 2.78065 13.2202 1.33398 10.7935 1.33398ZM6.64683 9.93398L5.14683 11.434C5.04683 11.534 4.92016 11.5807 4.7935 11.5807C4.66683 11.5807 4.5335 11.534 4.44016 11.434L3.94016 10.934C3.74016 10.7407 3.74016 10.4207 3.94016 10.2273C4.1335 10.034 4.44683 10.034 4.64683 10.2273L4.7935 10.374L5.94016 9.22732C6.1335 9.03398 6.44683 9.03398 6.64683 9.22732C6.84016 9.42065 6.84016 9.74065 6.64683 9.93398ZM6.64683 5.26732L5.14683 6.76732C5.04683 6.86732 4.92016 6.91398 4.7935 6.91398C4.66683 6.91398 4.5335 6.86732 4.44016 6.76732L3.94016 6.26732C3.74016 6.07398 3.74016 5.75398 3.94016 5.56065C4.1335 5.36732 4.44683 5.36732 4.64683 5.56065L4.7935 5.70732L5.94016 4.56065C6.1335 4.36732 6.44683 4.36732 6.64683 4.56065C6.84016 4.75398 6.84016 5.07398 6.64683 5.26732ZM11.7068 11.0807H8.20683C7.9335 11.0807 7.70683 10.854 7.70683 10.5807C7.70683 10.3073 7.9335 10.0807 8.20683 10.0807H11.7068C11.9868 10.0807 12.2068 10.3073 12.2068 10.5807C12.2068 10.854 11.9868 11.0807 11.7068 11.0807ZM11.7068 6.41398H8.20683C7.9335 6.41398 7.70683 6.18732 7.70683 5.91398C7.70683 5.64065 7.9335 5.41398 8.20683 5.41398H11.7068C11.9868 5.41398 12.2068 5.64065 12.2068 5.91398C12.2068 6.18732 11.9868 6.41398 11.7068 6.41398Z" fill="#5960D9"/>
</svg>
