<svg width="50" height="26" viewBox="0 0 50 26" fill="none" xmlns="http://www.w3.org/2000/svg">
<path d="M14.0291 17.378C13.6991 17.4664 13.352 17.266 13.2636 16.936L12.1852 12.9113C12.0968 12.5813 12.2971 12.2343 12.6271 12.1459C12.9572 12.0574 13.3042 12.2578 13.3926 12.5878L14.471 16.6125C14.5594 16.9425 14.3591 17.2895 14.0291 17.378Z" fill="#8387E2"/>
<path d="M15.4539 14.8393L11.4292 15.9177C11.0992 16.0061 10.7521 15.8058 10.6637 15.4758C10.5753 15.1457 10.7756 14.7987 11.1057 14.7103L15.1303 13.6319C15.4604 13.5435 15.8074 13.7438 15.8958 14.0738C15.9842 14.4039 15.7839 14.7509 15.4539 14.8393Z" fill="#8387E2"/>
<path d="M19.1909 20.7392L11.1415 22.8961C7.59177 23.8472 6.22414 23.0576 5.27298 19.5079L3.11615 11.4585C2.16499 7.9087 2.95459 6.54106 6.50437 5.5899L7.71178 5.26638C9.12042 4.88894 9.68608 5.22912 10.4501 5.82674L12.0889 7.11309C12.4494 7.39609 12.5026 7.4336 13.0017 7.29988L15.4165 6.65283C18.9663 5.70167 20.3339 6.49127 21.2851 10.0411L22.5791 14.8707C23.5303 18.4205 22.7407 19.7881 19.1909 20.7392ZM6.8279 6.79731C3.95427 7.5673 3.55357 8.26132 4.32356 11.1349L6.48038 19.1843C7.25037 22.058 7.94439 22.4587 10.818 21.6887L18.8674 19.5318C21.741 18.7619 22.1417 18.0678 21.3717 15.1942L20.0776 10.3646C19.3077 7.49095 18.6136 7.09025 15.74 7.86024L13.3252 8.50729C12.2949 8.78336 11.8619 8.51977 11.3171 8.09636L9.67831 6.81C9.11092 6.36675 8.94488 6.23007 8.0353 6.47379L6.8279 6.79731Z" fill="#8387E2"/>
<path d="M38.2184 21.9674L33.8717 20.8027C29.938 19.7486 28.7326 17.5242 29.8452 13.3719L31.0746 8.78378C32.1872 4.63151 34.3433 3.30777 38.277 4.36181L41.8993 5.33238C42.1963 5.41197 42.3729 5.73796 42.2889 6.05148C42.2049 6.36501 41.8889 6.559 41.5919 6.47942L37.9697 5.50884C34.63 4.61398 33.1059 5.54972 32.1613 9.07495L30.9319 13.6631C29.9873 17.1883 30.8394 18.7608 34.1791 19.6556L38.5257 20.8203C41.8654 21.7152 43.3896 20.7794 44.3341 17.2542L45.3586 13.4308C45.4426 13.1172 45.7586 12.9232 46.0556 13.0028C46.3527 13.0824 46.5293 13.4084 46.4453 13.7219L45.4208 17.5454C44.3082 21.6977 42.1521 23.0214 38.2184 21.9674Z" fill="#8387E2"/>
<path d="M45.7481 14.1504L42.8503 13.374C40.3727 12.7101 39.6818 11.4349 40.3825 8.81963L41.2021 5.76087C41.2636 5.53146 41.4513 5.35229 41.6767 5.32252C41.9042 5.28511 42.1216 5.40076 42.238 5.60405L46.3944 13.2745C46.5035 13.4758 46.4865 13.7418 46.3422 13.9326C46.1979 14.1234 45.9655 14.2086 45.7481 14.1504ZM41.9179 7.43613L41.4692 9.1108C40.9405 11.0837 41.2886 11.7261 43.1577 12.2269L44.7442 12.652L41.9179 7.43613Z" fill="#8387E2"/>
</svg>
