<svg width="16" height="16" viewBox="0 0 16 16" fill="none" xmlns="http://www.w3.org/2000/svg">
<path d="M2.66675 14C2.11119 14 1.63897 13.8056 1.25008 13.4167C0.861192 13.0278 0.666748 12.5556 0.666748 12C0.666748 11.5667 0.791859 11.1778 1.04208 10.8333C1.2923 10.4889 1.61164 10.25 2.00008 10.1167V5.88333C1.61119 5.75 1.29186 5.51111 1.04208 5.16667C0.792304 4.82222 0.667192 4.43333 0.666748 4C0.666748 3.44444 0.861192 2.97222 1.25008 2.58333C1.63897 2.19444 2.11119 2 2.66675 2C3.2223 2 3.69453 2.19444 4.08341 2.58333C4.4723 2.97222 4.66675 3.44444 4.66675 4C4.66675 4.43333 4.54186 4.82222 4.29208 5.16667C4.0423 5.51111 3.72275 5.75 3.33341 5.88333V7.33333H7.33341V5.88333C6.94453 5.75 6.62519 5.51111 6.37541 5.16667C6.12564 4.82222 6.00053 4.43333 6.00008 4C6.00008 3.44444 6.19453 2.97222 6.58341 2.58333C6.9723 2.19444 7.44453 2 8.00008 2C8.55564 2 9.02786 2.19444 9.41675 2.58333C9.80564 2.97222 10.0001 3.44444 10.0001 4C10.0001 4.43333 9.87519 4.82222 9.62541 5.16667C9.37564 5.51111 9.05608 5.75 8.66675 5.88333V7.33333H12.0001C12.189 7.33333 12.3474 7.26956 12.4754 7.142C12.6034 7.01444 12.6672 6.856 12.6667 6.66667V5.88333C12.2779 5.75 11.9585 5.51111 11.7087 5.16667C11.459 4.82222 11.3339 4.43333 11.3334 4C11.3334 3.44444 11.5279 2.97222 11.9167 2.58333C12.3056 2.19444 12.7779 2 13.3334 2C13.889 2 14.3612 2.19444 14.7501 2.58333C15.139 2.97222 15.3334 3.44444 15.3334 4C15.3334 4.43333 15.2085 4.82222 14.9587 5.16667C14.709 5.51111 14.3894 5.75 14.0001 5.88333V6.66667C14.0001 7.22222 13.8056 7.69444 13.4167 8.08333C13.0279 8.47222 12.5556 8.66667 12.0001 8.66667H8.66675V10.1167C9.05564 10.25 9.37519 10.4889 9.62541 10.8333C9.87564 11.1778 10.0005 11.5667 10.0001 12C10.0001 12.5556 9.80564 13.0278 9.41675 13.4167C9.02786 13.8056 8.55564 14 8.00008 14C7.44453 14 6.9723 13.8056 6.58341 13.4167C6.19453 13.0278 6.00008 12.5556 6.00008 12C6.00008 11.5667 6.12519 11.1778 6.37541 10.8333C6.62564 10.4889 6.94497 10.25 7.33341 10.1167V8.66667H3.33341V10.1167C3.7223 10.25 4.04186 10.4889 4.29208 10.8333C4.5423 11.1778 4.66719 11.5667 4.66675 12C4.66675 12.5556 4.4723 13.0278 4.08341 13.4167C3.69453 13.8056 3.2223 14 2.66675 14ZM2.66675 12.6667C2.85564 12.6667 3.01408 12.6027 3.14208 12.4747C3.27008 12.3467 3.33386 12.1884 3.33341 12C3.33297 11.8116 3.26897 11.6533 3.14141 11.5253C3.01386 11.3973 2.85564 11.3333 2.66675 11.3333C2.47786 11.3333 2.31964 11.3973 2.19208 11.5253C2.06453 11.6533 2.00053 11.8116 2.00008 12C1.99964 12.1884 2.06364 12.3469 2.19208 12.4753C2.32053 12.6038 2.47875 12.6676 2.66675 12.6667ZM2.66675 4.66667C2.85564 4.66667 3.01408 4.60267 3.14208 4.47467C3.27008 4.34667 3.33386 4.18844 3.33341 4C3.33297 3.81156 3.26897 3.65333 3.14141 3.52533C3.01386 3.39733 2.85564 3.33333 2.66675 3.33333C2.47786 3.33333 2.31964 3.39733 2.19208 3.52533C2.06453 3.65333 2.00053 3.81156 2.00008 4C1.99964 4.18844 2.06364 4.34689 2.19208 4.47533C2.32053 4.60378 2.47875 4.66756 2.66675 4.66667ZM8.00008 12.6667C8.18897 12.6667 8.34741 12.6027 8.47541 12.4747C8.60341 12.3467 8.66719 12.1884 8.66675 12C8.6663 11.8116 8.6023 11.6533 8.47475 11.5253C8.34719 11.3973 8.18897 11.3333 8.00008 11.3333C7.81119 11.3333 7.65297 11.3973 7.52541 11.5253C7.39786 11.6533 7.33386 11.8116 7.33341 12C7.33297 12.1884 7.39697 12.3469 7.52541 12.4753C7.65386 12.6038 7.81208 12.6676 8.00008 12.6667ZM8.00008 4.66667C8.18897 4.66667 8.34741 4.60267 8.47541 4.47467C8.60341 4.34667 8.66719 4.18844 8.66675 4C8.6663 3.81156 8.6023 3.65333 8.47475 3.52533C8.34719 3.39733 8.18897 3.33333 8.00008 3.33333C7.81119 3.33333 7.65297 3.39733 7.52541 3.52533C7.39786 3.65333 7.33386 3.81156 7.33341 4C7.33297 4.18844 7.39697 4.34689 7.52541 4.47533C7.65386 4.60378 7.81208 4.66756 8.00008 4.66667ZM13.3334 4.66667C13.5223 4.66667 13.6807 4.60267 13.8087 4.47467C13.9367 4.34667 14.0005 4.18844 14.0001 4C13.9996 3.81156 13.9356 3.65333 13.8081 3.52533C13.6805 3.39733 13.5223 3.33333 13.3334 3.33333C13.1445 3.33333 12.9863 3.39733 12.8587 3.52533C12.7312 3.65333 12.6672 3.81156 12.6667 4C12.6663 4.18844 12.7303 4.34689 12.8587 4.47533C12.9872 4.60378 13.1454 4.66756 13.3334 4.66667Z" fill="#5960D9"/>
</svg>
