<svg width="17" height="16" viewBox="0 0 17 16" fill="none" xmlns="http://www.w3.org/2000/svg">
<path d="M10.6667 1.33398V8.00065C10.6667 8.73398 10.0667 9.33398 9.33333 9.33398H2V4.00065C2 2.52732 3.19333 1.33398 4.66667 1.33398H10.6667Z" stroke="#666666" stroke-width="0.75" stroke-linecap="round" stroke-linejoin="round"/>
<path d="M15.3333 9.33398V11.334C15.3333 12.4407 14.44 13.334 13.3333 13.334H12.6667C12.6667 12.6007 12.0667 12.0007 11.3333 12.0007C10.6 12.0007 10 12.6007 10 13.334H7.33333C7.33333 12.6007 6.73333 12.0007 6 12.0007C5.26667 12.0007 4.66667 12.6007 4.66667 13.334H4C2.89333 13.334 2 12.4407 2 11.334V9.33398H9.33333C10.0667 9.33398 10.6667 8.73398 10.6667 8.00065V3.33398H11.8933C12.3733 3.33398 12.8133 3.59399 13.0533 4.00732L14.1933 6.00065H13.3333C12.9667 6.00065 12.6667 6.30065 12.6667 6.66732V8.66732C12.6667 9.03398 12.9667 9.33398 13.3333 9.33398H15.3333Z" stroke="#666666" stroke-width="0.75" stroke-linecap="round" stroke-linejoin="round"/>
<path d="M6.00033 14.6667C6.73671 14.6667 7.33366 14.0697 7.33366 13.3333C7.33366 12.597 6.73671 12 6.00033 12C5.26395 12 4.66699 12.597 4.66699 13.3333C4.66699 14.0697 5.26395 14.6667 6.00033 14.6667Z" stroke="#666666" stroke-width="0.75" stroke-linecap="round" stroke-linejoin="round"/>
<path d="M11.3333 14.6667C12.0697 14.6667 12.6667 14.0697 12.6667 13.3333C12.6667 12.597 12.0697 12 11.3333 12C10.597 12 10 12.597 10 13.3333C10 14.0697 10.597 14.6667 11.3333 14.6667Z" stroke="#666666" stroke-width="0.75" stroke-linecap="round" stroke-linejoin="round"/>
<path d="M15.3337 8V9.33333H13.3337C12.967 9.33333 12.667 9.03333 12.667 8.66667V6.66667C12.667 6.3 12.967 6 13.3337 6H14.1937L15.3337 8Z" stroke="#666666" stroke-width="0.75" stroke-linecap="round" stroke-linejoin="round"/>
</svg>
