<svg width="16" height="16" viewBox="0 0 16 16" fill="none" xmlns="http://www.w3.org/2000/svg">
<path d="M8.00008 8.49967C5.88675 8.49967 4.16675 6.77967 4.16675 4.66634C4.16675 2.55301 5.88675 0.833008 8.00008 0.833008C10.1134 0.833008 11.8334 2.55301 11.8334 4.66634C11.8334 6.77967 10.1134 8.49967 8.00008 8.49967ZM8.00008 1.83301C6.44008 1.83301 5.16675 3.10634 5.16675 4.66634C5.16675 6.22634 6.44008 7.49967 8.00008 7.49967C9.56008 7.49967 10.8334 6.22634 10.8334 4.66634C10.8334 3.10634 9.56008 1.83301 8.00008 1.83301Z" fill="#053396"/>
<path d="M2.27344 15.1667C2.0001 15.1667 1.77344 14.94 1.77344 14.6667C1.77344 11.82 4.56677 9.5 8.0001 9.5C8.67344 9.5 9.33343 9.58668 9.97343 9.76668C10.2401 9.84002 10.3934 10.1133 10.3201 10.38C10.2468 10.6467 9.97343 10.8 9.70677 10.7267C9.1601 10.5734 8.58677 10.5 8.0001 10.5C5.1201 10.5 2.77344 12.3667 2.77344 14.6667C2.77344 14.94 2.54677 15.1667 2.27344 15.1667Z" fill="#053396"/>
<path d="M11.9999 15.1663C11.2133 15.1663 10.4666 14.873 9.88658 14.3464C9.65324 14.1464 9.44658 13.8997 9.28658 13.6263C8.99325 13.1463 8.83325 12.5797 8.83325 11.9997C8.83325 11.1663 9.15325 10.3863 9.72658 9.79301C10.3266 9.17301 11.1333 8.83301 11.9999 8.83301C12.9066 8.83301 13.7666 9.21969 14.3533 9.88635C14.8733 10.4664 15.1666 11.213 15.1666 11.9997C15.1666 12.253 15.1333 12.5063 15.0666 12.7463C14.9999 13.0463 14.8732 13.3597 14.6999 13.633C14.1466 14.5797 13.1066 15.1663 11.9999 15.1663ZM11.9999 9.83301C11.4066 9.83301 10.8599 10.0663 10.4466 10.4863C10.0533 10.893 9.83325 11.4263 9.83325 11.9997C9.83325 12.393 9.93992 12.7797 10.1466 13.113C10.2533 13.2997 10.3932 13.4663 10.5532 13.6063C10.9532 13.973 11.4666 14.173 11.9999 14.173C12.7533 14.173 13.4666 13.773 13.8533 13.1263C13.9666 12.9397 14.0532 12.7264 14.0999 12.5197C14.1466 12.3464 14.1666 12.1797 14.1666 12.0063C14.1666 11.473 13.9666 10.9597 13.6066 10.5597C13.2066 10.093 12.6199 9.83301 11.9999 9.83301Z" fill="#053396"/>
<path d="M12.9999 12.4863H11.0066C10.7333 12.4863 10.5066 12.2597 10.5066 11.9863C10.5066 11.713 10.7333 11.4863 11.0066 11.4863H12.9999C13.2733 11.4863 13.4999 11.713 13.4999 11.9863C13.4999 12.2597 13.2733 12.4863 12.9999 12.4863Z" fill="#053396"/>
<path d="M12 13.507C11.7267 13.507 11.5 13.2803 11.5 13.007V11.0137C11.5 10.7403 11.7267 10.5137 12 10.5137C12.2733 10.5137 12.5 10.7403 12.5 11.0137V13.007C12.5 13.287 12.2733 13.507 12 13.507Z" fill="#053396"/>
</svg>
