<svg width="24" height="24" viewBox="0 0 24 24" fill="none" xmlns="http://www.w3.org/2000/svg">
<path d="M14.85 3.94883V7.74883H13.35V3.94883C13.35 3.67883 13.11 3.54883 12.95 3.54883C12.9 3.54883 12.85 3.55883 12.8 3.57883L4.87 6.56883C4.34 6.76883 4 7.26883 4 7.83883V8.50883C3.09 9.18883 2.5 10.2788 2.5 11.5088V7.83883C2.5 6.64883 3.23 5.58883 4.34 5.16883L12.28 2.16883C12.5 2.08883 12.73 2.04883 12.95 2.04883C13.95 2.04883 14.85 2.85883 14.85 3.94883Z" fill="#666666"/>
<path d="M21.4999 14.498V15.498C21.4999 15.768 21.2899 15.988 21.0099 15.998H19.5499C19.0199 15.998 18.5399 15.608 18.4999 15.088C18.4699 14.778 18.5899 14.488 18.7899 14.288C18.9699 14.098 19.2199 13.998 19.4899 13.998H20.9999C21.2899 14.008 21.4999 14.228 21.4999 14.498Z" fill="#666666"/>
<path d="M19.48 12.948H20.5C21.05 12.948 21.5 12.498 21.5 11.948V11.508C21.5 9.43805 19.81 7.74805 17.74 7.74805H6.26C5.41 7.74805 4.63 8.02805 4 8.50805C3.09 9.18805 2.5 10.278 2.5 11.508V18.238C2.5 20.308 4.19 21.998 6.26 21.998H17.74C19.81 21.998 21.5 20.308 21.5 18.238V18.048C21.5 17.498 21.05 17.048 20.5 17.048H19.63C18.67 17.048 17.75 16.458 17.5 15.528C17.29 14.768 17.54 14.038 18.04 13.548C18.41 13.168 18.92 12.948 19.48 12.948ZM14 12.748H7C6.59 12.748 6.25 12.408 6.25 11.998C6.25 11.588 6.59 11.248 7 11.248H14C14.41 11.248 14.75 11.588 14.75 11.998C14.75 12.408 14.41 12.748 14 12.748Z" fill="#666666"/>
</svg>
