<svg width="16" height="16" viewBox="0 0 16 16" fill="none" xmlns="http://www.w3.org/2000/svg">
<mask id="path-1-outside-1_562_63819" maskUnits="userSpaceOnUse" x="0.466796" y="2.80029" width="15" height="11" fill="black">
<rect fill="white" x="0.466796" y="2.80029" width="15" height="11"/>
<path d="M1.90682 12.7596C1.66146 12.6732 1.47839 12.4306 1.46972 12.1695C1.4643 11.962 1.46972 11.7543 1.46755 11.5466C1.46891 11.3901 1.4532 11.2262 1.51793 11.0792C1.61434 10.839 1.86078 10.6691 2.12023 10.6675C2.436 10.6648 2.75151 10.6675 3.06728 10.6664C3.06728 10.4 3.06728 10.1337 3.06728 9.86725C2.88692 9.87538 2.69463 9.85506 2.5465 9.74186C2.37128 9.6181 2.26349 9.40686 2.26755 9.1921C2.26809 8.38885 2.26647 7.58533 2.26837 6.78181C2.2708 6.50963 2.46038 6.25425 2.71847 6.16976C2.83031 6.12913 2.95029 6.1332 3.06728 6.13265C3.06728 5.86617 3.06728 5.59995 3.06728 5.33347C2.75178 5.33238 2.436 5.33482 2.1205 5.33266C1.86051 5.33157 1.61461 5.16096 1.51765 4.92074C1.44914 4.76421 1.4708 4.5898 1.46782 4.42406C1.4708 4.21634 1.46159 4.00862 1.47189 3.80117C1.49491 3.47402 1.79497 3.19914 2.12239 3.20131C2.9251 3.19914 3.72781 3.20022 4.53052 3.20077C4.76153 3.19806 4.98766 3.32561 5.10493 3.52467C5.17642 3.63976 5.20377 3.7768 5.20025 3.91113C5.197 4.18086 5.20405 4.45087 5.197 4.7206C5.17886 5.04613 4.88746 5.32616 4.56166 5.33184C4.24128 5.33618 3.92063 5.33184 3.59998 5.33347C3.59998 5.59968 3.59998 5.86617 3.59998 6.13238C3.7901 6.12318 3.9924 6.14972 4.14352 6.27538C4.30086 6.39589 4.39375 6.58844 4.40025 6.7856C4.397 6.85926 4.4509 6.93455 4.52943 6.9313C4.89125 6.93753 5.25333 6.92968 5.61515 6.93455C5.87378 6.93672 6.11996 7.10598 6.21583 7.34593C6.26999 7.46725 6.26782 7.60293 6.26755 7.7332C8.4008 7.7332 10.5338 7.7332 12.667 7.7332C12.667 6.9332 12.667 6.13347 12.667 5.33347C12.3469 5.33211 12.0268 5.33591 11.707 5.33184C11.372 5.32751 11.0746 5.03259 11.0686 4.69731C11.0667 4.40781 11.0659 4.11803 11.0689 3.8288C11.0789 3.49542 11.3768 3.20483 11.7102 3.20185C12.5219 3.19887 13.3338 3.19995 14.1454 3.20131C14.4823 3.19968 14.7873 3.49081 14.797 3.82825C14.8019 4.10801 14.7986 4.38804 14.7989 4.66806C14.8016 4.91234 14.6554 5.14931 14.4379 5.25926C14.332 5.31586 14.2107 5.33563 14.0918 5.33374C13.7944 5.3332 13.4971 5.33347 13.1997 5.33347C13.1997 7.11112 13.1997 8.88878 13.1997 10.6664C13.5149 10.6675 13.8302 10.6648 14.1454 10.6673C14.4114 10.6686 14.664 10.8471 14.7556 11.0962C14.8162 11.2484 14.7962 11.415 14.7992 11.5748C14.7962 11.7819 14.8054 11.9897 14.7951 12.1966C14.7726 12.5237 14.4734 12.8008 14.1454 12.7989C13.3335 12.8 12.5213 12.801 11.7097 12.7981C11.3766 12.7953 11.0792 12.5048 11.0689 12.1717C11.0651 11.8908 11.0678 11.61 11.0676 11.3291C11.0654 11.0821 11.216 10.8436 11.4378 10.736C11.5464 10.6797 11.6701 10.6637 11.7909 10.6662C12.0829 10.6667 12.3748 10.6664 12.667 10.6664C12.667 9.86644 12.667 9.06671 12.667 8.26671C10.5338 8.26671 8.40052 8.26671 6.26755 8.26671C6.27595 8.45005 6.25401 8.64504 6.13648 8.79399C6.01731 8.95892 5.8188 9.06319 5.61488 9.06536C5.262 9.06888 4.90912 9.06454 4.55652 9.06698C4.49667 9.06292 4.42734 9.09081 4.41082 9.15364C4.39294 9.23137 4.39511 9.31234 4.37236 9.38898C4.31332 9.59156 4.15218 9.76055 3.95259 9.82934C3.83993 9.87077 3.71806 9.86671 3.59998 9.86752C3.59998 10.1337 3.59998 10.4002 3.59998 10.6664C3.92036 10.6681 4.24101 10.6637 4.56139 10.6681C4.89585 10.6735 5.19186 10.9684 5.19836 11.3029C5.2008 11.5916 5.2008 11.8805 5.19809 12.1689C5.18861 12.5026 4.89152 12.7951 4.5576 12.7981C3.78143 12.8024 3.00526 12.7978 2.2291 12.8002C2.12077 12.8008 2.00919 12.7991 1.90682 12.7596ZM2.01515 12.1936C2.04196 12.2545 2.11264 12.2697 2.17277 12.2667C2.95083 12.2659 3.72889 12.2667 4.50669 12.2662C4.59199 12.2784 4.67595 12.209 4.6662 12.1199C4.66701 11.8559 4.66972 11.5918 4.66484 11.328C4.66728 11.2452 4.5836 11.1907 4.50696 11.2C3.71996 11.2002 2.93296 11.1986 2.14596 11.2008C2.07148 11.1943 1.99863 11.2544 2.00242 11.3316C1.99619 11.5569 2.0035 11.7825 1.99944 12.0078C2.00161 12.0696 1.99294 12.1345 2.01515 12.1936ZM2.02273 4.74064C2.05388 4.794 2.11941 4.80185 2.1752 4.8005C2.95245 4.79968 3.72998 4.80077 4.50723 4.79995C4.58495 4.80997 4.66836 4.75337 4.66484 4.66996C4.66945 4.40754 4.66701 4.14457 4.6662 3.88215C4.67703 3.79251 4.59281 3.72155 4.50641 3.73374C3.72077 3.73374 2.93485 3.73293 2.14893 3.73401C2.0769 3.72805 2.00242 3.78167 2.00296 3.85777C1.99538 4.0923 2.00377 4.3271 1.99944 4.5619C2.00269 4.62121 1.99132 4.68729 2.02273 4.74064ZM2.80757 9.23976C2.82382 9.30747 2.89694 9.33834 2.96112 9.3332C3.19565 9.33455 3.43045 9.33184 3.66525 9.33401C3.71914 9.3313 3.78279 9.33915 3.82476 9.29718C3.87595 9.24816 3.86268 9.16989 3.87595 9.10625C3.91007 8.79616 4.19524 8.54078 4.50614 8.53509C4.86769 8.5294 5.22923 8.53645 5.59078 8.53238C5.67554 8.53997 5.74325 8.46143 5.7335 8.37856C5.73458 8.12588 5.73485 7.87321 5.7335 7.62053C5.74325 7.53739 5.67419 7.45967 5.58942 7.46752C5.22842 7.46346 4.86715 7.4705 4.50614 7.46508C4.22774 7.4594 3.96992 7.25601 3.89463 6.98899C3.86945 6.90611 3.87568 6.81701 3.84941 6.73441C3.8096 6.65669 3.71237 6.66698 3.63898 6.66563C3.40337 6.66969 3.16776 6.66238 2.93241 6.66861C2.84467 6.66427 2.78942 6.7531 2.80025 6.83326C2.79971 7.55581 2.8008 8.27836 2.79971 9.0009C2.80107 9.08052 2.79375 9.16095 2.80757 9.23976ZM11.6127 12.1898C11.6368 12.2475 11.7015 12.27 11.76 12.2662C12.5373 12.2667 13.3148 12.2659 14.0921 12.2667C14.1392 12.2659 14.1936 12.2651 14.228 12.2269C14.2781 12.1765 14.2638 12.0991 14.2676 12.0349C14.2635 11.8006 14.2708 11.5661 14.2646 11.3318C14.2681 11.2538 14.1942 11.1937 14.1194 11.2005C13.3793 11.1981 12.6388 11.2013 11.8987 11.1991C11.8296 11.2002 11.7592 11.1945 11.691 11.2075C11.6273 11.2249 11.5951 11.2931 11.6003 11.3554C11.5981 11.5815 11.6019 11.8077 11.5989 12.0338C11.6008 12.0858 11.5954 12.14 11.6127 12.1898ZM11.61 4.71681C11.6314 4.77883 11.6996 4.80456 11.7608 4.79995C12.5476 4.79968 13.3346 4.80131 14.1213 4.79941C14.1947 4.80591 14.267 4.74687 14.2646 4.6705C14.2711 4.43597 14.2635 4.20117 14.2676 3.96664C14.2635 3.90192 14.2787 3.82419 14.228 3.77328C14.1939 3.73536 14.1395 3.73455 14.0923 3.7332C13.3145 3.73428 12.5367 3.73293 11.759 3.73374C11.6856 3.72561 11.6035 3.7749 11.6027 3.85452C11.5946 4.0357 11.6027 4.21742 11.6 4.3986C11.6032 4.50449 11.5892 4.61228 11.61 4.71681Z"/>
</mask>
<path d="M1.90682 12.7596C1.66146 12.6732 1.47839 12.4306 1.46972 12.1695C1.4643 11.962 1.46972 11.7543 1.46755 11.5466C1.46891 11.3901 1.4532 11.2262 1.51793 11.0792C1.61434 10.839 1.86078 10.6691 2.12023 10.6675C2.436 10.6648 2.75151 10.6675 3.06728 10.6664C3.06728 10.4 3.06728 10.1337 3.06728 9.86725C2.88692 9.87538 2.69463 9.85506 2.5465 9.74186C2.37128 9.6181 2.26349 9.40686 2.26755 9.1921C2.26809 8.38885 2.26647 7.58533 2.26837 6.78181C2.2708 6.50963 2.46038 6.25425 2.71847 6.16976C2.83031 6.12913 2.95029 6.1332 3.06728 6.13265C3.06728 5.86617 3.06728 5.59995 3.06728 5.33347C2.75178 5.33238 2.436 5.33482 2.1205 5.33266C1.86051 5.33157 1.61461 5.16096 1.51765 4.92074C1.44914 4.76421 1.4708 4.5898 1.46782 4.42406C1.4708 4.21634 1.46159 4.00862 1.47189 3.80117C1.49491 3.47402 1.79497 3.19914 2.12239 3.20131C2.9251 3.19914 3.72781 3.20022 4.53052 3.20077C4.76153 3.19806 4.98766 3.32561 5.10493 3.52467C5.17642 3.63976 5.20377 3.7768 5.20025 3.91113C5.197 4.18086 5.20405 4.45087 5.197 4.7206C5.17886 5.04613 4.88746 5.32616 4.56166 5.33184C4.24128 5.33618 3.92063 5.33184 3.59998 5.33347C3.59998 5.59968 3.59998 5.86617 3.59998 6.13238C3.7901 6.12318 3.9924 6.14972 4.14352 6.27538C4.30086 6.39589 4.39375 6.58844 4.40025 6.7856C4.397 6.85926 4.4509 6.93455 4.52943 6.9313C4.89125 6.93753 5.25333 6.92968 5.61515 6.93455C5.87378 6.93672 6.11996 7.10598 6.21583 7.34593C6.26999 7.46725 6.26782 7.60293 6.26755 7.7332C8.4008 7.7332 10.5338 7.7332 12.667 7.7332C12.667 6.9332 12.667 6.13347 12.667 5.33347C12.3469 5.33211 12.0268 5.33591 11.707 5.33184C11.372 5.32751 11.0746 5.03259 11.0686 4.69731C11.0667 4.40781 11.0659 4.11803 11.0689 3.8288C11.0789 3.49542 11.3768 3.20483 11.7102 3.20185C12.5219 3.19887 13.3338 3.19995 14.1454 3.20131C14.4823 3.19968 14.7873 3.49081 14.797 3.82825C14.8019 4.10801 14.7986 4.38804 14.7989 4.66806C14.8016 4.91234 14.6554 5.14931 14.4379 5.25926C14.332 5.31586 14.2107 5.33563 14.0918 5.33374C13.7944 5.3332 13.4971 5.33347 13.1997 5.33347C13.1997 7.11112 13.1997 8.88878 13.1997 10.6664C13.5149 10.6675 13.8302 10.6648 14.1454 10.6673C14.4114 10.6686 14.664 10.8471 14.7556 11.0962C14.8162 11.2484 14.7962 11.415 14.7992 11.5748C14.7962 11.7819 14.8054 11.9897 14.7951 12.1966C14.7726 12.5237 14.4734 12.8008 14.1454 12.7989C13.3335 12.8 12.5213 12.801 11.7097 12.7981C11.3766 12.7953 11.0792 12.5048 11.0689 12.1717C11.0651 11.8908 11.0678 11.61 11.0676 11.3291C11.0654 11.0821 11.216 10.8436 11.4378 10.736C11.5464 10.6797 11.6701 10.6637 11.7909 10.6662C12.0829 10.6667 12.3748 10.6664 12.667 10.6664C12.667 9.86644 12.667 9.06671 12.667 8.26671C10.5338 8.26671 8.40052 8.26671 6.26755 8.26671C6.27595 8.45005 6.25401 8.64504 6.13648 8.79399C6.01731 8.95892 5.8188 9.06319 5.61488 9.06536C5.262 9.06888 4.90912 9.06454 4.55652 9.06698C4.49667 9.06292 4.42734 9.09081 4.41082 9.15364C4.39294 9.23137 4.39511 9.31234 4.37236 9.38898C4.31332 9.59156 4.15218 9.76055 3.95259 9.82934C3.83993 9.87077 3.71806 9.86671 3.59998 9.86752C3.59998 10.1337 3.59998 10.4002 3.59998 10.6664C3.92036 10.6681 4.24101 10.6637 4.56139 10.6681C4.89585 10.6735 5.19186 10.9684 5.19836 11.3029C5.2008 11.5916 5.2008 11.8805 5.19809 12.1689C5.18861 12.5026 4.89152 12.7951 4.5576 12.7981C3.78143 12.8024 3.00526 12.7978 2.2291 12.8002C2.12077 12.8008 2.00919 12.7991 1.90682 12.7596ZM2.01515 12.1936C2.04196 12.2545 2.11264 12.2697 2.17277 12.2667C2.95083 12.2659 3.72889 12.2667 4.50669 12.2662C4.59199 12.2784 4.67595 12.209 4.6662 12.1199C4.66701 11.8559 4.66972 11.5918 4.66484 11.328C4.66728 11.2452 4.5836 11.1907 4.50696 11.2C3.71996 11.2002 2.93296 11.1986 2.14596 11.2008C2.07148 11.1943 1.99863 11.2544 2.00242 11.3316C1.99619 11.5569 2.0035 11.7825 1.99944 12.0078C2.00161 12.0696 1.99294 12.1345 2.01515 12.1936ZM2.02273 4.74064C2.05388 4.794 2.11941 4.80185 2.1752 4.8005C2.95245 4.79968 3.72998 4.80077 4.50723 4.79995C4.58495 4.80997 4.66836 4.75337 4.66484 4.66996C4.66945 4.40754 4.66701 4.14457 4.6662 3.88215C4.67703 3.79251 4.59281 3.72155 4.50641 3.73374C3.72077 3.73374 2.93485 3.73293 2.14893 3.73401C2.0769 3.72805 2.00242 3.78167 2.00296 3.85777C1.99538 4.0923 2.00377 4.3271 1.99944 4.5619C2.00269 4.62121 1.99132 4.68729 2.02273 4.74064ZM2.80757 9.23976C2.82382 9.30747 2.89694 9.33834 2.96112 9.3332C3.19565 9.33455 3.43045 9.33184 3.66525 9.33401C3.71914 9.3313 3.78279 9.33915 3.82476 9.29718C3.87595 9.24816 3.86268 9.16989 3.87595 9.10625C3.91007 8.79616 4.19524 8.54078 4.50614 8.53509C4.86769 8.5294 5.22923 8.53645 5.59078 8.53238C5.67554 8.53997 5.74325 8.46143 5.7335 8.37856C5.73458 8.12588 5.73485 7.87321 5.7335 7.62053C5.74325 7.53739 5.67419 7.45967 5.58942 7.46752C5.22842 7.46346 4.86715 7.4705 4.50614 7.46508C4.22774 7.4594 3.96992 7.25601 3.89463 6.98899C3.86945 6.90611 3.87568 6.81701 3.84941 6.73441C3.8096 6.65669 3.71237 6.66698 3.63898 6.66563C3.40337 6.66969 3.16776 6.66238 2.93241 6.66861C2.84467 6.66427 2.78942 6.7531 2.80025 6.83326C2.79971 7.55581 2.8008 8.27836 2.79971 9.0009C2.80107 9.08052 2.79375 9.16095 2.80757 9.23976ZM11.6127 12.1898C11.6368 12.2475 11.7015 12.27 11.76 12.2662C12.5373 12.2667 13.3148 12.2659 14.0921 12.2667C14.1392 12.2659 14.1936 12.2651 14.228 12.2269C14.2781 12.1765 14.2638 12.0991 14.2676 12.0349C14.2635 11.8006 14.2708 11.5661 14.2646 11.3318C14.2681 11.2538 14.1942 11.1937 14.1194 11.2005C13.3793 11.1981 12.6388 11.2013 11.8987 11.1991C11.8296 11.2002 11.7592 11.1945 11.691 11.2075C11.6273 11.2249 11.5951 11.2931 11.6003 11.3554C11.5981 11.5815 11.6019 11.8077 11.5989 12.0338C11.6008 12.0858 11.5954 12.14 11.6127 12.1898ZM11.61 4.71681C11.6314 4.77883 11.6996 4.80456 11.7608 4.79995C12.5476 4.79968 13.3346 4.80131 14.1213 4.79941C14.1947 4.80591 14.267 4.74687 14.2646 4.6705C14.2711 4.43597 14.2635 4.20117 14.2676 3.96664C14.2635 3.90192 14.2787 3.82419 14.228 3.77328C14.1939 3.73536 14.1395 3.73455 14.0923 3.7332C13.3145 3.73428 12.5367 3.73293 11.759 3.73374C11.6856 3.72561 11.6035 3.7749 11.6027 3.85452C11.5946 4.0357 11.6027 4.21742 11.6 4.3986C11.6032 4.50449 11.5892 4.61228 11.61 4.71681Z" fill="#5960D9"/>
<path d="M1.90682 12.7596C1.66146 12.6732 1.47839 12.4306 1.46972 12.1695C1.4643 11.962 1.46972 11.7543 1.46755 11.5466C1.46891 11.3901 1.4532 11.2262 1.51793 11.0792C1.61434 10.839 1.86078 10.6691 2.12023 10.6675C2.436 10.6648 2.75151 10.6675 3.06728 10.6664C3.06728 10.4 3.06728 10.1337 3.06728 9.86725C2.88692 9.87538 2.69463 9.85506 2.5465 9.74186C2.37128 9.6181 2.26349 9.40686 2.26755 9.1921C2.26809 8.38885 2.26647 7.58533 2.26837 6.78181C2.2708 6.50963 2.46038 6.25425 2.71847 6.16976C2.83031 6.12913 2.95029 6.1332 3.06728 6.13265C3.06728 5.86617 3.06728 5.59995 3.06728 5.33347C2.75178 5.33238 2.436 5.33482 2.1205 5.33266C1.86051 5.33157 1.61461 5.16096 1.51765 4.92074C1.44914 4.76421 1.4708 4.5898 1.46782 4.42406C1.4708 4.21634 1.46159 4.00862 1.47189 3.80117C1.49491 3.47402 1.79497 3.19914 2.12239 3.20131C2.9251 3.19914 3.72781 3.20022 4.53052 3.20077C4.76153 3.19806 4.98766 3.32561 5.10493 3.52467C5.17642 3.63976 5.20377 3.7768 5.20025 3.91113C5.197 4.18086 5.20405 4.45087 5.197 4.7206C5.17886 5.04613 4.88746 5.32616 4.56166 5.33184C4.24128 5.33618 3.92063 5.33184 3.59998 5.33347C3.59998 5.59968 3.59998 5.86617 3.59998 6.13238C3.7901 6.12318 3.9924 6.14972 4.14352 6.27538C4.30086 6.39589 4.39375 6.58844 4.40025 6.7856C4.397 6.85926 4.4509 6.93455 4.52943 6.9313C4.89125 6.93753 5.25333 6.92968 5.61515 6.93455C5.87378 6.93672 6.11996 7.10598 6.21583 7.34593C6.26999 7.46725 6.26782 7.60293 6.26755 7.7332C8.4008 7.7332 10.5338 7.7332 12.667 7.7332C12.667 6.9332 12.667 6.13347 12.667 5.33347C12.3469 5.33211 12.0268 5.33591 11.707 5.33184C11.372 5.32751 11.0746 5.03259 11.0686 4.69731C11.0667 4.40781 11.0659 4.11803 11.0689 3.8288C11.0789 3.49542 11.3768 3.20483 11.7102 3.20185C12.5219 3.19887 13.3338 3.19995 14.1454 3.20131C14.4823 3.19968 14.7873 3.49081 14.797 3.82825C14.8019 4.10801 14.7986 4.38804 14.7989 4.66806C14.8016 4.91234 14.6554 5.14931 14.4379 5.25926C14.332 5.31586 14.2107 5.33563 14.0918 5.33374C13.7944 5.3332 13.4971 5.33347 13.1997 5.33347C13.1997 7.11112 13.1997 8.88878 13.1997 10.6664C13.5149 10.6675 13.8302 10.6648 14.1454 10.6673C14.4114 10.6686 14.664 10.8471 14.7556 11.0962C14.8162 11.2484 14.7962 11.415 14.7992 11.5748C14.7962 11.7819 14.8054 11.9897 14.7951 12.1966C14.7726 12.5237 14.4734 12.8008 14.1454 12.7989C13.3335 12.8 12.5213 12.801 11.7097 12.7981C11.3766 12.7953 11.0792 12.5048 11.0689 12.1717C11.0651 11.8908 11.0678 11.61 11.0676 11.3291C11.0654 11.0821 11.216 10.8436 11.4378 10.736C11.5464 10.6797 11.6701 10.6637 11.7909 10.6662C12.0829 10.6667 12.3748 10.6664 12.667 10.6664C12.667 9.86644 12.667 9.06671 12.667 8.26671C10.5338 8.26671 8.40052 8.26671 6.26755 8.26671C6.27595 8.45005 6.25401 8.64504 6.13648 8.79399C6.01731 8.95892 5.8188 9.06319 5.61488 9.06536C5.262 9.06888 4.90912 9.06454 4.55652 9.06698C4.49667 9.06292 4.42734 9.09081 4.41082 9.15364C4.39294 9.23137 4.39511 9.31234 4.37236 9.38898C4.31332 9.59156 4.15218 9.76055 3.95259 9.82934C3.83993 9.87077 3.71806 9.86671 3.59998 9.86752C3.59998 10.1337 3.59998 10.4002 3.59998 10.6664C3.92036 10.6681 4.24101 10.6637 4.56139 10.6681C4.89585 10.6735 5.19186 10.9684 5.19836 11.3029C5.2008 11.5916 5.2008 11.8805 5.19809 12.1689C5.18861 12.5026 4.89152 12.7951 4.5576 12.7981C3.78143 12.8024 3.00526 12.7978 2.2291 12.8002C2.12077 12.8008 2.00919 12.7991 1.90682 12.7596ZM2.01515 12.1936C2.04196 12.2545 2.11264 12.2697 2.17277 12.2667C2.95083 12.2659 3.72889 12.2667 4.50669 12.2662C4.59199 12.2784 4.67595 12.209 4.6662 12.1199C4.66701 11.8559 4.66972 11.5918 4.66484 11.328C4.66728 11.2452 4.5836 11.1907 4.50696 11.2C3.71996 11.2002 2.93296 11.1986 2.14596 11.2008C2.07148 11.1943 1.99863 11.2544 2.00242 11.3316C1.99619 11.5569 2.0035 11.7825 1.99944 12.0078C2.00161 12.0696 1.99294 12.1345 2.01515 12.1936ZM2.02273 4.74064C2.05388 4.794 2.11941 4.80185 2.1752 4.8005C2.95245 4.79968 3.72998 4.80077 4.50723 4.79995C4.58495 4.80997 4.66836 4.75337 4.66484 4.66996C4.66945 4.40754 4.66701 4.14457 4.6662 3.88215C4.67703 3.79251 4.59281 3.72155 4.50641 3.73374C3.72077 3.73374 2.93485 3.73293 2.14893 3.73401C2.0769 3.72805 2.00242 3.78167 2.00296 3.85777C1.99538 4.0923 2.00377 4.3271 1.99944 4.5619C2.00269 4.62121 1.99132 4.68729 2.02273 4.74064ZM2.80757 9.23976C2.82382 9.30747 2.89694 9.33834 2.96112 9.3332C3.19565 9.33455 3.43045 9.33184 3.66525 9.33401C3.71914 9.3313 3.78279 9.33915 3.82476 9.29718C3.87595 9.24816 3.86268 9.16989 3.87595 9.10625C3.91007 8.79616 4.19524 8.54078 4.50614 8.53509C4.86769 8.5294 5.22923 8.53645 5.59078 8.53238C5.67554 8.53997 5.74325 8.46143 5.7335 8.37856C5.73458 8.12588 5.73485 7.87321 5.7335 7.62053C5.74325 7.53739 5.67419 7.45967 5.58942 7.46752C5.22842 7.46346 4.86715 7.4705 4.50614 7.46508C4.22774 7.4594 3.96992 7.25601 3.89463 6.98899C3.86945 6.90611 3.87568 6.81701 3.84941 6.73441C3.8096 6.65669 3.71237 6.66698 3.63898 6.66563C3.40337 6.66969 3.16776 6.66238 2.93241 6.66861C2.84467 6.66427 2.78942 6.7531 2.80025 6.83326C2.79971 7.55581 2.8008 8.27836 2.79971 9.0009C2.80107 9.08052 2.79375 9.16095 2.80757 9.23976ZM11.6127 12.1898C11.6368 12.2475 11.7015 12.27 11.76 12.2662C12.5373 12.2667 13.3148 12.2659 14.0921 12.2667C14.1392 12.2659 14.1936 12.2651 14.228 12.2269C14.2781 12.1765 14.2638 12.0991 14.2676 12.0349C14.2635 11.8006 14.2708 11.5661 14.2646 11.3318C14.2681 11.2538 14.1942 11.1937 14.1194 11.2005C13.3793 11.1981 12.6388 11.2013 11.8987 11.1991C11.8296 11.2002 11.7592 11.1945 11.691 11.2075C11.6273 11.2249 11.5951 11.2931 11.6003 11.3554C11.5981 11.5815 11.6019 11.8077 11.5989 12.0338C11.6008 12.0858 11.5954 12.14 11.6127 12.1898ZM11.61 4.71681C11.6314 4.77883 11.6996 4.80456 11.7608 4.79995C12.5476 4.79968 13.3346 4.80131 14.1213 4.79941C14.1947 4.80591 14.267 4.74687 14.2646 4.6705C14.2711 4.43597 14.2635 4.20117 14.2676 3.96664C14.2635 3.90192 14.2787 3.82419 14.228 3.77328C14.1939 3.73536 14.1395 3.73455 14.0923 3.7332C13.3145 3.73428 12.5367 3.73293 11.759 3.73374C11.6856 3.72561 11.6035 3.7749 11.6027 3.85452C11.5946 4.0357 11.6027 4.21742 11.6 4.3986C11.6032 4.50449 11.5892 4.61228 11.61 4.71681Z" stroke="#5960D9" stroke-width="0.5" mask="url(#path-1-outside-1_562_63819)"/>
</svg>
