<svg width="134" height="32" viewBox="0 0 134 32" fill="none" xmlns="http://www.w3.org/2000/svg">
<path d="M2.67122 25.305C2.67122 25.7103 2.74589 26.0516 2.89522 26.329C3.04456 26.5956 3.23656 26.809 3.47122 26.969C3.70589 27.129 3.97256 27.241 4.27122 27.305C4.56989 27.369 4.87389 27.401 5.18322 27.401H8.36722C8.98589 27.401 9.40722 27.3156 9.63122 27.145C9.86589 26.985 9.98322 26.7823 9.98322 26.537C9.98322 26.377 9.89256 26.217 9.71122 26.057C9.54056 25.897 9.31656 25.7316 9.03922 25.561C8.77256 25.3796 8.48456 25.1876 8.17522 24.985C7.86589 24.7823 7.57256 24.553 7.29522 24.297C7.02856 24.0303 6.80456 23.737 6.62322 23.417C6.45256 23.0863 6.36722 22.7076 6.36722 22.281C6.36722 21.897 6.44189 21.5396 6.59122 21.209C6.74056 20.8676 6.94856 20.5743 7.21522 20.329C7.49256 20.073 7.82322 19.8756 8.20722 19.737C8.59122 19.5876 9.02322 19.513 9.50322 19.513C10.2392 19.513 10.8259 19.6303 11.2632 19.865C11.7112 20.089 12.0899 20.3876 12.3992 20.761C12.4632 20.8356 12.4472 20.9103 12.3512 20.985L11.4872 21.833C11.4019 21.897 11.3272 21.8916 11.2632 21.817C11.0392 21.593 10.7992 21.4223 10.5432 21.305C10.2872 21.177 9.97256 21.113 9.59922 21.113C9.23656 21.113 8.91122 21.2143 8.62322 21.417C8.34589 21.609 8.20722 21.897 8.20722 22.281C8.20722 22.537 8.29789 22.7716 8.47922 22.985C8.66056 23.1983 8.88456 23.4063 9.15122 23.609C9.42856 23.8116 9.72189 24.0196 10.0312 24.233C10.3512 24.4463 10.6446 24.6756 10.9112 24.921C11.1886 25.1556 11.4179 25.417 11.5992 25.705C11.7806 25.9823 11.8712 26.3023 11.8712 26.665C11.8712 26.985 11.8126 27.289 11.6952 27.577C11.5779 27.865 11.3912 28.1156 11.1352 28.329C10.8792 28.553 10.5486 28.7236 10.1432 28.841C9.73789 28.969 9.25256 29.033 8.68722 29.033H4.95922C3.57256 29.033 2.53789 28.713 1.85522 28.073C1.18322 27.433 0.847223 26.5636 0.847223 25.465C0.847223 24.889 0.937889 24.313 1.11922 23.737C1.30056 23.161 1.52456 22.665 1.79122 22.249C1.84456 22.153 1.92456 22.1423 2.03122 22.217L3.32722 22.729C3.38056 22.7503 3.40722 22.7823 3.40722 22.825C3.41789 22.857 3.41256 22.8943 3.39122 22.937C3.22056 23.2356 3.05522 23.5876 2.89522 23.993C2.74589 24.3876 2.67122 24.825 2.67122 25.305ZM6.86322 31.769C6.75656 31.769 6.70322 31.7156 6.70322 31.609V30.233C6.70322 30.1263 6.75656 30.073 6.86322 30.073H8.20722C8.31389 30.073 8.36722 30.1263 8.36722 30.233V31.609C8.36722 31.7156 8.31389 31.769 8.20722 31.769H6.86322ZM4.78322 31.769C4.67656 31.769 4.62322 31.7156 4.62322 31.609V30.233C4.62322 30.1263 4.67656 30.073 4.78322 30.073H6.12722C6.23389 30.073 6.28722 30.1263 6.28722 30.233V31.609C6.28722 31.7156 6.23389 31.769 6.12722 31.769H4.78322ZM13.1511 30.233C13.0444 30.233 12.9911 30.1796 12.9911 30.073V28.793C12.9911 28.6863 13.0444 28.633 13.1511 28.633H13.5031C13.9511 28.633 14.2711 28.521 14.4631 28.297C14.6658 28.073 14.7671 27.7316 14.7671 27.273V20.521C14.7671 20.4143 14.8204 20.361 14.9271 20.361H16.4151C16.5218 20.361 16.5751 20.4143 16.5751 20.521V27.305C16.5751 29.257 15.6311 30.233 13.7431 30.233H13.1511ZM18.5932 16.281C18.5932 16.1743 18.6466 16.121 18.7532 16.121H20.2412C20.3479 16.121 20.4012 16.1743 20.4012 16.281V24.569C20.4012 24.889 20.4599 25.113 20.5772 25.241C20.7052 25.3583 20.9026 25.417 21.1692 25.417H21.7292C21.9426 25.417 22.1026 25.481 22.2092 25.609C22.3159 25.7263 22.3692 25.9343 22.3692 26.233C22.3692 26.5636 22.3159 26.777 22.2092 26.873C22.1132 26.9583 21.9532 27.001 21.7292 27.001H20.4652C19.7932 27.001 19.3132 26.841 19.0252 26.521C18.7372 26.1903 18.5932 25.6783 18.5932 24.985V16.281ZM26.0291 20.073C27.1171 20.073 27.9491 20.3343 28.5251 20.857C29.1011 21.369 29.3891 22.057 29.3891 22.921C29.3891 23.4436 29.2664 23.9236 29.0211 24.361C28.7864 24.7876 28.4664 25.1396 28.0611 25.417H30.3331C30.5464 25.417 30.7064 25.4703 30.8131 25.577C30.9198 25.673 30.9731 25.8703 30.9731 26.169C30.9731 26.4783 30.9198 26.697 30.8131 26.825C30.7171 26.9423 30.5571 27.001 30.3331 27.001H28.1091C27.7251 27.001 27.3624 26.985 27.0211 26.953C26.6798 26.921 26.3544 26.809 26.0451 26.617C25.6931 26.809 25.3144 26.921 24.9091 26.953C24.5144 26.985 24.1624 27.001 23.8531 27.001H21.7251C21.5118 27.001 21.3518 26.937 21.2451 26.809C21.1384 26.681 21.0851 26.473 21.0851 26.185C21.0851 25.8756 21.1384 25.673 21.2451 25.577C21.3411 25.4703 21.5011 25.417 21.7251 25.417H23.9811C23.5864 25.1396 23.2664 24.7876 23.0211 24.361C22.7864 23.9236 22.6691 23.4436 22.6691 22.921C22.6691 22.057 22.9571 21.369 23.5331 20.857C24.1091 20.3343 24.9411 20.073 26.0291 20.073ZM26.0291 21.497C25.6131 21.497 25.2504 21.6303 24.9411 21.897C24.6424 22.153 24.4931 22.537 24.4931 23.049C24.4931 23.593 24.6424 24.0356 24.9411 24.377C25.2398 24.7076 25.6024 24.9636 26.0291 25.145C26.4451 24.9636 26.8024 24.7076 27.1011 24.377C27.3998 24.0356 27.5491 23.593 27.5491 23.049C27.5491 22.537 27.3998 22.153 27.1011 21.897C26.8024 21.6303 26.4451 21.497 26.0291 21.497ZM26.4611 18.761C26.3544 18.761 26.3011 18.7076 26.3011 18.601V17.225C26.3011 17.1183 26.3544 17.065 26.4611 17.065H27.8051C27.9118 17.065 27.9651 17.1183 27.9651 17.225V18.601C27.9651 18.7076 27.9118 18.761 27.8051 18.761H26.4611ZM24.3811 18.761C24.2744 18.761 24.2211 18.7076 24.2211 18.601V17.225C24.2211 17.1183 24.2744 17.065 24.3811 17.065H25.7251C25.8318 17.065 25.8851 17.1183 25.8851 17.225V18.601C25.8851 18.7076 25.8318 18.761 25.7251 18.761H24.3811ZM31.8865 25.417C31.6731 25.1716 31.4971 24.8836 31.3585 24.553C31.2198 24.2223 31.1505 23.8223 31.1505 23.353C31.1505 22.9796 31.2091 22.601 31.3265 22.217C31.4438 21.8223 31.6358 21.4703 31.9025 21.161C32.1798 20.841 32.5371 20.5796 32.9745 20.377C33.4225 20.1743 33.9718 20.073 34.6225 20.073C35.3265 20.073 35.9238 20.1956 36.4145 20.441C36.9051 20.6756 37.2891 20.9743 37.5665 21.337C37.6198 21.4223 37.6038 21.497 37.5185 21.561L36.6545 22.457C36.5798 22.5316 36.5051 22.5263 36.4305 22.441C35.9611 21.929 35.3958 21.673 34.7345 21.673C34.1905 21.673 33.7691 21.833 33.4705 22.153C33.1825 22.473 33.0385 22.905 33.0385 23.449C33.0385 23.769 33.0865 24.0463 33.1825 24.281C33.2891 24.505 33.4065 24.697 33.5345 24.857C33.6731 25.017 33.8118 25.145 33.9505 25.241C34.0998 25.3263 34.2171 25.385 34.3025 25.417H37.7745C37.8811 25.417 37.9345 25.4703 37.9345 25.577V26.841C37.9345 26.9476 37.8811 27.001 37.7745 27.001H30.3345C30.1211 27.001 29.9611 26.9423 29.8545 26.825C29.7478 26.697 29.6945 26.489 29.6945 26.201C29.6945 25.8916 29.7478 25.6836 29.8545 25.577C29.9505 25.4703 30.1105 25.417 30.3345 25.417H31.8865Z" fill="#F7B600"/>
<path d="M72.8208 8.7528C74.0497 8.7528 75.046 7.75662 75.046 6.52777C75.046 5.29892 74.0497 4.30273 72.8208 4.30273C71.5919 4.30273 70.5957 5.29892 70.5957 6.52777C70.5957 7.75662 71.5919 8.7528 72.8208 8.7528Z" fill="white"/>
<path d="M79.1452 8.10136C80.0138 7.23282 80.0138 5.82428 79.1452 4.95573C78.2701 4.08068 76.842 4.08719 75.9767 4.97851C75.1536 5.82428 75.1536 7.23282 75.9767 8.08184C76.8452 8.96991 78.2701 8.97966 79.1452 8.10136Z" fill="white"/>
<path d="M51.9653 31.9987C53.2912 31.9987 54.3661 30.9238 54.3661 29.598C54.3661 28.2721 53.2912 27.1973 51.9653 27.1973C50.6393 27.1973 49.5645 28.2721 49.5645 29.598C49.5645 30.9238 50.6393 31.9987 51.9653 31.9987Z" fill="#F7B600"/>
<path d="M59.8831 31.296C60.82 30.3592 60.82 28.8368 59.8831 27.8999C58.9462 26.9631 57.4238 26.9631 56.4869 27.8999C55.55 28.8368 55.55 30.3592 56.4869 31.296C57.4238 32.2361 58.943 32.2361 59.8831 31.296Z" fill="#F7B600"/>
<path d="M100.473 8.7528C101.702 8.7528 102.698 7.75662 102.698 6.52777C102.698 5.29892 101.702 4.30273 100.473 4.30273C99.2438 4.30273 98.2476 5.29892 98.2476 6.52777C98.2476 7.75662 99.2438 8.7528 100.473 8.7528Z" fill="white"/>
<path d="M98.1335 4.46959C99.3552 4.46959 100.346 3.46904 100.346 2.2348C100.346 1.00055 99.3552 0 98.1335 0C96.9118 0 95.9214 1.00055 95.9214 2.2348C95.9214 3.46904 96.9118 4.46959 98.1335 4.46959Z" fill="white"/>
<path d="M97.2713 8.10172C98.1399 7.23318 98.1399 5.82464 97.2713 4.9561C96.4027 4.08755 94.9941 4.08755 94.1256 4.9561C93.257 5.82464 93.257 7.23318 94.1256 8.10172C94.9941 8.97027 96.4027 8.97027 97.2713 8.10172Z" fill="white"/>
<path d="M125.417 7.97461L118.843 13.0655C117.076 14.5196 116.374 16.8585 116.972 19.0087H113.277L108.84 11.0779C108.4 10.2907 107.571 9.80603 106.67 9.80603C104.77 9.80603 103.573 11.8489 104.5 13.5079L105.333 14.9978L107.581 19.0087H105.707L103.462 14.9978L101.276 11.091C100.83 10.2972 99.9944 9.80603 99.0835 9.80603C97.1641 9.80603 95.954 11.8717 96.8909 13.547L97.7041 14.9978L99.9488 19.0087H98.1824L95.9377 14.9978L93.7581 11.1007C93.3092 10.3005 92.4666 9.80603 91.5492 9.80603C89.6136 9.80603 88.3937 11.8879 89.3404 13.5762L90.1374 14.9978L92.382 19.0087H88.0164L85.7684 14.9978L83.5954 11.1137C83.1432 10.307 82.2909 9.80603 81.3637 9.80603C79.4086 9.80603 78.1789 11.9075 79.1321 13.612L82.151 19.0087H77.782L77.7853 19.0022L75.5439 14.9978L74.916 13.8755L73.3513 11.0812C72.9089 10.294 72.0793 9.80603 71.175 9.80603C69.2816 9.80603 68.078 11.8326 68.9856 13.4949L69.7956 14.9815L71.2595 17.6067C71.7475 18.4785 71.7443 19.5389 71.2563 20.4107L66.8516 28.2764H72.9154L75.5341 23.475H105.707H116.761H118.719H124.76H133.384L125.417 7.97461ZM121.748 19.0054C121.361 18.1987 121.579 17.2293 122.281 16.6698L124.237 14.7668L126.491 19.038H124.764V19.0054H121.748Z" fill="white"/>
<path d="M66.8904 20.1677L66.0413 21.6803L65.3159 22.9815L64.6978 24.0843L63.1721 26.807C62.8468 27.3893 62.336 27.8284 61.7374 28.0691C61.4024 28.2058 61.038 28.2773 60.6639 28.2773H49.1674C48.7933 28.2773 48.4289 28.2058 48.0939 28.0691C47.4953 27.8284 46.9845 27.3893 46.6592 26.807L45.1335 24.0843L44.5154 22.9815L43.79 21.6803L42.9409 20.1677C45.4491 19.4748 47.9507 18.9478 47.9507 18.9478L50.5239 22.9815H59.3074L61.8806 18.9478L58.9625 13.6227C58.0126 11.8921 59.2781 9.77766 61.2625 9.80694C62.2091 9.81995 63.0647 10.3827 63.5202 11.2122L66.9034 17.3799C67.3784 18.2484 67.3751 19.3024 66.8904 20.1677Z" fill="white"/>
<path d="M51.8546 16.7734H44.8896C43.6339 16.7734 42.6157 17.7916 42.6157 19.0473C42.6157 20.3029 43.6339 21.3211 44.8896 21.3211H45.8688H51.8513C53.107 21.3211 54.1253 20.3029 54.1253 19.0473C54.1285 17.7916 53.1103 16.7734 51.8546 16.7734Z" fill="#F7B600"/>
</svg>
