<svg width="16" height="16" viewBox="0 0 16 16" fill="none" xmlns="http://www.w3.org/2000/svg">
<path d="M12.3335 15.1667C10.7735 15.1667 9.50016 13.8933 9.50016 12.3333V12C9.50016 11.7267 9.72683 11.5 10.0002 11.5C10.2735 11.5 10.5002 11.7267 10.5002 12V12.3333C10.5002 13.3467 11.3202 14.1667 12.3335 14.1667C13.3468 14.1667 14.1668 13.3467 14.1668 12.3333C14.1668 11.32 13.3468 10.5 12.3335 10.5H1.3335C1.06016 10.5 0.833496 10.2733 0.833496 10C0.833496 9.72667 1.06016 9.5 1.3335 9.5H12.3335C13.8935 9.5 15.1668 10.7733 15.1668 12.3333C15.1668 13.8933 13.8935 15.1667 12.3335 15.1667Z" fill="#5960D9"/>
<path d="M12.3335 8.49967H1.3335C1.06016 8.49967 0.833496 8.27301 0.833496 7.99967C0.833496 7.72634 1.06016 7.49967 1.3335 7.49967H12.3335C13.3468 7.49967 14.1668 6.67967 14.1668 5.66634C14.1668 4.65301 13.3468 3.83301 12.3335 3.83301C11.3202 3.83301 10.5002 4.65301 10.5002 5.66634V5.99967C10.5002 6.27301 10.2735 6.49967 10.0002 6.49967C9.72683 6.49967 9.50016 6.27301 9.50016 5.99967V5.66634C9.50016 4.10634 10.7735 2.83301 12.3335 2.83301C13.8935 2.83301 15.1668 4.10634 15.1668 5.66634C15.1668 7.22634 13.8935 8.49967 12.3335 8.49967Z" fill="#5960D9"/>
<path d="M6.20683 6.49975H1.3335C1.06016 6.49975 0.833496 6.27309 0.833496 5.99975C0.833496 5.72642 1.06016 5.49975 1.3335 5.49975H6.20683C6.92016 5.49975 7.50016 4.91975 7.50016 4.20642C7.50016 3.49309 6.92016 2.91309 6.20683 2.91309C5.49349 2.91309 4.91349 3.49309 4.91349 4.20642V4.45975C4.91349 4.73309 4.68683 4.95975 4.41349 4.95975C4.14016 4.95975 3.91349 4.73309 3.91349 4.45975V4.20642C3.91349 2.93975 4.94016 1.91309 6.20683 1.91309C7.47349 1.91309 8.50016 2.93975 8.50016 4.20642C8.50016 5.47309 7.47349 6.49975 6.20683 6.49975Z" fill="#5960D9"/>
</svg>
