<svg width="24" height="24" viewBox="0 0 24 24" fill="none" xmlns="http://www.w3.org/2000/svg">
<path d="M21.09 6.97758C20.24 6.03758 18.82 5.56758 16.76 5.56758H16.52V5.52758C16.52 3.84758 16.52 1.76758 12.76 1.76758H11.24C7.48004 1.76758 7.48004 3.85758 7.48004 5.52758V5.57758H7.24004C5.17004 5.57758 3.76004 6.04758 2.91004 6.98758C1.92004 8.08758 1.95004 9.56758 2.05004 10.5776L2.06004 10.6476L2.13749 11.4609C2.15176 11.6106 2.23242 11.7459 2.35831 11.8283C2.59812 11.9852 2.99946 12.2439 3.24004 12.3776C3.38004 12.4676 3.53004 12.5476 3.68004 12.6276C5.39004 13.5676 7.27004 14.1976 9.18004 14.5076C9.27004 15.4476 9.68004 16.5476 11.87 16.5476C14.06 16.5476 14.49 15.4576 14.56 14.4876C16.6 14.1576 18.57 13.4476 20.35 12.4076C20.41 12.3776 20.45 12.3476 20.5 12.3176C20.8968 12.0933 21.3083 11.8171 21.6835 11.5464C21.7965 11.4649 21.8688 11.3388 21.8842 11.2003L21.9 11.0576L21.95 10.5876C21.96 10.5276 21.96 10.4776 21.97 10.4076C22.05 9.39758 22.03 8.01758 21.09 6.97758ZM13.09 13.8276C13.09 14.8876 13.09 15.0476 11.86 15.0476C10.63 15.0476 10.63 14.8576 10.63 13.8376V12.5776H13.09V13.8276ZM8.91004 5.56758V5.52758C8.91004 3.82758 8.91004 3.19758 11.24 3.19758H12.76C15.09 3.19758 15.09 3.83758 15.09 5.52758V5.57758H8.91004V5.56758Z" fill="#666666"/>
<path d="M20.8736 13.7329C21.2272 13.5647 21.6344 13.8449 21.599 14.2349L21.2401 18.1887C21.0301 20.1887 20.2101 22.2287 15.8101 22.2287H8.19009C3.79009 22.2287 2.97009 20.1887 2.76009 18.1987L2.41938 14.4509C2.38433 14.0655 2.78229 13.7855 3.13493 13.945C4.27434 14.4605 6.37748 15.3751 7.67666 15.7154C7.84097 15.7584 7.97386 15.876 8.0458 16.0299C8.65277 17.328 9.9692 18.0187 11.8701 18.0187C13.7522 18.0187 15.0852 17.3014 15.6942 16.0001C15.7663 15.8461 15.8993 15.7286 16.0637 15.6853C17.4433 15.3223 19.6819 14.3 20.8736 13.7329Z" fill="#666666"/>
</svg>
